<?xml version="1.0" encoding="UTF-8"?>
<svg id="Layer_1" data-name="Layer 1" xmlns="http://www.w3.org/2000/svg" viewBox="0 0 300 450">
  <defs>
    <style>
      .cls-1 {
        fill: #fff;
        stroke: #000;
      }

      .cls-2 {
        font-size: 64.91px;
      }

      .cls-2, .cls-3 {
        font-family: SourceSerifRoman-Semibold, 'Source Serif Variable';
        font-variation-settings: 'wght' 600;
        font-weight: 600;
      }

      .cls-3 {
        font-size: 64.91px;
      }
    </style>
  </defs>
  <path id="rect6" class="cls-1" d="m25.36.5h248.29c13.73,0,24.86,11.14,24.86,24.89v398.22c0,13.75-11.13,24.89-24.86,24.89H25.36c-13.73,0-24.86-11.14-24.86-24.89V25.39C.5,11.64,11.63.5,25.36.5Z"/>
  <path id="path12" d="m83.54,41.97c-3.34-.07-5.57,1.11-7.8,3.34-2.23,2.23-3.34,4.45-3.34,7.79s1.27,5.32,3.34,7.79c1.98,2.37,3.34,3.34,4.46,5.57,1.11,2.23,2.23,6.68,2.23,8.9v3.34h-2.23c-2.23,0-6.69-2.23-7.8-3.34l-3.34-3.34c-2.23-2.23-4.46-3.34-7.8-3.34s-5.57,1.11-7.8,3.34c-2.23,2.23-3.34,4.45-3.34,7.79s1.11,5.57,3.34,7.79,4.46,3.34,7.8,3.34,5.57-1.11,7.8-3.34l3.34-3.34c1.11-1.11,5.57-3.34,7.8-3.34h2.23c-.06,3.15-.29,8.66-1.11,11.13-1.11,3.34-3.34,6.68-5.57,8.9-2.23,2.23-8.91,6.68-8.91,6.68v1.11s11.14-2.23,13.37-2.23h6.69c2.23,0,13.37,2.23,13.37,2.23v-1.11s-6.69-4.45-8.91-6.68-4.46-5.57-5.57-8.9c-.83-2.47-1.06-7.98-1.11-11.13h2.23c2.23,0,6.69,2.23,7.8,3.34l3.34,3.34c2.23,2.23,4.46,3.34,7.8,3.34s5.57-1.11,7.8-3.34c2.23-2.23,3.34-4.45,3.34-7.79s-1.11-5.57-3.34-7.79-4.46-3.34-7.8-3.34-5.57,1.11-7.8,3.34l-3.34,3.34c-1.11,1.11-5.57,3.34-7.8,3.34h-2.23v-3.34c0-2.23,1.11-6.68,2.23-8.9,1.11-2.23,2.23-3.34,4.46-5.57,2.22-2.21,3.34-4.45,3.34-7.79s-1.11-5.57-3.34-7.79-4.46-3.34-7.8-3.34"/>
  <path id="path14" d="m217.25,41.97c-3.34-.07-5.57,1.11-7.8,3.34-2.23,2.23-3.34,4.45-3.34,7.79s1.27,5.32,3.34,7.79c1.98,2.37,3.34,3.34,4.46,5.57,1.11,2.23,2.23,6.68,2.23,8.9v3.34h-2.23c-2.23,0-6.69-2.23-7.8-3.34l-3.34-3.34c-2.23-2.23-4.46-3.34-7.8-3.34s-5.57,1.11-7.8,3.34c-2.23,2.23-3.34,4.45-3.34,7.79s1.11,5.57,3.34,7.79,4.46,3.34,7.8,3.34,5.57-1.11,7.8-3.34l3.34-3.34c1.11-1.11,5.57-3.34,7.8-3.34h2.23c-.06,3.15-.29,8.66-1.11,11.13-1.11,3.34-3.34,6.68-5.57,8.9-2.23,2.23-8.91,6.68-8.91,6.68v1.11s11.14-2.23,13.37-2.23h6.69c2.23,0,13.37,2.23,13.37,2.23v-1.11s-6.69-4.45-8.91-6.68-4.46-5.57-5.57-8.9c-.83-2.47-1.06-7.98-1.11-11.13h2.23c2.23,0,6.69,2.23,7.8,3.34l3.34,3.34c2.23,2.23,4.46,3.34,7.8,3.34s5.57-1.11,7.8-3.34c2.23-2.23,3.34-4.45,3.34-7.79s-1.11-5.57-3.34-7.79-4.46-3.34-7.8-3.34-5.57,1.11-7.8,3.34l-3.34,3.34c-1.11,1.11-5.57,3.34-7.8,3.34h-2.23v-3.34c0-2.23,1.11-6.68,2.23-8.9,1.11-2.23,2.23-3.34,4.46-5.57s3.34-4.45,3.34-7.79-1.11-5.57-3.34-7.79-4.46-3.34-7.8-3.34"/>
  <path id="path16" d="m83.54,192.24c-3.34-.07-5.57,1.11-7.8,3.34-2.23,2.23-3.34,4.45-3.34,7.79s1.27,5.32,3.34,7.79c1.98,2.37,3.34,3.34,4.46,5.57,1.11,2.23,2.23,6.68,2.23,8.9v3.34h-2.23c-2.23,0-6.69-2.23-7.8-3.34l-3.34-3.34c-2.23-2.23-4.46-3.34-7.8-3.34s-5.57,1.11-7.8,3.34c-2.23,2.23-3.34,4.45-3.34,7.79s1.11,5.57,3.34,7.79,4.46,3.34,7.8,3.34,5.57-1.11,7.8-3.34l3.34-3.34c1.11-1.11,5.57-3.34,7.8-3.34h2.23c-.06,3.15-.29,8.66-1.11,11.13-1.11,3.34-3.34,6.68-5.57,8.9-2.23,2.23-8.91,6.68-8.91,6.68v1.11s11.14-2.23,13.37-2.23h6.69c2.23,0,13.37,2.23,13.37,2.23v-1.11s-6.69-4.45-8.91-6.68-4.46-5.57-5.57-8.9c-.83-2.47-1.06-7.98-1.11-11.13h2.23c2.23,0,6.69,2.23,7.8,3.34l3.34,3.34c2.23,2.23,4.46,3.34,7.8,3.34s5.57-1.11,7.8-3.34c2.23-2.23,3.34-4.45,3.34-7.79s-1.11-5.57-3.34-7.79-4.46-3.34-7.8-3.34-5.57,1.11-7.8,3.34l-3.34,3.34c-1.11,1.11-5.57,3.34-7.8,3.34h-2.23v-3.34c0-2.23,1.11-6.68,2.23-8.9,1.11-2.23,2.23-3.34,4.46-5.57,2.22-2.21,3.34-4.45,3.34-7.79s-1.11-5.57-3.34-7.79-4.46-3.34-7.8-3.34"/>
  <path id="path18" d="m217.25,192.24c-3.34-.07-5.57,1.11-7.8,3.34-2.23,2.23-3.34,4.45-3.34,7.79s1.27,5.32,3.34,7.79c1.98,2.37,3.34,3.34,4.46,5.57,1.11,2.23,2.23,6.68,2.23,8.9v3.34h-2.23c-2.23,0-6.69-2.23-7.8-3.34l-3.34-3.34c-2.23-2.23-4.46-3.34-7.8-3.34s-5.57,1.11-7.8,3.34c-2.23,2.23-3.34,4.45-3.34,7.79s1.11,5.57,3.34,7.79,4.46,3.34,7.8,3.34,5.57-1.11,7.8-3.34l3.34-3.34c1.11-1.11,5.57-3.34,7.8-3.34h2.23c-.06,3.15-.29,8.66-1.11,11.13-1.11,3.34-3.34,6.68-5.57,8.9-2.23,2.23-8.91,6.68-8.91,6.68v1.11s11.14-2.23,13.37-2.23h6.69c2.23,0,13.37,2.23,13.37,2.23v-1.11s-6.69-4.45-8.91-6.68-4.46-5.57-5.57-8.9c-.83-2.47-1.06-7.98-1.11-11.13h2.23c2.23,0,6.69,2.23,7.8,3.34l3.34,3.34c2.23,2.23,4.46,3.34,7.8,3.34s5.57-1.11,7.8-3.34c2.23-2.23,3.34-4.45,3.34-7.79s-1.11-5.57-3.34-7.79-4.46-3.34-7.8-3.34-5.57,1.11-7.8,3.34l-3.34,3.34c-1.11,1.11-5.57,3.34-7.8,3.34h-2.23v-3.34c0-2.23,1.11-6.68,2.23-8.9,1.11-2.23,2.23-3.34,4.46-5.57s3.34-4.45,3.34-7.79-1.11-5.57-3.34-7.79-4.46-3.34-7.8-3.34"/>
  <path id="path20" d="m150.39,117.11c-3.34-.07-5.57,1.11-7.8,3.34-2.23,2.23-3.34,4.45-3.34,7.79s1.27,5.32,3.34,7.79c1.98,2.37,3.34,3.34,4.46,5.57,1.11,2.23,2.23,6.68,2.23,8.9v3.34h-2.23c-2.23,0-6.69-2.23-7.8-3.34l-3.34-3.34c-2.23-2.23-4.46-3.34-7.8-3.34s-5.57,1.11-7.8,3.34c-2.23,2.23-3.34,4.45-3.34,7.79s1.11,5.57,3.34,7.79,4.46,3.34,7.8,3.34,5.57-1.11,7.8-3.34l3.34-3.34c1.11-1.11,5.57-3.34,7.8-3.34h2.23c-.06,3.15-.29,8.66-1.11,11.13-1.11,3.34-3.34,6.68-5.57,8.9-2.23,2.23-8.91,6.68-8.91,6.68v1.11s11.14-2.23,13.37-2.23h6.69c2.23,0,13.37,2.23,13.37,2.23v-1.11s-6.69-4.45-8.91-6.68c-2.23-2.23-4.46-5.57-5.57-8.9-.83-2.47-1.06-7.98-1.11-11.13h2.23c2.23,0,6.69,2.23,7.8,3.34l3.34,3.34c2.23,2.23,4.46,3.34,7.8,3.34s5.57-1.11,7.8-3.34c2.23-2.23,3.34-4.45,3.34-7.79s-1.11-5.57-3.34-7.79-4.46-3.34-7.8-3.34-5.57,1.11-7.8,3.34l-3.34,3.34c-1.11,1.11-5.57,3.34-7.8,3.34h-2.23v-3.34c0-2.23,1.11-6.68,2.23-8.9,1.11-2.23,2.23-3.34,4.46-5.57,2.22-2.21,3.34-4.45,3.34-7.79s-1.11-5.57-3.34-7.79-4.46-3.34-7.8-3.34"/>
  <path id="path22" d="m217.25,409.31c3.34.07,5.57-1.11,7.8-3.34,2.23-2.23,3.34-4.45,3.34-7.79s-1.27-5.32-3.34-7.79c-1.98-2.37-3.34-3.34-4.46-5.57-1.11-2.23-2.23-6.68-2.23-8.9v-3.34h2.23c2.23,0,6.69,2.23,7.8,3.34l3.34,3.34c2.23,2.23,4.46,3.34,7.8,3.34s5.57-1.11,7.8-3.34c2.23-2.23,3.34-4.45,3.34-7.79s-1.11-5.57-3.34-7.79-4.46-3.34-7.8-3.34-5.57,1.11-7.8,3.34l-3.34,3.34c-1.11,1.11-5.57,3.34-7.8,3.34h-2.23c.06-3.15.29-8.66,1.11-11.13,1.11-3.34,3.34-6.68,5.57-8.9,2.23-2.23,8.91-6.68,8.91-6.68v-1.11s-11.14,2.23-13.37,2.23h-6.69c-2.23,0-13.37-2.23-13.37-2.23v1.11s6.69,4.45,8.91,6.68c2.23,2.23,4.46,5.57,5.57,8.9.83,2.47,1.06,7.98,1.11,11.13h-2.23c-2.23,0-6.69-2.23-7.8-3.34l-3.34-3.34c-2.23-2.23-4.46-3.34-7.8-3.34s-5.57,1.11-7.8,3.34c-2.23,2.23-3.34,4.45-3.34,7.79s1.11,5.57,3.34,7.79,4.46,3.34,7.8,3.34,5.57-1.11,7.8-3.34l3.34-3.34c1.11-1.11,5.57-3.34,7.8-3.34h2.23v3.34c0,2.23-1.11,6.68-2.23,8.9-1.11,2.23-2.23,3.34-4.46,5.57-2.22,2.21-3.34,4.45-3.34,7.79s1.11,5.57,3.34,7.79,4.46,3.34,7.8,3.34"/>
  <path id="path24" d="m83.54,409.31c3.34.07,5.57-1.11,7.8-3.34,2.23-2.23,3.34-4.45,3.34-7.79s-1.27-5.32-3.34-7.79c-1.98-2.37-3.34-3.34-4.46-5.57-1.11-2.23-2.23-6.68-2.23-8.9v-3.34h2.23c2.23,0,6.69,2.23,7.8,3.34l3.34,3.34c2.23,2.23,4.46,3.34,7.8,3.34s5.57-1.11,7.8-3.34c2.23-2.23,3.34-4.45,3.34-7.79s-1.11-5.57-3.34-7.79-4.46-3.34-7.8-3.34-5.57,1.11-7.8,3.34l-3.34,3.34c-1.11,1.11-5.57,3.34-7.8,3.34h-2.23c.06-3.15.29-8.66,1.11-11.13,1.11-3.34,3.34-6.68,5.57-8.9,2.23-2.23,8.91-6.68,8.91-6.68v-1.11s-11.14,2.23-13.37,2.23h-6.69c-2.23,0-13.37-2.23-13.37-2.23v1.11s6.69,4.45,8.91,6.68,4.46,5.57,5.57,8.9c.83,2.47,1.06,7.98,1.11,11.13h-2.23c-2.23,0-6.69-2.23-7.8-3.34l-3.34-3.34c-2.23-2.23-4.46-3.34-7.8-3.34s-5.57,1.11-7.8,3.34c-2.23,2.23-3.34,4.45-3.34,7.79s1.11,5.57,3.34,7.79,4.46,3.34,7.8,3.34,5.57-1.11,7.8-3.34l3.34-3.34c1.11-1.11,5.57-3.34,7.8-3.34h2.23v3.34c0,2.23-1.11,6.68-2.23,8.9-1.11,2.23-2.23,3.34-4.46,5.57-2.22,2.21-3.34,4.45-3.34,7.79s1.11,5.57,3.34,7.79,4.46,3.34,7.8,3.34"/>
  <path id="path26" d="m150.39,334.17c3.34.07,5.57-1.11,7.8-3.34,2.23-2.23,3.34-4.45,3.34-7.79s-1.27-5.32-3.34-7.79c-1.98-2.37-3.34-3.34-4.46-5.57-1.11-2.23-2.23-6.68-2.23-8.9v-3.34h2.23c2.23,0,6.69,2.23,7.8,3.34l3.34,3.34c2.23,2.23,4.46,3.34,7.8,3.34s5.57-1.11,7.8-3.34c2.23-2.23,3.34-4.45,3.34-7.79s-1.11-5.57-3.34-7.79-4.46-3.34-7.8-3.34-5.57,1.11-7.8,3.34l-3.34,3.34c-1.11,1.11-5.57,3.34-7.8,3.34h-2.23c.06-3.15.29-8.66,1.11-11.13,1.11-3.34,3.34-6.68,5.57-8.9,2.23-2.23,8.91-6.68,8.91-6.68v-1.11s-11.14,2.23-13.37,2.23h-6.69c-2.23,0-13.37-2.23-13.37-2.23v1.11s6.69,4.45,8.91,6.68c2.23,2.23,4.46,5.57,5.57,8.9.83,2.47,1.06,7.98,1.11,11.13h-2.23c-2.23,0-6.69-2.23-7.8-3.34l-3.34-3.34c-2.23-2.23-4.46-3.34-7.8-3.34s-5.57,1.11-7.8,3.34c-2.23,2.23-3.34,4.45-3.34,7.79s1.11,5.57,3.34,7.79,4.46,3.34,7.8,3.34,5.57-1.11,7.8-3.34l3.34-3.34c1.11-1.11,5.57-3.34,7.8-3.34h2.23v3.34c0,2.23-1.11,6.68-2.23,8.9-1.11,2.23-2.23,3.34-4.46,5.57-2.22,2.21-3.34,4.45-3.34,7.79s1.11,5.57,3.34,7.79,4.46,3.34,7.8,3.34"/>
  <path id="path28" d="m25.05,75.35c-1.25-.03-2.09.42-2.92,1.25s-1.25,1.67-1.25,2.92.48,2,1.25,2.92c.74.89,1.25,1.25,1.67,2.09s.84,2.5.84,3.34v1.25h-.84c-.84,0-2.51-.83-2.92-1.25l-1.25-1.25c-.84-.83-1.67-1.25-2.92-1.25s-2.09.42-2.92,1.25-1.25,1.67-1.25,2.92.42,2.09,1.25,2.92,1.67,1.25,2.92,1.25,2.09-.42,2.92-1.25l1.25-1.25c.42-.42,2.09-1.25,2.92-1.25h.84c-.02,1.18-.11,3.25-.42,4.17-.42,1.25-1.25,2.5-2.09,3.34s-3.34,2.5-3.34,2.5v.42s4.18-.83,5.01-.83h2.51c.84,0,5.01.83,5.01.83v-.42s-2.51-1.67-3.34-2.5-1.67-2.09-2.09-3.34c-.31-.93-.4-2.99-.42-4.17h.84c.84,0,2.51.83,2.92,1.25l1.25,1.25c.84.83,1.67,1.25,2.92,1.25s2.09-.42,2.92-1.25,1.25-1.67,1.25-2.92-.42-2.09-1.25-2.92-1.67-1.25-2.92-1.25-2.09.42-2.92,1.25l-1.25,1.25c-.42.42-2.09,1.25-2.92,1.25h-.84v-1.25c0-.83.42-2.5.84-3.34s.84-1.25,1.67-2.09c.83-.83,1.25-1.67,1.25-2.92s-.42-2.09-1.25-2.92-1.67-1.25-2.92-1.25"/>
  <path id="path30" d="m275.74,373.91c1.25.03,2.09-.42,2.92-1.25s1.25-1.67,1.25-2.92-.48-2-1.25-2.92c-.74-.89-1.25-1.25-1.67-2.09s-.84-2.5-.84-3.34v-1.25h.84c.84,0,2.51.83,2.92,1.25l1.25,1.25c.84.83,1.67,1.25,2.92,1.25s2.09-.42,2.92-1.25,1.25-1.67,1.25-2.92-.42-2.09-1.25-2.92-1.67-1.25-2.92-1.25-2.09.42-2.92,1.25l-1.25,1.25c-.42.42-2.09,1.25-2.92,1.25h-.84c.02-1.18.11-3.25.42-4.17.42-1.25,1.25-2.5,2.09-3.34s3.34-2.5,3.34-2.5v-.42s-4.18.83-5.01.83h-2.51c-.84,0-5.01-.83-5.01-.83v.42s2.51,1.67,3.34,2.5,1.67,2.09,2.09,3.34c.31.93.4,2.99.42,4.17h-.84c-.84,0-2.51-.83-2.92-1.25l-1.25-1.25c-.84-.83-1.67-1.25-2.92-1.25s-2.09.42-2.92,1.25-1.25,1.67-1.25,2.92.42,2.09,1.25,2.92,1.67,1.25,2.92,1.25,2.09-.42,2.92-1.25l1.25-1.25c.42-.42,2.09-1.25,2.92-1.25h.84v1.25c0,.83-.42,2.5-.84,3.34s-.84,1.25-1.67,2.09-1.25,1.67-1.25,2.92.42,2.09,1.25,2.92,1.67,1.25,2.92,1.25"/>
  <text class="cls-3" transform="translate(11.71 66.2) scale(.77 1)"><tspan x="0" y="0">8</tspan></text>
  <text class="cls-2" transform="translate(288.13 383.8) rotate(-180) scale(.77 1)"><tspan x="0" y="0">8</tspan></text>
</svg>