<?xml version="1.0" encoding="utf-8"?>
<!-- Generator: Adobe Illustrator 27.1.1, SVG Export Plug-In . SVG Version: 6.00 Build 0)  -->
<svg version="1.1"
	 id="svg2" xmlns:sodipodi="http://sodipodi.sourceforge.net/DTD/sodipodi-0.dtd" xmlns:svg="http://www.w3.org/2000/svg" xmlns:rdf="http://www.w3.org/1999/02/22-rdf-syntax-ns#" xmlns:cc="http://web.resource.org/cc/" xmlns:inkscape="http://www.inkscape.org/namespaces/inkscape" xmlns:dc="http://purl.org/dc/elements/1.1/"
	 xmlns="http://www.w3.org/2000/svg" xmlns:xlink="http://www.w3.org/1999/xlink" x="0px" y="0px" viewBox="0 0 200 250"
	 style="enable-background:new 0 0 200 250;" xml:space="preserve">
<style type="text/css">
	.st0{fill-rule:evenodd;clip-rule:evenodd;fill:#FFFFFF;stroke:#000000;stroke-width:2;}
	.st1{fill:#FF0000;}
	.st2{font-family:'ArialMT';}
	.st3{font-size:32px;}
	.st4{fill:none;stroke:#FF0000;}
	.st5{fill:#FF9999;stroke:#FF0000;stroke-width:2;stroke-linecap:round;}
	.st6{fill-rule:evenodd;clip-rule:evenodd;fill:#FF0000;stroke:#FF0000;}
	.st7{fill:#C9BCA3;}
	.st8{fill:url(#path1575_00000182519197724950761990000015641289241597989765_);}
	.st9{fill-rule:evenodd;clip-rule:evenodd;fill:url(#path1577_00000170252630038233023470000016766635999588278686_);}
	.st10{fill:#FFFFFF;}
	.st11{fill:#0F90CC;}
	.st12{fill-rule:evenodd;clip-rule:evenodd;fill:url(#path1595_00000108302869511101692900000014593950262255482496_);}
	.st13{fill:#004CB0;}
	.st14{fill-rule:evenodd;clip-rule:evenodd;}
	.st15{fill-rule:evenodd;clip-rule:evenodd;fill:url(#path1601_00000150802404975838003350000008959306834198544785_);}
	.st16{fill-rule:evenodd;clip-rule:evenodd;fill:url(#path1603_00000005959636483195738040000009843667336342481576_);}
	.st17{fill-rule:evenodd;clip-rule:evenodd;fill:url(#path1605_00000121964793671992898900000010403372350274544048_);}
	.st18{fill-rule:evenodd;clip-rule:evenodd;fill:#1647D3;}
	.st19{fill-rule:evenodd;clip-rule:evenodd;fill:url(#path1609_00000101792545710716185140000009175661106333058944_);}
	.st20{fill-rule:evenodd;clip-rule:evenodd;fill:url(#path1611_00000134240893503104340450000000625431625883843512_);}
	.st21{fill:url(#path1613_00000005265809757451471440000014293941680505588666_);}
	.st22{fill:url(#path1615_00000026871495876700622140000008699726028912594094_);}
</style>
<sodipodi:namedview  bordercolor="#666666" borderopacity="1.0" gridspacingx="1px" gridspacingy="1px" gridtolerance="10000" guidetolerance="10" height="250px" id="base" inkscape:current-layer="layer1" inkscape:cx="148.44946" inkscape:cy="127.45417" inkscape:document-units="px" inkscape:grid-points="true" inkscape:guide-bbox="true" inkscape:pageopacity="0.0" inkscape:pageshadow="2" inkscape:window-height="965" inkscape:window-width="977" inkscape:window-x="0" inkscape:window-y="31" inkscape:zoom="2.8284271" objecttolerance="10" pagecolor="#ffffff" showgrid="true" showguides="true" width="200px">
	</sodipodi:namedview>
<g id="layer1" inkscape:groupmode="layer" inkscape:label="Layer 1">
	<path id="path3229" sodipodi:nodetypes="ccccccccc" class="st0" d="M199,10c0-5-4-9-9-9H10c-5,0-9,4-9,9v230c0,5,4,9,9,9h180
		c5,0,9-4,9-9V10z"/>
	<text transform="matrix(1 0 0 1 13.6462 38)" class="st1 st2 st3">J</text>
	<text transform="matrix(1 0 0 1 13.6462 38)" class="st4 st2 st3">J</text>
	<text transform="matrix(-1 0 0 -1 184.9844 213.752)" class="st1 st2 st3">J</text>
	<text transform="matrix(-1 0 0 -1 184.9844 213.752)" class="st4 st2 st3">J</text>
	<rect id="rect5541" x="40" y="27.5" class="st5" width="120" height="195"/>
	<path id="path4486" class="st6" d="M116.3,52.5l18-22l18,21l-18,24L116.3,52.5z"/>
	<path id="path7103" class="st6" d="M48.3,196.5l18-22l18,21l-18,24L48.3,196.5z"/>
	<path id="path4416" class="st6" d="M170.1,199.8l7.2-8.8l7.2,8.4l-7.2,9.6L170.1,199.8z"/>
	<path id="path7106" class="st6" d="M14.1,52.3l7.2-8.8l7.2,8.4l-7.2,9.6L14.1,52.3z"/>
	<g id="g3992" transform="matrix(0.999998,0,0,1,-49.557997,-44.75554)">
		<path id="path1569" sodipodi:nodetypes="cccccccccccccccccc" d="M147.5,125.6c-6,3.8-13.5-3.2-17.5,4.9c-3.5,4.8,7.5,6.2,0.6,10.4
			c-4.8,5.1-4.5,7.4-0.4,8c-1.2,5.7-0.3,15.2,2.3,20.4c-3.2,3.9-0.8,2.6,3.6,3.4c-1.4,2.2-0.6,10-5.2,12.5c-2.3,7-0.6,14.6-1.1,21.9
			c11.3,4.7,24.6,5.3,35.4,2.8c4.7-1,10.1-1.4,9.2-8.1c0.3-8.4,1.3-19.5-7.9-23.8c-5.4-0.8-7.2-4.4-3-9.5c3.1-8.4,6.4-4.9,11.1-7
			c4.9-1.3-7-4.5-5.4-10c-1.5-4.3-3.4-9.3-6.4-12.7c7.7-0.7,8.5-8.7,2.3-10.3c-6.2-4.1-9.8,2.9-14.5-2.4
			C149.6,125.9,148.3,125.4,147.5,125.6z"/>
		<path id="path1573" class="st7" d="M164.9,156.8c0,11.4-7.6,20.7-16.9,20.7c-9.3,0-16.9-9.3-16.9-20.7s7.6-20.7,16.9-20.7
			C157.3,136.1,164.9,145.4,164.9,156.8z"/>
		
			<linearGradient id="path1575_00000085946621210859809520000006883490133783395466_" gradientUnits="userSpaceOnUse" x1="3795.6768" y1="-1780.5344" x2="3946.0144" y2="-1655.5348" gradientTransform="matrix(0.1449 0 0 -0.1449 -405.6574 -56.1846)">
			<stop  offset="0" style="stop-color:#0083CC"/>
			<stop  offset="1" style="stop-color:#24A4CC"/>
		</linearGradient>
		
			<path id="path1575" sodipodi:nodetypes="ccccccc" style="fill:url(#path1575_00000085946621210859809520000006883490133783395466_);" d="
			M144.5,178c-7,0-12.7,5.7-12.7,12.7v14.9c9.4,4.6,29.5,4.9,40.6,0v-14.9c0-7-5.7-12.7-12.7-12.7H144.5z"/>
		
			<linearGradient id="path1577_00000114776204668535666060000016577720612072571564_" gradientUnits="userSpaceOnUse" x1="41.5614" y1="33.5425" x2="66.8216" y2="54.9659" gradientTransform="matrix(1.2554 0 0 -0.7965 86.4484 183.8817)">
			<stop  offset="0" style="stop-color:#F0A700"/>
			<stop  offset="1" style="stop-color:#FFED00"/>
		</linearGradient>
		
			<path id="path1577" sodipodi:nodetypes="cccccc" style="fill-rule:evenodd;clip-rule:evenodd;fill:url(#path1577_00000114776204668535666060000016577720612072571564_);" d="
			M129.3,147.2c2.5-4.5,5.1-13.2,19.1-13.1c21.8,0.6,16.6,23.4,24.5,25.8c-4.9,1.6-7.3,2.9-14.5,0.4c0.8-5.7-0.5-9.9-3.9-12.8
			C150.1,149.8,133.6,148.7,129.3,147.2z"/>
		<g id="g1579" transform="matrix(0.144857,0,0,9.790296e-2,96.89529,133.5385)">
			<path id="path1581" class="st10" d="M349,239.9c0,11.9-9.4,21.5-21,21.5s-21-9.6-21-21.5s9.4-21.5,21-21.5S349,228,349,239.9z"/>
			<path id="path1583" class="st11" d="M331,240.4c0,9.9-5.4,18-12,18c-6.6,0-12-8.1-12-18c0-9.9,5.4-18,12-18
				C325.6,222.4,331,230.4,331,240.4z"/>
			<path id="path1585" d="M322,241.9c0,8-3.4,14.5-7.5,14.5c-4.1,0-7.5-6.5-7.5-14.5c0-8,3.4-14.5,7.5-14.5
				C318.6,227.4,322,233.9,322,241.9z"/>
		</g>
		<g id="g1587" transform="matrix(0.144857,0,0,9.790296e-2,86.80679,133.1976)">
			<path id="path1589" class="st10" d="M349,239.9c0,11.9-9.4,21.5-21,21.5s-21-9.6-21-21.5c0-11.9,9.4-21.5,21-21.5
				S349,228,349,239.9z"/>
			<path id="path1591" class="st11" d="M331,240.4c0,9.9-5.4,18-12,18c-6.6,0-12-8.1-12-18c0-9.9,5.4-18,12-18
				C325.6,222.4,331,230.4,331,240.4z"/>
			<path id="path1593" d="M322,241.9c0,8-3.4,14.5-7.5,14.5c-4.1,0-7.5-6.5-7.5-14.5c0-8,3.4-14.5,7.5-14.5
				C318.6,227.4,322,233.9,322,241.9z"/>
		</g>
		
			<linearGradient id="path1595_00000137853892106097527300000007204912834426236058_" gradientUnits="userSpaceOnUse" x1="3781.9751" y1="-1574.4202" x2="3799.8215" y2="-1550.2325" gradientTransform="matrix(0.1449 0 0 -0.1449 -407.7783 -54.8314)">
			<stop  offset="0" style="stop-color:#C10000"/>
			<stop  offset="1" style="stop-color:#FF433E"/>
		</linearGradient>
		
			<path id="path1595" sodipodi:nodetypes="ccc" style="fill-rule:evenodd;clip-rule:evenodd;fill:url(#path1595_00000137853892106097527300000007204912834426236058_);" d="
			M136.4,170.2c1.8,3.6,6.9,1.9,11.7,0C142.8,170.8,139.2,171.2,136.4,170.2z"/>
		<path id="path1597" sodipodi:nodetypes="ccccc" class="st13" d="M158.6,193.9l1.3,0.1l1.4,14.5l-3.5,0.5L158.6,193.9z"/>
		<path id="path1599" sodipodi:nodetypes="ccccccc" class="st14" d="M138.6,158.1c-0.8,1.3-1.9,3.4-1.8,4.4s1.7,0.8,2.4,1.3l0.3-0.5
			c-0.7-0.5-1.8,0-1.9-0.8c-0.1-0.8,0.7-2.9,1.4-4.1L138.6,158.1z"/>
		
			<linearGradient id="path1601_00000145778375640514502040000017309506982690209457_" gradientUnits="userSpaceOnUse" x1="49.9174" y1="27.7844" x2="53.6292" y2="32.1601" gradientTransform="matrix(1.2301 0 0 -0.813 72.9462 192.9913)">
			<stop  offset="0" style="stop-color:#F0A700"/>
			<stop  offset="1" style="stop-color:#FFED00"/>
		</linearGradient>
		
			<path id="path1601" sodipodi:nodetypes="cccc" style="fill-rule:evenodd;clip-rule:evenodd;fill:url(#path1601_00000145778375640514502040000017309506982690209457_);" d="
			M139.9,165.8c-3.8,0.4-6.1,3.3-8.1,5.4c0,0,6.2-3.5,8.2-3.4C139.9,167.3,140.1,166.7,139.9,165.8z"/>
		
			<linearGradient id="path1603_00000160898146011847951450000013566924121746626223_" gradientUnits="userSpaceOnUse" x1="0.1848" y1="-28.1579" x2="3.0304" y2="-24.553" gradientTransform="matrix(1.3632 0 0 -0.7335 143.844 148.9404)">
			<stop  offset="0" style="stop-color:#F0A700"/>
			<stop  offset="1" style="stop-color:#FFED00"/>
		</linearGradient>
		
			<path id="path1603" sodipodi:nodetypes="cccc" style="fill-rule:evenodd;clip-rule:evenodd;fill:url(#path1603_00000160898146011847951450000013566924121746626223_);" d="
			M140.8,165.7c3.4,0.3,9.8,3,10.1,5.5c0,0-7.9-4.2-9.7-3.6C141.2,167,140.9,166.6,140.8,165.7z"/>
		
			<linearGradient id="path1605_00000047051474425076809030000011235419326796409517_" gradientUnits="userSpaceOnUse" x1="150.1076" y1="173.6933" x2="154.2604" y2="176.8808" gradientTransform="matrix(1 0 0 -1 -5.9116 370.4751)">
			<stop  offset="0" style="stop-color:#F0EB00"/>
			<stop  offset="1" style="stop-color:#FFFF00"/>
		</linearGradient>
		
			<path id="path1605" sodipodi:nodetypes="ccccc" style="fill-rule:evenodd;clip-rule:evenodd;fill:url(#path1605_00000047051474425076809030000011235419326796409517_);" d="
			M138.3,179.6c3.6,11.2,8.7,20.9,14.5,29.5l3.7-0.1c-5.7-9.2-11.7-19.6-15.2-30.8C141.3,178.3,139.2,178.9,138.3,179.6z"/>
		<path id="path1607" sodipodi:nodetypes="ccccccccccccc" class="st18" d="M135.7,176.1l-0.2,10.2l9.3-5.7v1.4l3.7,0.3l-0.1-1.9
			l12.1,5.4l-1.2-12.1l-10.7,5.4l-0.2-1.8l-3.8-0.2v1.9L135.7,176.1z"/>
		
			<linearGradient id="path1609_00000178900002637943956740000008858921064490324895_" gradientUnits="userSpaceOnUse" x1="153.1964" y1="231.3882" x2="161.517" y2="233.8257" gradientTransform="matrix(1 0 0 -1 -9.4391 370.6001)">
			<stop  offset="0" style="stop-color:#F0EB00"/>
			<stop  offset="1" style="stop-color:#FFFF00"/>
		</linearGradient>
		
			<path id="path1609" sodipodi:nodetypes="ccccc" style="fill-rule:evenodd;clip-rule:evenodd;fill:url(#path1609_00000178900002637943956740000008858921064490324895_);" d="
			M135.5,136l-0.5,2.6c7.7,2.2,17.9,1.9,26.8,0.9c0-0.4-0.3-2.5-0.3-2.5C152.8,137.9,142,137.8,135.5,136z"/>
		
			<linearGradient id="path1611_00000044897159841216096410000010451983470402137791_" gradientUnits="userSpaceOnUse" x1="142.8367" y1="234.8165" x2="166.476" y2="240.0526" gradientTransform="matrix(1 0 0 -1 -5.9116 370.4751)">
			<stop  offset="0" style="stop-color:#0083CC"/>
			<stop  offset="1" style="stop-color:#24A4CC"/>
		</linearGradient>
		
			<path id="path1611" sodipodi:nodetypes="ccc" style="fill-rule:evenodd;clip-rule:evenodd;fill:url(#path1611_00000044897159841216096410000010451983470402137791_);" d="
			M147.7,137.6c28.5,3.8,23.5-13.4,1.6-7.6C128.2,122.5,123.1,139.8,147.7,137.6z"/>
		
			<linearGradient id="path1613_00000051379403561209219360000017737166574884255383_" gradientUnits="userSpaceOnUse" x1="154.2356" y1="239.4909" x2="158.9856" y2="241.1784" gradientTransform="matrix(1 0 0 -1 -8.2516 369.5376)">
			<stop  offset="0" style="stop-color:#F0EB00"/>
			<stop  offset="1" style="stop-color:#FFFF00"/>
		</linearGradient>
		
			<path id="path1613" sodipodi:cx="107.09375" sodipodi:cy="56.40625" sodipodi:rx="3.71875" sodipodi:ry="1.65625" sodipodi:type="arc" style="fill:url(#path1613_00000051379403561209219360000017737166574884255383_);" d="
			M152.1,129.2c0,0.9-1.7,1.7-3.7,1.7c-2.1,0-3.7-0.7-3.7-1.7s1.7-1.7,3.7-1.7C150.5,127.5,152.1,128.3,152.1,129.2z"/>
		
			<linearGradient id="path1615_00000060721013273356546980000016511401131547929741_" gradientUnits="userSpaceOnUse" x1="3268.2075" y1="-1334.0707" x2="3026.8181" y2="-1601.0933" gradientTransform="matrix(0.1869 0 0 -0.1449 -408.2156 -68.1531)">
			<stop  offset="0" style="stop-color:#FFFFFF"/>
			<stop  offset="1" style="stop-color:#FFFFFF;stop-opacity:0"/>
		</linearGradient>
		<path id="path1615" style="fill:url(#path1615_00000060721013273356546980000016511401131547929741_);" d="M148.4,127.5
			c-1.8,0-3.1,0.6-3.5,1.4c-12.9-2.7-17.6,4.5-9.5,7.6l-0.4,2.1c-3,2.8-4.4,6.3-5.7,8.7c0.8,0.3,2.2,0.5,3.6,0.7
			c-1.1,2.7-1.7,5.7-1.7,8.9c0,4.5,1.2,8.6,3.2,12c-0.8,0.8-1.7,1.7-2.4,2.4c0,0,1.5-0.8,3-1.5c3,4.6,7.6,7.7,12.8,7.8l-3.1-0.2v0.7
			h-0.1c-0.9,0-1.8,0.1-2.7,0.3l-6.1-2.1l-0.1,5.5c-2.3,2.3-3.8,5.5-3.8,9v14.9c5,2.5,12.9,3.6,20.9,3.5c0,0,0,0,0,0.1l3.7-0.1
			c0-0.1-0.1-0.2-0.2-0.2c0.5,0,1-0.1,1.5-0.1v0.2l3.5-0.5v0c4.1-0.6,8-1.5,11.2-2.8v-14.9c0-7-5.7-12.7-12.7-12.7l-0.4-4.1l-8,4.1
			h-2.8l-0.1-0.5h-0.2c7.9-0.1,14.5-6.8,16.3-15.9c3.1,0.2,5.3-0.7,8.5-1.7c-5.5-1.7-4.7-13.3-11.2-20.4c0,0,0,0,0.1,0
			c0-0.3-0.2-1.6-0.3-2.1c11-2.4,5.5-10.8-9.7-7.9c0.1-0.1,0.4-0.2,0.4-0.4C152.1,128.3,150.5,127.5,148.4,127.5z"/>
	</g>
</g>
</svg>
