<?xml version="1.0" encoding="UTF-8"?>
<svg xmlns="http://www.w3.org/2000/svg" viewBox="0 0 300 450">
  <defs>
    <style>
      .cls-1 {
        font-size: 64.91px;
      }

      .cls-1, .cls-2, .cls-3 {
        fill: #f20000;
      }

      .cls-1, .cls-3 {
        font-family: SourceSerifRoman-Semibold, 'Source Serif Variable';
        font-variation-settings: 'wght' 600;
        font-weight: 600;
      }

      .cls-4 {
        fill: #fff;
        stroke: #000;
      }

      .cls-3 {
        font-size: 64.05px;
      }
    </style>
  </defs>
  <g id="Layer_2" data-name="Layer 2">
    <path id="rect6" class="cls-4" d="m25.5.45h248.29c13.73,0,24.86,11.14,24.86,24.89v398.22c0,13.75-11.13,24.89-24.86,24.89H25.5c-13.73,0-24.86-11.14-24.86-24.89V25.34C.64,11.59,11.77.45,25.5.45Z"/>
  </g>
  <g id="Layer_1" data-name="Layer 1">
    <text class="cls-3" transform="translate(11.95 66.73) scale(.78 1)"><tspan x="0" y="0">9</tspan></text>
    <text class="cls-1" transform="translate(288.37 384.05) rotate(-180) scale(.77 1)"><tspan x="0" y="0">9</tspan></text>
    <path id="path10" class="cls-2" d="m83.8,42.23s6.69,11.13,14.48,18.92c7.8,7.79,18.94,14.47,18.94,14.47,0,0-11.14,6.68-18.94,14.47-7.8,7.79-14.48,18.92-14.48,18.92,0,0-6.69-11.13-14.48-18.92-7.8-7.79-18.94-14.47-18.94-14.47,0,0,11.14-6.68,18.94-14.47,7.8-7.79,14.48-18.92,14.48-18.92"/>
    <path id="path12" class="cls-2" d="m217.51,42.23s6.69,11.13,14.48,18.92c7.8,7.79,18.94,14.47,18.94,14.47,0,0-11.14,6.68-18.94,14.47-7.8,7.79-14.48,18.92-14.48,18.92,0,0-6.69-11.13-14.48-18.92-7.8-7.79-18.94-14.47-18.94-14.47,0,0,11.14-6.68,18.94-14.47,7.8-7.79,14.48-18.92,14.48-18.92"/>
    <path id="path14" class="cls-2" d="m150.66,192.51s6.69,11.13,14.48,18.92c7.8,7.79,18.94,14.47,18.94,14.47,0,0-11.14,6.68-18.94,14.47-7.8,7.79-14.48,18.92-14.48,18.92,0,0-6.69-11.13-14.48-18.92-7.8-7.79-18.94-14.47-18.94-14.47,0,0,11.14-6.68,18.94-14.47,7.8-7.79,14.48-18.92,14.48-18.92"/>
    <path id="path16" class="cls-2" d="m83.8,142.41s6.69,11.13,14.48,18.92c7.8,7.79,18.94,14.47,18.94,14.47,0,0-11.14,6.68-18.94,14.47-7.8,7.79-14.48,18.92-14.48,18.92,0,0-6.69-11.13-14.48-18.92-7.8-7.79-18.94-14.47-18.94-14.47,0,0,11.14-6.68,18.94-14.47,7.8-7.79,14.48-18.92,14.48-18.92"/>
    <path id="path18" class="cls-2" d="m217.51,142.41s6.69,11.13,14.48,18.92c7.8,7.79,18.94,14.47,18.94,14.47,0,0-11.14,6.68-18.94,14.47-7.8,7.79-14.48,18.92-14.48,18.92,0,0-6.69-11.13-14.48-18.92-7.8-7.79-18.94-14.47-18.94-14.47,0,0,11.14-6.68,18.94-14.47,7.8-7.79,14.48-18.92,14.48-18.92"/>
    <path id="path20" class="cls-2" d="m83.8,242.6s6.69,11.13,14.48,18.92c7.8,7.79,18.94,14.47,18.94,14.47,0,0-11.14,6.68-18.94,14.47-7.8,7.79-14.48,18.92-14.48,18.92,0,0-6.69-11.13-14.48-18.92-7.8-7.79-18.94-14.47-18.94-14.47,0,0,11.14-6.68,18.94-14.47,7.8-7.79,14.48-18.92,14.48-18.92"/>
    <path id="path22" class="cls-2" d="m217.51,242.6s6.69,11.13,14.48,18.92c7.8,7.79,18.94,14.47,18.94,14.47,0,0-11.14,6.68-18.94,14.47-7.8,7.79-14.48,18.92-14.48,18.92,0,0-6.69-11.13-14.48-18.92-7.8-7.79-18.94-14.47-18.94-14.47,0,0,11.14-6.68,18.94-14.47,7.8-7.79,14.48-18.92,14.48-18.92"/>
    <path id="path24" class="cls-2" d="m83.8,342.78s6.69,11.13,14.48,18.92c7.8,7.79,18.94,14.47,18.94,14.47,0,0-11.14,6.68-18.94,14.47-7.8,7.79-14.48,18.92-14.48,18.92,0,0-6.69-11.13-14.48-18.92-7.8-7.79-18.94-14.47-18.94-14.47,0,0,11.14-6.68,18.94-14.47,7.8-7.79,14.48-18.92,14.48-18.92"/>
    <path id="path26" class="cls-2" d="m217.51,342.78s6.69,11.13,14.48,18.92c7.8,7.79,18.94,14.47,18.94,14.47,0,0-11.14,6.68-18.94,14.47-7.8,7.79-14.48,18.92-14.48,18.92,0,0-6.69-11.13-14.48-18.92-7.8-7.79-18.94-14.47-18.94-14.47,0,0,11.14-6.68,18.94-14.47,7.8-7.79,14.48-18.92,14.48-18.92"/>
    <path id="path28" class="cls-2" d="m276,351.13s2.51,4.17,5.43,7.1,7.1,5.43,7.1,5.43c0,0-4.18,2.5-7.1,5.43s-5.43,7.1-5.43,7.1c0,0-2.51-4.17-5.43-7.1s-7.1-5.43-7.1-5.43c0,0,4.18-2.5,7.1-5.43s5.43-7.1,5.43-7.1"/>
    <path id="path30" class="cls-2" d="m25.31,75.62s2.51,4.17,5.43,7.1,7.1,5.43,7.1,5.43c0,0-4.18,2.5-7.1,5.43s-5.43,7.1-5.43,7.1c0,0-2.51-4.17-5.43-7.1s-7.1-5.43-7.1-5.43c0,0,4.18-2.5,7.1-5.43s5.43-7.1,5.43-7.1"/>
  </g>
</svg>