<?xml version="1.0" encoding="UTF-8"?>
<svg xmlns="http://www.w3.org/2000/svg" viewBox="0 0 300 450">
  <defs>
    <style>
      .cls-1 {
        font-size: 64.91px;
        letter-spacing: -.12em;
      }

      .cls-1, .cls-2, .cls-3 {
        fill: #f20000;
      }

      .cls-1, .cls-3 {
        font-family: SourceSerifRoman-Semibold, 'Source Serif Variable';
        font-variation-settings: 'wght' 600;
        font-weight: 600;
      }

      .cls-4 {
        fill: #fff;
        stroke: #000;
      }

      .cls-3 {
        font-size: 64.91px;
        letter-spacing: -.12em;
      }
    </style>
  </defs>
  <g id="Layer_2" data-name="Layer 2">
    <path id="rect6" class="cls-4" d="m25,.45h248.29c13.73,0,24.86,11.14,24.86,24.89v398.22c0,13.75-11.13,24.89-24.86,24.89H25c-13.73,0-24.86-11.14-24.86-24.89V25.34C.14,11.59,11.27.45,25,.45Z"/>
  </g>
  <g id="Layer_1" data-name="Layer 1">
    <text class="cls-3" transform="translate(4.15 66.45) scale(.77 1)"><tspan x="0" y="0">10</tspan></text>
    <text class="cls-1" transform="translate(296.57 384.05) rotate(-180) scale(.77 1)"><tspan x="0" y="0">10</tspan></text>
    <path class="cls-2" d="m84.71,42.88s6.69,11.13,14.48,18.92c7.8,7.79,18.94,14.47,18.94,14.47,0,0-11.14,6.68-18.94,14.47-7.8,7.79-14.48,18.92-14.48,18.92,0,0-6.69-11.13-14.48-18.92-7.8-7.79-18.94-14.47-18.94-14.47,0,0,11.14-6.68,18.94-14.47,7.8-7.79,14.48-18.92,14.48-18.92"/>
    <path class="cls-2" d="m272.91,350.78s2.51,4.17,5.43,7.1,7.1,5.43,7.1,5.43c0,0-4.18,2.5-7.1,5.43s-5.43,7.1-5.43,7.1c0,0-2.51-4.17-5.43-7.1s-7.1-5.43-7.1-5.43c0,0,4.18-2.5,7.1-5.43s5.43-7.1,5.43-7.1"/>
    <path class="cls-2" d="m27.22,76.27s2.51,4.17,5.43,7.1,7.1,5.43,7.1,5.43c0,0-4.18,2.5-7.1,5.43s-5.43,7.1-5.43,7.1c0,0-2.51-4.17-5.43-7.1s-7.1-5.43-7.1-5.43c0,0,4.18-2.5,7.1-5.43s5.43-7.1,5.43-7.1"/>
    <path class="cls-2" d="m218.42,42.88s6.69,11.13,14.48,18.92c7.8,7.79,18.94,14.47,18.94,14.47,0,0-11.14,6.68-18.94,14.47-7.8,7.79-14.48,18.92-14.48,18.92,0,0-6.69-11.13-14.48-18.92-7.8-7.79-18.94-14.47-18.94-14.47,0,0,11.14-6.68,18.94-14.47,7.8-7.79,14.48-18.92,14.48-18.92"/>
    <path class="cls-2" d="m218.42,143.06s6.69,11.13,14.48,18.92c7.8,7.79,18.94,14.47,18.94,14.47,0,0-11.14,6.68-18.94,14.47-7.8,7.79-14.48,18.92-14.48,18.92,0,0-6.69-11.13-14.48-18.92-7.8-7.79-18.94-14.47-18.94-14.47,0,0,11.14-6.68,18.94-14.47,7.8-7.79,14.48-18.92,14.48-18.92"/>
    <path class="cls-2" d="m218.42,243.25s6.69,11.13,14.48,18.92c7.8,7.79,18.94,14.47,18.94,14.47,0,0-11.14,6.68-18.94,14.47-7.8,7.79-14.48,18.92-14.48,18.92,0,0-6.69-11.13-14.48-18.92-7.8-7.79-18.94-14.47-18.94-14.47,0,0,11.14-6.68,18.94-14.47,7.8-7.79,14.48-18.92,14.48-18.92"/>
    <path class="cls-2" d="m218.42,343.44s6.69,11.13,14.48,18.92c7.8,7.79,18.94,14.47,18.94,14.47,0,0-11.14,6.68-18.94,14.47-7.8,7.79-14.48,18.92-14.48,18.92,0,0-6.69-11.13-14.48-18.92-7.8-7.79-18.94-14.47-18.94-14.47,0,0,11.14-6.68,18.94-14.47,7.8-7.79,14.48-18.92,14.48-18.92"/>
    <path class="cls-2" d="m84.71,143.06s6.69,11.13,14.48,18.92c7.8,7.79,18.94,14.47,18.94,14.47,0,0-11.14,6.68-18.94,14.47-7.8,7.79-14.48,18.92-14.48,18.92,0,0-6.69-11.13-14.48-18.92-7.8-7.79-18.94-14.47-18.94-14.47,0,0,11.14-6.68,18.94-14.47,7.8-7.79,14.48-18.92,14.48-18.92"/>
    <path class="cls-2" d="m84.71,243.25s6.69,11.13,14.48,18.92c7.8,7.79,18.94,14.47,18.94,14.47,0,0-11.14,6.68-18.94,14.47-7.8,7.79-14.48,18.92-14.48,18.92,0,0-6.69-11.13-14.48-18.92-7.8-7.79-18.94-14.47-18.94-14.47,0,0,11.14-6.68,18.94-14.47,7.8-7.79,14.48-18.92,14.48-18.92"/>
    <path class="cls-2" d="m84.71,343.44s6.69,11.13,14.48,18.92c7.8,7.79,18.94,14.47,18.94,14.47,0,0-11.14,6.68-18.94,14.47-7.8,7.79-14.48,18.92-14.48,18.92,0,0-6.69-11.13-14.48-18.92-7.8-7.79-18.94-14.47-18.94-14.47,0,0,11.14-6.68,18.94-14.47,7.8-7.79,14.48-18.92,14.48-18.92"/>
    <path class="cls-2" d="m151.57,92.97s6.69,11.13,14.48,18.92c7.8,7.79,18.94,14.47,18.94,14.47,0,0-11.14,6.68-18.94,14.47-7.8,7.79-14.48,18.92-14.48,18.92,0,0-6.69-11.13-14.48-18.92-7.8-7.79-18.94-14.47-18.94-14.47,0,0,11.14-6.68,18.94-14.47,7.8-7.79,14.48-18.92,14.48-18.92"/>
    <path class="cls-2" d="m151.57,293.34s6.69,11.13,14.48,18.92c7.8,7.79,18.94,14.47,18.94,14.47,0,0-11.14,6.68-18.94,14.47-7.8,7.79-14.48,18.92-14.48,18.92,0,0-6.69-11.13-14.48-18.92-7.8-7.79-18.94-14.47-18.94-14.47,0,0,11.14-6.68,18.94-14.47,7.8-7.79,14.48-18.92,14.48-18.92"/>
  </g>
</svg>