<?xml version="1.0" encoding="UTF-8"?>
<svg xmlns="http://www.w3.org/2000/svg" viewBox="0 0 300 450">
  <defs>
    <style>
      .cls-1, .cls-2, .cls-3, .cls-4, .cls-5, .cls-6, .cls-7, .cls-8, .cls-9, .cls-10, .cls-11, .cls-12, .cls-13, .cls-14, .cls-15, .cls-16, .cls-17, .cls-18, .cls-19, .cls-20, .cls-21 {
        stroke: #000;
      }

      .cls-1, .cls-2, .cls-3, .cls-4, .cls-5, .cls-6, .cls-7, .cls-9, .cls-19 {
        stroke-linejoin: round;
      }

      .cls-1, .cls-2, .cls-3, .cls-4, .cls-5, .cls-6, .cls-7, .cls-9, .cls-19, .cls-21 {
        stroke-linecap: round;
      }

      .cls-1, .cls-10 {
        fill: #55a;
      }

      .cls-2, .cls-12 {
        fill: #a05a2a;
      }

      .cls-3, .cls-13 {
        fill: #685032;
      }

      .cls-4 {
        fill: #aaf;
      }

      .cls-5, .cls-17 {
        fill: #fa5;
      }

      .cls-6, .cls-16 {
        fill: #fff;
      }

      .cls-7, .cls-8, .cls-20, .cls-21 {
        fill: none;
      }

      .cls-8 {
        stroke-linecap: square;
        stroke-width: 2px;
      }

      .cls-9 {
        fill: #5a5;
        stroke-width: .79px;
      }

      .cls-22, .cls-15, .cls-23 {
        fill: #f20000;
      }

      .cls-11 {
        fill: #a00;
      }

      .cls-14 {
        fill: #f55;
      }

      .cls-18 {
        fill: rgba(160, 90, 42, .98);
      }

      .cls-23 {
        font-family: SourceSerifRoman-Semibold, 'Source Serif Variable';
        font-size: 49.31px;
        font-variation-settings: 'wght' 600;
        font-weight: 600;
      }
    </style>
  </defs>
  <g id="Layer_2" data-name="Layer 2">
    <path id="rect10" class="cls-6" d="m25.64.38h248.29c13.73,0,24.86,11.14,24.86,24.89v398.22c0,13.75-11.13,24.89-24.86,24.89H25.64c-13.73,0-24.86-11.14-24.86-24.89V25.27C.78,11.52,11.91.38,25.64.38Z"/>
  </g>
  <g id="Layer_1" data-name="Layer 1">
    <g id="g26">
      <path id="path28" class="cls-8" d="m41.34,25.12h233.98v317.25"/>
      <path id="path30" class="cls-8" d="m258.61,425.86H24.63V108.6"/>
      <path id="path32" class="cls-8" d="m24.63,225.49h250.7"/>
    </g>
    <path id="_2" data-name="2" class="cls-1" d="m265.6,195.54l-.21,4.7-.21,3.34-.84,2.92-.84,3.13-.73,1.77.31,2.3-.21,3.55-.31,1.98-.94,2.5-.84,2.4-.63,1.04-35.83-.21-.73-1.25-1.15-3.13-.94-1.88-.94-2.82-.63-4.38-.42-4.17.1-2.5-.52-1.98-.42-3.13-.94-3.34-1.25-1.98-.42-2.3-.52-2.3-.52.31-1.15,3.65-1.46,3.44-.63,2.5-1.04,3.44-.73,1.88-.42,2.61.1,3.03-.31,1.15-.1,1.46-.42.63-2.4,1.57-2.61,1.25-3.66.73-3.97.94-3.45.31-3.97.42-2.4-.21,10.34-11.27,7.42-7.83,5.12-6.68,5.64-7.62,7-11.48,2.72-4.9,9.82-16.59,2.82-3.97,5.64-.21.31,30.06-.84.31-3.13,3.97-1.04,1.77-4.39,7.41-1.15,2.3-.94,1.46,3.03,3.86,4.18,2.82,2.92,1.25,4.81-.31,4.07-.83h3.13l4.49-2.09,3.34-1.88,3.86-2.92Z"/>
    <path id="_3" data-name="3" class="cls-10" d="m173.37,134.9l-1.88,32.14s10.05-14.78,14.83-22.33c4.47-7.07,12.95-21.5,12.95-21.5l-12.95-5.01-12.95,16.7Z"/>
    <path id="_4" data-name="4" class="cls-10" d="m81.45,136.78c4.01-2.28,8.26-4.01,12.48-5.82,6.08-2.51,11.59-7.33,17.95-9.19,5.59-2.02,11.19-3,16.79-5.03-.02,8.61.33,17.24.08,25.85-1.14,14.76-2.28,29.52-3.42,44.28-1.39,1.25-2.79,2.5-4.18,3.76-3.84-2.43-8.04,3.5-10.13,1.75-9.86-18.53-19.71-37.06-29.57-55.59h0Z"/>
    <g id="g39">
      <path id="W" class="cls-11" d="m128.04,140.75l-1.67,12.52-.84,15.24-.84,13.57,1.46,36.32,43.25-18.58,2.72-37.78.84-15.24.63-11.06-11.07-11.06-21.31-.42-8.98,6.47-4.18,10.02Z"/>
      <path id="X" class="cls-17" d="m146.21,130.52l-1.46,8.97-.84,11.48-.63,13.78-.21,8.97-.63,10.02,9.19-2.71-.21-13.15.84-18.37,1.25-12.52.63-6.89-4.39.63-3.55-.21Z"/>
      <path id="Y" class="cls-20" d="m149.97,130.94l-1.04,7.1-1.04,9.18-.42,12.73-.42,9.6v7.31l-.21,5.64"/>
      <g id="use44">
        <path id="_0" data-name="0" class="cls-5" d="m138.07,155.78c0,1.84-1.45,3.34-3.24,3.34s-3.24-1.5-3.24-3.34,1.45-3.34,3.24-3.34,3.24,1.5,3.24,3.34Z"/>
      </g>
      <g id="use46">
        <path id="_0-2" data-name="0" class="cls-5" d="m138.59,142.21c0,1.84-1.45,3.34-3.24,3.34s-3.24-1.5-3.24-3.34,1.45-3.34,3.24-3.34,3.24,1.5,3.24,3.34Z"/>
      </g>
      <g id="use48">
        <path id="_0-3" data-name="0" class="cls-5" d="m137.54,169.97c0,1.84-1.45,3.34-3.24,3.34s-3.24-1.5-3.24-3.34,1.45-3.34,3.24-3.34,3.24,1.5,3.24,3.34Z"/>
      </g>
      <g id="use50">
        <path id="_0-4" data-name="0" class="cls-5" d="m165.96,143.04c0,1.84-1.45,3.34-3.24,3.34s-3.24-1.5-3.24-3.34,1.45-3.34,3.24-3.34,3.24,1.5,3.24,3.34Z"/>
      </g>
      <g id="use52">
        <path id="_0-5" data-name="0" class="cls-5" d="m164.91,155.98c0,1.84-1.45,3.34-3.24,3.34s-3.24-1.5-3.24-3.34,1.45-3.34,3.24-3.34,3.24,1.5,3.24,3.34Z"/>
      </g>
      <g id="use54">
        <path id="_0-6" data-name="0" class="cls-5" d="m164.7,169.76c0,1.84-1.45,3.34-3.24,3.34s-3.24-1.5-3.24-3.34,1.45-3.34,3.24-3.34,3.24,1.5,3.24,3.34Z"/>
      </g>
    </g>
    <path id="_5" data-name="5" class="cls-17" d="m108.19,219.23h12.12c1.72-.74,3.51-1.32,5.1-2.33,1.35-.77,2.73-1.5,4-2.38.68-.63,1.23-1.43,2.14-1.74.71-.35,1.42-.71,2.13-1.07-.12-.38.27-1.26-.24-1.25-1.33-.1-2.63.21-3.94.42-1.13-.1-2.3-.09-3.41-.25-1.07-.68-2.23-1.25-3.24-2.01-.94-.97-1.95-1.88-2.84-2.89-.52-.89-1.13-1.75-1.6-2.66-.14-1.71-.53-3.41-.33-5.12.09-.88.02-1.8.2-2.66.39-.74.62-1.59,1.1-2.25.52-.45,1.03-.9,1.55-1.35v-1.46c-.72-.18-1.45-.51-2.16-.6-1.41.54-2.84,1.02-4.13,1.82-1.09.68-2.32,1.05-3.52,1.49-.98,8.77-1.95,17.53-2.92,26.3h0Z"/>
    <path id="_6" data-name="6" class="cls-16" d="m127.34,119.42c-1.8,2.82-2.35,6.26-1.48,9.5.73,3.47,2.65,6.82,1.95,10.46,0,2.66,2.23.83,2.46-.68,2.52-3.53,6.43-5.89,10.47-7.29,3.17-.65,6.45-1.32,9.66-.55,3.24.18,6.53-1.22,9.74-.08,2.94.91,4.06,4.22,6.66,5.75,1.95.68,1.48,3.99,3.16,3.91,1.54-.08,2.3-4.7,4.49-6.3,2.3-3.23,5.79-5.46,7.67-9,1.55-2.65,4.22-4.73,4.53-7.98,1.15-3.98,2.36-8.62-.21-12.34-1.9-3.39-6.03-3.96-9.43-4.9-14.28-3.12-29.79-.39-42.17,7.38-2.39,1.52-5.06,3.21-5.73,6.18-.64,1.96-.94,4.02-1.75,5.92h0Z"/>
    <path id="path60" class="cls-5" d="m25.25,146.52c6.46-3.28,7.77-10.13,8.1-15.43,5.1,1.33,11.39,1.78,16.77,1.67,8.03-.48,16.8-3.97,23.45-8.25,3.17,4.1,5.65,9.11,10.3,15.66,8.39,12.43,17.72,24.29,24.67,37.6,2.65,9.13,3.04,13.47,3.03,20.01.05,10.27-1.16,18.01-4.82,24.98-2.05,2.23-2.77,2.63-6.96,2.52h-42.79c-5.95-3.34-12.03-6.48-16.74-11.56-5.79-6.1-9.14-10.72-15.22-16.83.14-16.7.07-33.68.21-50.38h0Z"/>
    <path id="Z" class="cls-4" d="m24.97,168.42c1.9-.68,4.01-.96,5.77-1.88,2.66-2.32,5.41-4.62,7.67-7.33,1.57-2.16,3.32-4.22,4.16-6.8.48-1.14.95-2.88,2.55-2.58,3.21.02,6.44.13,9.59-.57,4.11-.8,8.27-1.76,12.07-3.53,1.6-.98,1.91-1.03,2.92.74,3.42,5.62,6.96,10.3,10.93,15.54,4.13,5.87,6.36,9.26,8.83,14.06,1.47,2.57,2.53,4.82,3.38,7.67,1.06,3.36,1.74,6.84,1.9,10.36.47,6.35-.56,12.7-1.82,18.91-3.07.95-6.33.77-9.5,1.01-4.01-.49-8.07-.67-12.04-1.34-4.42-1.34-8.97-2.63-12.8-5.3-2.33-1.58-5.12-2.5-6.98-4.72-2.82-2.92-5.56-5.94-8.15-9.06-4.44-5.82-6.91-7.88-11.59-13.51-1.25-1.56-4.62-5.17-6.82-7.4-.03-1.42-.05-2.84-.08-4.26h0Z"/>
    <path id="a" class="cls-7" d="m24.83,165.38l3.55-1.04,3.55-2.3,4.18-4.38,2.92-4.17,1.67-4.8.63-1.67,1.04-.42,4.6.63,6.06-.42,6.89-1.25,4.18-1.46,2.92-1.25c1.39-.48,1.54-.86,2.72-1.04l5.85,8.77s7.7,10.96,11.49,16.49c2.04,2.98,4.45,5.74,6.06,8.97,1.73,3.49,2.95,7.25,3.76,11.06.8,3.76,1.12,7.64,1.04,11.48-.04,2.11-.51,4.18-.84,6.26-.37,2.37-1.25,7.1-1.25,7.1l-1.25,3.76-5.85.83-6.89-.21-6.69-.83-6.69-1.04-7.1-2.5-6.69-3.55-5.22-3.34-3.34-3.76-16.92-19.62-4.39-5.43v-10.85Z"/>
    <path id="b" class="cls-7" d="m24.83,149.93c2.34-.86,5.25-1.29,6.45-3.75,2.27-2.94,4.2-6.27,4.63-10.02,1.58-.88,3.45.36,5.18.27,3.91.57,7.94.64,11.77-.45,4.45-.86,8.98-1.65,13.03-3.81,2.06-.91,6.58-3.31,6.58-3.31,0,0,.39.52,3.94,5.61,8.57,12.68,16.29,23.46,24.73,36.22,2.31,3.73,4.64,7.51,5.68,11.82,2.02,7.26,1.51,14.87,1.79,22.32-1.37,6.29-1.92,13.04-5.48,18.57-.75,1.61-1.99,2.27-3.74,1.88h-35.28c-5.15-2.49-10.62-4.52-15.23-7.9-5.15-3.78-9.61-8.48-13.52-13.57-3.46-3.94-6.8-8.02-10.73-11.51.07-14.12.14-28.25.21-42.37h0Z"/>
    <g id="use65">
      <path id="_1" data-name="1" class="cls-4" d="m42.38,142.21c0,1.5-1.22,2.71-2.72,2.71s-2.72-1.21-2.72-2.71,1.22-2.71,2.72-2.71,2.72,1.21,2.72,2.71Z"/>
    </g>
    <g id="use67">
      <path id="_1-2" data-name="1" class="cls-4" d="m57.84,140.33c0,1.5-1.22,2.71-2.72,2.71s-2.72-1.21-2.72-2.71,1.22-2.71,2.72-2.71,2.72,1.21,2.72,2.71Z"/>
    </g>
    <g id="use69">
      <path id="_1-3" data-name="1" class="cls-4" d="m72.88,136.16c0,1.5-1.22,2.71-2.72,2.71s-2.72-1.21-2.72-2.71,1.22-2.71,2.72-2.71,2.72,1.21,2.72,2.71Z"/>
    </g>
    <g id="use71">
      <path id="_1-4" data-name="1" class="cls-4" d="m82.29,147.22c0,1.5-1.22,2.71-2.72,2.71s-2.72-1.21-2.72-2.71,1.22-2.71,2.72-2.71,2.72,1.21,2.72,2.71Z"/>
    </g>
    <g id="use73">
      <path id="_1-5" data-name="1" class="cls-4" d="m92.94,162.87c0,1.5-1.22,2.71-2.72,2.71s-2.72-1.21-2.72-2.71,1.22-2.71,2.72-2.71,2.72,1.21,2.72,2.71Z"/>
    </g>
    <g id="use75">
      <path id="_1-6" data-name="1" class="cls-4" d="m102.55,179.15c0,1.5-1.22,2.71-2.72,2.71s-2.72-1.21-2.72-2.71,1.22-2.71,2.72-2.71,2.72,1.21,2.72,2.71Z"/>
    </g>
    <g id="use77">
      <path id="_1-7" data-name="1" class="cls-4" d="m105.89,197.94c0,1.5-1.22,2.71-2.72,2.71s-2.72-1.21-2.72-2.71,1.22-2.71,2.72-2.71,2.72,1.21,2.72,2.71Z"/>
    </g>
    <g id="use79">
      <path id="_1-8" data-name="1" class="cls-4" d="m100.46,219.85c0,1.5-1.22,2.71-2.72,2.71s-2.72-1.21-2.72-2.71,1.22-2.71,2.72-2.71,2.72,1.21,2.72,2.71Z"/>
    </g>
    <g id="use81">
      <path id="_1-9" data-name="1" class="cls-4" d="m83.12,221.1c0,1.5-1.22,2.71-2.72,2.71s-2.72-1.21-2.72-2.71,1.22-2.71,2.72-2.71,2.72,1.21,2.72,2.71Z"/>
    </g>
    <g id="use83">
      <path id="_1-10" data-name="1" class="cls-4" d="m66.62,219.23c0,1.5-1.22,2.71-2.72,2.71s-2.72-1.21-2.72-2.71,1.22-2.71,2.72-2.71,2.72,1.21,2.72,2.71Z"/>
    </g>
    <g id="use85">
      <path id="_1-11" data-name="1" class="cls-4" d="m51.16,210.25c0,1.5-1.22,2.71-2.72,2.71s-2.72-1.21-2.72-2.71,1.22-2.71,2.72-2.71,2.72,1.21,2.72,2.71Z"/>
    </g>
    <g id="use87">
      <path id="_1-12" data-name="1" class="cls-4" d="m38,196.48c0,1.5-1.22,2.71-2.72,2.71s-2.72-1.21-2.72-2.71,1.22-2.71,2.72-2.71,2.72,1.21,2.72,2.71Z"/>
    </g>
    <g id="use89">
      <path id="_1-13" data-name="1" class="cls-4" d="m30.27,156.61c0,1.5-1.22,2.71-2.72,2.71s-2.72-1.21-2.72-2.71,1.22-2.71,2.72-2.71,2.72,1.21,2.72,2.71Z"/>
    </g>
    <g id="g91">
      <path id="path93" class="cls-18" d="m123.3,189.22c3.26-2.49,4.91-4.37,9.55-7.17,2.4-1.45,3.04-2.96,6.26-3.74s8.83-.9,11.93-1.37c3.69-.56,4.6-.22,8.42.09,1.39-.02,6.89-.92,5.67.26-2.7,4.02-7.66,9.69-11.71,14.36-3.64,4.19-6.67,9.16-11.29,12.23-1.78,1.19-4.16,1.16-6.03,2.2-1.12.62-1.89,1.77-3.02,2.36-2.4,1.22-5.13,2.78-7.77,2.24-2.47-.51-4.58-2.62-5.85-4.8-1.46-2.5-1.61-5.67-1.47-8.56.09-1.83.39-3.8,1.44-5.31.9-1.31,2.6-1.82,3.86-2.79h0Z"/>
      <path id="c" class="cls-2" d="m159.78,184.13s-4.94-.88-7.43-.84c-2.26.04-6.72,1-6.72,1"/>
      <path id="d" class="cls-2" d="m153.14,191.5s-3.48-.61-5.24-.59c-1.37.02-4.08.55-4.08.55"/>
      <path id="e" class="cls-2" d="m148.09,197.55s-2.99-.27-4.48-.13c-.66.06-1.94.42-1.94.42"/>
      <path id="f" class="cls-2" d="m136.94,197.8c.06-.72.87-1.02,1.03-1.62"/>
      <path id="g" class="cls-2" d="m136.8,191.89c.25-.47.84-.68,1.18-1.03"/>
      <path id="h" class="cls-2" d="m137.38,185.55c.04-.68.75-1.03,1.33-1.18"/>
    </g>
    <path id="_7" data-name="7" class="cls-11" d="m120.39,219.34l6.35-3.25,5.17-3.25,4.88-4.28,4.88-4.43,8.72-8.86,7.54-9.59,7.09-9.15,7.54-10.63,10.64-16.53,10.04-15.5,5.32-10.04,3.84-6.64,9.01,5.46,6.8,4.43,5.02,4.43,1.92.89-3.69,7.67-9.45,17.27-10.34,16.23-14.33,18.89-8.72,10.18-8.86,8.71-9.16,7.97h-40.18Z"/>
    <path id="_8" data-name="8" class="cls-20" d="m128.37,219.33c11.54-5.99,19.48-16.6,27.72-26.31,16.62-19.59,30.29-41.6,43.22-63.81,1.93-3.44,3.8-6.92,5.61-10.43"/>
    <path id="_9" data-name="9" class="cls-20" d="m222.41,130.82c-11.24,27.38-28.8,50.62-48.12,72.12-5.08,5.65-12.13,12.06-18.72,16.39"/>
    <path id="A" class="cls-10" d="m127.35,54.26c-3.23,1.09-6.88-.96-8.83-3.56-2.73-3.18-1.22-7.7.13-11.14,2.31-4.01,6.42-6.54,10.04-9.26,8.84-4.52,19.09-4.71,28.8-4.84,7.4.11,15.07.43,21.97,3.32,6.5,3.29,13.02,8.99,17.24,15.29,4.77,6.3,8.82,13.3,9.4,21.42.17,3.57-3.02,6.11-5.81,7.74-3.4,1.03-7.76.96-10.29-1.9-4.28-3.77-6.29-9.28-9.85-13.61-3.53-3.87-8.7-5.57-13.41-7.51-8.38-2.38-17.19-2.91-25.86-3.01-4.43.4-9.52.31-12.94,3.61-.91,1.05.14,2.48-.6,3.44h0Z"/>
    <path id="i" class="cls-3" d="m127.83,58.3c-2.46,2.01-3.52,6.19-6.03,8.68-1.72,3.87,1.12,8.57-1.26,12.2-1.52,3.03-.72,6.77-3.99,8.97-1,4.28-.21,8.11-2.53,12.15-1.95,1.52.73,5.97-3.67,3.98-5.92.47-2.27,9.41-6.91,11.22-2.61,3.04-.7,7.07,2.1,8.63,2.52,1.95,6-2.55,9.35-1.96,3.9-.75,7.77-1.48,11.17-3.58,3.03-2.2,6.18-2.09,8.12-4.5,2.26-2.81,2.6-6.08,3.08-10.35,2.09-11.15,3.98-22.83,1.18-34.03-1.33-5.26-5-10.3-10.6-11.41h0Z"/>
    <path id="j" class="cls-7" d="m115.72,95.11c.58,1.82-.22,8.35-.87,10.48-.56,1.84-.11,5.28-2.07,5.54-1.54.21-4.89-1.54-3.46-3.37,1-1.27,2.98.02,2.98.02"/>
    <path id="k" class="cls-7" d="m127.33,69.72c-2.28,6.27-2.92,12.93-4.37,19.4-.52,2.34-1.25,4.65-1.57,7.03-.59,4.5.8,9.28-.56,13.6-.62,1.97-2.17,3.53-3.34,5.24-1.32,1.93-2.07,4.56-4.13,5.66-1.78.95-4.82,1.83-6.06.24-1.14-1.46-.28-5.19,1.57-5.34,1.13-.09,3.71,1.92,1.47,3.06"/>
    <path id="l" class="cls-7" d="m104.97,114.32c1.69-1.54,4.55-1.74,6.65-.58,1.62,1.05,3.63-.05,4.32-1.63,1.06-1.56,1.68-3.9,1.78-5.84.55-2.09.75-4.24.75-7.45.93-2.95.27-3.63,1.31-6.8.44-4.18,1.51-6.94,2.63-9.63,1.49-3.27,1.33-6.91,1.57-10.41.4-3.08,1.33-6.36,3.61-8.59"/>
    <path id="m" class="cls-20" d="m127.33,83.14c-1.56,3.43-2.14,7.19-2.74,10.89-.63,3.87-.28,7.85-.87,11.72-.58,3.82-1.06,7.77-2.64,11.3-.8,1.8-2.09,3.36-3.39,4.84"/>
    <path id="n" class="cls-20" d="m127.33,94.04c-.39,5.3-.52,10.65-1.47,15.88-.5,2.79-.92,5.7-2.24,8.2-.51.97-1.33,1.76-2.13,2.51"/>
    <path id="o" class="cls-7" d="m126.57,118.35c.93-3.3,2.29-4.23,2.38-8.82.04-2,1.93-3.8,1.11-5.91"/>
    <path id="p" class="cls-7" d="m133.16,108.47c-1.46,1.9-1.11,2.48-1.63,3.73-.56,1.38-.6,2.79-1.61,4.16"/>
    <path id="B" class="cls-12" d="m128.25,54.55c-1.03,1.76-.7,4.02-.84,6.05-.11,1.67-.09,3.34,0,5.01.07,1.33.31,2.64.42,3.97.1,1.18.21,2.36.21,3.55,0,2.09-.18,4.18-.42,6.26-.15,1.26-.52,2.49-.63,3.76-.18,2.15-.09,4.32,0,6.47.07,1.74.04,3.51.42,5.22.3,1.38,1.04,2.62,1.46,3.97.41,1.3.52,2.7,1.04,3.97.53,1.27,1.37,2.38,2.09,3.55.81,1.33,1.6,2.69,2.51,3.97.78,1.09,1.88,1.95,2.51,3.13.55,1.03.67,2.23,1.04,3.34.33.98.6,1.99,1.04,2.92.52,1.1,1.22,2.11,1.88,3.13,1,1.56,1.87,3.23,3.13,4.59.91.98,1.95,1.89,3.13,2.5.9.47,1.91.75,2.92.83,1.33.12,2.67-.13,3.97-.42,1.65-.37,3.39-.74,4.81-1.67,1.98-1.3,3.17-3.51,4.81-5.22,1.5-1.56,3.1-3.02,4.6-4.59,1.36-1.43,2.71-2.87,3.97-4.38.95-1.14,1.85-2.34,2.72-3.55,1.17-1.63,2.5-3.19,3.34-5.01,1.37-2.96,2.31-6.16,2.72-9.39.29-2.28,0-4.6-.21-6.89-.33-3.58-.91-7.13-1.67-10.64-.55-2.54-1.35-5.03-2.09-7.51-.79-2.66-1.6-5.31-2.51-7.93-1.1-3.16-1.24-6.97-3.55-9.39-1.67-1.76-4.36-2.22-6.69-2.92-3.52-1.06-7.19-1.72-10.86-1.88-2.44-.11-4.87.49-7.31.63-2.78.15-5.6-.2-8.36.21-2.07.31-4.18.74-6.06,1.67-1.33.66-2.8,1.43-3.55,2.71Z"/>
    <path id="C" class="cls-14" d="m135.45,100.78c.27-.83,1.23-1.07,1.86-1.57.46-.35.75-1,1.41-1.02.74-.09,1.63.02,2.07.69.44.41,1.32.35,1.33-.29.37-.31,1.33-.27,1.75-.25,1.18.25,1.73.77,2.78,1.36.44.22,1.1.39,1.13.98-.18.65-1.14.46-1.45,1.04-.69.82-1.1.95-1.84,1.72-.56.72-1.22,1.5-2.18,1.62-1.14.18-2.3-.09-3.41-.35-.73-.2-1.48-.61-1.72-1.38-.19-.66-.63-.31-.99-.88-.28-.48-.51-1-.74-1.51v-.08s0-.08,0-.08h0Z"/>
    <path id="D" class="cls-17" d="m128.55,55.01c1.67-.11,2.34-.92,4.61-1.58,2.72-1.17,5.59-1.41,8.49-1.24,5.33.02,10.71-.32,16,.46,5.49,1.19,11.06,2.45,16.11,5,1.71,1,3.34,2.14,5.01,3.18,1.95.31,2.68-2.97,1.25-4.06-1.93-2.03-4.72-2.82-7.08-4.21-7.57-3.58-15.96-5.13-24.28-5.56-5.9-.08-12.01-.31-17.64,1.74-1.92.66-3.74,2.33-4.28,4.5s.12,1.91,1.8,1.8h0Z"/>
    <path id="E" class="cls-7" d="m127.41,64.98c2.47.18,4.94.24,7.42.22,1.05.79,2.72,1.37,2.75,2.92.16,1.71.7,3.41.56,5.14-.27,1.61-.91,3.13-1.24,4.73-.71,2.8-1.45,5.6-1.97,8.43-.6,2.24.18,3.24,1.65,3.91.71.87,1.07,2.31,2.34,2.5,1.74-.03,1.87-2.26,3.24-2.85,1.18-.34,2.41.28,3.17,1.17,1.35.25,1.84-1.43,1.66-2.48-.16-1.04-.86-2-1.84-2.39"/>
    <path id="F" class="cls-21" d="m165.22,68.74c-1.17-.67-2.39-1.27-3.43-2.13-.61-.61-1.13-1.41-2.05-1.57-1.37-.31-2.77.04-4.15-.07-1.82-.04-3.64,0-5.46.06-.88.09-1.77.31-2.57.71-.85.42-.68,1.41-.51,2.16"/>
    <path id="G" class="cls-7" d="m128.25,70.2s2.34-.83,3.55-.83,2.39.46,3.55.83c.85.28,2.48,1.03,2.48,1.03"/>
    <path id="H" class="cls-16" d="m128.5,72.5s2.77-.64,4.34-.83c.76-.09,1.58-.05,2.3.21,1.04.37,2.72,1.88,2.72,1.88l-1.04,2.71s-1.8.46-2.72.63c-1.04.19-2.59-.59-3.59-.59-1-.04-2.42-1.24-2.42-1.24l.42-2.76Z"/>
    <path id="I" class="cls-7" d="m149.35,71.45s1.6-1.01,2.51-1.25c1.21-.32,2.51-.17,3.76-.21.7-.02,1.41-.13,2.09,0,1.1.21,2.14.73,3.13,1.25.89.47,1.67,1.11,2.51,1.67.21.14.63.42.63.42"/>
    <path id="J" class="cls-6" d="m149.35,75.63c.52-.73.93-1.59,1.67-2.09.6-.41,1.37-.52,2.09-.63,1.52-.22,3.07-.13,4.6,0,1.2.1,4.52,1.02,4.8,1.59.51,1.06-3.43,2.69-4.38,3.01-1.12.38-2.37.3-3.55.21-.99-.08-2-.25-2.92-.63-.84-.34-1.78-.64-2.3-1.46Z"/>
    <path id="K" class="cls-9" d="m156.97,75.32c0,1.26-.98,2.29-2.19,2.29s-2.19-1.03-2.19-2.29.98-2.29,2.19-2.29,2.19,1.03,2.19,2.29Z"/>
    <path id="M" class="cls-19" d="m155,75.31c0,.29-.22.52-.5.52s-.5-.23-.5-.52.22-.52.5-.52.5.23.5.52Z"/>
    <path id="O" class="cls-14" d="m135.45,100.99c.79-.06,1.58-.06,2.36-.24.64-.18.87.6,1.43.7.83.22,1.73.35,2.58.17.55-.17.98-.58,1.5-.82.53-.36,1.19-.44,1.81-.3.69.05,1.33.37,2.02.38.14,0,.28-.06.42-.1"/>
    <path id="P" class="cls-13" d="m139.53,95.25c-.86.71-.63,2.04-1.37,2.86-.63,1.33-1.74,2.5-3.25,2.73-1.52.35-3.25.21-4.44-.88-1.03-1.09-2.91-.96-3.71-2.24.29-1.45,2.27-.08,3.17.22,1.34.79,2.52-.88,2.99-1.96.34-1.59,1.91-1.52,3.16-1.66,1.01-.5,1.99-1.13,3.16-1.15,1.62-.2,3.26,0,4.8.52,1.48.46,3.38-.52,4.54.83.91,1.15,1.74,2.38,2.82,3.37,1.53.96,3.5.56,5.14.12.96-.52,1.95-1.09,3.09-.95,1.27-.12,3.03,1.14,2.39,2.48-1.42,1.04-1.55-1.68-2.93-.9-1.58.55-3.1,1.26-4.51,2.17-1.63.59-3.4.39-5.09.65-1.18.18-2.07-.7-2.73-1.56-.97-1.02-2.44-1.29-3.51-2.18-1.1-.54-1.82-1.57-2.2-2.58-.47-.22-1.05-.16-1.49.11h0Z"/>
    <path id="Q" class="cls-7" d="m136.2,112.49c.96,1.08,1.69,2.44,2.87,3.28,1.52,1.07,3.39,1.55,5.18,2.06.62.18,1.26.32,1.9.34,1.99.06,4.02-.13,5.92-.69,1.61-.48,3.04-1.44,4.52-2.23,1.59-.85,3.24-1.63,4.68-2.71,2.11-1.58,3.89-3.57,5.74-5.44.58-.59,1.16-1.2,1.69-1.84"/>
    <path id="q" class="cls-4" d="m247.14,25.27l-.59,5.61-2.07,10.33-1.48,5.31-1.18,4.43-1.77,3.54v1.77l5.02.3-.3,11.51-1.77,1.18v2.36l-1.48.89-.3,1.18,2.36.59v16.53l.21,37.26,8.31,4.88-.42-41.69.85-17.17,1.39-.99.59-.89-.3-3.25-1.77-.89-.3-.89-.3-10.63,5.09.52.23-1.11-2.36-7.08-2.07-8.86-1.18-7.08-.89-4.13-.3-3.54h-3.25Z"/>
    <path id="r" class="cls-4" d="m227.05,36.19c-2.83,3.75-6.03,7.23-8.57,11.18-2.2,3.42-4.22,6.99-5.73,10.77-1.37,3.43-2.34,7.03-2.95,10.68-.69,4.1-.94,8.3-.77,12.46.15,3.71.68,7.41,1.57,11.01.81,3.29,1.97,6.51,3.4,9.59,1.93,4.13,4.27,8.1,6.95,11.79,1.53,2.1,3.05,4.32,5.16,5.83.81.58,2.02,2.92,2.75,1.16,2.55-3.36,5.09-6.72,7.64-10.09-1.16-1.56-2.82-2.84-3.58-4.63-.73-1.74-1.02-3.73-.78-5.6.27-2.09,1.07-4.24,2.45-5.84,1.45-1.67,3.56-2.79,5.68-3.43,2.4-.72,5.01-.13,7.5-.28,2.14.08,4.39-.38,6.32.78,1.36.19,1.65,1.78,1.89,2.89.5,1.08-.94,3.11-.17,3.38,1.5-.15,3.38.56,4.52-.6,1.47-.45,1.16-2.43,1.32-3.71.12-2.22,1.75-3.92,2.77-5.8.94-1.59,2.15-2.96,3.38-4.32-1.36-1.1-2.99-1.96-3.55-3.73-1.17-1.62-1.47-3.55-1.72-5.48-.2-1.52.39-3.21-.77-4.46-.26-1.12-2.67-1.65-2.52-.08-.45,2.01-.62,3.01-2.08,4.45-1.71-.02-3.85-.19-5.6.19-3.95.03-7.99.56-11.82-.33-1.87-.43-3.71-1.23-5.22-2.4-1.33-1.03-2.48-2.38-3.21-3.9-.63-1.3-.96-2.79-.9-4.23.07-1.6.6-3.2,1.39-4.6,1.08-1.92,2.42-3.82,4.39-4.94-3.05-5.9-6.11-11.81-9.16-17.71h0Z"/>
    <path id="s" class="cls-15" d="m224.35,80.17s.38-2.33,1.11-3.06c.73-.73,2.03-1.11,3.06-1.11s2.33.38,3.06,1.11c.73.73,1.11,2.02,1.11,3.06s-.56,2.5-1.11,3.06c-.56.56-1.11.83-1.67,1.39s-.84.56-1.39,1.11l-1.39,1.39c-.56.56-1.39,1.67-1.95,2.78-.56,1.11-.84,2.78-.84,2.78,0,0-.28-1.67-.84-2.78s-1.39-2.23-1.95-2.78l-1.39-1.39c-.56-.56-.84-.56-1.39-1.11-.56-.56-1.11-.83-1.67-1.39-.56-.56-1.11-2.02-1.11-3.06s.38-2.33,1.11-3.06c.73-.73,2.03-1.11,3.06-1.11s2.33.38,3.06,1.11c.73.73,1.11,3.06,1.11,3.06Z"/>
    <path id="t" class="cls-7" d="m245.07,56.55c.53-3.23,1.19-6.44,1.7-9.68.71-3.87.55-6.34,1.14-11.73.21-3.39.24-8.34.7-10.17.8,1.69,1.04,7.07.97,10.29.74,5.71.68,8.67,1.1,11.62.17,2.91,1.05,7.28,1.1,9.45"/>
    <path id="u" class="cls-20" d="m244.78,67.77c2.27.1,7.52-.54,7.21-.02"/>
    <path id="v" class="cls-20" d="m242.71,71.9l11.42-.04"/>
    <path id="R" class="cls-5" d="m263.62,171.43c.53-.65.94-2.38,1.71-1.01.71.62.37,1.82.21,2.65-.34,1.19-.54,2.66.34,3.66.69,1.1,1.52,2.28,1.68,3.56-.43,2.62.35,5.23.66,7.83.16,1.08.69,1.96,1.46,2.71-.06,1-.18,1.97-.99,2.65-2.8,2.19-5.59,4.45-8.77,6.06-2.73,1.4-5.51,3.09-8.67,3.09-2.58.01-5.03,1.26-7.63.83-1.25-.07-2.55.06-3.61-.74-1.76-.89-3.63-1.62-4.99-3.1-1.48-1.13-2.64-2.6-3.56-4.2,2.29-4.3,4.91-8.41,7.52-12.52.57-1.39,1.25-2.73,1.67-4.17,1.14-.37,1.64.61,2.54.98,1.44.48,2.86,1.12,4.41.9,2.2-.11,4.47.34,6.55-.54,2.25-.51,4.27-1.62,6.35-2.59,1.04-1.64,2.29-3.24,3.13-4.96v-1.1h0Z"/>
    <path id="S" class="cls-7" d="m222.05,210.46c.72-1.56,1.4-3.13,2.15-4.67,1.26-1.8,2.49-3.63,3.77-5.42,1.3-1.44,2.6-2.87,3.9-4.31-1.12,1.84-2.28,3.67-3.38,5.52-.82,2-1.67,4-2.48,6.01-.27,1.41-.59,2.81-.83,4.23v5.95"/>
    <path id="T" class="cls-7" d="m262.79,211.71c-1.12,1.83-2.25,3.64-3.37,5.47-.71,1.51-1.39,3.03-2.15,4.51-.04.08-.08.17-.12.25"/>
    <path id="U" class="cls-1" d="m46.35,219.23l-.42,5.84h10.86l-10.45-5.84Z"/>
    <g id="g143">
      <path id="w" class="cls-5" d="m103.8,225.07l109.47-.21s.05-1.53,0-2.3c-.07-1.05-.26-2.09-.42-3.13-.13-.83-.24-1.68-.42-2.5-.17-.77-.23-1.61-.63-2.3-.2-.34-.5-.64-.84-.83-.44-.26-1.46-.42-1.46-.42,0,0-3.3,2.58-5.22,3.34-2.83,1.12-5.95,1.36-8.98,1.67-3.33.34-6.69.15-10.03.21-5.36.09-10.72.13-16.09.21-3.9.06-7.8.13-11.7.21-6.41.13-12.81.4-19.22.42-4.32.01-8.63-.14-12.95-.21-4.25-.07-8.5-.07-12.74-.21-1.39-.05-4.18-.21-4.18-.21,0,0-.99,2.81-1.88,3.97-.72.94-2.72,2.3-2.72,2.3Z"/>
      <path id="x" class="cls-20" d="m107.84,221.11c23.57.27,47.14.31,70.7-.16,6.49-.13,13.32.17,19.46-.72,5.06-.74,7.9-1.36,13.85-4.73"/>
      <path id="y" class="cls-7" d="m107.84,220.96l1.92,3.98,2.36-3.69,2.66,3.84,2.52-3.69,2.22,3.39,2.36-3.25,2.22,3.1,2.81-3.25,2.36,3.69,2.66-3.69,2.22,3.54,2.52-3.39,2.52,3.54,2.52-3.39,2.36,3.25,2.66-3.69,2.07,3.25,2.66-3.1,2.22,3.39,2.66-3.25,1.92,3.25,2.66-3.39,2.36,3.69,2.52-3.69,2.36,3.25,2.81-3.25,2.22,3.39,2.36-3.54,2.22,3.25,2.52-3.39,2.66,3.69,2.36-3.69,2.36,3.54,2.66-3.98,2.66,4.13,2.07-4.28,2.52,4.28,2.36-4.87,2.22,4.43,2.07-5.31,2.66,5.31,1.48-7.08,4.43,7.08"/>
    </g>
    <g id="g148">
      <path id="z" class="cls-5" d="m160.14,218.85l26.82.17s5.56-6.27,8.36-9.39c3.61-4.04,7.5-7.86,10.86-12.11,4.69-5.92,8.93-12.19,12.95-18.58,3.24-5.14,5.91-10.62,8.98-15.86,2.1-3.58,4.47-7.01,6.48-10.64,1.43-2.59,4.43-5.01,3.97-7.93-.91-5.78-12.33-12.52-12.33-12.52h-1.25s-7.99,16.97-12.74,25.05c-4.42,7.52-9.48,14.66-14.62,21.71-4.64,6.37-9.51,12.58-14.62,18.58-3.2,3.75-6.61,7.3-10.03,10.85-1.84,1.92-3.61,3.92-5.64,5.64-2.24,1.88-7.18,5.05-7.18,5.05h0Z"/>
      <path id="_10" data-name="10" class="cls-7" d="m223.93,134.28s3.56,1.81,5.22,2.92c1.4.94,2.73,1.99,3.97,3.13,1.05.97,1.97,2.07,2.92,3.13.86.96,2.51,2.92,2.51,2.92"/>
      <path id="_11" data-name="11" class="cls-7" d="m222.88,136.57s3.56,1.81,5.22,2.92c1.4.94,2.73,1.99,3.97,3.13,1.05.97,1.97,2.07,2.92,3.13.86.96,2.51,2.92,2.51,2.92"/>
      <path id="_12" data-name="12" class="cls-7" d="m221.84,138.87s3.36,1.66,4.92,2.67c1.32.86,2.57,1.82,3.74,2.86.99.88,1.86,1.89,2.76,2.86.81.87,2.36,2.67,2.36,2.67"/>
      <path id="_13" data-name="13" class="cls-7" d="m220.38,141.48s3.31,1.63,4.85,2.62c1.3.84,2.53,1.78,3.69,2.81.98.87,1.83,1.85,2.72,2.81.79.86,2.33,2.62,2.33,2.62"/>
      <path id="_14" data-name="14" class="cls-7" d="m219.12,143.99s3.36,1.66,4.92,2.67c1.32.86,2.57,1.82,3.74,2.86.99.88,1.86,1.89,2.76,2.86.81.87,2.36,2.67,2.36,2.67"/>
      <path id="_15" data-name="15" class="cls-7" d="m217.97,146.64s3.31,1.56,4.85,2.52c1.3.81,2.53,1.72,3.69,2.7.98.83,1.83,1.78,2.72,2.7.79.82,2.33,2.52,2.33,2.52"/>
      <path id="_16" data-name="16" class="cls-7" d="m216.93,148.94s3.16,1.53,4.63,2.47c1.24.79,2.42,1.68,3.52,2.64.93.82,1.75,1.75,2.59,2.64.76.81,2.22,2.47,2.22,2.47"/>
      <path id="_17" data-name="17" class="cls-7" d="m215.88,151.23s3.11,1.56,4.55,2.52c1.22.81,2.38,1.72,3.46,2.7.92.83,1.72,1.78,2.55,2.7.75.82,2.18,2.52,2.18,2.52"/>
      <path id="_18" data-name="18" class="cls-7" d="m214.21,153.64s3.21,1.53,4.7,2.47c1.26.79,2.46,1.68,3.57,2.64.95.82,1.77,1.75,2.63,2.64.77.81,2.26,2.47,2.26,2.47"/>
      <path id="_19" data-name="19" class="cls-7" d="m213.38,156.14s3.06,1.56,4.48,2.52c1.2.81,2.34,1.72,3.4,2.7.9.83,1.69,1.78,2.51,2.7.73.82,2.15,2.52,2.15,2.52"/>
      <path id="_1A" data-name="1A" class="cls-7" d="m211.86,158.21s3.11,1.69,4.55,2.72c1.22.87,2.38,1.85,3.46,2.91.92.9,1.72,1.92,2.55,2.91.75.89,2.18,2.72,2.18,2.72"/>
      <path id="_1B" data-name="1B" class="cls-7" d="m210.19,160.29s3.26,1.72,4.77,2.77c1.28.89,2.5,1.89,3.63,2.97.96.92,1.8,1.96,2.67,2.97.78.91,2.29,2.77,2.29,2.77"/>
      <path id="_1C" data-name="1C" class="cls-7" d="m209.15,163.01s3.16,1.6,4.63,2.57c1.24.82,2.42,1.75,3.52,2.75.93.85,1.75,1.82,2.59,2.75.76.84,2.22,2.57,2.22,2.57"/>
      <path id="_1D" data-name="1D" class="cls-7" d="m207.89,165.19s3.06,1.6,4.48,2.57c1.2.82,2.34,1.75,3.4,2.75.9.85,1.69,1.82,2.51,2.75.73.84,2.15,2.57,2.15,2.57"/>
      <path id="_1E" data-name="1E" class="cls-7" d="m206.01,167.28s3.16,1.63,4.63,2.62c1.24.84,2.42,1.78,3.52,2.81.93.87,1.75,1.85,2.59,2.81.76.86,2.22,2.62,2.22,2.62"/>
      <path id="_1F" data-name="1F" class="cls-7" d="m204.03,169.73s3.31,1.56,4.85,2.52c1.3.81,2.53,1.72,3.69,2.7.98.83,1.83,1.78,2.72,2.7.79.82,2.33,2.52,2.33,2.52"/>
      <path id="_1G" data-name="1G" class="cls-7" d="m202.99,172.03s3.16,1.6,4.63,2.57c1.24.82,2.42,1.75,3.52,2.75.93.85,1.75,1.82,2.59,2.75.76.84,2.22,2.57,2.22,2.57"/>
      <path id="_1H" data-name="1H" class="cls-7" d="m201.73,174.12s3.16,1.6,4.63,2.57c1.24.82,2.42,1.75,3.52,2.75.93.85,1.75,1.82,2.59,2.75.76.84,2.22,2.57,2.22,2.57"/>
      <path id="_1I" data-name="1I" class="cls-7" d="m199.44,176.31s3.41,1.6,5,2.57c1.34.82,2.61,1.75,3.8,2.75,1.01.85,1.89,1.82,2.8,2.75.82.84,2.4,2.57,2.4,2.57"/>
      <path id="_1J" data-name="1J" class="cls-7" d="m198.39,178.82s3.31,1.63,4.85,2.62c1.3.84,2.53,1.78,3.69,2.81.98.87,1.83,1.85,2.72,2.81.79.86,2.33,2.62,2.33,2.62"/>
      <path id="_1K" data-name="1K" class="cls-7" d="m196.19,180.75s3.31,1.66,4.85,2.67c1.3.86,2.53,1.82,3.69,2.86.98.88,1.83,1.89,2.72,2.86.79.87,2.33,2.67,2.33,2.67"/>
      <path id="_1L" data-name="1L" class="cls-7" d="m194.11,183.04s3.46,1.72,5.07,2.77c1.36.89,2.65,1.89,3.86,2.97,1.02.92,1.92,1.96,2.84,2.97.83.91,2.44,2.77,2.44,2.77"/>
      <path id="_1M" data-name="1M" class="cls-7" d="m179.27,202.04s3.16,1.6,4.63,2.57c1.24.82,2.42,1.75,3.52,2.75.93.85,1.75,1.82,2.59,2.75.76.84,2.22,2.57,2.22,2.57"/>
      <path id="_1N" data-name="1N" class="cls-7" d="m192.22,185.86s3.31,1.63,4.85,2.62c1.3.84,2.53,1.78,3.69,2.81.98.87,1.83,1.85,2.72,2.81.79.86,2.33,2.62,2.33,2.62"/>
      <path id="_1O" data-name="1O" class="cls-7" d="m190.76,188.36s3.36,1.66,4.92,2.67c1.32.86,2.57,1.82,3.74,2.86.99.88,1.86,1.89,2.76,2.86.81.87,2.36,2.67,2.36,2.67"/>
      <path id="_1P" data-name="1P" class="cls-7" d="m188.57,190.61s3.31,1.56,4.85,2.52c1.3.81,2.53,1.72,3.69,2.7.98.83,1.83,1.78,2.72,2.7.79.82,2.33,2.52,2.33,2.52"/>
      <path id="_1Q" data-name="1Q" class="cls-7" d="m186.9,193.11s3.26,1.66,4.77,2.67c1.28.86,2.5,1.82,3.63,2.86.96.88,1.8,1.89,2.67,2.86.78.87,2.29,2.67,2.29,2.67"/>
      <path id="_1R" data-name="1R" class="cls-7" d="m185.02,195.62s3.11,1.56,4.55,2.52c1.22.81,2.38,1.72,3.46,2.7.92.83,1.72,1.78,2.55,2.7.75.82,2.18,2.52,2.18,2.52"/>
      <path id="_1S" data-name="1S" class="cls-7" d="m183.14,198.02s3.21,1.53,4.7,2.47c1.26.79,2.46,1.68,3.57,2.64.95.82,1.77,1.75,2.63,2.64.77.81,2.26,2.47,2.26,2.47"/>
      <path id="_1T" data-name="1T" class="cls-7" d="m181.47,200.11s3.06,1.56,4.48,2.52c1.2.81,2.34,1.72,3.4,2.7.9.83,1.69,1.78,2.51,2.7.73.82,2.15,2.52,2.15,2.52"/>
      <path id="_1U" data-name="1U" class="cls-7" d="m169.14,212.73s2.09.94,3.06,1.51c1.58.89,2.85,2.06,4.04,3.24.5.49,1.47,1.51,1.47,1.51"/>
      <path id="_1V" data-name="1V" class="cls-7" d="m177.81,204.01s3,1.63,4.4,2.62c1.18.84,2.3,1.78,3.34,2.81.89.87,1.66,1.85,2.47,2.81.72.86,2.11,2.62,2.11,2.62"/>
      <path id="_1W" data-name="1W" class="cls-7" d="m174.88,206.31s3.26,1.56,4.77,2.52c1.28.81,2.5,1.72,3.63,2.7.96.83,1.8,1.78,2.67,2.7.78.82,2.29,2.52,2.29,2.52"/>
      <path id="_1X" data-name="1X" class="cls-7" d="m173,208.72s3.21,1.53,4.7,2.47c1.26.79,2.46,1.68,3.57,2.64.95.82,1.77,1.75,2.63,2.64.77.81,2.26,2.47,2.26,2.47"/>
      <path id="_1Y" data-name="1Y" class="cls-7" d="m171.33,210.8s2.65,1.22,3.88,1.96c1.04.63,2.03,1.34,2.95,2.11.78.65,1.46,1.39,2.17,2.11.64.64,1.86,1.96,1.86,1.96"/>
      <path id="_1Z" data-name="1Z" class="cls-7" d="m162.72,217.45c1.25.3,2.19.9,2.66,1.36"/>
      <path id="_1a" data-name="1a" class="cls-7" d="m166.9,214.43s2.16,1,3.13,1.67c1.14.78,3.13,2.71,3.13,2.71"/>
      <path id="_1b" data-name="1b" class="cls-7" d="m164.7,215.94c1.86.63,3.26,1.77,4.44,2.87"/>
    </g>
    <g id="g189">
      <path id="_1c" data-name="1c" class="cls-2" d="m256.8,132.08c2.08,1.78,3.83,3.2,3.68,7.23.42,4.94,1.47,9.79,2.22,14.68.3,3.21.67,6.45.18,9.66-.23,2.54-.21,5.13.59,7.57.21,3.02-2.63,5.01-4.51,6.94-2.17,1.58-4.92,1.3-7.39,1.83-1.64.82-2.22-.7-1.99-2.02-.12-6.01-.67-13.05-.79-19.06-2.88-1.82-4.32-2.58-7.29-2.73-2.93-.08-4.18,1.01-4.14-2.86.25-2.94,2.85-4.63,5.69-3.49,2.06.6,1.76.21,3.66,1.35-2.84-.53-2.98-1.18-5.8-1.79-2.01.53-3.56.67-3.75-2.26-1.15-2.91.49-4.15,2.57-5.14,2.63-.12,1.9.67,4.59.34.91.05,2.96,1.4,4.11,1.86-2.6-.33-4.7-2.45-7.36-2.2-1.72-.75-3.52,3.25-5.06-1.75-.16-2.58,2.43-3.98,4.08-5.5,1.37-1.09,3.32-.33,4.85.04,1.59.63,3.32,1.09,4.94,1.53-3.02-.08-5.67-1.99-8.72-1.78-2.9.34-3.84,4.59-5.53,1.78-1.15-2.79.85-5.47,2.66-7.43,1.69-.56,2.39-1.36,4.99-1.6,1.65.49,3.43,1.24,5.05,1.83,2.57.04,5.98,2.52,8.47,2.95h0Z"/>
      <path id="_1d" data-name="1d" class="cls-2" d="m257.36,140.01s.24.9.21,1.36c-.05.72-.63,2.09-.63,2.09"/>
      <path id="_1e" data-name="1e" class="cls-2" d="m256.2,148.89s-.02.71-.1,1.04c-.13.51-.63,1.46-.63,1.46"/>
      <path id="_1f" data-name="1f" class="cls-2" d="m253.8,155.78s-.58,1.98-1.25,2.71c-.38.41-.91.74-1.46.83-.42.07-1.25-.21-1.25-.21"/>
    </g>
    <path id="V" class="cls-17" d="m243.15,225.07h7.31l.05-65.56c-2.52-2.5-4.94-2.69-7.57-3.09l.21,68.66Z"/>
    <path id="_1g" data-name="1g" class="cls-13" d="m166.72,54.86c.54,1.58,1.3,3,1.69,4.57.74,2.93.45,6.07,1.27,8.98.72,2.53,2.08,4.83,3.16,7.23,1,2.21,2.31,4.3,3.08,6.61.44,1.32.72,2.7.84,4.09.29,3.44-.18,6.91-.34,10.36-.06,1.4-.52,2.83-.24,4.21.32,1.6.99,3.24,2.13,4.41.91.93,2.68.76,3.48,1.79,1.71,2.22.43,5.76,1.78,8.21,1.26,2.3,3.52,3.93,5.59,5.53,1.89,1.46,3.81,3.2,6.16,3.65,1.67.32,3.34-.96,5.04-.78,1.88.2,3.41,2.02,5.3,2.01,1.54-.01,2.98-.89,4.29-1.7,1.72-1.06,3.47-2.3,4.53-4.02.52-.85.69-1.89.76-2.88.11-1.72-.03-3.53-.65-5.14-.38-.96-1.01-1.85-1.79-2.51-.97-.83-2.47-.86-3.44-1.69-.59-.51-1.03-1.2-1.32-1.92-.45-1.11-.17-2.43-.62-3.55-1-2.5-2.69-4.71-4.46-6.73-1.27-1.45-3.36-2.15-4.35-3.8-.93-1.55-.84-3.53-1.23-5.3-.37-1.68-.57-3.4-1.05-5.05-.77-2.66-1.41-5.46-2.91-7.8-1.5-2.35-4.15-3.78-5.9-5.95-2.29-2.85-2.38-8.46-5.96-9.23-.97-.21.27,2.42-2.48,1.61-3.52-1.04-5.73-2.66-8.65-3.84-1.22-.49-3.07-1.18-3.7-1.36h0Z"/>
    <path id="_1h" data-name="1h" class="cls-7" d="m170.61,56.64c.77,2.04,1.36,4.13,1.96,6.21.48,1.65.74,3.37,1.32,4.99.95,2.63,2.57,4.98,3.51,7.61.76,2.1,1.2,4.31,1.71,6.49.46,1.97,1.05,3.94,1.23,5.95.24,2.58-.37,5.18-.17,7.76.12,1.57.18,3.21.82,4.64,1.11,2.47,4.12,3.83,5.04,6.37.55,1.53-.26,3.3.13,4.88.34,1.39.87,2.85,1.9,3.85,1.29,1.26,3.24,1.63,4.92,2.29,2.38.93,4.84,1.64,7.29,2.36,1.32.38,2.63.83,3.98,1.04,1.31.2,2.74.69,3.97.19,1.71-.7,3.38-2.25,3.79-4.06.31-1.37-.57-2.81-1.29-4.02-.52-.87-1.14-1.91-2.11-2.19-1.16-.33-2.54.17-3.53.87-.72.51-1.25,1.35-1.46,2.21-.21.87-.35,2.06.3,2.68.59.56,1.73.56,2.44.17.63-.34.7-1.26,1.05-1.89"/>
    <path id="_1i" data-name="1i" class="cls-7" d="m172.78,57.18c1.21,2.1,2.64,4.08,3.73,6.24,1.41,2.79,2.59,5.7,3.62,8.65.79,2.26,1.36,4.59,1.96,6.9.66,2.51,1.5,5.01,1.81,7.59.38,3.19-.81,6.54.01,9.64.22.84.8,1.56,1.3,2.28,1.46,2.13,4,3.59,4.9,6.02.53,1.44-.28,3.12.12,4.6.42,1.57.86,3.33,2.34,4.27,1.69,1.07,4.31,2.9,6.56,2.46,2.24-.44,4.1-3.16,5.43-2.93"/>
    <path id="_1j" data-name="1j" class="cls-7" d="m177.93,59.89c1.84,3.13,3.23,6.52,4.58,9.89,1.63,4.05,3.27,8.14,4.25,12.39.82,3.53.45,7.28,1.35,10.79.52,2.05,1.41,4,2.34,5.9.85,1.75,2.07,3.29,2.94,5.03,1.1,2.19.7,5.63,2.87,6.75,2.15,1.11,4.75-.93,7.08-1.55,1.04-.28,2.27-.29,3.08-.99.64-.55.75-1.5,1.13-2.25"/>
    <path id="_1k" data-name="1k" class="cls-7" d="m181.17,59.89c1.19,2.59,2.87,4.93,4,7.53.95,2.17,1.57,4.46,2.32,6.7,1.1,3.24,2.46,6.4,3.22,9.74.75,3.31.29,6.86,1.28,10.1.85,2.78,2.58,5.2,3.94,7.78.83,1.57,1.02,3.78,2.56,4.66,1.44.83,3.51.66,4.99-.1.75-.38,1.33-1.19,1.51-2.01.22-1.01.13-2.38-.68-3.03-.55-.44-1.63-.52-2.13,0-.43.44-.16,1.26.05,1.84,0,.02.05.06.05.06"/>
    <path id="_1l" data-name="1l" class="cls-7" d="m189.02,69.62c.82,1.74,1.92,3.36,2.57,5.18,1.49,4.15,1.96,8.61,3.02,12.89.66,2.67.63,5.66,2.09,7.99.49.78,1.25,1.43,2.09,1.79,1.66.7,3.61.19,5.38.52.37.07.73.2,1.09.3"/>
    <g id="use206">
      <path id="_2-2" data-name="2" class="cls-1" d="m34.34,255.23l.21-4.7.21-3.34.84-2.92.84-3.13.73-1.77-.31-2.3.21-3.55.31-1.98.94-2.5.84-2.4.63-1.04,35.83.21.73,1.25,1.15,3.13.94,1.88.94,2.82.63,4.38.42,4.17-.1,2.5.52,1.98.42,3.13.94,3.34,1.25,1.98.42,2.3.52,2.3.52-.31,1.15-3.65,1.46-3.44.63-2.5,1.04-3.44.73-1.88.42-2.61-.1-3.03.31-1.15.1-1.46.42-.63,2.4-1.57,2.61-1.25,3.66-.73,3.97-.94,3.45-.31,3.97-.42,2.4.21-10.34,11.27-7.42,7.83-5.12,6.68-5.64,7.62-7,11.48-2.72,4.9-9.82,16.59-2.82,3.97-5.64.21-.31-30.06.84-.31,3.13-3.97,1.04-1.77,4.39-7.41,1.15-2.3.94-1.46-3.03-3.86-4.18-2.82-2.92-1.25-4.81.31-4.07.83h-3.13l-4.49,2.09-3.34,1.88-3.86,2.92Z"/>
    </g>
    <g id="use208">
      <path id="_3-2" data-name="3" class="cls-10" d="m126.58,315.86l1.88-32.14s-10.05,14.78-14.83,22.33c-4.47,7.07-12.95,21.5-12.95,21.5l12.95,5.01,12.95-16.7Z"/>
    </g>
    <g id="use210">
      <path id="_4-2" data-name="4" class="cls-10" d="m218.5,313.99c-4.01,2.28-8.26,4.01-12.48,5.82-6.08,2.51-11.59,7.33-17.95,9.19-5.59,2.02-11.19,3-16.79,5.03.02-8.61-.33-17.24-.08-25.85,1.14-14.76,2.28-29.52,3.42-44.28,1.39-1.25,2.79-2.5,4.18-3.76,3.84,2.43,8.04-3.5,10.13-1.75,9.86,18.53,19.71,37.06,29.57,55.59h0Z"/>
    </g>
    <g id="g212">
      <g id="use214">
        <path id="W-2" data-name="W" class="cls-11" d="m171.91,310.02l1.67-12.52.84-15.24.84-13.57-1.46-36.32-43.25,18.58-2.72,37.78-.84,15.24-.63,11.06,11.07,11.06,21.31.42,8.98-6.47,4.18-10.02Z"/>
      </g>
      <g id="use216">
        <path id="X-2" data-name="X" class="cls-17" d="m153.73,320.25l1.46-8.97.84-11.48.63-13.78.21-8.97.63-10.02-9.19,2.71.21,13.15-.84,18.37-1.25,12.52-.63,6.89,4.39-.63,3.55.21Z"/>
      </g>
      <g id="use218">
        <path id="Y-2" data-name="Y" class="cls-20" d="m149.97,319.83l1.04-7.1,1.04-9.18.42-12.73.42-9.6v-7.31l.21-5.64"/>
      </g>
      <g id="use220">
        <path id="_0-7" data-name="0" class="cls-5" d="m161.88,294.99c0-1.84,1.45-3.34,3.24-3.34s3.24,1.5,3.24,3.34-1.45,3.34-3.24,3.34-3.24-1.5-3.24-3.34Z"/>
      </g>
      <g id="use222">
        <path id="_0-8" data-name="0" class="cls-5" d="m161.36,308.56c0-1.84,1.45-3.34,3.24-3.34s3.24,1.5,3.24,3.34-1.45,3.34-3.24,3.34-3.24-1.5-3.24-3.34Z"/>
      </g>
      <g id="use224">
        <path id="_0-9" data-name="0" class="cls-5" d="m162.4,280.8c0-1.84,1.45-3.34,3.24-3.34s3.24,1.5,3.24,3.34-1.45,3.34-3.24,3.34-3.24-1.5-3.24-3.34Z"/>
      </g>
      <g id="use226">
        <path id="_0-10" data-name="0" class="cls-5" d="m133.99,307.72c0-1.84,1.45-3.34,3.24-3.34s3.24,1.5,3.24,3.34-1.45,3.34-3.24,3.34-3.24-1.5-3.24-3.34Z"/>
      </g>
      <g id="use228">
        <path id="_0-11" data-name="0" class="cls-5" d="m135.04,294.78c0-1.84,1.45-3.34,3.24-3.34s3.24,1.5,3.24,3.34-1.45,3.34-3.24,3.34-3.24-1.5-3.24-3.34Z"/>
      </g>
      <g id="use230">
        <path id="_0-12" data-name="0" class="cls-5" d="m135.25,281.01c0-1.84,1.45-3.34,3.24-3.34s3.24,1.5,3.24,3.34-1.45,3.34-3.24,3.34-3.24-1.5-3.24-3.34Z"/>
      </g>
    </g>
    <g id="use232">
      <path id="_5-2" data-name="5" class="cls-17" d="m191.76,231.54h-12.12c-1.72.74-3.51,1.32-5.1,2.33-1.35.77-2.73,1.5-4,2.38-.68.63-1.23,1.43-2.14,1.74-.71.35-1.42.71-2.13,1.07.12.38-.27,1.26.24,1.25,1.33.1,2.63-.21,3.94-.42,1.13.1,2.3.09,3.41.25,1.07.68,2.23,1.25,3.24,2.01.94.97,1.95,1.88,2.84,2.89.52.89,1.13,1.75,1.6,2.66.14,1.71.53,3.41.33,5.12-.09.88-.02,1.8-.2,2.66-.39.74-.62,1.59-1.1,2.25-.52.45-1.03.9-1.55,1.35v1.46c.72.18,1.45.51,2.16.6,1.41-.54,2.84-1.02,4.13-1.82,1.09-.68,2.32-1.05,3.52-1.49.98-8.77,1.95-17.53,2.92-26.3h0Z"/>
    </g>
    <g id="use234">
      <path id="_6-2" data-name="6" class="cls-16" d="m172.61,331.34c1.8-2.82,2.35-6.26,1.48-9.5-.73-3.47-2.65-6.82-1.95-10.46,0-2.66-2.23-.83-2.46.68-2.52,3.53-6.43,5.89-10.47,7.29-3.17.65-6.45,1.32-9.66.55-3.24-.18-6.53,1.22-9.74.08-2.94-.91-4.06-4.22-6.66-5.75-1.95-.68-1.48-3.99-3.16-3.91-1.54.08-2.3,4.7-4.49,6.3-2.3,3.23-5.79,5.46-7.67,9-1.55,2.65-4.22,4.73-4.53,7.98-1.15,3.98-2.36,8.62.21,12.34,1.9,3.39,6.03,3.96,9.43,4.9,14.28,3.12,29.79.39,42.17-7.38,2.39-1.52,5.06-3.21,5.73-6.18.64-1.96.94-4.02,1.75-5.92h0Z"/>
    </g>
    <path id="path238" class="cls-5" d="m274.7,304.25c-6.46,3.28-7.77,10.13-8.1,15.43-5.1-1.33-11.39-1.78-16.77-1.67-8.03.48-16.8,3.97-23.45,8.25-3.17-4.1-5.65-9.11-10.3-15.66-8.39-12.43-17.72-24.29-24.67-37.6-2.65-9.13-3.04-13.47-3.03-20.01-.05-10.27,1.16-18.01,4.82-24.98,2.05-2.23,2.77-2.63,6.96-2.52h42.79c5.95,3.34,12.03,6.48,16.74,11.56,5.79,6.1,9.14,10.72,15.22,16.83-.14,16.7-.07,33.68-.21,50.38h0Z"/>
    <g id="use240">
      <path id="Z-2" data-name="Z" class="cls-4" d="m274.98,282.34c-1.9.68-4.01.96-5.77,1.88-2.66,2.32-5.41,4.62-7.67,7.33-1.57,2.16-3.32,4.22-4.16,6.8-.48,1.14-.95,2.88-2.55,2.58-3.21-.02-6.44-.13-9.59.57-4.11.8-8.27,1.76-12.07,3.53-1.6.98-1.91,1.03-2.92-.74-3.42-5.62-6.96-10.3-10.93-15.54-4.13-5.87-6.36-9.26-8.83-14.06-1.47-2.57-2.53-4.82-3.38-7.67-1.06-3.36-1.74-6.84-1.9-10.36-.47-6.35.56-12.7,1.82-18.91,3.07-.95,6.33-.77,9.5-1.01,4.01.49,8.07.67,12.04,1.34,4.42,1.34,8.97,2.63,12.8,5.3,2.33,1.58,5.12,2.5,6.98,4.72,2.82,2.92,5.56,5.94,8.15,9.06,4.44,5.82,6.91,7.88,11.59,13.51,1.25,1.56,4.62,5.17,6.82,7.4.03,1.42.05,2.84.08,4.26h0Z"/>
    </g>
    <g id="use242">
      <path id="a-2" data-name="a" class="cls-7" d="m275.11,285.39l-3.55,1.04-3.55,2.3-4.18,4.38-2.92,4.17-1.67,4.8-.63,1.67-1.04.42-4.6-.63-6.06.42-6.89,1.25-4.18,1.46-2.92,1.25c-1.39.48-1.54.86-2.72,1.04l-5.85-8.77s-7.7-10.96-11.49-16.49c-2.04-2.98-4.45-5.74-6.06-8.97-1.73-3.49-2.95-7.25-3.76-11.06-.8-3.76-1.12-7.64-1.04-11.48.04-2.11.51-4.18.84-6.26.37-2.37,1.25-7.1,1.25-7.1l1.25-3.76,5.85-.83,6.89.21,6.69.83,6.69,1.04,7.1,2.5,6.69,3.55,5.22,3.34,3.34,3.76,16.92,19.62,4.39,5.43v10.85Z"/>
    </g>
    <path id="b-2" data-name="b" class="cls-7" d="m275.11,300.84c-2.34.86-5.25,1.29-6.45,3.75-2.27,2.94-4.2,6.27-4.63,10.02-1.58.88-3.45-.36-5.18-.27-3.91-.57-7.94-.64-11.77.45-4.45.86-8.98,1.65-13.03,3.81-2.06.91-6.58,3.31-6.58,3.31,0,0-.39-.52-3.94-5.61-8.57-12.68-16.29-23.46-24.73-36.22-2.31-3.73-4.64-7.51-5.68-11.82-2.02-7.26-1.51-14.87-1.79-22.32,1.37-6.29,1.92-13.04,5.48-18.57.75-1.61,1.99-2.27,3.74-1.88h35.28c5.15,2.49,10.62,4.52,15.23,7.9,5.15,3.78,9.61,8.48,13.52,13.57,3.46,3.94,6.8,8.02,10.73,11.51-.07,14.12-.14,28.25-.21,42.37h0Z"/>
    <g id="use246">
      <path id="_1-14" data-name="1" class="cls-4" d="m257.56,308.56c0-1.5,1.22-2.71,2.72-2.71s2.72,1.21,2.72,2.71-1.22,2.71-2.72,2.71-2.72-1.21-2.72-2.71Z"/>
    </g>
    <g id="use248">
      <path id="_1-15" data-name="1" class="cls-4" d="m242.11,310.44c0-1.5,1.22-2.71,2.72-2.71s2.72,1.21,2.72,2.71-1.22,2.71-2.72,2.71-2.72-1.21-2.72-2.71Z"/>
    </g>
    <g id="use250">
      <path id="_1-16" data-name="1" class="cls-4" d="m227.06,314.61c0-1.5,1.22-2.71,2.72-2.71s2.72,1.21,2.72,2.71-1.22,2.71-2.72,2.71-2.72-1.21-2.72-2.71Z"/>
    </g>
    <g id="use252">
      <path id="_1-17" data-name="1" class="cls-4" d="m217.66,303.55c0-1.5,1.22-2.71,2.72-2.71s2.72,1.21,2.72,2.71-1.22,2.71-2.72,2.71-2.72-1.21-2.72-2.71Z"/>
    </g>
    <g id="use254">
      <path id="_1-18" data-name="1" class="cls-4" d="m207.01,287.9c0-1.5,1.22-2.71,2.72-2.71s2.72,1.21,2.72,2.71-1.22,2.71-2.72,2.71-2.72-1.21-2.72-2.71Z"/>
    </g>
    <g id="use256">
      <path id="_1-19" data-name="1" class="cls-4" d="m197.4,271.62c0-1.5,1.22-2.71,2.72-2.71s2.72,1.21,2.72,2.71-1.22,2.71-2.72,2.71-2.72-1.21-2.72-2.71Z"/>
    </g>
    <g id="use258">
      <path id="_1-20" data-name="1" class="cls-4" d="m194.05,252.83c0-1.5,1.22-2.71,2.72-2.71s2.72,1.21,2.72,2.71-1.22,2.71-2.72,2.71-2.72-1.21-2.72-2.71Z"/>
    </g>
    <g id="use260">
      <path id="_1-21" data-name="1" class="cls-4" d="m199.49,230.91c0-1.5,1.22-2.71,2.72-2.71s2.72,1.21,2.72,2.71-1.22,2.71-2.72,2.71-2.72-1.21-2.72-2.71Z"/>
    </g>
    <g id="use262">
      <path id="_1-22" data-name="1" class="cls-4" d="m216.83,229.66c0-1.5,1.22-2.71,2.72-2.71s2.72,1.21,2.72,2.71-1.22,2.71-2.72,2.71-2.72-1.21-2.72-2.71Z"/>
    </g>
    <g id="use264">
      <path id="_1-23" data-name="1" class="cls-4" d="m233.33,231.54c0-1.5,1.22-2.71,2.72-2.71s2.72,1.21,2.72,2.71-1.22,2.71-2.72,2.71-2.72-1.21-2.72-2.71Z"/>
    </g>
    <g id="use266">
      <path id="_1-24" data-name="1" class="cls-4" d="m248.79,240.52c0-1.5,1.22-2.71,2.72-2.71s2.72,1.21,2.72,2.71-1.22,2.71-2.72,2.71-2.72-1.21-2.72-2.71Z"/>
    </g>
    <g id="use268">
      <path id="_1-25" data-name="1" class="cls-4" d="m261.95,254.29c0-1.5,1.22-2.71,2.72-2.71s2.72,1.21,2.72,2.71-1.22,2.71-2.72,2.71-2.72-1.21-2.72-2.71Z"/>
    </g>
    <g id="use270">
      <path id="_1-26" data-name="1" class="cls-4" d="m269.68,294.16c0-1.5,1.22-2.71,2.72-2.71s2.72,1.21,2.72,2.71-1.22,2.71-2.72,2.71-2.72-1.21-2.72-2.71Z"/>
    </g>
    <g id="g272">
      <path id="path274" class="cls-18" d="m176.65,261.55c-3.26,2.49-4.91,4.37-9.55,7.17-2.4,1.45-3.04,2.96-6.26,3.74s-8.83.9-11.93,1.37c-3.69.56-4.6.22-8.42-.09-1.39.02-6.89.92-5.67-.26,2.7-4.02,7.66-9.69,11.71-14.36,3.64-4.19,6.67-9.16,11.29-12.23,1.78-1.19,4.16-1.16,6.03-2.2,1.12-.62,1.89-1.77,3.02-2.36,2.4-1.22,5.13-2.78,7.77-2.24,2.47.51,4.58,2.62,5.85,4.8,1.46,2.5,1.61,5.67,1.47,8.56-.09,1.83-.39,3.8-1.44,5.31-.9,1.31-2.6,1.82-3.86,2.79h0Z"/>
      <g id="use276">
        <path id="c-2" data-name="c" class="cls-2" d="m140.17,266.64s4.94.88,7.43.84c2.26-.04,6.72-1,6.72-1"/>
      </g>
      <g id="use278">
        <path id="d-2" data-name="d" class="cls-2" d="m146.81,259.27s3.48.61,5.24.59c1.37-.02,4.08-.55,4.08-.55"/>
      </g>
      <g id="use280">
        <path id="e-2" data-name="e" class="cls-2" d="m151.85,253.21s2.99.27,4.48.13c.66-.06,1.94-.42,1.94-.42"/>
      </g>
      <g id="use282">
        <path id="f-2" data-name="f" class="cls-2" d="m163.01,252.97c-.06.72-.87,1.02-1.03,1.62"/>
      </g>
      <g id="use284">
        <path id="g-2" data-name="g" class="cls-2" d="m163.15,258.87c-.25.47-.84.68-1.18,1.03"/>
      </g>
      <g id="use286">
        <path id="h-2" data-name="h" class="cls-2" d="m162.57,265.22c-.04.68-.75,1.03-1.33,1.18"/>
      </g>
    </g>
    <g id="use288">
      <path id="_7-2" data-name="7" class="cls-11" d="m179.56,231.42l-6.35,3.25-5.17,3.25-4.88,4.28-4.88,4.43-8.72,8.86-7.54,9.59-7.09,9.15-7.54,10.63-10.64,16.53-10.04,15.5-5.32,10.04-3.84,6.64-9.01-5.46-6.8-4.43-5.02-4.43-1.92-.89,3.69-7.67,9.45-17.27,10.34-16.23,14.33-18.89,8.72-10.18,8.86-8.71,9.16-7.97h40.18Z"/>
    </g>
    <g id="use290">
      <path id="_8-2" data-name="8" class="cls-20" d="m171.58,231.43c-11.54,5.99-19.48,16.6-27.72,26.31-16.62,19.59-30.29,41.6-43.22,63.81-1.93,3.44-3.8,6.92-5.61,10.43"/>
    </g>
    <g id="use292">
      <path id="_9-2" data-name="9" class="cls-20" d="m77.54,319.95c11.24-27.38,28.8-50.62,48.12-72.12,5.08-5.65,12.13-12.06,18.72-16.39"/>
    </g>
    <g id="use294">
      <path id="A-2" data-name="A" class="cls-10" d="m172.6,396.5c3.23-1.09,6.88.96,8.83,3.56,2.73,3.18,1.22,7.7-.13,11.14-2.31,4.01-6.42,6.54-10.04,9.26-8.84,4.52-19.09,4.71-28.8,4.84-7.4-.11-15.07-.43-21.97-3.32-6.5-3.29-13.02-8.99-17.24-15.29-4.77-6.3-8.82-13.3-9.4-21.42-.17-3.57,3.02-6.11,5.81-7.74,3.4-1.03,7.76-.96,10.29,1.9,4.28,3.77,6.29,9.28,9.85,13.61,3.53,3.87,8.7,5.57,13.41,7.51,8.38,2.38,17.19,2.91,25.86,3.01,4.43-.4,9.52-.31,12.94-3.61.91-1.05-.14-2.48.6-3.44h0Z"/>
    </g>
    <g id="use298">
      <path id="i-2" data-name="i" class="cls-3" d="m172.12,392.46c2.46-2.01,3.52-6.19,6.03-8.68,1.72-3.87-1.12-8.57,1.26-12.2,1.52-3.03.72-6.77,3.99-8.97,1-4.28.21-8.11,2.53-12.15,1.95-1.52-.73-5.97,3.67-3.98,5.92-.47,2.27-9.41,6.91-11.22,2.61-3.04.7-7.07-2.1-8.63-2.52-1.95-6,2.55-9.35,1.96-3.9.75-7.77,1.48-11.17,3.58-3.03,2.2-6.18,2.09-8.12,4.5-2.26,2.81-2.6,6.08-3.08,10.35-2.09,11.15-3.98,22.83-1.18,34.03,1.33,5.26,5,10.3,10.6,11.41h0Z"/>
    </g>
    <g id="use300">
      <path id="j-2" data-name="j" class="cls-7" d="m184.23,355.65c-.58-1.82.22-8.35.87-10.48.56-1.84.11-5.28,2.07-5.54,1.54-.21,4.89,1.54,3.46,3.37-1,1.27-2.98-.02-2.98-.02"/>
    </g>
    <g id="use302">
      <path id="k-2" data-name="k" class="cls-7" d="m172.62,381.05c2.28-6.27,2.92-12.93,4.37-19.4.52-2.34,1.25-4.65,1.57-7.03.59-4.5-.8-9.28.56-13.6.62-1.97,2.17-3.53,3.34-5.24,1.32-1.93,2.07-4.56,4.13-5.66,1.78-.95,4.82-1.83,6.06-.24,1.14,1.46.28,5.19-1.57,5.34-1.13.09-3.71-1.92-1.47-3.06"/>
    </g>
    <g id="use304">
      <path id="l-2" data-name="l" class="cls-7" d="m194.97,336.44c-1.69,1.54-4.55,1.74-6.65.58-1.62-1.05-3.63.05-4.32,1.63-1.06,1.56-1.68,3.9-1.78,5.84-.55,2.09-.75,4.24-.75,7.45-.93,2.95-.27,3.63-1.31,6.8-.44,4.18-1.51,6.94-2.63,9.63-1.49,3.27-1.33,6.91-1.57,10.41-.4,3.08-1.33,6.36-3.61,8.59"/>
    </g>
    <g id="use306">
      <path id="m-2" data-name="m" class="cls-20" d="m172.62,367.63c1.56-3.43,2.14-7.19,2.74-10.89.63-3.87.28-7.85.87-11.72.58-3.82,1.06-7.77,2.64-11.3.8-1.8,2.09-3.36,3.39-4.84"/>
    </g>
    <g id="use308">
      <path id="n-2" data-name="n" class="cls-20" d="m172.62,356.73c.39-5.3.52-10.65,1.47-15.88.5-2.79.92-5.7,2.24-8.2.51-.97,1.33-1.76,2.13-2.51"/>
    </g>
    <g id="use310">
      <path id="o-2" data-name="o" class="cls-7" d="m173.38,332.42c-.93,3.3-2.29,4.23-2.38,8.82-.04,2-1.93,3.8-1.11,5.91"/>
    </g>
    <g id="use312">
      <path id="p-2" data-name="p" class="cls-7" d="m166.79,342.3c1.46-1.9,1.11-2.48,1.63-3.73.56-1.38.6-2.79,1.61-4.16"/>
    </g>
    <g id="use314">
      <path id="B-2" data-name="B" class="cls-12" d="m171.7,396.22c1.03-1.76.7-4.02.84-6.05.11-1.67.09-3.34,0-5.01-.07-1.33-.31-2.64-.42-3.97-.1-1.18-.21-2.36-.21-3.55,0-2.09.18-4.18.42-6.26.15-1.26.52-2.49.63-3.76.18-2.15.09-4.32,0-6.47-.07-1.74-.04-3.51-.42-5.22-.3-1.38-1.04-2.62-1.46-3.97-.41-1.3-.52-2.7-1.04-3.97-.53-1.27-1.37-2.38-2.09-3.55-.81-1.33-1.6-2.69-2.51-3.97-.78-1.09-1.88-1.95-2.51-3.13-.55-1.03-.67-2.23-1.04-3.34-.33-.98-.6-1.99-1.04-2.92-.52-1.1-1.22-2.11-1.88-3.13-1-1.56-1.87-3.23-3.13-4.59-.91-.98-1.95-1.89-3.13-2.5-.9-.47-1.91-.75-2.92-.83-1.33-.12-2.67.13-3.97.42-1.65.37-3.39.74-4.81,1.67-1.98,1.3-3.17,3.51-4.81,5.22-1.5,1.56-3.1,3.02-4.6,4.59-1.36,1.43-2.71,2.87-3.97,4.38-.95,1.14-1.85,2.34-2.72,3.55-1.17,1.63-2.5,3.19-3.34,5.01-1.37,2.96-2.31,6.16-2.72,9.39-.29,2.28,0,4.6.21,6.89.33,3.58.91,7.13,1.67,10.64.55,2.54,1.35,5.03,2.09,7.51.79,2.66,1.6,5.31,2.51,7.93,1.1,3.16,1.24,6.97,3.55,9.39,1.67,1.76,4.36,2.22,6.69,2.92,3.52,1.06,7.19,1.72,10.86,1.88,2.44.11,4.87-.49,7.31-.63,2.78-.15,5.6.2,8.36-.21,2.07-.31,4.18-.74,6.06-1.67,1.33-.66,2.8-1.43,3.55-2.71Z"/>
    </g>
    <g id="use316">
      <path id="C-2" data-name="C" class="cls-14" d="m164.5,349.99c-.27.83-1.23,1.07-1.86,1.57-.46.35-.75,1-1.41,1.02-.74.09-1.63-.02-2.07-.69-.44-.41-1.32-.35-1.33.29-.37.31-1.33.27-1.75.25-1.18-.25-1.73-.77-2.78-1.36-.44-.22-1.1-.39-1.13-.98.18-.65,1.14-.46,1.45-1.04.69-.82,1.1-.95,1.84-1.72.56-.72,1.22-1.5,2.18-1.62,1.14-.18,2.3.09,3.41.35.73.2,1.48.61,1.72,1.38.19.66.63.31.99.88.28.48.51,1,.74,1.51v.08s0,.08,0,.08h0Z"/>
    </g>
    <g id="use318">
      <path id="D-2" data-name="D" class="cls-17" d="m171.4,395.76c-1.67.11-2.34.92-4.61,1.58-2.72,1.17-5.59,1.41-8.49,1.24-5.33-.02-10.71.32-16-.46-5.49-1.19-11.06-2.45-16.11-5-1.71-1-3.34-2.14-5.01-3.18-1.95-.31-2.68,2.97-1.25,4.06,1.93,2.03,4.72,2.82,7.08,4.21,7.57,3.58,15.96,5.13,24.28,5.56,5.9.08,12.01.31,17.64-1.74,1.92-.66,3.74-2.33,4.28-4.5s-.12-1.91-1.8-1.8h0Z"/>
    </g>
    <g id="use320">
      <path id="E-2" data-name="E" class="cls-7" d="m172.54,385.78c-2.47-.18-4.94-.24-7.42-.22-1.05-.79-2.72-1.37-2.75-2.92-.16-1.71-.7-3.41-.56-5.14.27-1.61.91-3.13,1.24-4.73.71-2.8,1.45-5.6,1.97-8.43.6-2.24-.18-3.24-1.65-3.91-.71-.87-1.07-2.31-2.34-2.5-1.74.03-1.87,2.26-3.24,2.85-1.18.34-2.41-.28-3.17-1.17-1.35-.25-1.84,1.43-1.66,2.48.16,1.04.86,2,1.84,2.39"/>
    </g>
    <g id="use322">
      <path id="F-2" data-name="F" class="cls-21" d="m134.72,382.03c1.17.67,2.39,1.27,3.43,2.13.61.61,1.13,1.41,2.05,1.57,1.37.31,2.77-.04,4.15.07,1.82.04,3.64,0,5.46-.06.88-.09,1.77-.31,2.57-.71.85-.42.68-1.41.51-2.16"/>
    </g>
    <g id="use324">
      <path id="G-2" data-name="G" class="cls-7" d="m171.7,380.57s-2.34.83-3.55.83-2.39-.46-3.55-.83c-.85-.28-2.48-1.03-2.48-1.03"/>
    </g>
    <g id="use326">
      <path id="H-2" data-name="H" class="cls-16" d="m171.6,377.54s-2.92,1.37-4.49,1.57c-.76.09-1.58.05-2.3-.21-1.04-.37-2.72-1.88-2.72-1.88l1.04-2.71s1.8-.46,2.72-.63c1.04-.19,2.08-.46,3.13-.42,1,.04,2.92.63,2.92.63l-.31,3.65Z"/>
    </g>
    <g id="use328">
      <path id="I-2" data-name="I" class="cls-7" d="m150.6,379.31s-1.6,1.01-2.51,1.25c-1.21.32-2.51.17-3.76.21-.7.02-1.41.13-2.09,0-1.1-.21-2.14-.73-3.13-1.25-.89-.47-1.67-1.11-2.51-1.67-.21-.14-.63-.42-.63-.42"/>
    </g>
    <g id="use330">
      <path id="J-2" data-name="J" class="cls-6" d="m150.6,375.14c-.52.73-.93,1.59-1.67,2.09-.6.41-1.37.52-2.09.63-1.52.22-3.07.13-4.6,0-1.2-.1-2.35-.59-3.55-.63-.63-.02-1.61.78-1.88.21-.51-1.06,1.59-1.76,2.51-2.5.78-.64,1.55-1.35,2.51-1.67,1.12-.38,2.49-.85,3.67-.76.99.08,1.88.8,2.8,1.18.84.34,1.78.64,2.3,1.46Z"/>
    </g>
    <g id="use340">
      <path id="O-2" data-name="O" class="cls-14" d="m164.5,349.78c-.79.06-1.58.06-2.36.24-.64.18-.87-.6-1.43-.7-.83-.22-1.73-.35-2.58-.17-.55.17-.98.58-1.5.82-.53.36-1.19.44-1.81.3-.69-.05-1.33-.37-2.02-.38-.14,0-.28.06-.42.1"/>
    </g>
    <g id="use342">
      <path id="P-2" data-name="P" class="cls-13" d="m160.42,355.52c.86-.71.63-2.04,1.37-2.86.63-1.33,1.74-2.5,3.25-2.73,1.52-.35,3.25-.21,4.44.88,1.03,1.09,2.91.96,3.71,2.24-.29,1.45-2.27.08-3.17-.22-1.34-.79-2.52.88-2.99,1.96-.34,1.59-1.91,1.52-3.16,1.66-1.01.5-1.99,1.13-3.16,1.15-1.62.2-3.26,0-4.8-.52-1.48-.46-3.38.52-4.54-.83-.91-1.15-1.74-2.38-2.82-3.37-1.53-.96-3.5-.56-5.14-.12-.96.52-1.95,1.09-3.09.95-1.27.12-3.03-1.14-2.39-2.48,1.42-1.04,1.55,1.68,2.93.9,1.58-.55,3.1-1.26,4.51-2.17,1.63-.59,3.4-.39,5.09-.65,1.18-.18,2.07.7,2.73,1.56.97,1.02,2.44,1.29,3.51,2.18,1.1.54,1.82,1.57,2.2,2.58.47.22,1.05.16,1.49-.11h0Z"/>
    </g>
    <g id="use344">
      <path id="Q-2" data-name="Q" class="cls-7" d="m163.75,338.28c-.96-1.08-1.69-2.44-2.87-3.28-1.52-1.07-3.39-1.55-5.18-2.06-.62-.18-1.26-.32-1.9-.34-1.99-.06-4.02.13-5.92.69-1.61.48-3.04,1.44-4.52,2.23-1.59.85-3.24,1.63-4.68,2.71-2.11,1.58-3.89,3.57-5.74,5.44-.58.59-1.16,1.2-1.69,1.84"/>
    </g>
    <g id="use348">
      <path id="q-2" data-name="q" class="cls-4" d="m52.8,425.5l.59-5.61,2.07-10.33,1.48-5.31,1.18-4.43,1.77-3.54v-1.77l-5.02-.3.3-11.51,1.77-1.18v-2.36l1.48-.89.3-1.18-2.36-.59v-16.53l-.21-37.26-8.31-4.88.42,41.69-.85,17.17-1.39.99-.59.89.3,3.25,1.77.89.3.89.3,10.63-5.09-.52-.23,1.11,2.36,7.08,2.07,8.86,1.18,7.08.89,4.13.3,3.54h3.25Z"/>
    </g>
    <g id="use350">
      <path id="r-2" data-name="r" class="cls-4" d="m72.89,414.58c2.83-3.75,6.03-7.23,8.57-11.18,2.2-3.42,4.22-6.99,5.73-10.77,1.37-3.43,2.34-7.03,2.95-10.68.69-4.1.94-8.3.77-12.46-.15-3.71-.68-7.41-1.57-11.01-.81-3.29-1.97-6.51-3.4-9.59-1.93-4.13-4.27-8.1-6.95-11.79-1.53-2.1-3.05-4.32-5.16-5.83-.81-.58-2.02-2.92-2.75-1.16-2.55,3.36-5.09,6.72-7.64,10.09,1.16,1.56,2.82,2.84,3.58,4.63.73,1.74,1.02,3.73.78,5.6-.27,2.09-1.07,4.24-2.45,5.84-1.45,1.67-3.56,2.79-5.68,3.43-2.4.72-5.01.13-7.5.28-2.14-.08-4.39.38-6.32-.78-1.36-.19-1.65-1.78-1.89-2.89-.5-1.08.94-3.11.17-3.38-1.5.15-3.38-.56-4.52.6-1.47.45-1.16,2.43-1.32,3.71-.12,2.22-1.75,3.92-2.77,5.8-.94,1.59-2.15,2.96-3.38,4.32,1.36,1.1,2.99,1.96,3.55,3.73,1.17,1.62,1.47,3.55,1.72,5.48.2,1.52-.39,3.21.77,4.46.26,1.12,2.67,1.65,2.52.08.45-2.01.62-3.01,2.08-4.45,1.71.02,3.85.19,5.6-.19,3.95-.03,7.99-.56,11.82.33,1.87.43,3.71,1.23,5.22,2.4,1.33,1.03,2.48,2.38,3.21,3.9.63,1.3.96,2.79.9,4.23-.07,1.6-.6,3.2-1.39,4.6-1.08,1.92-2.42,3.82-4.39,4.94,3.05,5.9,6.11,11.81,9.16,17.71h0Z"/>
    </g>
    <g id="use352">
      <path id="s-2" data-name="s" class="cls-15" d="m75.6,370.6s-.38,2.33-1.11,3.06c-.73.73-2.03,1.11-3.06,1.11s-2.33-.38-3.06-1.11c-.73-.73-1.11-2.02-1.11-3.06s.56-2.5,1.11-3.06c.56-.56,1.11-.83,1.67-1.39s.84-.56,1.39-1.11l1.39-1.39c.56-.56,1.39-1.67,1.95-2.78.56-1.11.84-2.78.84-2.78,0,0,.28,1.67.84,2.78s1.39,2.23,1.95,2.78l1.39,1.39c.56.56.84.56,1.39,1.11.56.56,1.11.83,1.67,1.39.56.56,1.11,2.02,1.11,3.06s-.38,2.33-1.11,3.06c-.73.73-2.03,1.11-3.06,1.11s-2.33-.38-3.06-1.11c-.73-.73-1.11-3.06-1.11-3.06Z"/>
    </g>
    <g id="use354">
      <path id="t-2" data-name="t" class="cls-7" d="m54.88,394.22c-.53,3.23-1.19,6.44-1.7,9.68-.71,3.87-.55,6.34-1.14,11.73-.21,3.39-.24,8.34-.7,10.17-.8-1.69-1.04-7.07-.97-10.29-.74-5.71-.68-8.67-1.1-11.62-.17-2.91-1.05-7.28-1.1-9.45"/>
    </g>
    <g id="use356">
      <path id="u-2" data-name="u" class="cls-20" d="m55.17,383c-2.27-.1-7.52.54-7.21.02"/>
    </g>
    <g id="use358">
      <path id="v-2" data-name="v" class="cls-20" d="m57.24,378.86l-11.42.04"/>
    </g>
    <g id="use360">
      <path id="R-2" data-name="R" class="cls-5" d="m36.33,279.34c-.53.65-.94,2.38-1.71,1.01-.71-.62-.37-1.82-.21-2.65.34-1.19.54-2.66-.34-3.66-.69-1.1-1.52-2.28-1.68-3.56.43-2.62-.35-5.23-.66-7.83-.16-1.08-.69-1.96-1.46-2.71.06-1,.18-1.97.99-2.65,2.8-2.19,5.59-4.45,8.77-6.06,2.73-1.4,5.51-3.09,8.67-3.09,2.58-.01,5.03-1.26,7.63-.83,1.25.07,2.55-.06,3.61.74,1.76.89,3.63,1.62,4.99,3.1,1.48,1.13,2.64,2.6,3.56,4.2-2.29,4.3-4.91,8.41-7.52,12.52-.57,1.39-1.25,2.73-1.67,4.17-1.14.37-1.64-.61-2.54-.98-1.44-.48-2.86-1.12-4.41-.9-2.2.11-4.47-.34-6.55.54-2.25.51-4.27,1.62-6.35,2.59-1.04,1.64-2.29,3.24-3.13,4.96v1.1h0Z"/>
    </g>
    <g id="use362">
      <path id="S-2" data-name="S" class="cls-7" d="m77.9,240.31c-.72,1.56-1.4,3.13-2.15,4.67-1.26,1.8-2.49,3.63-3.77,5.42-1.3,1.44-2.6,2.87-3.9,4.31,1.12-1.84,2.28-3.67,3.38-5.52.82-2,1.67-4,2.48-6.01.27-1.41.59-2.81.83-4.23v-5.95"/>
    </g>
    <g id="use364">
      <path id="T-2" data-name="T" class="cls-7" d="m37.16,239.05c1.12-1.83,2.25-3.64,3.37-5.47.71-1.51,1.39-3.03,2.15-4.51.04-.08.08-.17.12-.25"/>
    </g>
    <g id="use366">
      <path id="U-2" data-name="U" class="cls-1" d="m253.6,231.54l.42-5.84h-10.86l10.45,5.84Z"/>
    </g>
    <g id="g368">
      <g id="use370">
        <path id="w-2" data-name="w" class="cls-5" d="m196.14,225.7l-109.47.21s-.05,1.53,0,2.3c.07,1.05.26,2.09.42,3.13.13.83.24,1.68.42,2.5.17.77.23,1.61.63,2.3.2.34.5.64.84.83.44.26,1.46.42,1.46.42,0,0,3.3-2.58,5.22-3.34,2.83-1.12,5.95-1.36,8.98-1.67,3.33-.34,6.69-.15,10.03-.21,5.36-.09,10.72-.13,16.09-.21,3.9-.06,7.8-.13,11.7-.21,6.41-.13,12.81-.4,19.22-.42,4.32-.01,8.63.14,12.95.21,4.25.07,8.5.07,12.74.21,1.39.05,4.18.21,4.18.21,0,0,.99-2.81,1.88-3.97.72-.94,2.72-2.3,2.72-2.3Z"/>
      </g>
      <g id="use372">
        <path id="x-2" data-name="x" class="cls-20" d="m192.11,229.65c-23.57-.27-47.14-.31-70.7.16-6.49.13-13.32-.17-19.46.72-5.06.74-7.9,1.36-13.85,4.73"/>
      </g>
      <g id="use374">
        <path id="y-2" data-name="y" class="cls-7" d="m192.11,229.8l-1.92-3.98-2.36,3.69-2.66-3.84-2.52,3.69-2.22-3.39-2.36,3.25-2.22-3.1-2.81,3.25-2.36-3.69-2.66,3.69-2.22-3.54-2.52,3.39-2.52-3.54-2.52,3.39-2.36-3.25-2.66,3.69-2.07-3.25-2.66,3.1-2.22-3.39-2.66,3.25-1.92-3.25-2.66,3.39-2.36-3.69-2.52,3.69-2.36-3.25-2.81,3.25-2.22-3.39-2.36,3.54-2.22-3.25-2.52,3.39-2.66-3.69-2.36,3.69-2.36-3.54-2.66,3.98-2.66-4.13-2.07,4.28-2.52-4.28-2.36,4.87-2.22-4.43-2.07,5.31-2.66-5.31-1.48,7.08-4.43-7.08"/>
      </g>
    </g>
    <g id="g376">
      <g id="use378">
        <path id="z-2" data-name="z" class="cls-5" d="m139.81,231.92l-26.82-.17s-5.56,6.27-8.36,9.39c-3.61,4.04-7.5,7.86-10.86,12.11-4.69,5.92-8.93,12.19-12.95,18.58-3.24,5.14-5.91,10.62-8.98,15.86-2.1,3.58-4.47,7.01-6.48,10.64-1.43,2.59-4.43,5.01-3.97,7.93.91,5.78,12.33,12.52,12.33,12.52h1.25s7.99-16.97,12.74-25.05c4.42-7.52,9.48-14.66,14.62-21.71,4.64-6.37,9.51-12.58,14.62-18.58,3.2-3.75,6.61-7.3,10.03-10.85,1.84-1.92,3.61-3.92,5.64-5.64,2.24-1.88,7.18-5.05,7.18-5.05h0Z"/>
      </g>
      <g id="use380">
        <path id="_10-2" data-name="10" class="cls-7" d="m76.02,316.49s-3.56-1.81-5.22-2.92c-1.4-.94-2.73-1.99-3.97-3.13-1.05-.97-1.97-2.07-2.92-3.13-.86-.96-2.51-2.92-2.51-2.92"/>
      </g>
      <g id="use382">
        <path id="_11-2" data-name="11" class="cls-7" d="m77.06,314.19s-3.56-1.81-5.22-2.92c-1.4-.94-2.73-1.99-3.97-3.13-1.05-.97-1.97-2.07-2.92-3.13-.86-.96-2.51-2.92-2.51-2.92"/>
      </g>
      <g id="use384">
        <path id="_12-2" data-name="12" class="cls-7" d="m78.11,311.9s-3.36-1.66-4.92-2.67c-1.32-.86-2.57-1.82-3.74-2.86-.99-.88-1.86-1.89-2.76-2.86-.81-.87-2.36-2.67-2.36-2.67"/>
      </g>
      <g id="use386">
        <path id="_13-2" data-name="13" class="cls-7" d="m79.57,309.28s-3.31-1.63-4.85-2.62c-1.3-.84-2.53-1.78-3.69-2.81-.98-.87-1.83-1.85-2.72-2.81-.79-.86-2.33-2.62-2.33-2.62"/>
      </g>
      <g id="use388">
        <path id="_14-2" data-name="14" class="cls-7" d="m80.82,306.78s-3.36-1.66-4.92-2.67c-1.32-.86-2.57-1.82-3.74-2.86-.99-.88-1.86-1.89-2.76-2.86-.81-.87-2.36-2.67-2.36-2.67"/>
      </g>
      <g id="use390">
        <path id="_15-2" data-name="15" class="cls-7" d="m81.98,304.13s-3.31-1.56-4.85-2.52c-1.3-.81-2.53-1.72-3.69-2.7-.98-.83-1.83-1.78-2.72-2.7-.79-.82-2.33-2.52-2.33-2.52"/>
      </g>
      <g id="use392">
        <path id="_16-2" data-name="16" class="cls-7" d="m83.02,301.83s-3.16-1.53-4.63-2.47c-1.24-.79-2.42-1.68-3.52-2.64-.93-.82-1.75-1.75-2.59-2.64-.76-.81-2.22-2.47-2.22-2.47"/>
      </g>
      <g id="use394">
        <path id="_17-2" data-name="17" class="cls-7" d="m84.07,299.53s-3.11-1.56-4.55-2.52c-1.22-.81-2.38-1.72-3.46-2.7-.92-.83-1.72-1.78-2.55-2.7-.75-.82-2.18-2.52-2.18-2.52"/>
      </g>
      <g id="use396">
        <path id="_18-2" data-name="18" class="cls-7" d="m85.74,297.13s-3.21-1.53-4.7-2.47c-1.26-.79-2.46-1.68-3.57-2.64-.95-.82-1.77-1.75-2.63-2.64-.77-.81-2.26-2.47-2.26-2.47"/>
      </g>
      <g id="use398">
        <path id="_19-2" data-name="19" class="cls-7" d="m86.57,294.62s-3.06-1.56-4.48-2.52c-1.2-.81-2.34-1.72-3.4-2.7-.9-.83-1.69-1.78-2.51-2.7-.73-.82-2.15-2.52-2.15-2.52"/>
      </g>
      <g id="use400">
        <path id="_1A-2" data-name="1A" class="cls-7" d="m88.09,292.56s-3.11-1.69-4.55-2.72c-1.22-.87-2.38-1.85-3.46-2.91-.92-.9-1.72-1.92-2.55-2.91-.75-.89-2.18-2.72-2.18-2.72"/>
      </g>
      <g id="use402">
        <path id="_1B-2" data-name="1B" class="cls-7" d="m89.76,290.47s-3.26-1.72-4.77-2.77c-1.28-.89-2.5-1.89-3.63-2.97-.96-.92-1.8-1.96-2.67-2.97-.78-.91-2.29-2.77-2.29-2.77"/>
      </g>
      <g id="use404">
        <path id="_1C-2" data-name="1C" class="cls-7" d="m90.8,287.76s-3.16-1.6-4.63-2.57c-1.24-.82-2.42-1.75-3.52-2.75-.93-.85-1.75-1.82-2.59-2.75-.76-.84-2.22-2.57-2.22-2.57"/>
      </g>
      <g id="use406">
        <path id="_1D-2" data-name="1D" class="cls-7" d="m92.05,285.57s-3.06-1.6-4.48-2.57c-1.2-.82-2.34-1.75-3.4-2.75-.9-.85-1.69-1.82-2.51-2.75-.73-.84-2.15-2.57-2.15-2.57"/>
      </g>
      <g id="use408">
        <path id="_1E-2" data-name="1E" class="cls-7" d="m93.94,283.49s-3.16-1.63-4.63-2.62c-1.24-.84-2.42-1.78-3.52-2.81-.93-.87-1.75-1.85-2.59-2.81-.76-.86-2.22-2.62-2.22-2.62"/>
      </g>
      <g id="use410">
        <path id="_1F-2" data-name="1F" class="cls-7" d="m95.92,281.03s-3.31-1.56-4.85-2.52c-1.3-.81-2.53-1.72-3.69-2.7-.98-.83-1.83-1.78-2.72-2.7-.79-.82-2.33-2.52-2.33-2.52"/>
      </g>
      <g id="use412">
        <path id="_1G-2" data-name="1G" class="cls-7" d="m96.96,278.74s-3.16-1.6-4.63-2.57c-1.24-.82-2.42-1.75-3.52-2.75-.93-.85-1.75-1.82-2.59-2.75-.76-.84-2.22-2.57-2.22-2.57"/>
      </g>
      <g id="use414">
        <path id="_1H-2" data-name="1H" class="cls-7" d="m98.21,276.65s-3.16-1.6-4.63-2.57c-1.24-.82-2.42-1.75-3.52-2.75-.93-.85-1.75-1.82-2.59-2.75-.76-.84-2.22-2.57-2.22-2.57"/>
      </g>
      <g id="use416">
        <path id="_1I-2" data-name="1I" class="cls-7" d="m100.51,274.45s-3.41-1.6-5-2.57c-1.34-.82-2.61-1.75-3.8-2.75-1.01-.85-1.89-1.82-2.8-2.75-.82-.84-2.4-2.57-2.4-2.57"/>
      </g>
      <g id="use418">
        <path id="_1J-2" data-name="1J" class="cls-7" d="m101.56,271.95s-3.31-1.63-4.85-2.62c-1.3-.84-2.53-1.78-3.69-2.81-.98-.87-1.83-1.85-2.72-2.81-.79-.86-2.33-2.62-2.33-2.62"/>
      </g>
      <g id="use420">
        <path id="_1K-2" data-name="1K" class="cls-7" d="m103.75,270.02s-3.31-1.66-4.85-2.67c-1.3-.86-2.53-1.82-3.69-2.86-.98-.88-1.83-1.89-2.72-2.86-.79-.87-2.33-2.67-2.33-2.67"/>
      </g>
      <g id="use422">
        <path id="_1L-2" data-name="1L" class="cls-7" d="m105.84,267.72s-3.46-1.72-5.07-2.77c-1.36-.89-2.65-1.89-3.86-2.97-1.02-.92-1.92-1.96-2.84-2.97-.83-.91-2.44-2.77-2.44-2.77"/>
      </g>
      <g id="use424">
        <path id="_1M-2" data-name="1M" class="cls-7" d="m120.68,248.73s-3.16-1.6-4.63-2.57c-1.24-.82-2.42-1.75-3.52-2.75-.93-.85-1.75-1.82-2.59-2.75-.76-.84-2.22-2.57-2.22-2.57"/>
      </g>
      <g id="use426">
        <path id="_1N-2" data-name="1N" class="cls-7" d="m107.72,264.91s-3.31-1.63-4.85-2.62c-1.3-.84-2.53-1.78-3.69-2.81-.98-.87-1.83-1.85-2.72-2.81-.79-.86-2.33-2.62-2.33-2.62"/>
      </g>
      <g id="use428">
        <path id="_1O-2" data-name="1O" class="cls-7" d="m109.19,262.41s-3.36-1.66-4.92-2.67c-1.32-.86-2.57-1.82-3.74-2.86-.99-.88-1.86-1.89-2.76-2.86-.81-.87-2.36-2.67-2.36-2.67"/>
      </g>
      <g id="use430">
        <path id="_1P-2" data-name="1P" class="cls-7" d="m111.38,260.16s-3.31-1.56-4.85-2.52c-1.3-.81-2.53-1.72-3.69-2.7-.98-.83-1.83-1.78-2.72-2.7-.79-.82-2.33-2.52-2.33-2.52"/>
      </g>
      <g id="use432">
        <path id="_1Q-2" data-name="1Q" class="cls-7" d="m113.05,257.66s-3.26-1.66-4.77-2.67c-1.28-.86-2.5-1.82-3.63-2.86-.96-.88-1.8-1.89-2.67-2.86-.78-.87-2.29-2.67-2.29-2.67"/>
      </g>
      <g id="use434">
        <path id="_1R-2" data-name="1R" class="cls-7" d="m114.93,255.15s-3.11-1.56-4.55-2.52c-1.22-.81-2.38-1.72-3.46-2.7-.92-.83-1.72-1.78-2.55-2.7-.75-.82-2.18-2.52-2.18-2.52"/>
      </g>
      <g id="use436">
        <path id="_1S-2" data-name="1S" class="cls-7" d="m116.81,252.75s-3.21-1.53-4.7-2.47c-1.26-.79-2.46-1.68-3.57-2.64-.95-.82-1.77-1.75-2.63-2.64-.77-.81-2.26-2.47-2.26-2.47"/>
      </g>
      <g id="use438">
        <path id="_1T-2" data-name="1T" class="cls-7" d="m118.48,250.66s-3.06-1.56-4.48-2.52c-1.2-.81-2.34-1.72-3.4-2.7-.9-.83-1.69-1.78-2.51-2.7-.73-.82-2.15-2.52-2.15-2.52"/>
      </g>
      <g id="use440">
        <path id="_1U-2" data-name="1U" class="cls-7" d="m130.8,238.04s-2.09-.94-3.06-1.51c-1.58-.89-2.85-2.06-4.04-3.24-.5-.49-1.47-1.51-1.47-1.51"/>
      </g>
      <g id="use442">
        <path id="_1V-2" data-name="1V" class="cls-7" d="m122.14,246.75s-3-1.63-4.4-2.62c-1.18-.84-2.3-1.78-3.34-2.81-.89-.87-1.66-1.85-2.47-2.81-.72-.86-2.11-2.62-2.11-2.62"/>
      </g>
      <g id="use444">
        <path id="_1W-2" data-name="1W" class="cls-7" d="m125.06,244.46s-3.26-1.56-4.77-2.52c-1.28-.81-2.5-1.72-3.63-2.7-.96-.83-1.8-1.78-2.67-2.7-.78-.82-2.29-2.52-2.29-2.52"/>
      </g>
      <g id="use446">
        <path id="_1X-2" data-name="1X" class="cls-7" d="m126.94,242.05s-3.21-1.53-4.7-2.47c-1.26-.79-2.46-1.68-3.57-2.64-.95-.82-1.77-1.75-2.63-2.64-.77-.81-2.26-2.47-2.26-2.47"/>
      </g>
      <g id="use448">
        <path id="_1Y-2" data-name="1Y" class="cls-7" d="m128.61,239.96s-2.65-1.22-3.88-1.96c-1.04-.63-2.03-1.34-2.95-2.11-.78-.65-1.46-1.39-2.17-2.11-.64-.64-1.86-1.96-1.86-1.96"/>
      </g>
      <g id="use450">
        <path id="_1Z-2" data-name="1Z" class="cls-7" d="m137.23,233.32c-1.25-.3-2.19-.9-2.66-1.36"/>
      </g>
      <g id="use452">
        <path id="_1a-2" data-name="1a" class="cls-7" d="m133.05,236.34s-2.16-1-3.13-1.67c-1.14-.78-3.13-2.71-3.13-2.71"/>
      </g>
      <g id="use454">
        <path id="_1b-2" data-name="1b" class="cls-7" d="m135.25,234.83c-1.86-.63-3.26-1.77-4.44-2.87"/>
      </g>
    </g>
    <g id="g456">
      <g id="use458">
        <path id="_1c-2" data-name="1c" class="cls-2" d="m43.14,318.69c-2.08-1.78-3.83-3.2-3.68-7.23-.42-4.94-1.47-9.79-2.22-14.68-.3-3.21-.67-6.45-.18-9.66.23-2.54.21-5.13-.59-7.57-.21-3.02,2.63-5.01,4.51-6.94,2.17-1.58,4.92-1.3,7.39-1.83,1.64-.82,2.22.7,1.99,2.02.12,6.01.67,13.05.79,19.06,2.88,1.82,4.32,2.58,7.29,2.73,2.93.08,4.18-1.01,4.14,2.86-.25,2.94-2.85,4.63-5.69,3.49-2.06-.6-1.76-.21-3.66-1.35,2.84.53,2.98,1.18,5.8,1.79,2.01-.53,3.56-.67,3.75,2.26,1.15,2.91-.49,4.15-2.57,5.14-2.63.12-1.9-.67-4.59-.34-.91-.05-2.96-1.4-4.11-1.86,2.6.33,4.7,2.45,7.36,2.2,1.72.75,3.52-3.25,5.06,1.75.16,2.58-2.43,3.98-4.08,5.5-1.37,1.09-3.32.33-4.85-.04-1.59-.63-3.32-1.09-4.94-1.53,3.02.08,5.67,1.99,8.72,1.78,2.9-.34,3.84-4.59,5.53-1.78,1.15,2.79-.85,5.47-2.66,7.43-1.69.56-2.39,1.36-4.99,1.6-1.65-.49-3.43-1.24-5.05-1.83-2.57-.04-5.98-2.52-8.47-2.95h0Z"/>
      </g>
      <g id="use460">
        <path id="_1d-2" data-name="1d" class="cls-2" d="m42.59,310.75s-.24-.9-.21-1.36c.05-.72.63-2.09.63-2.09"/>
      </g>
      <g id="use462">
        <path id="_1e-2" data-name="1e" class="cls-2" d="m43.75,301.88s.02-.71.1-1.04c.13-.51.63-1.46.63-1.46"/>
      </g>
      <g id="use464">
        <path id="_1f-2" data-name="1f" class="cls-2" d="m46.14,294.99s.58-1.98,1.25-2.71c.38-.41.91-.74,1.46-.83.42-.07,1.25.21,1.25.21"/>
      </g>
    </g>
    <g id="use466">
      <path id="V-2" data-name="V" class="cls-17" d="m56.8,225.7h-7.31l-.05,65.56c2.52,2.5,4.94,2.69,7.57,3.09l-.21-68.66Z"/>
    </g>
    <g id="use470">
      <path id="_1g-2" data-name="1g" class="cls-13" d="m133.23,395.9c-.54-1.58-1.3-3-1.69-4.57-.74-2.93-.45-6.07-1.27-8.98-.72-2.53-2.08-4.83-3.16-7.23-1-2.21-2.31-4.3-3.08-6.61-.44-1.32-.72-2.7-.84-4.09-.29-3.44.18-6.91.34-10.36.06-1.4.52-2.83.24-4.21-.32-1.6-.99-3.24-2.13-4.41-.91-.93-2.68-.76-3.48-1.79-1.71-2.22-.43-5.76-1.78-8.21-1.26-2.3-3.52-3.93-5.59-5.53-1.89-1.46-3.81-3.2-6.16-3.65-1.67-.32-3.34.96-5.04.78-1.88-.2-3.41-2.02-5.3-2.01-1.54.01-2.98.89-4.29,1.7-1.72,1.06-3.47,2.3-4.53,4.02-.52.85-.69,1.89-.76,2.88-.11,1.72.03,3.53.65,5.14.38.96,1.01,1.85,1.79,2.51.97.83,2.47.86,3.44,1.69.59.51,1.03,1.2,1.32,1.92.45,1.11.17,2.43.62,3.55,1,2.5,2.69,4.71,4.46,6.73,1.27,1.45,3.36,2.15,4.35,3.8.93,1.55.84,3.53,1.23,5.3.37,1.68.57,3.4,1.05,5.05.77,2.66,1.41,5.46,2.91,7.8,1.5,2.35,4.15,3.78,5.9,5.95,2.29,2.85,2.38,8.46,5.96,9.23.97.21-.27-2.42,2.48-1.61,3.52,1.04,5.73,2.66,8.65,3.84,1.22.49,3.07,1.18,3.7,1.36h0Z"/>
    </g>
    <g id="use472">
      <path id="_1h-2" data-name="1h" class="cls-7" d="m129.33,394.13c-.77-2.04-1.36-4.13-1.96-6.21-.48-1.65-.74-3.37-1.32-4.99-.95-2.63-2.57-4.98-3.51-7.61-.76-2.1-1.2-4.31-1.71-6.49-.46-1.97-1.05-3.94-1.23-5.95-.24-2.58.37-5.18.17-7.76-.12-1.57-.18-3.21-.82-4.64-1.11-2.47-4.12-3.83-5.04-6.37-.55-1.53.26-3.3-.13-4.88-.34-1.39-.87-2.85-1.9-3.85-1.29-1.26-3.24-1.63-4.92-2.29-2.38-.93-4.84-1.64-7.29-2.36-1.32-.38-2.63-.83-3.98-1.04-1.31-.2-2.74-.69-3.97-.19-1.71.7-3.38,2.25-3.79,4.06-.31,1.37.57,2.81,1.29,4.02.52.87,1.14,1.91,2.11,2.19,1.16.33,2.54-.17,3.53-.87.72-.51,1.25-1.35,1.46-2.21.21-.87.35-2.06-.3-2.68-.59-.56-1.73-.56-2.44-.17-.63.34-.7,1.26-1.05,1.89"/>
    </g>
    <g id="use474">
      <path id="_1i-2" data-name="1i" class="cls-7" d="m127.17,393.58c-1.21-2.1-2.64-4.08-3.73-6.24-1.41-2.79-2.59-5.7-3.62-8.65-.79-2.26-1.36-4.59-1.96-6.9-.66-2.51-1.5-5.01-1.81-7.59-.38-3.19.81-6.54-.01-9.64-.22-.84-.8-1.56-1.3-2.28-1.46-2.13-4-3.59-4.9-6.02-.53-1.44.28-3.12-.12-4.6-.42-1.57-.86-3.33-2.34-4.27-1.69-1.07-4.31-2.9-6.56-2.46-2.24.44-4.1,3.16-5.43,2.93"/>
    </g>
    <g id="use476">
      <path id="_1j-2" data-name="1j" class="cls-7" d="m122.02,390.88c-1.84-3.13-3.23-6.52-4.58-9.89-1.63-4.05-3.27-8.14-4.25-12.39-.82-3.53-.45-7.28-1.35-10.79-.52-2.05-1.41-4-2.34-5.9-.85-1.75-2.07-3.29-2.94-5.03-1.1-2.19-.7-5.63-2.87-6.75-2.15-1.11-4.75.93-7.08,1.55-1.04.28-2.27.29-3.08.99-.64.55-.75,1.5-1.13,2.25"/>
    </g>
    <g id="use478">
      <path id="_1k-2" data-name="1k" class="cls-7" d="m118.78,390.88c-1.19-2.59-2.87-4.93-4-7.53-.95-2.17-1.57-4.46-2.32-6.7-1.1-3.24-2.46-6.4-3.22-9.74-.75-3.31-.29-6.86-1.28-10.1-.85-2.78-2.58-5.2-3.94-7.78-.83-1.57-1.02-3.78-2.56-4.66-1.44-.83-3.51-.66-4.99.1-.75.38-1.33,1.19-1.51,2.01-.22,1.01-.13,2.38.68,3.03.55.44,1.63.52,2.13,0,.43-.44.16-1.26-.05-1.84,0-.02-.05-.06-.05-.06"/>
    </g>
    <g id="use480">
      <path id="_1l-2" data-name="1l" class="cls-7" d="m110.92,381.14c-.82-1.74-1.92-3.36-2.57-5.18-1.49-4.15-1.96-8.61-3.02-12.89-.66-2.67-.63-5.66-2.09-7.99-.49-.78-1.25-1.43-2.09-1.79-1.66-.7-3.61-.19-5.38-.52-.37-.07-.73-.2-1.09-.3"/>
    </g>
    <text class="cls-23" transform="translate(16.02 55.77) scale(1.01 1)"><tspan x="0" y="0">J</tspan></text>
    <text class="cls-23" transform="translate(281.8 393.65) rotate(-180) scale(1.01 1)"><tspan x="0" y="0">J</tspan></text>
    <path id="path20" class="cls-22" d="m24.98,80.96s.57-3.49,1.67-4.59,3.04-1.67,4.59-1.67,3.49.57,4.59,1.67,1.67,3.04,1.67,4.59-.83,3.76-1.67,4.59-1.67,1.25-2.5,2.09-1.25.83-2.09,1.67l-2.09,2.09c-.83.83-2.09,2.5-2.92,4.17s-1.25,4.17-1.25,4.17c0,0-.42-2.5-1.25-4.17s-2.09-3.34-2.92-4.17l-2.09-2.09c-.83-.83-1.25-.83-2.09-1.67s-1.67-1.25-2.5-2.09-1.67-3.04-1.67-4.59.57-3.49,1.67-4.59c1.1-1.1,3.04-1.67,4.59-1.67s3.49.57,4.59,1.67,1.67,4.59,1.67,4.59"/>
    <path id="path24" class="cls-22" d="m72.72,57.35s1.36-8.36,4-11c2.64-2.64,7.27-4,11-4s8.36,1.37,11,4c2.64,2.64,4,7.27,4,11s-2,9-4,11c-2,2-4,3-6,5s-3,2-5,4c-2,2-3,3-5,5s-5,6-7,10c-2,4-3,10-3,10,0,0-1-6-3-10s-5-8-7-10c-2-2-3-3-5-5s-3-2-5-4c-2-2-4-3-6-5-2-2-4-7.27-4-11s1.36-8.36,4-11c2.64-2.64,7.27-4,11-4s8.36,1.37,11,4c2.64,2.64,4,11,4,11"/>
    <path id="path20-2" data-name="path20" class="cls-22" d="m275.81,369.05s-.57,3.49-1.67,4.59-3.04,1.67-4.59,1.67-3.49-.57-4.59-1.67-1.67-3.04-1.67-4.59.83-3.76,1.67-4.59,1.67-1.25,2.5-2.09,1.25-.83,2.09-1.67l2.09-2.09c.83-.83,2.09-2.5,2.92-4.17s1.25-4.17,1.25-4.17c0,0,.42,2.5,1.25,4.17s2.09,3.34,2.92,4.17l2.09,2.09c.83.83,1.25.83,2.09,1.67s1.67,1.25,2.5,2.09,1.67,3.04,1.67,4.59-.57,3.49-1.67,4.59c-1.1,1.1-3.04,1.67-4.59,1.67s-3.49-.57-4.59-1.67-1.67-4.59-1.67-4.59"/>
    <path id="path24-2" data-name="path24" class="cls-22" d="m228.07,392.66s-1.36,8.36-4,11c-2.64,2.64-7.27,4-11,4s-8.36-1.37-11-4c-2.64-2.64-4-7.27-4-11s2-9,4-11c2-2,4-3,6-5s3-2,5-4c2-2,3-3,5-5s5-6,7-10c2-4,3-10,3-10,0,0,1,6,3,10s5,8,7,10c2,2,3,3,5,5s3,2,5,4c2,2,4,3,6,5,2,2,4,7.27,4,11s-1.36,8.36-4,11c-2.64,2.64-7.27,4-11,4s-8.36-1.37-11-4c-2.64-2.64-4-11-4-11"/>
    <path id="K-2" data-name="K" class="cls-9" d="m135.03,74.12c0,1.26-.98,2.29-2.19,2.29s-2.19-1.03-2.19-2.29.98-2.29,2.19-2.29,2.19,1.03,2.19,2.29Z"/>
    <path id="M-2" data-name="M" class="cls-19" d="m133.06,74.12c0,.29-.22.52-.5.52s-.5-.23-.5-.52.22-.52.5-.52.5.23.5.52Z"/>
    <path id="K-3" data-name="K" class="cls-9" d="m142.82,375.16c0-1.26.98-2.29,2.19-2.29s2.19,1.03,2.19,2.29-.98,2.29-2.19,2.29-2.19-1.03-2.19-2.29Z"/>
    <path id="M-3" data-name="M" class="cls-19" d="m144.79,375.16c0-.29.22-.52.5-.52s.5.23.5.52-.22.52-.5.52-.5-.23-.5-.52Z"/>
    <path id="K-4" data-name="K" class="cls-9" d="m164.76,376.35c0-1.26.98-2.29,2.19-2.29s2.19,1.03,2.19,2.29-.98,2.29-2.19,2.29-2.19-1.03-2.19-2.29Z"/>
    <path id="M-4" data-name="M" class="cls-19" d="m166.73,376.36c0-.29.22-.52.5-.52s.5.23.5.52-.22.52-.5.52-.5-.23-.5-.52Z"/>
  </g>
</svg>