<?xml version="1.0" encoding="UTF-8"?>
<svg xmlns="http://www.w3.org/2000/svg" viewBox="0 0 300 450">
  <defs>
    <style>
      .cls-1 {
        font-size: 64.91px;
      }

      .cls-1, .cls-2, .cls-3 {
        fill: #f20000;
      }

      .cls-1, .cls-3 {
        font-family: SourceSerifRoman-Semibold, 'Source Serif Variable';
        font-variation-settings: 'wght' 600;
        font-weight: 600;
      }

      .cls-4 {
        fill: #fff;
        stroke: #000;
      }

      .cls-3 {
        font-size: 64.05px;
      }
    </style>
  </defs>
  <g id="Layer_2" data-name="Layer 2">
    <path id="rect6" class="cls-4" d="m26.14.38h248.29c13.73,0,24.86,11.14,24.86,24.89v398.22c0,13.75-11.13,24.89-24.86,24.89H26.14c-13.73,0-24.86-11.14-24.86-24.89V25.27C1.28,11.52,12.41.38,26.14.38Z"/>
  </g>
  <g id="Layer_1" data-name="Layer 1">
    <text class="cls-3" transform="translate(11.83 66.47) scale(.78 1)"><tspan x="0" y="0">9</tspan></text>
    <text class="cls-1" transform="translate(288.25 383.79) rotate(-180) scale(.77 1)"><tspan x="0" y="0">9</tspan></text>
    <path id="path10" class="cls-2" d="m25.15,80.98s.57-3.49,1.67-4.59,3.04-1.67,4.6-1.67,3.49.57,4.6,1.67,1.67,3.04,1.67,4.59-.84,3.76-1.67,4.59-1.67,1.25-2.51,2.09-1.25.83-2.09,1.67l-2.09,2.09c-.84.83-2.09,2.5-2.92,4.17s-1.25,4.17-1.25,4.17c0,0-.42-2.5-1.25-4.17s-2.09-3.34-2.92-4.17l-2.09-2.09c-.84-.83-1.25-.83-2.09-1.67s-1.67-1.25-2.51-2.09-1.67-3.04-1.67-4.59.57-3.49,1.67-4.59,3.04-1.67,4.6-1.67,3.49.57,4.6,1.67,1.67,4.59,1.67,4.59"/>
    <path id="path12" class="cls-2" d="m275.76,369.02s.52,3.5,1.61,4.61,3.02,1.71,4.57,1.73,3.5-.52,4.62-1.61,1.71-3.01,1.73-4.57-.78-3.77-1.61-4.61-1.65-1.27-2.48-2.12-1.24-.85-2.07-1.7l-2.06-2.12c-.82-.85-2.06-2.53-2.87-4.21s-1.2-4.19-1.2-4.19c0,0-.45,2.5-1.31,4.16s-2.13,3.31-2.98,4.13l-2.12,2.06c-.85.82-1.26.82-2.11,1.64s-1.69,1.23-2.53,2.05-1.71,3.01-1.73,4.57.52,3.5,1.61,4.61,3.02,1.71,4.57,1.73,3.5-.52,4.62-1.61,1.73-4.57,1.73-4.57"/>
    <path id="path18" class="cls-2" d="m83.65,58.02s1.52-9.31,4.46-12.25c2.94-2.93,8.1-4.45,12.26-4.45s9.32,1.52,12.26,4.45c2.94,2.93,4.46,8.1,4.46,12.25s-2.23,10.02-4.46,12.25c-2.23,2.23-4.46,3.34-6.69,5.57s-3.34,2.23-5.57,4.45l-5.57,5.57c-2.23,2.23-5.57,6.68-7.8,11.13-2.23,4.45-3.34,11.13-3.34,11.13,0,0-1.11-6.68-3.34-11.13s-5.57-8.91-7.8-11.13l-5.57-5.57c-2.23-2.23-3.34-2.23-5.57-4.45-2.23-2.23-4.46-3.34-6.69-5.57s-4.46-8.1-4.46-12.25,1.52-9.31,4.46-12.25c2.94-2.93,8.1-4.45,12.26-4.45s9.32,1.52,12.26,4.45c2.94,2.93,4.46,12.25,4.46,12.25"/>
    <path id="path20" class="cls-2" d="m217.35,58.02s1.52-9.31,4.46-12.25c2.94-2.93,8.1-4.45,12.26-4.45s9.32,1.52,12.26,4.45c2.94,2.93,4.46,8.1,4.46,12.25s-2.23,10.02-4.46,12.25c-2.23,2.23-4.46,3.34-6.69,5.57s-3.34,2.23-5.57,4.45l-5.57,5.57c-2.23,2.23-5.57,6.68-7.8,11.13-2.23,4.45-3.34,11.13-3.34,11.13,0,0-1.11-6.68-3.34-11.13s-5.57-8.91-7.8-11.13l-5.57-5.57c-2.23-2.23-3.34-2.23-5.57-4.45-2.23-2.23-4.46-3.34-6.69-5.57s-4.46-8.1-4.46-12.25,1.52-9.31,4.46-12.25c2.94-2.93,8.1-4.45,12.26-4.45s9.32,1.52,12.26,4.45c2.94,2.93,4.46,12.25,4.46,12.25"/>
    <path id="path22" class="cls-2" d="m83.65,158.21s1.52-9.31,4.46-12.25c2.94-2.93,8.1-4.45,12.26-4.45s9.32,1.52,12.26,4.45c2.94,2.93,4.46,8.1,4.46,12.25s-2.23,10.02-4.46,12.25c-2.23,2.23-4.46,3.34-6.69,5.57s-3.34,2.23-5.57,4.45l-5.57,5.57c-2.23,2.23-5.57,6.68-7.8,11.13-2.23,4.45-3.34,11.13-3.34,11.13,0,0-1.11-6.68-3.34-11.13s-5.57-8.91-7.8-11.13l-5.57-5.57c-2.23-2.23-3.34-2.23-5.57-4.45-2.23-2.23-4.46-3.34-6.69-5.57s-4.46-8.1-4.46-12.25,1.52-9.31,4.46-12.25c2.94-2.93,8.1-4.45,12.26-4.45s9.32,1.52,12.26,4.45c2.94,2.93,4.46,12.25,4.46,12.25"/>
    <path id="path24" class="cls-2" d="m217.35,158.21s1.52-9.31,4.46-12.25c2.94-2.93,8.1-4.45,12.26-4.45s9.32,1.52,12.26,4.45c2.94,2.93,4.46,8.1,4.46,12.25s-2.23,10.02-4.46,12.25c-2.23,2.23-4.46,3.34-6.69,5.57s-3.34,2.23-5.57,4.45l-5.57,5.57c-2.23,2.23-5.57,6.68-7.8,11.13-2.23,4.45-3.34,11.13-3.34,11.13,0,0-1.11-6.68-3.34-11.13s-5.57-8.91-7.8-11.13l-5.57-5.57c-2.23-2.23-3.34-2.23-5.57-4.45-2.23-2.23-4.46-3.34-6.69-5.57s-4.46-8.1-4.46-12.25,1.52-9.31,4.46-12.25c2.94-2.93,8.1-4.45,12.26-4.45s9.32,1.52,12.26,4.45c2.94,2.93,4.46,12.25,4.46,12.25"/>
    <path id="path26" class="cls-2" d="m83.65,391.98s1.52,9.31,4.46,12.25c2.94,2.93,8.1,4.45,12.26,4.45s9.32-1.52,12.26-4.45c2.94-2.93,4.46-8.1,4.46-12.25s-2.23-10.02-4.46-12.25c-2.23-2.23-4.46-3.34-6.69-5.57s-3.34-2.23-5.57-4.45l-5.57-5.57c-2.23-2.23-5.57-6.68-7.8-11.13-2.23-4.45-3.34-11.13-3.34-11.13,0,0-1.11,6.68-3.34,11.13s-5.57,8.91-7.8,11.13l-5.57,5.57c-2.23,2.23-3.34,2.23-5.57,4.45-2.23,2.23-4.46,3.34-6.69,5.57s-4.46,8.1-4.46,12.25,1.52,9.31,4.46,12.25c2.94,2.93,8.1,4.45,12.26,4.45s9.32-1.52,12.26-4.45c2.94-2.93,4.46-12.25,4.46-12.25"/>
    <path id="path28" class="cls-2" d="m217.35,391.98s1.52,9.31,4.46,12.25c2.94,2.93,8.1,4.45,12.26,4.45s9.32-1.52,12.26-4.45c2.94-2.93,4.46-8.1,4.46-12.25s-2.23-10.02-4.46-12.25c-2.23-2.23-4.46-3.34-6.69-5.57s-3.34-2.23-5.57-4.45c-2.23-2.23-3.34-3.34-5.57-5.57s-5.57-6.68-7.8-11.13c-2.23-4.45-3.34-11.13-3.34-11.13,0,0-1.11,6.68-3.34,11.13s-5.57,8.91-7.8,11.13-3.34,3.34-5.57,5.57-3.34,2.23-5.57,4.45c-2.23,2.23-4.46,3.34-6.69,5.57s-4.46,8.1-4.46,12.25,1.52,9.31,4.46,12.25c2.94,2.93,8.1,4.45,12.26,4.45s9.32-1.52,12.26-4.45c2.94-2.93,4.46-12.25,4.46-12.25"/>
    <path id="path30" class="cls-2" d="m83.65,291.79s1.52,9.31,4.46,12.25c2.94,2.93,8.1,4.45,12.26,4.45s9.32-1.52,12.26-4.45c2.94-2.93,4.46-8.1,4.46-12.25s-2.23-10.02-4.46-12.25c-2.23-2.23-4.46-3.34-6.69-5.57s-3.34-2.23-5.57-4.45l-5.57-5.57c-2.23-2.23-5.57-6.68-7.8-11.13-2.23-4.45-3.34-11.13-3.34-11.13,0,0-1.11,6.68-3.34,11.13s-5.57,8.91-7.8,11.13l-5.57,5.57c-2.23,2.23-3.34,2.23-5.57,4.45-2.23,2.23-4.46,3.34-6.69,5.57s-4.46,8.1-4.46,12.25,1.52,9.31,4.46,12.25c2.94,2.93,8.1,4.45,12.26,4.45s9.32-1.52,12.26-4.45c2.94-2.93,4.46-12.25,4.46-12.25"/>
    <path id="path32" class="cls-2" d="m217.35,291.79s1.52,9.31,4.46,12.25c2.94,2.93,8.1,4.45,12.26,4.45s9.32-1.52,12.26-4.45c2.94-2.93,4.46-8.1,4.46-12.25s-2.23-10.02-4.46-12.25c-2.23-2.23-4.46-3.34-6.69-5.57s-3.34-2.23-5.57-4.45l-5.57-5.57c-2.23-2.23-5.57-6.68-7.8-11.13-2.23-4.45-3.34-11.13-3.34-11.13,0,0-1.11,6.68-3.34,11.13s-5.57,8.91-7.8,11.13l-5.57,5.57c-2.23,2.23-3.34,2.23-5.57,4.45-2.23,2.23-4.46,3.34-6.69,5.57s-4.46,8.1-4.46,12.25,1.52,9.31,4.46,12.25c2.94,2.93,8.1,4.45,12.26,4.45s9.32-1.52,12.26-4.45c2.94-2.93,4.46-12.25,4.46-12.25"/>
    <path id="path34" class="cls-2" d="m150.5,208.3s1.52-9.31,4.46-12.25c2.94-2.93,8.1-4.45,12.26-4.45s9.32,1.52,12.26,4.45c2.94,2.93,4.46,8.1,4.46,12.25s-2.23,10.02-4.46,12.25c-2.23,2.23-4.46,3.34-6.69,5.57s-3.34,2.23-5.57,4.45l-5.57,5.57c-2.23,2.23-5.57,6.68-7.8,11.13-2.23,4.45-3.34,11.13-3.34,11.13,0,0-1.11-6.68-3.34-11.13s-5.57-8.91-7.8-11.13l-5.57-5.57c-2.23-2.23-3.34-2.23-5.57-4.45-2.23-2.23-4.46-3.34-6.69-5.57s-4.46-8.1-4.46-12.25,1.52-9.31,4.46-12.25c2.94-2.93,8.1-4.45,12.26-4.45s9.32,1.52,12.26,4.45c2.94,2.93,4.46,12.25,4.46,12.25"/>
  </g>
</svg>