<?xml version="1.0" encoding="UTF-8"?>
<svg xmlns="http://www.w3.org/2000/svg" viewBox="0 0 300 450">
  <defs>
    <style>
      .cls-1, .cls-2, .cls-3 {
        fill: #f20000;
      }

      .cls-4 {
        fill: #fff;
        stroke: #000;
      }

      .cls-2 {
        font-size: 64.05px;
      }

      .cls-2, .cls-3 {
        font-family: SourceSerifRoman-Semibold, 'Source Serif Variable';
        font-variation-settings: 'wght' 600;
        font-weight: 600;
      }

      .cls-3 {
        font-size: 64.06px;
      }
    </style>
  </defs>
  <g id="Layer_2" data-name="Layer 2">
    <path id="rect6" class="cls-4" d="m25.64.38h248.29c13.73,0,24.86,11.14,24.86,24.89v398.22c0,13.75-11.13,24.89-24.86,24.89H25.64c-13.73,0-24.86-11.14-24.86-24.89V25.27C.78,11.52,11.91.38,25.64.38Z"/>
  </g>
  <g id="Layer_1" data-name="Layer 1">
    <text class="cls-2" transform="translate(12.08 66.47) scale(.78 1)"><tspan x="0" y="0">3</tspan></text>
    <text class="cls-3" transform="translate(288.5 383.5) rotate(-180) scale(.78 1)"><tspan x="0" y="0">3</tspan></text>
    <path id="path10" class="cls-1" d="m150,208.45s1.51-9.23,4.42-12.14c2.91-2.91,8.03-4.41,12.15-4.41s9.24,1.51,12.15,4.41c2.91,2.91,4.42,8.02,4.42,12.14s-2.21,9.93-4.42,12.14c-2.21,2.21-4.42,3.31-6.63,5.52-2.21,2.21-3.31,2.21-5.52,4.41-2.21,2.21-3.31,3.31-5.52,5.52-2.21,2.21-5.52,6.62-7.73,11.03-2.21,4.41-3.31,11.03-3.31,11.03,0,0-1.1-6.62-3.31-11.03-2.21-4.41-5.52-8.83-7.73-11.03-2.21-2.21-3.31-3.31-5.52-5.52-2.21-2.21-3.31-2.21-5.52-4.41-2.21-2.21-4.42-3.31-6.63-5.52-2.21-2.21-4.42-8.02-4.42-12.14s1.51-9.23,4.42-12.14c2.91-2.91,8.03-4.41,12.15-4.41s9.24,1.51,12.15,4.41c2.91,2.91,4.42,12.14,4.42,12.14"/>
    <path id="path12" class="cls-1" d="m25.77,82.27s.56-3.46,1.66-4.55,3.01-1.65,4.56-1.65,3.46.56,4.56,1.65,1.66,3.01,1.66,4.55-.83,3.72-1.66,4.55-1.66,1.24-2.48,2.07-1.24.83-2.07,1.65l-2.07,2.07c-.83.83-2.07,2.48-2.9,4.14s-1.24,4.14-1.24,4.14c0,0-.41-2.48-1.24-4.14s-2.07-3.31-2.9-4.14l-2.07-2.07c-.83-.83-1.24-.83-2.07-1.65s-1.66-1.24-2.48-2.07-1.66-3.01-1.66-4.55.56-3.46,1.66-4.55c1.09-1.09,3.01-1.65,4.56-1.65s3.46.56,4.56,1.65,1.66,4.55,1.66,4.55"/>
    <path id="path14" class="cls-1" d="m274.23,367.73s.56,3.46,1.66,4.55,3.01,1.65,4.56,1.65,3.46-.56,4.56-1.65,1.66-3.01,1.66-4.55-.83-3.72-1.66-4.55-1.66-1.24-2.48-2.07-1.24-.83-2.07-1.65l-2.07-2.07c-.83-.83-2.07-2.48-2.9-4.14s-1.24-4.14-1.24-4.14c0,0-.41,2.48-1.24,4.14s-2.07,3.31-2.9,4.14l-2.07,2.07c-.83.83-1.24.83-2.07,1.65s-1.66,1.24-2.48,2.07-1.66,3.01-1.66,4.55.56,3.46,1.66,4.55,3.01,1.65,4.56,1.65,3.46-.56,4.56-1.65,1.66-4.55,1.66-4.55"/>
    <path id="path18" class="cls-1" d="m150,59.51s1.51-9.23,4.42-12.14c2.91-2.91,8.03-4.41,12.15-4.41s9.24,1.51,12.15,4.41c2.91,2.91,4.42,8.02,4.42,12.14s-2.21,9.93-4.42,12.14c-2.21,2.21-4.42,3.31-6.63,5.52-2.21,2.21-3.31,2.21-5.52,4.41-2.21,2.21-3.31,3.31-5.52,5.52-2.21,2.21-5.52,6.62-7.73,11.03-2.21,4.41-3.31,11.03-3.31,11.03,0,0-1.1-6.62-3.31-11.03-2.21-4.41-5.52-8.83-7.73-11.03-2.21-2.21-3.31-3.31-5.52-5.52-2.21-2.21-3.31-2.21-5.52-4.41-2.21-2.21-4.42-3.31-6.63-5.52-2.21-2.21-4.42-8.02-4.42-12.14s1.51-9.23,4.42-12.14c2.91-2.91,8.03-4.41,12.15-4.41s9.24,1.51,12.15,4.41c2.91,2.91,4.42,12.14,4.42,12.14"/>
    <path id="path20" class="cls-1" d="m150,390.49s1.51,9.23,4.42,12.14c2.91,2.91,8.03,4.41,12.15,4.41s9.24-1.51,12.15-4.41c2.91-2.91,4.42-8.02,4.42-12.14s-2.21-9.93-4.42-12.14c-2.21-2.21-4.42-3.31-6.63-5.52-2.21-2.21-3.31-2.21-5.52-4.41-2.21-2.21-3.31-3.31-5.52-5.52-2.21-2.21-5.52-6.62-7.73-11.03-2.21-4.41-3.31-11.03-3.31-11.03,0,0-1.1,6.62-3.31,11.03-2.21,4.41-5.52,8.83-7.73,11.03-2.21,2.21-3.31,3.31-5.52,5.52-2.21,2.21-3.31,2.21-5.52,4.41-2.21,2.21-4.42,3.31-6.63,5.52-2.21,2.21-4.42,8.02-4.42,12.14s1.51,9.23,4.42,12.14c2.91,2.91,8.03,4.41,12.15,4.41s9.24-1.51,12.15-4.41c2.91-2.91,4.42-12.14,4.42-12.14"/>
  </g>
</svg>