<?xml version="1.0" encoding="UTF-8"?>
<svg xmlns="http://www.w3.org/2000/svg" viewBox="0 0 300 450">
  <defs>
    <style>
      .cls-1, .cls-2, .cls-3 {
        fill: #f20000;
      }

      .cls-2 {
        font-size: 64.91px;
      }

      .cls-2, .cls-3 {
        font-family: SourceSerifRoman-Semibold, 'Source Serif Variable';
        font-variation-settings: 'wght' 600;
        font-weight: 600;
      }

      .cls-3 {
        font-size: 64.91px;
      }

      .cls-4 {
        fill: #fff;
        stroke: #000;
      }
    </style>
  </defs>
  <g id="Layer_2" data-name="Layer 2">
    <path id="rect6" class="cls-4" d="m25.64.38h248.29c13.73,0,24.86,11.14,24.86,24.89v398.22c0,13.75-11.13,24.89-24.86,24.89H25.64c-13.73,0-24.86-11.14-24.86-24.89V25.27C.78,11.52,11.91.38,25.64.38Z"/>
  </g>
  <g id="Layer_1" data-name="Layer 1">
    <text class="cls-3" transform="translate(13.5 66.19) scale(.77 1)"><tspan x="0" y="0">7</tspan></text>
    <text class="cls-2" transform="translate(286.92 383.79) rotate(-180) scale(.77 1)"><tspan x="0" y="0">7</tspan></text>
    <path id="path10" class="cls-1" d="m24.63,81.48s.56-3.49,1.65-4.6,3.03-1.68,4.59-1.69,3.5.55,4.6,1.65,1.68,3.03,1.69,4.58-.82,3.76-1.65,4.6-1.67,1.26-2.5,2.1-1.25.84-2.08,1.68l-2.08,2.1c-.83.84-2.08,2.51-2.91,4.19s-1.24,4.18-1.24,4.18c0,0-.43-2.5-1.27-4.17s-2.1-3.33-2.94-4.16l-2.1-2.08c-.84-.83-1.26-.83-2.1-1.66s-1.68-1.25-2.52-2.08-1.68-3.03-1.69-4.58.56-3.49,1.65-4.6c1.1-1.11,3.03-1.68,4.59-1.69s3.5.55,4.6,1.65,1.69,4.58,1.69,4.58"/>
    <path id="path12" class="cls-1" d="m275.35,369.52s.57,3.49,1.67,4.59,3.04,1.67,4.6,1.67,3.49-.57,4.6-1.67,1.67-3.04,1.67-4.59-.84-3.76-1.67-4.59-1.67-1.25-2.51-2.09-1.25-.83-2.09-1.67l-2.09-2.09c-.84-.83-2.09-2.5-2.92-4.17s-1.25-4.17-1.25-4.17c0,0-.42,2.5-1.25,4.17s-2.09,3.34-2.92,4.17l-2.09,2.09c-.84.83-1.25.83-2.09,1.67s-1.67,1.25-2.51,2.09-1.67,3.04-1.67,4.59.57,3.49,1.67,4.59,3.04,1.67,4.6,1.67,3.49-.57,4.6-1.67,1.67-4.59,1.67-4.59"/>
    <path id="path14" class="cls-1" d="m83.15,58.52s1.52-9.31,4.46-12.25c2.94-2.93,8.1-4.45,12.26-4.45s9.32,1.52,12.26,4.45c2.94,2.93,4.46,8.1,4.46,12.25s-2.23,10.02-4.46,12.25c-2.23,2.23-4.46,3.34-6.69,5.57-2.23,2.23-3.34,2.23-5.57,4.45-2.23,2.23-3.34,3.34-5.57,5.57s-5.57,6.68-7.8,11.13c-2.23,4.45-3.34,11.13-3.34,11.13,0,0-1.11-6.68-3.34-11.13s-5.57-8.91-7.8-11.13c-2.23-2.23-3.34-3.34-5.57-5.57s-3.34-2.23-5.57-4.45c-2.23-2.23-4.46-3.34-6.69-5.57-2.23-2.23-4.46-8.1-4.46-12.25s1.52-9.31,4.46-12.25c2.94-2.93,8.1-4.45,12.26-4.45s9.32,1.52,12.26,4.45c2.94,2.93,4.46,12.25,4.46,12.25"/>
    <path id="path16" class="cls-1" d="m83.15,392.48s1.52,9.31,4.46,12.25c2.94,2.93,8.1,4.45,12.26,4.45s9.32-1.52,12.26-4.45c2.94-2.93,4.46-8.1,4.46-12.25s-2.23-10.02-4.46-12.25c-2.23-2.23-4.46-3.34-6.69-5.57-2.23-2.23-3.34-2.23-5.57-4.45-2.23-2.23-3.34-3.34-5.57-5.57s-5.57-6.68-7.8-11.13c-2.23-4.45-3.34-11.13-3.34-11.13,0,0-1.11,6.68-3.34,11.13s-5.57,8.91-7.8,11.13c-2.23,2.23-3.34,3.34-5.57,5.57s-3.34,2.23-5.57,4.45c-2.23,2.23-4.46,3.34-6.69,5.57-2.23,2.23-4.46,8.1-4.46,12.25s1.52,9.31,4.46,12.25c2.94,2.93,8.1,4.45,12.26,4.45s9.32-1.52,12.26-4.45c2.94-2.93,4.46-12.25,4.46-12.25"/>
    <path id="path18" class="cls-1" d="m216.85,392.48s1.52,9.31,4.46,12.25c2.94,2.93,8.1,4.45,12.26,4.45s9.32-1.52,12.26-4.45c2.94-2.93,4.46-8.1,4.46-12.25s-2.23-10.02-4.46-12.25c-2.23-2.23-4.46-3.34-6.69-5.57s-3.34-2.23-5.57-4.45c-2.23-2.23-3.34-3.34-5.57-5.57s-5.57-6.68-7.8-11.13c-2.23-4.45-3.34-11.13-3.34-11.13,0,0-1.11,6.68-3.34,11.13-2.23,4.45-5.57,8.91-7.8,11.13-2.23,2.23-3.34,3.34-5.57,5.57-2.23,2.23-3.34,2.23-5.57,4.45-2.23,2.23-4.46,3.34-6.69,5.57-2.23,2.23-4.46,8.1-4.46,12.25s1.52,9.31,4.46,12.25c2.94,2.93,8.1,4.45,12.26,4.45s9.32-1.52,12.26-4.45c2.94-2.93,4.46-12.25,4.46-12.25"/>
    <path id="path20" class="cls-1" d="m216.85,58.52s1.52-9.31,4.46-12.25c2.94-2.93,8.1-4.45,12.26-4.45s9.32,1.52,12.26,4.45c2.94,2.93,4.46,8.1,4.46,12.25s-2.23,10.02-4.46,12.25c-2.23,2.23-4.46,3.34-6.69,5.57s-3.34,2.23-5.57,4.45l-5.57,5.57c-2.23,2.23-5.57,6.68-7.8,11.13-2.23,4.45-3.34,11.13-3.34,11.13,0,0-1.11-6.68-3.34-11.13-2.23-4.45-5.57-8.91-7.8-11.13-2.23-2.23-3.34-3.34-5.57-5.57-2.23-2.23-3.34-2.23-5.57-4.45-2.23-2.23-4.46-3.34-6.69-5.57-2.23-2.23-4.46-8.1-4.46-12.25s1.52-9.31,4.46-12.25c2.94-2.93,8.1-4.45,12.26-4.45s9.32,1.52,12.26,4.45c2.94,2.93,4.46,12.25,4.46,12.25"/>
    <path id="path22" class="cls-1" d="m216.85,208.8s1.52-9.31,4.46-12.25c2.94-2.93,8.1-4.45,12.26-4.45s9.32,1.52,12.26,4.45c2.94,2.93,4.46,8.1,4.46,12.25s-2.23,10.02-4.46,12.25c-2.23,2.23-4.46,3.34-6.69,5.57s-3.34,2.23-5.57,4.45c-2.23,2.23-3.34,3.34-5.57,5.57s-5.57,6.68-7.8,11.13c-2.23,4.45-3.34,11.13-3.34,11.13,0,0-1.11-6.68-3.34-11.13-2.23-4.45-5.57-8.91-7.8-11.13-2.23-2.23-3.34-3.34-5.57-5.57-2.23-2.23-3.34-2.23-5.57-4.45-2.23-2.23-4.46-3.34-6.69-5.57-2.23-2.23-4.46-8.1-4.46-12.25s1.52-9.31,4.46-12.25c2.94-2.93,8.1-4.45,12.26-4.45s9.32,1.52,12.26,4.45c2.94,2.93,4.46,12.25,4.46,12.25"/>
    <path id="path24" class="cls-1" d="m83.15,208.8s1.52-9.31,4.46-12.25c2.94-2.93,8.1-4.45,12.26-4.45s9.32,1.52,12.26,4.45c2.94,2.93,4.46,8.1,4.46,12.25s-2.23,10.02-4.46,12.25c-2.23,2.23-4.46,3.34-6.69,5.57-2.23,2.23-3.34,2.23-5.57,4.45-2.23,2.23-3.34,3.34-5.57,5.57s-5.57,6.68-7.8,11.13c-2.23,4.45-3.34,11.13-3.34,11.13,0,0-1.11-6.68-3.34-11.13s-5.57-8.91-7.8-11.13c-2.23-2.23-3.34-3.34-5.57-5.57s-3.34-2.23-5.57-4.45c-2.23-2.23-4.46-3.34-6.69-5.57-2.23-2.23-4.46-8.1-4.46-12.25s1.52-9.31,4.46-12.25c2.94-2.93,8.1-4.45,12.26-4.45s9.32,1.52,12.26,4.45c2.94,2.93,4.46,12.25,4.46,12.25"/>
    <path id="path30" class="cls-1" d="m150,133.66s1.52-9.31,4.46-12.25c2.94-2.93,8.1-4.45,12.26-4.45s9.32,1.52,12.26,4.45c2.94,2.93,4.46,8.1,4.46,12.25s-2.23,10.02-4.46,12.25c-2.23,2.23-4.46,3.34-6.69,5.57-2.23,2.23-3.34,2.23-5.57,4.45-2.23,2.23-3.34,3.34-5.57,5.57-2.23,2.23-5.57,6.68-7.8,11.13-2.23,4.45-3.34,11.13-3.34,11.13,0,0-1.11-6.68-3.34-11.13s-5.57-8.91-7.8-11.13c-2.23-2.23-3.34-3.34-5.57-5.57-2.23-2.23-3.34-2.23-5.57-4.45-2.23-2.23-4.46-3.34-6.69-5.57-2.23-2.23-4.46-8.1-4.46-12.25s1.52-9.31,4.46-12.25c2.94-2.93,8.1-4.45,12.26-4.45s9.32,1.52,12.26,4.45c2.94,2.93,4.46,12.25,4.46,12.25"/>
  </g>
</svg>