<?xml version="1.0" encoding="utf-8"?>
<!-- Generator: Adobe Illustrator 27.1.1, SVG Export Plug-In . SVG Version: 6.00 Build 0)  -->
<svg version="1.1"
	 id="svg2" xmlns:sodipodi="http://sodipodi.sourceforge.net/DTD/sodipodi-0.dtd" xmlns:svg="http://www.w3.org/2000/svg" xmlns:rdf="http://www.w3.org/1999/02/22-rdf-syntax-ns#" xmlns:cc="http://web.resource.org/cc/" xmlns:inkscape="http://www.inkscape.org/namespaces/inkscape" xmlns:dc="http://purl.org/dc/elements/1.1/"
	 xmlns="http://www.w3.org/2000/svg" xmlns:xlink="http://www.w3.org/1999/xlink" x="0px" y="0px" viewBox="0 0 200 250"
	 style="enable-background:new 0 0 200 250;" xml:space="preserve">
<style type="text/css">
	.st0{fill-rule:evenodd;clip-rule:evenodd;fill:#FFFFFF;stroke:#000000;stroke-width:2;}
	.st1{fill:#FF9999;stroke:#FF0000;stroke-width:2;stroke-linecap:round;}
	.st2{fill-rule:evenodd;clip-rule:evenodd;fill:#FF0000;stroke:#FF0000;}
	.st3{fill:#FF0000;}
	.st4{font-family:'BodoniSvtyTwoITCTT-Book';}
	.st5{font-size:32px;}
	.st6{fill:#E2C69C;}
	.st7{fill:url(#path1859_00000152245176518468199300000016477155702285320379_);}
	.st8{fill-rule:evenodd;clip-rule:evenodd;fill:#8C3614;}
	.st9{fill:#FFFFFF;}
	.st10{fill:#04CD04;}
	.st11{fill:#0ECF0E;}
	.st12{fill-rule:evenodd;clip-rule:evenodd;fill:url(#path1879_00000068654414984285267020000008877858491073758089_);}
	.st13{fill:#005A00;}
	.st14{fill-rule:evenodd;clip-rule:evenodd;}
	.st15{fill-rule:evenodd;clip-rule:evenodd;fill:url(#path1889_00000064330775056157600510000016815739497917969047_);}
	.st16{fill-rule:evenodd;clip-rule:evenodd;fill:#260D3A;}
	.st17{fill-rule:evenodd;clip-rule:evenodd;fill:url(#path1893_00000174584273120969995270000010776156843041090947_);}
	.st18{fill-rule:evenodd;clip-rule:evenodd;fill:url(#path1895_00000043419824009561615910000017268638758361268648_);}
	.st19{fill:url(#path1897_00000130640295827300036460000007595938811730430612_);}
	.st20{display:none;fill:url(#path1899_00000157272198270543377600000007713064549585376432_);}
</style>
<sodipodi:namedview  bordercolor="#666666" borderopacity="1.0" gridspacingx="1px" gridspacingy="1px" gridtolerance="10000" guidetolerance="10" height="250px" id="base" inkscape:current-layer="layer1" inkscape:cx="135.79072" inkscape:cy="116.06818" inkscape:document-units="px" inkscape:grid-points="true" inkscape:guide-bbox="true" inkscape:pageopacity="0.0" inkscape:pageshadow="2" inkscape:window-height="965" inkscape:window-width="977" inkscape:window-x="0" inkscape:window-y="31" inkscape:zoom="2" objecttolerance="10" pagecolor="#ffffff" showgrid="true" showguides="true" width="200px">
	</sodipodi:namedview>
<g id="layer1" inkscape:groupmode="layer" inkscape:label="Layer 1">
	<path id="path3229" sodipodi:nodetypes="ccccccccc" class="st0" d="M199,10c0-5-4-9-9-9H10c-5,0-9,4-9,9v230c0,5,4,9,9,9h180
		c5,0,9-4,9-9V10z"/>
	<rect id="rect5541" x="40" y="27.5" class="st1" width="120" height="195"/>
	<path id="path3426_00000176024185752276563620000018418339497627930247_" sodipodi:nodetypes="csscssc" class="st2" d="M100,186.3
		c0,5.2,8.6,15.5,17.2,15.5s17.2-6.9,17.2-19c0-19-27.6-50-34.5-58.6c-6.9,8.6-34.5,39.6-34.5,58.6c0,12.1,8.6,19,17.2,19
		S100,191.5,100,186.3z"/>
	<path id="path3426" sodipodi:nodetypes="csscssc" class="st2" d="M100,60.6c0-5.2-8.6-15.5-17.2-15.5S65.5,52,65.5,64
		c0,19,27.6,50,34.5,58.6c6.9-8.6,34.5-39.6,34.5-58.6c0-12.1-8.6-19-17.2-19S100,55.4,100,60.6z"/>
	<text transform="matrix(-1 0 0 -1 181.5605 214.084)" class="st3 st4 st5">J</text>
	<path id="path3314" sodipodi:nodetypes="csscssc" class="st2" d="M177.3,201.4c0,1.2-2,3.6-4,3.6s-4-1.6-4-4.4
		c0-4.4,6.4-11.6,8-13.6c1.6,2,8,9.2,8,13.6c0,2.8-2,4.4-4,4.4S177.3,202.6,177.3,201.4z"/>
	<text transform="matrix(1 0 0 1 17.0399 36)" class="st3 st4 st5">J</text>
	<path id="path3316" sodipodi:nodetypes="csscssc" class="st2" d="M21.3,48.7c0-1.2-2-3.6-4-3.6s-4,1.6-4,4.4c0,4.4,6.4,11.6,8,13.6
		c1.6-2,8-9.2,8-13.6c0-2.8-2-4.4-4-4.4S21.3,47.5,21.3,48.7z"/>
	<g id="g1438" transform="translate(33.693772,28.838772)">
		<path id="path1857" class="st6" d="M85.2,85.6c0,11.4-7.6,20.7-16.9,20.7S51.5,97,51.5,85.6S59,64.9,68.4,64.9
			S85.2,74.2,85.2,85.6z"/>
		
			<linearGradient id="path1859_00000085213274831874347250000015832661385180938649_" gradientUnits="userSpaceOnUse" x1="7112.3252" y1="4114.6626" x2="7262.6626" y2="3989.6628" gradientTransform="matrix(0.1449 0 0 0.1449 -966.0212 -465.8155)">
			<stop  offset="0" style="stop-color:#008200"/>
			<stop  offset="1" style="stop-color:#00D000"/>
		</linearGradient>
		
			<path id="path1859" sodipodi:nodetypes="ccccccc" style="fill:url(#path1859_00000085213274831874347250000015832661385180938649_);" d="
			M64.8,106.7c-7,0-12.7,5.7-12.7,12.7v14.9c9.4,4.6,29.5,4.9,40.6,0v-14.9c0-7-5.7-12.7-12.7-12.7C80,106.7,64.8,106.7,64.8,106.7z
			"/>
		<path id="path1861" sodipodi:nodetypes="cccccc" class="st8" d="M49.6,75.9c2.5-4.5,5.1-13.2,19.1-13.1
			c21.8,0.6,16.6,23.4,24.5,25.8c-4.9,1.6-7.3,2.9-14.5,0.4c0.8-5.7-0.5-9.9-3.9-12.8C70.5,78.5,54,77.5,49.6,75.9z"/>
		<g id="g1863" transform="matrix(0.144857,0,0,9.790296e-2,17.25792,62.2885)">
			<path id="path1865" class="st9" d="M349,239.9c0,11.9-9.4,21.5-21,21.5s-21-9.6-21-21.5c0-11.9,9.4-21.5,21-21.5
				S349,228,349,239.9z"/>
			<path id="path1867" class="st10" d="M331,240.4c0,9.9-5.4,18-12,18s-12-8.1-12-18c0-9.9,5.4-18,12-18S331,230.4,331,240.4z"/>
			<path id="path1869" d="M322,241.9c0,8-3.4,14.5-7.5,14.5s-7.5-6.5-7.5-14.5c0-8,3.4-14.5,7.5-14.5S322,233.9,322,241.9z"/>
		</g>
		<g id="g1871" transform="matrix(0.144857,0,0,9.790296e-2,7.169442,61.9476)">
			<path id="path1873" class="st9" d="M349,239.9c0,11.9-9.4,21.5-21,21.5s-21-9.6-21-21.5s9.4-21.5,21-21.5S349,228,349,239.9z"/>
			<path id="path1875" class="st11" d="M331,240.4c0,9.9-5.4,18-12,18s-12-8.1-12-18s5.4-18,12-18S331,230.4,331,240.4z"/>
			<path id="path1877" d="M322,241.9c0,8-3.4,14.5-7.5,14.5s-7.5-6.5-7.5-14.5s3.4-14.5,7.5-14.5S322,233.9,322,241.9z"/>
		</g>
		
			<linearGradient id="path1879_00000143605785598097846120000002531291838739683718_" gradientUnits="userSpaceOnUse" x1="7098.73" y1="3909.0771" x2="7116.5762" y2="3884.8896" gradientTransform="matrix(0.1449 0 0 0.1449 -968.1421 -464.4622)">
			<stop  offset="0" style="stop-color:#C10000"/>
			<stop  offset="1" style="stop-color:#FF433E"/>
		</linearGradient>
		
			<path id="path1879" sodipodi:nodetypes="ccc" style="fill-rule:evenodd;clip-rule:evenodd;fill:url(#path1879_00000143605785598097846120000002531291838739683718_);" d="
			M56.8,99c1.8,3.6,6.9,1.9,11.7,0C63.2,99.5,59.5,99.9,56.8,99z"/>
		<path id="path1881" sodipodi:nodetypes="ccccc" class="st13" d="M78.9,122.6l1.3,0.1l1.4,14.5l-3.5,0.5L78.9,122.6z"/>
		<path id="path1883" sodipodi:nodetypes="ccccccc" class="st14" d="M59,86.9c-0.8,1.3-1.9,3.4-1.8,4.4c0.2,1,1.7,0.8,2.4,1.3
			l0.3-0.5c-0.7-0.5-1.8,0-1.9-0.8c-0.1-0.8,0.7-2.9,1.4-4.1L59,86.9z"/>
		<path id="path1885" sodipodi:nodetypes="cccc" class="st8" d="M60.3,94.5c-3.8,0.4-6.1,3.3-8.1,5.4c0,0,6.2-3.5,8.2-3.4
			C60.3,96.1,60.5,95.5,60.3,94.5z"/>
		<path id="path1887" sodipodi:nodetypes="cccc" class="st8" d="M61.2,94.4c3.4,0.3,9.8,3,10.1,5.5c0,0-7.9-4.2-9.7-3.6
			C61.6,95.8,61.2,95.3,61.2,94.4z"/>
		
			<linearGradient id="path1889_00000094579168746543002810000006904680721913020072_" gradientUnits="userSpaceOnUse" x1="33.1517" y1="639.049" x2="37.3046" y2="635.8615" gradientTransform="matrix(1 0 0 1 31.3967 -513.5305)">
			<stop  offset="0" style="stop-color:#F0EB00"/>
			<stop  offset="1" style="stop-color:#FFFF00"/>
		</linearGradient>
		
			<path id="path1889" sodipodi:nodetypes="ccccc" style="fill-rule:evenodd;clip-rule:evenodd;fill:url(#path1889_00000094579168746543002810000006904680721913020072_);" d="
			M58.6,108.4c3.6,11.2,8.7,20.9,14.5,29.5l3.7-0.1c-5.7-9.2-11.7-19.6-15.2-30.8C61.6,107,59.6,107.6,58.6,108.4z"/>
		<path id="path1891" sodipodi:nodetypes="ccccccccccccc" class="st16" d="M56.1,104.9l-0.2,10.2l9.3-5.7v1.4l3.7,0.3l-0.1-1.9
			l12.1,5.4l-1.2-12.1L69,107.9l-0.2-1.8l-3.7-0.2v1.9L56.1,104.9z"/>
		
			<linearGradient id="path1893_00000138544521816513661270000006303161805720519313_" gradientUnits="userSpaceOnUse" x1="36.2595" y1="581.3971" x2="44.5801" y2="578.9596" gradientTransform="matrix(1 0 0 1 27.8693 -513.4055)">
			<stop  offset="0" style="stop-color:#F0EB00"/>
			<stop  offset="1" style="stop-color:#FFFF00"/>
		</linearGradient>
		
			<path id="path1893" sodipodi:nodetypes="ccccc" style="fill-rule:evenodd;clip-rule:evenodd;fill:url(#path1893_00000138544521816513661270000006303161805720519313_);" d="
			M55.9,64.8l-0.5,2.6c7.7,2.2,17.9,1.9,26.8,0.9c0-0.4-0.3-2.5-0.3-2.5C73.2,66.7,62.3,66.6,55.9,64.8z"/>
		
			<linearGradient id="path1895_00000123400911856975313480000012728304684266394765_" gradientUnits="userSpaceOnUse" x1="25.8862" y1="577.917" x2="49.5254" y2="572.6808" gradientTransform="matrix(1 0 0 1 31.3967 -513.5305)">
			<stop  offset="0" style="stop-color:#008200"/>
			<stop  offset="1" style="stop-color:#00D000"/>
		</linearGradient>
		
			<path id="path1895" sodipodi:nodetypes="ccc" style="fill-rule:evenodd;clip-rule:evenodd;fill:url(#path1895_00000123400911856975313480000012728304684266394765_);" d="
			M68.1,66.3c28.5,3.8,23.5-13.4,1.6-7.6C48.5,51.3,43.4,68.6,68.1,66.3z"/>
		
			<linearGradient id="path1897_00000103259103040796273730000009533312107468367496_" gradientUnits="userSpaceOnUse" x1="37.2716" y1="573.213" x2="42.0216" y2="571.5255" gradientTransform="matrix(1 0 0 1 29.0567 -514.468)">
			<stop  offset="0" style="stop-color:#F0EB00"/>
			<stop  offset="1" style="stop-color:#FFFF00"/>
		</linearGradient>
		
			<path id="path1897" sodipodi:cx="107.09375" sodipodi:cy="56.40625" sodipodi:rx="3.71875" sodipodi:ry="1.65625" sodipodi:type="arc" style="fill:url(#path1897_00000103259103040796273730000009533312107468367496_);" d="
			M72.5,57.9c0,0.9-1.7,1.7-3.7,1.7S65,58.9,65,57.9s1.7-1.7,3.7-1.7S72.5,57,72.5,57.9z"/>
		
			<linearGradient id="path1899_00000083797872273366481340000013449431884882899597_" gradientUnits="userSpaceOnUse" x1="5683.2339" y1="3669.3716" x2="5441.8447" y2="3936.3943" gradientTransform="matrix(0.1869 0 0 0.1449 -939.2216 -477.784)">
			<stop  offset="0" style="stop-color:#FFFFFF"/>
			<stop  offset="1" style="stop-color:#FFFFFF;stop-opacity:0"/>
		</linearGradient>
		<path id="path1899" style="display:none;fill:url(#path1899_00000083797872273366481340000013449431884882899597_);" d="
			M68.8,56.3c-1.8,0-3.1,0.6-3.5,1.4c-12.9-2.7-17.6,4.5-9.5,7.6l-0.4,2.1c-3,2.8-4.4,6.3-5.7,8.7c0.8,0.3,2.2,0.5,3.6,0.7
			c-1.1,2.7-1.7,5.7-1.7,8.9c0,4.5,1.2,8.6,3.2,12c-0.8,0.8-1.7,1.7-2.4,2.4c0,0,1.5-0.8,3-1.5c3,4.6,7.6,7.7,12.8,7.8l-3.1-0.2v0.7
			H65c-0.9,0-1.8,0.1-2.7,0.3l-6.1-2.1l-0.1,5.5c-2.3,2.3-3.8,5.5-3.8,9v14.9c5,2.5,12.9,3.6,20.9,3.5c0,0,0,0,0,0.1l3.7-0.1
			c0-0.1-0.1-0.2-0.2-0.2c0.5,0,1-0.1,1.5-0.1v0.2l3.5-0.5l0,0c4.1-0.6,8-1.5,11.2-2.8v-14.9c0-7-5.7-12.7-12.7-12.7l-0.4-4.1
			l-8,4.1H69l-0.1-0.5h-0.2c7.9-0.1,14.5-6.8,16.3-15.9c3.1,0.2,5.3-0.7,8.5-1.7c-5.7-1.9-5-13.5-11.5-20.6c0,0,0,0,0.1,0
			c0-0.3-0.2-1.6-0.3-2.1c11-2.4,5.5-10.8-9.7-7.9c0.1-0.1,0.4-0.2,0.4-0.4C72.5,57,70.8,56.3,68.8,56.3z"/>
		<path id="path1885_00000168095799031316568860000005300374479909697687_" sodipodi:nodetypes="cccc" class="st8" d="M61.8,79.2
			c4.1,0.4,6.6,3.3,8.8,5.4c0,0-6.7-3.5-8.9-3.4C61.8,80.8,61.6,80.2,61.8,79.2z"/>
		<path id="path1887_00000126310234718365612770000000956024174142613903_" sodipodi:nodetypes="cccc" class="st8" d="M56.7,79.1
			c-2.4,0.3-7,3-7.2,5.5c0,0,5.6-4.2,6.9-3.6C56.4,80.5,56.7,80,56.7,79.1z"/>
	</g>
</g>
</svg>
