<?xml version="1.0" encoding="utf-8"?>
<!-- Generator: Adobe Illustrator 27.1.1, SVG Export Plug-In . SVG Version: 6.00 Build 0)  -->
<svg version="1.1"
	 id="svg2" xmlns:sodipodi="http://sodipodi.sourceforge.net/DTD/sodipodi-0.dtd" xmlns:svg="http://www.w3.org/2000/svg" xmlns:rdf="http://www.w3.org/1999/02/22-rdf-syntax-ns#" xmlns:cc="http://web.resource.org/cc/" xmlns:inkscape="http://www.inkscape.org/namespaces/inkscape" xmlns:dc="http://purl.org/dc/elements/1.1/"
	 xmlns="http://www.w3.org/2000/svg" xmlns:xlink="http://www.w3.org/1999/xlink" x="0px" y="0px" viewBox="0 0 200 250"
	 style="enable-background:new 0 0 200 250;" xml:space="preserve">
<style type="text/css">
	.st0{fill-rule:evenodd;clip-rule:evenodd;fill:#FFFFFF;stroke:#000000;stroke-width:2;}
	.st1{font-family:'ArialMT';}
	.st2{font-size:32px;}
	.st3{fill:none;stroke:#000000;}
	.st4{fill:#CCCCCC;stroke:#000000;stroke-width:2;stroke-linecap:round;}
	.st5{fill-rule:evenodd;clip-rule:evenodd;stroke:#000000;}
	.st6{fill:#99723F;}
	.st7{fill:url(#path1628_00000132079207758370059980000004985121758750576056_);}
	.st8{fill-rule:evenodd;clip-rule:evenodd;}
	.st9{fill:#FFFFFF;}
	.st10{fill:#1E2ECF;}
	.st11{fill:#1828CE;}
	.st12{fill-rule:evenodd;clip-rule:evenodd;fill:url(#path1648_00000177472710610301072180000013961707318872361379_);}
	.st13{fill:#700000;}
	.st14{fill-rule:evenodd;clip-rule:evenodd;fill:url(#path1666_00000117660524942688763650000016750589825221188286_);}
	.st15{fill-rule:evenodd;clip-rule:evenodd;fill:url(#path2436_00000090980126972305221470000011005125485377286333_);}
	.st16{fill-rule:evenodd;clip-rule:evenodd;fill:url(#path1466_00000102509246856803939680000014918150382553759125_);}
	.st17{fill-rule:evenodd;clip-rule:evenodd;fill:url(#path2448_00000131362499907097231920000014090681271245987480_);}
	.st18{fill:url(#path3498_00000149378462017688360860000006907567546858855866_);}
	.st19{fill:none;}
</style>
<sodipodi:namedview  bordercolor="#666666" borderopacity="1.0" gridspacingx="1px" gridspacingy="1px" gridtolerance="10000" guidetolerance="10" height="250px" id="base" inkscape:current-layer="layer1" inkscape:cx="142.89862" inkscape:cy="114.04472" inkscape:document-units="px" inkscape:grid-points="true" inkscape:guide-bbox="true" inkscape:pageopacity="0.0" inkscape:pageshadow="2" inkscape:window-height="965" inkscape:window-width="977" inkscape:window-x="0" inkscape:window-y="31" inkscape:zoom="2.8284271" objecttolerance="10" pagecolor="#ffffff" showgrid="true" showguides="true" width="200px">
	</sodipodi:namedview>
<g id="layer1" inkscape:groupmode="layer" inkscape:label="Layer 1">
	<path id="path3229" sodipodi:nodetypes="ccccccccc" class="st0" d="M199,10c0-5-4-9-9-9H10c-5,0-9,4-9,9v230c0,5,4,9,9,9h180
		c5,0,9-4,9-9V10z"/>
	<text transform="matrix(1 0 0 1 13.6462 38)" class="st1 st2">J</text>
	<text transform="matrix(1 0 0 1 13.6462 38)" class="st3 st1 st2">J</text>
	<text transform="matrix(-1 0 0 -1 184.9844 213.752)" class="st1 st2">J</text>
	<text transform="matrix(-1 0 0 -1 184.9844 213.752)" class="st3 st1 st2">J</text>
	<rect id="rect5541" x="40" y="27.5" class="st4" width="120" height="195"/>
	<path id="path3898" sodipodi:nodetypes="cssccccccssc" class="st5" d="M133.8,30c-8,12-18.5,19-18.5,29c0,9,5,11,8,11c4,0,7-2,7-9
		c0-2,2-2,2,0c0,10-2,10-4,15h11c-2-5-4-5-4-15c0-2,2-2,2,0c0,8,3,9,7,9c3,0,9-2,9-11C153.3,48.9,141.8,42,133.8,30z"/>
	<path id="path3902" sodipodi:nodetypes="cssccccccssc" class="st5" d="M65.8,220c-8-12-18.5-19-18.5-29c0-9,5-11,8-11c4,0,7,2,7,9
		c0,2,2,2,2,0c0-10-2-10-4-15h11c-2,5-4,5-4,15c0,2,2,2,2,0c0-8,3-9,7-9c3,0,9,2,9,11C85.3,201.1,73.8,208,65.8,220z"/>
	<path id="path3239" sodipodi:nodetypes="cssccccccssc" class="st5" d="M177.1,209.2c-3.2-4.8-7.4-7.6-7.4-11.6c0-3.6,2-4.4,3.2-4.4
		c1.6,0,2.8,0.8,2.8,3.6c0,0.8,0.8,0.8,0.8,0c0-4-0.8-4-1.6-6h4.4c-0.8,2-1.6,2-1.6,6c0,0.8,0.8,0.8,0.8,0c0-3.2,1.2-3.6,2.8-3.6
		c1.2,0,3.6,0.8,3.6,4.4C184.9,201.7,180.3,204.4,177.1,209.2z"/>
	<path id="path3237" sodipodi:nodetypes="cssccccccssc" class="st5" d="M21.1,43.3c-3.2,4.8-7.4,7.6-7.4,11.6c0,3.6,2,4.4,3.2,4.4
		c1.6,0,2.8-0.8,2.8-3.6c0-0.8,0.8-0.8,0.8,0c0,4-0.8,4-1.6,6h4.4c-0.8-2-1.6-2-1.6-6c0-0.8,0.8-0.8,0.8,0c0,3.2,1.2,3.6,2.8,3.6
		c1.2,0,3.6-0.8,3.6-4.4C28.9,50.8,24.3,48.1,21.1,43.3z"/>
	<path id="path3729" sodipodi:nodetypes="cccccccccccccccccc" d="M98,80.8c-6,3.8-13.5-3.2-17.5,4.9c-3.5,4.8,7.5,6.2,0.6,10.4
		c-4.8,5.1-4.5,7.4-0.4,8c-1.2,5.7-0.3,15.2,2.3,20.4c-3.2,3.9-0.8,2.6,3.6,3.4c-1.4,2.2-0.6,10-5.2,12.5c-2.3,7-0.6,14.6-1.1,21.9
		c11.3,4.7,24.6,5.3,35.4,2.8c4.7-1,10.1-1.4,9.2-8.1c0.3-8.4,1.3-19.5-7.9-23.8c-5.4-0.8-7.2-4.4-3-9.5c3.1-8.4,6.4-4.9,11.1-7
		c4.9-1.3-7-4.5-5.4-10c-1.5-4.3-3.4-9.3-6.4-12.7c7.7-0.7,8.5-8.7,2.3-10.3c-6.2-4.1-9.8,2.9-14.5-2.4
		C100.1,81.1,98.8,80.6,98,80.8z"/>
	<path id="path1624" class="st6" d="M115.3,112.1c0,11.4-7.6,20.7-16.9,20.7c-9.3,0-16.9-9.3-16.9-20.7s7.6-20.7,16.9-20.7
		C107.8,91.4,115.3,100.7,115.3,112.1z"/>
	
		<linearGradient id="path1628_00000107547822403245036780000004862852807794493855_" gradientUnits="userSpaceOnUse" x1="3746.1189" y1="-1825.29" x2="3896.4563" y2="-1700.2904" gradientTransform="matrix(0.1449 0 0 -0.1449 -448.0367 -107.4232)">
		<stop  offset="0" style="stop-color:#C10000"/>
		<stop  offset="1" style="stop-color:#FF433E"/>
	</linearGradient>
	
		<path id="path1628" sodipodi:nodetypes="ccccccc" style="fill:url(#path1628_00000107547822403245036780000004862852807794493855_);" d="
		M94.9,133.2c-7,0-12.7,5.7-12.7,12.7v14.9c9.4,4.6,29.5,4.9,40.6,0v-14.9c0-7-5.7-12.7-12.7-12.7H94.9z"/>
	<path id="path1630" sodipodi:nodetypes="cccccc" class="st8" d="M79.7,102.4c2.5-4.5,5.1-13.2,19.1-13.1
		c21.8,0.6,16.6,23.4,24.5,25.8c-4.9,1.6-7.3,2.9-14.5,0.4c0.8-5.7-0.5-9.9-3.9-12.8C100.6,105,84.1,104,79.7,102.4z"/>
	<g id="g1632" transform="matrix(0.144857,0,0,9.790296e-2,99.89529,25.53853)">
		<path id="path1634" class="st9" d="M-13.8,885.9c0,11.9-9.4,21.5-21,21.5s-21-9.6-21-21.5c0-11.9,9.4-21.5,21-21.5
			S-13.8,874-13.8,885.9z"/>
		<path id="path1636" class="st10" d="M-31.8,886.4c0,9.9-5.4,18-12,18s-12-8.1-12-18s5.4-18,12-18S-31.8,876.4-31.8,886.4z"/>
		<path id="path1638" d="M-40.8,887.9c0,8-3.4,14.5-7.5,14.5s-7.5-6.5-7.5-14.5c0-8,3.4-14.5,7.5-14.5S-40.8,879.8-40.8,887.9z"/>
	</g>
	<g id="g1640" transform="matrix(0.144857,0,0,9.790296e-2,89.80679,25.19761)">
		<path id="path1642" class="st9" d="M-13.8,885.9c0,11.9-9.4,21.5-21,21.5s-21-9.6-21-21.5s9.4-21.5,21-21.5S-13.8,874-13.8,885.9z
			"/>
		<path id="path1644" class="st11" d="M-31.8,886.4c0,9.9-5.4,18-12,18s-12-8.1-12-18s5.4-18,12-18S-31.8,876.4-31.8,886.4z"/>
		<path id="path1646" d="M-40.8,887.9c0,8-3.4,14.5-7.5,14.5s-7.5-6.5-7.5-14.5c0-8,3.4-14.5,7.5-14.5S-40.8,879.8-40.8,887.9z"/>
	</g>
	
		<linearGradient id="path1648_00000074411804950712117650000009405485296769518732_" gradientUnits="userSpaceOnUse" x1="3732.417" y1="-1619.1757" x2="3750.2634" y2="-1594.988" gradientTransform="matrix(0.1449 0 0 -0.1449 -450.1575 -106.07)">
		<stop  offset="0" style="stop-color:#C10000"/>
		<stop  offset="1" style="stop-color:#FF433E"/>
	</linearGradient>
	
		<path id="path1648" sodipodi:nodetypes="ccc" style="fill-rule:evenodd;clip-rule:evenodd;fill:url(#path1648_00000074411804950712117650000009405485296769518732_);" d="
		M86.9,125.4c1.8,3.6,6.9,1.9,11.7,0C93.3,126,89.6,126.4,86.9,125.4z"/>
	<path id="path1650" sodipodi:nodetypes="ccccc" class="st13" d="M109,149.1l1.3,0.1l1.4,14.5l-3.5,0.5L109,149.1z"/>
	<path id="path1652" sodipodi:nodetypes="ccccccc" class="st8" d="M89.1,113.4c-0.8,1.3-1.9,3.4-1.8,4.4s1.7,0.8,2.4,1.3l0.3-0.5
		c-0.7-0.5-1.8,0-1.9-0.8c-0.1-0.8,0.7-2.9,1.4-4.1L89.1,113.4z"/>
	<path id="path1656" sodipodi:nodetypes="cccc" class="st8" d="M90.4,121c-3.8,0.4-6.1,3.3-8.1,5.4c0,0,6.2-3.5,8.2-3.4
		C90.4,122.6,90.6,122,90.4,121z"/>
	<path id="path1658" sodipodi:nodetypes="cccc" class="st8" d="M91.2,120.9c3.4,0.3,9.8,3,10.1,5.5c0,0-7.9-4.2-9.7-3.6
		C91.6,122.3,91.3,121.8,91.2,120.9z"/>
	
		<linearGradient id="path1666_00000163768807750508115840000004622600281897239996_" gradientUnits="userSpaceOnUse" x1="100.5495" y1="128.9377" x2="104.7023" y2="132.1252" gradientTransform="matrix(1 0 0 -1 -5.9116 280.9641)">
		<stop  offset="0" style="stop-color:#F0EB00"/>
		<stop  offset="1" style="stop-color:#FFFF00"/>
	</linearGradient>
	
		<path id="path1666" sodipodi:nodetypes="ccccc" style="fill-rule:evenodd;clip-rule:evenodd;fill:url(#path1666_00000163768807750508115840000004622600281897239996_);" d="
		M88.7,134.9c3.6,11.2,8.7,20.9,14.5,29.5l3.7-0.1c-5.7-9.2-11.7-19.6-15.2-30.8C91.7,133.5,89.7,134.1,88.7,134.9z"/>
	
		<linearGradient id="path2436_00000159468696372830577190000008853131519821527200_" gradientUnits="userSpaceOnUse" x1="99.2511" y1="142.1142" x2="113.3239" y2="147.5437" gradientTransform="matrix(1 0 0 -1 -10.057 282.0004)">
		<stop  offset="0" style="stop-color:#008200"/>
		<stop  offset="1" style="stop-color:#00D000"/>
	</linearGradient>
	
		<path id="path2436" sodipodi:nodetypes="ccccccccccccc" style="fill-rule:evenodd;clip-rule:evenodd;fill:url(#path2436_00000159468696372830577190000008853131519821527200_);" d="
		M86.1,131.4l-0.2,10.2l9.3-5.7v1.4l3.7,0.3l-0.1-1.9l12.1,5.4l-1.2-12.1L99,134.6l-0.2-1.8l-3.8-0.2v1.9L86.1,131.4z"/>
	
		<linearGradient id="path1466_00000057142619646600208500000006612382866877630639_" gradientUnits="userSpaceOnUse" x1="103.6383" y1="186.6327" x2="111.9589" y2="189.0702" gradientTransform="matrix(1 0 0 -1 -9.4391 281.0891)">
		<stop  offset="0" style="stop-color:#F0EB00"/>
		<stop  offset="1" style="stop-color:#FFFF00"/>
	</linearGradient>
	
		<path id="path1466" sodipodi:nodetypes="ccccc" style="fill-rule:evenodd;clip-rule:evenodd;fill:url(#path1466_00000057142619646600208500000006612382866877630639_);" d="
		M85.9,91.3l-0.5,2.6c7.7,2.2,17.9,1.9,26.8,0.9c0-0.4-0.3-2.5-0.3-2.5C103.3,93.2,92.4,93.1,85.9,91.3z"/>
	
		<linearGradient id="path2448_00000026877139514995939920000004625792043762211206_" gradientUnits="userSpaceOnUse" x1="93.2786" y1="190.061" x2="116.9179" y2="195.2971" gradientTransform="matrix(1 0 0 -1 -5.9116 280.9641)">
		<stop  offset="0" style="stop-color:#C10000"/>
		<stop  offset="1" style="stop-color:#FF433E"/>
	</linearGradient>
	
		<path id="path2448" sodipodi:nodetypes="ccc" style="fill-rule:evenodd;clip-rule:evenodd;fill:url(#path2448_00000026877139514995939920000004625792043762211206_);" d="
		M98.2,92.8c28.5,3.8,23.5-13.4,1.6-7.6C78.6,77.8,73.5,95,98.2,92.8z"/>
	
		<linearGradient id="path3498_00000174567374850571617200000009948494432196845187_" gradientUnits="userSpaceOnUse" x1="104.6775" y1="194.7353" x2="109.4275" y2="196.4228" gradientTransform="matrix(1 0 0 -1 -8.2516 280.0266)">
		<stop  offset="0" style="stop-color:#F0EB00"/>
		<stop  offset="1" style="stop-color:#FFFF00"/>
	</linearGradient>
	
		<path id="path3498" sodipodi:cx="107.09375" sodipodi:cy="56.40625" sodipodi:rx="3.71875" sodipodi:ry="1.65625" sodipodi:type="arc" style="fill:url(#path3498_00000174567374850571617200000009948494432196845187_);" d="
		M102.6,84.4c0,0.9-1.7,1.7-3.7,1.7c-2.1,0-3.7-0.7-3.7-1.7c0-0.9,1.7-1.7,3.7-1.7C100.9,82.8,102.6,83.5,102.6,84.4z"/>
	<path id="path3631" class="st19" d="M98.8,82.8c-1.8,0-3.1,0.6-3.5,1.4c-12.9-2.7-17.6,4.5-9.5,7.6l-0.4,2.1
		c-3,2.8-4.4,6.3-5.7,8.7c0.8,0.3,2.2,0.5,3.6,0.7c-1.1,2.7-1.7,5.7-1.7,8.9c0,4.5,1.2,8.6,3.2,12c-0.8,0.8-1.7,1.7-2.4,2.4
		c0,0,1.5-0.8,3-1.5c3,4.6,7.6,7.7,12.8,7.8l-3.1-0.2v0.7h-0.1c-0.9,0-1.8,0.1-2.7,0.3l-6.1-2.1l-0.1,5.5c-2.3,2.3-3.8,5.5-3.8,9
		v14.9c5,2.5,12.9,3.6,20.9,3.5c0,0,0,0,0,0.1l3.7-0.1c0-0.1-0.1-0.2-0.2-0.2c0.5,0,1-0.1,1.5-0.1v0.2l3.5-0.5v0
		c4.1-0.6,8-1.5,11.2-2.8v-14.9c0-7-5.7-12.7-12.7-12.7l-0.4-4.1l-8,4.1h-2.8l-0.1-0.5h-0.2c7.9-0.1,14.5-6.8,16.3-15.9
		c3.1,0.2,5.3-0.7,8.5-1.7c-5.5-1.7-4.7-13.3-11.2-20.4c0,0,0,0,0.1,0c0-0.3-0.2-1.6-0.3-2.1c11-2.4,5.5-10.8-9.7-7.9
		c0.1-0.1,0.4-0.2,0.4-0.4C102.6,83.5,100.9,82.8,98.8,82.8z"/>
</g>
</svg>
