<?xml version="1.0" encoding="UTF-8"?>
<svg xmlns="http://www.w3.org/2000/svg" viewBox="0 0 300 450">
  <defs>
    <style>
      .cls-1 {
        fill: #5b2913;
      }

      .cls-1, .cls-2, .cls-3, .cls-4, .cls-5, .cls-6, .cls-7, .cls-8, .cls-9, .cls-10, .cls-11, .cls-12, .cls-13, .cls-14, .cls-15, .cls-16, .cls-17, .cls-18, .cls-19, .cls-20, .cls-21, .cls-22, .cls-23, .cls-24, .cls-25, .cls-26 {
        stroke: #000;
      }

      .cls-1, .cls-2, .cls-3, .cls-4, .cls-5, .cls-6, .cls-7, .cls-8, .cls-9, .cls-10, .cls-11, .cls-12, .cls-13, .cls-14, .cls-15, .cls-16, .cls-17, .cls-18, .cls-26 {
        stroke-linecap: round;
        stroke-linejoin: round;
      }

      .cls-2, .cls-20 {
        fill: #2d1d13;
      }

      .cls-3, .cls-12 {
        fill: #55a;
      }

      .cls-4, .cls-22 {
        fill: #a00;
      }

      .cls-5 {
        fill: #aaa;
      }

      .cls-6, .cls-21 {
        fill: #aaf;
      }

      .cls-7, .cls-24 {
        fill: #fa5;
      }

      .cls-8, .cls-18, .cls-23 {
        fill: #ff5;
      }

      .cls-9, .cls-14, .cls-17 {
        fill: #fff;
      }

      .cls-10, .cls-15, .cls-16, .cls-25 {
        fill: none;
      }

      .cls-11 {
        fill: rgba(255, 170, 85, .33);
      }

      .cls-12, .cls-15 {
        stroke-width: .99px;
      }

      .cls-13 {
        fill: #af6e33;
        stroke-width: 1.04px;
      }

      .cls-14, .cls-26 {
        stroke-width: 1.01px;
      }

      .cls-16 {
        stroke-width: 2px;
      }

      .cls-17 {
        stroke-width: .97px;
      }

      .cls-18 {
        stroke-width: .89px;
      }

      .cls-19 {
        fill: #f55;
        stroke-width: 1.02px;
      }

      .cls-27 {
        font-family: SourceSerifRoman-Semibold, 'Source Serif Variable';
        font-size: 49.31px;
        font-variation-settings: 'wght' 600;
        font-weight: 600;
      }
    </style>
  </defs>
  <g id="Layer_2" data-name="Layer 2">
    <path id="rect10" class="cls-9" d="m25.37.45h248.29c13.73,0,24.86,11.14,24.86,24.89v398.22c0,13.75-11.13,24.89-24.86,24.89H25.37c-13.73,0-24.86-11.14-24.86-24.89V25.34C.51,11.59,11.64.45,25.37.45Z"/>
  </g>
  <g id="Layer_1" data-name="Layer 1">
    <g id="g12">
      <path id="path14" class="cls-16" d="m41.5,24.34h233.98v317.25"/>
      <path id="path16" class="cls-16" d="m258.77,425.09H24.79V107.83"/>
      <path id="path18" class="cls-16" d="m24.79,224.72h250.7"/>
    </g>
    <path id="_0" data-name="0" class="cls-22" d="m115.98,223.97l-1.03-13.23-1.03-1.18-12.85,7.2-1.03,7.05,15.95.15Z"/>
    <path id="_1" data-name="1" class="cls-7" d="m229.32,102.29l7.42,52.59,1.36-.52,2.3-.94,1.98-.94.84-.94-6.37-50.92-7.52,1.66Z"/>
    <g id="g24">
      <path id="_1J" data-name="1J" class="cls-5" d="m100.21,25.18c-2.78,1.2-6.07,2.35-7.52,5.2-1.1,2.16,1.81,5.08-.32,6.61-2.47,1.77-2.43,4.94-2.17,7.49.27,2.68,2.24,5.28,4.86,6.07,1.36.41,2.39,1.14.96,2.43-2.06,1.86.13,4.98,1.9,6.7,1.3,1.27,2.68,1.01,4.57.99,1.61-.02-1.49,3.28.59,4.8,2.21,1.61,5.09,3.12,7.76,2.17,2.34-.84,3.91-3.03,4.42-5.26.39-1.71.52-1.76.68-.08.16,1.66,3.47,2.17,3.86-.25.45-2.77,1.69-5.37,1.93-8.2.17-1.95,1.25-3.99.75-5.82-.48-1.78-1.25-2.74-.39-4.68,1.18-2.67-3.18-5.01-2.03-7.99,1.07-2.78,3.3-4.89,5.64-6.66,1.7-1.28,3.33-2.65,5.01-3.95-10.17.14-20.33.28-30.5.42h0Z"/>
      <path id="_1K" data-name="1K" class="cls-10" d="m126.11,28.09c-2.99-.92-6.15-1.28-9.26-.6-4.87,1.06-9.75,2.76-13.62,5.85-2.12,1.69-2.81,4.57-2.99,7.27-.29,4.23-.52,8.61.83,12.63.73,2.16,2.58,4.02,4.69,4.91,2.2.93,3.95-1.57,4.16-3.75.19-1.9,2.12,2.48,4.14,1.5,1.87-.9,2.84-3.04,3.34-4.87.19-.7.13-1.44.14-2.16"/>
      <path id="_1L" data-name="1L" class="cls-10" d="m110.03,27.68c-2.22-.82-4.99-.57-6.48,1.45-.79,1.08-1,2.46-1.25,3.74"/>
      <path id="_1M" data-name="1M" class="cls-10" d="m100,30.59c-2.35,1.12-5.39,2.2-6.27,4.78-.69,2.03.54,4.26,1.5,6.11.49.96,1.43,1.42,2.47,1.58"/>
      <path id="_1N" data-name="1N" class="cls-10" d="m94.41,42.85c-.73,2.5-.54,5.27,1.59,7.32,1.44,1.39,2.53,3.22,4.63,2.86"/>
      <path id="_1O" data-name="1O" class="cls-10" d="m103.97,61.76c1.96.8,4.25.86,6-.74,1.47-1.35.49-5.26,3.29-3.51,2.37,1.49,4.8-.8,5.48-2.95.33-1.02.58-2.11.48-3.19"/>
      <path id="_1P" data-name="1P" class="cls-10" d="m105.64,64.67c1.55,1.33,3.69,1.5,5.42.03,1.62-1.39.96-4.14,2.56-4.73,1.75-.64,4.15,0,5.07-1.88.51-1.04.99-2.09,1.37-3.19"/>
      <path id="_1Q" data-name="1Q" class="cls-10" d="m117.76,29.55c-.73,1.59-1.55,3.52-.33,5.18.67.91.88,2.2,2,2.72"/>
      <path id="_1R" data-name="1R" class="cls-10" d="m114.41,32.25c-1,1.92-1.97,4.71-.31,6.43,1.11,1.15,3.09,1.83,4.69,1.26"/>
      <path id="_1S" data-name="1S" class="cls-10" d="m110.86,33.5c-.68,2.38-.63,5.17,1.17,7.08,1.08,1.14,2.39,2.52,4.05,2.48.75-.02,3.57-2.14,2.49-.63-1.12,1.58-3.43,2.72-2.12,4.69,1.09,1.65,3.25,2.9,5.27,2.17"/>
      <path id="_1T" data-name="1T" class="cls-10" d="m106.48,36.2c-1.26,2.19-.33,4.42,1.67,6.03,1.57,1.26,3.21,2.6,5.26,2.23.34-.06.67-.09,1.01-.15"/>
      <path id="_1U" data-name="1U" class="cls-10" d="m105.22,42.85c-.14,2.46,1.8,3.85,4.01,4.56,1.81.58,3.92.61,5.39-.61"/>
      <path id="_1V" data-name="1V" class="cls-10" d="m104.18,47.63c.55,2.28,2.12,4.11,4.39,4.99,2.69,1.04,5.96-.44,7.1-2.7l.21-.42"/>
      <path id="_1W" data-name="1W" class="cls-10" d="m98.12,53.87c-.88,2.46,1.82,4.78,4.18,4.36.53-.09,1-.37,1.46-.62"/>
      <path id="_1X" data-name="1X" class="cls-10" d="m125.07,28.92c-2.72-.32-5.44-.16-8.15.42-4.69.99-9.49,2.52-12.99,5.87-2.32,2.22-2.2,5.66-2.78,8.59-.58,2.92,1.06,5.54,1.44,8.36.28,2.08,1.82,4.15,3.89,4.41,1.36.17,2.58-1.03,3.76-1.66"/>
    </g>
    <path id="_2" data-name="2" class="cls-9" d="m114.72,127.45c.88,3.18,1.6,4.38,2.88,7.42,8.9.86,18.03,2.35,26.96,2.83,8.95.48,17.96.43,26.88-.36,4.64-.41,9.18-1.59,13.7-2.77,1.35-.35,2.67-.79,3.97-1.28v-6.47c-1.44-1.2-3.11-2.27-3.75-4.15-.45-1.32-.65-2.69-1.86-3.64-1.08-.84-2.53-.89-3.67-1.68-.95-.66-2.83.08-3.35-.84-1.29-2.27-2.87-4.41-3.49-6.92-.26-1.05-.49-2.43.11-3.33.74-1.11,2.32-1.99,2.4-3.28.19-3.2-2.23-6.16-1.75-9.37.16-1.07,1.5-1.99.5-3.01-.46-.47-2.12-2.07-2.27-1.02-1.2,5.09-3.02,10.01-5.05,14.83-1.13,2.68-2.77,5.13-4.3,7.6-1.05,1.69-2.42,3.06-3.88,4.4-1.55,1.43-3.25,2.76-5.24,3.36-1.86.56-3.96.56-5.85.15-1.66-.37-3.34-.75-4.65-1.94-1.5-1.36-2.82-2.42-3.77-4.32-.62-1.24-1.52-3.47-1.98-4.95-1.64-1.17-3.1-1.38-4.18-3.07-.75-1.17-2.57-2.48-3.5-3.5-.95.83-.62,2.79-1.08,3.91-.59,1.44-1.91.28-2.7,1.17-1.38,1.55-.84,3.67-.95,5.52-.13,2.16-.71,4.73-2.8,5.84-.9.48-1.64,1.91-2.73,1.57-1.13-.35-1.12-2.26-2.53-1.29-1.35.94-1.17,2.88-2.13,4.2-.64.89-.06.46-.95,1.57.15.49.82,1.92,1.02,2.79h0Z"/>
    <path id="_3" data-name="3" class="cls-7" d="m118.78,138.39l10.26.9,11.91,1.04,7.73.21h7.31l8.77-.42,7.31-.42,6.06-.83,4.81-1.45,3.97-1.25,1.67-.21-1.69,14.6-2.07,14.92-1.7,10.21-3.4,13.3-4.28,14.7-3.47,11.76-.22.96-9.01.44-9.68.22h-9.23l-3.77-9.19-3.84-12.2-3.18-11.46-4.06-11.54-3.25-10.58-2.59-9.33-2.07-7.86-2.3-6.51Z"/>
    <path id="_4" data-name="4" class="cls-2" d="m121.93,58.23c-2.58,0-2.48,4.56-4.07,6.57-1.11,1.4-2.48,2.54-3.18,4.24-.41,1-.69,1.9-.68,2.98.02,1.61.51,3.26,1.49,4.5.73.93-.33,1.68-.72,2.46-.46.94-1,2.24-1.97,2.53-.9.27-1.79-.1-2.49.76-.64.79-1.18,1.45-1.56,2.42-.54,1.39-.61,2.87.02,4.1.41.81,4.25,2.49,5.13,2.29,1.57-.36-1.64-.39-2.11.55-.41.82-1.82.53-2.54,1.18-.88.81-1.93,1.41-2.35,2.61-.45,1.31-1.1,2.68-1.05,4.06.05,1.27.09,2.62-.36,4.67-1.02-.92-.81-1.88-3.17-1.79-1.31.05-2.41,1.68-2.95,2.83-.58,1.25.39,2.66,1.1,3.82.58.95,1.38,1.36-.24,1.26-1-.06-1.76.37-2.62.9-1.2.74-1.71,1.93-2,3.16-.22.95-.18,1.95.58,2.79,1.03,1.13,1.96,2.31,3.31,2.98.71.35,1.91-.7,2.22.56.3,1.21.61,2.37,1.65,3.27.74.64,1.4,1.08,2.35,1.37,1.38.43,2.64-.26,3.92-.6,1.25-.34,2.35.72,3.61.45.82-.18.88-1.54,1.3-2.25.77-1.31,1.2-2.86,2.07-4.1.82-1.18.66,0,1.56.77,1.02.86,3,.37,4.03-.22,1.77-1.02,1.42-2.32,2.02-4.17.58-1.76.3-3.32.72-5.1.24-1.01.12-2.59.95-3.21.71-.53,1.76.25,2.37-.78.55-.93.38-1.83.68-2.64,1.29-.5.64-1.35.05-2.18-.94-1.51-1.8-3.02-2.25-4.77-1.14-4.36-3.14-8.55-3.78-13.01-.47-3.29-.23-6.63-.7-9.93-.38-2.65-.08-5.36-.26-8.04-.16-2.43-.06-4.86-.08-7.29h0Z"/>
    <path id="_5" data-name="5" class="cls-1" d="m122.57,47.16c-.3,1.25-.29,1.19-.39,2.63-.3,4.37-.94,5.42-1.26,9.78-.23,4.45-.21,10.99.01,15.43.33,4.05,1.49,8.72,2.38,12.7.61,3.13,1.82,5.15,2.77,8.19.85,1.69,1.25,3.68,2.4,5.17,2.35,1.94,3.42,3.51,5.2,5.91,1.1.89,2.14,1.32,3.74,1.74.13,1.55.78,3.8,1.3,4.65.43,1.16,1.49,2.09,2.38,2.94,1.79,1.09,3.5,2.4,5.34,3.34,2.14.12,4.32.76,6.4-.06,2.73-.41,4.73-2.52,6.68-4.3,2.02-1.71,3.4-4.03,4.98-6.12,2.81-6.25,7.04-12.61,9.1-19.15.53-1.12.86-2.2-.44-2.9-.63-.86-2.12-1.4-1.69-2.67.7-1.49-.95-1.56-1.13-2.73-1.01-1.41,1.4-1.5,1.11-2.81.02-2.21.67-4.36,1.12-6.5.21-1.24-.71-2.09-1.16-3.09-.16-1.57.18-3.06.74-4.52.5-1.52-.78-1.72-1.75-2.43-1.32-.54-.83-1.78-1.34-2.76-.66-1.12.11-2.53.07-3.78-.01-1.03-.45-1.67-.8-2.77-.21-1.05-.3-.98-.55-2.64-2.39-.75-5.57-1.52-7.63-2.37-3.31-1.91-6.79-2.62-10.35-2.9-3.63-.63-7.63-.25-11.3-.23-3.88.45-7.47,1.1-11.34,2.08-.88.22-1.35.09-2.24.26l-2.35-.11Z"/>
    <path id="_6" data-name="6" class="cls-10" d="m121.94,58.99c.57-.76,1.63-.64,2.34-1.19,1.12-.86,2.62-.7,3.95-.75,1.57-.05,3.18.11,4.64.69.89.35,1.71,1.01,2.21,1.82.41.66.33,1.51.44,2.27.05.34.07.68.12,1.01"/>
    <path id="_7" data-name="7" class="cls-10" d="m135.65,62.36c.3,3.07.23,4.09.03,6.74-.15,1.93-.21,2.53-.34,4.44-.05.82-.1,2.45-.35,3.23-.24.75-.52,2.42-.49,3.21.03.8-.02,2.45.85,2.79,1.19.47,2.04-.25,3.21.2.54.21,1.34.83,1.8.5.87-.62,1.28-.07,2.06-.78.44-.4,1.14-.92,1.72-.75.84.24,1.76.93,2.52.51.5-.28.88-1.14.22-1.58-.07-.05-.65-1.13-.71-1.19"/>
    <path id="_8" data-name="8" class="cls-10" d="m143.67,60.44c.73-.78,1.18-1.92,2.15-2.38,1.26-.61,2.68-.92,4.14-.89,1.96.04,3.92-.2,5.87.09,1.01.15,2.14-.11,3.05.29,1.03.45,1.48.28,2.65.96"/>
    <g id="g48">
      <path id="_1Y" data-name="1Y" class="cls-19" d="m134.55,90.59c.29-.61,1.31-.79,1.98-1.15.5-.26.8-.73,1.5-.75.79-.07,1.74.01,2.21.51.47.3,1.41.26,1.42-.21.4-.23,1.41-.2,1.87-.18,1.26.18,1.84.56,2.97,1,.46.16,1.17.29,1.2.72-.19.48-1.21.34-1.55.76-.74.6-1.17.7-1.96,1.26-.6.53-1.3,1.09-2.32,1.19-1.22.13-2.45-.06-3.64-.26-.77-.15-1.58-.45-1.83-1.01-.21-.48-.67-.23-1.06-.64-.3-.35-.55-.73-.78-1.11v-.06s0-.06,0-.06h0Z"/>
      <path id="_1Z" data-name="1Z" class="cls-19" d="m134.82,91.05c.84-.05,1.69-.06,2.51-.21.68-.16.93.54,1.53.62.89.19,1.84.31,2.75.15.58-.15,1.04-.52,1.6-.73.56-.32,1.27-.39,1.92-.27.74.04,1.42.33,2.16.34.15,0,.3-.05.45-.09"/>
    </g>
    <path id="_9" data-name="9" class="cls-10" d="m137.85,109s2.55.48,3.84.44c1.95-.06,3.86-.58,5.76-1.03,1.85-.44,3.71-.89,5.47-1.62,1.91-.79,3.73-1.81,5.47-2.94,1.47-.96,2.88-2.02,4.14-3.23,1.15-1.11,2.13-2.4,3.1-3.67.9-1.18,1.82-2.36,2.52-3.67.64-1.21,1.48-3.82,1.48-3.82"/>
    <path id="A" class="cls-10" d="m124.16,64.46c.4-.64.57-1.48,1.17-1.95.73-.57,1.6-1.21,2.53-1.28,1.56-.12,3.09.37,4.63.66.55.11.69.67,1.05,1,.36.33.03.04.04.06.01.01.03.04.03.04"/>
    <path id="B" class="cls-10" d="m146.04,63.99c.31-.59.39-1.43.89-1.81.83-.63,1.79-1.15,2.77-1.33.9-.17,1.85-.13,2.74.08,1.48.35,3.04.59,4.41,1.28.5.25.8.82,1.21,1.23"/>
    <path id="_1a" data-name="1a" class="cls-17" d="m123.91,66.34q1.59-.84,2.59-1.84c2-1,2.34-.88,4-1,.89-.07,3.26,1.04,4.14,1.16-.18.63-.25,1.28-.8,1.77-.73.66-.98,1.07-1.8,1.59-.81.52-1.79.94-2.77,1.04-.72.07-1.54.2-2.18-.08-.71-.3-1.5-.6-2-1.12-.65-.68-.97-.66-1.59-1.37l.41-.16Z"/>
    <path id="_1d" data-name="1d" class="cls-14" d="m145.91,65.17c.89-.41,1.71-1.03,2.64-1.27,1.37-.35,1.14-.26,2.56-.3,1.21-.03,2.44-.32,3.63-.11.85.15,1.74.33,2.51.74.49.26.91.65,1.36.97-.56.55-.97,1.34-1.64,1.71-1.01.56-2.07,1.04-3.23,1.21-.87.13-1.71.34-2.6.28-1.33-.1-1.1-.16-2.38-.53-.65-.19-1.31-.57-1.77-1.09-.42-.48-.73-1.06-1.1-1.59h0Z"/>
    <path id="_1e" data-name="1e" class="cls-13" d="m154.68,65.47c.24,1.24-.56,2.44-1.79,2.68s-2.42-.56-2.66-1.8.56-2.44,1.79-2.68,2.42.56,2.66,1.8Z"/>
    <path id="_1f" data-name="1f" class="cls-26" d="m152.96,66.02c-.24.19-.58.15-.74-.1s-.11-.61.13-.8.58-.15.74.1.11.61-.13.8Z"/>
    <path id="C" class="cls-20" d="m137.38,83.72c-1.05,0-1.23,1.34-2.18,1.85-.76.41-1.34.41-2.22,1.54-.68.89-1.95,1.13-2.72,1.92-.4.4-1.61-.2-1.84.35-.23.54-.38,1.35.26,1.32.37-.01,1.07.38,1.38.15.31-.23.33-.27.8-.31.75-.07,1.46-.51,2.21-.5.42,0,.74.52,1.2.38.53-.17,1.17,0,1.65-.31.9-.59,1.55-1.16,2.58-1.32.88-.14.99-2.03,1.89-1.96.38.03.37.2.95-.04.4-.17,1.26,1.54,1.67,1.49.63-.08,1.26.01,1.87.23.59.21,1,.79,1.57,1.06.39.19.71.52,1.18.44.55-.1,1.11-.16,1.66.1.4.19.81.48,1.27.23.63-.34,1.27-.43,1.95-.43,1.11,0,2.2.39,3.31.32.41-.03,1.19-.89,1.34-1.29.12-.31-.5-1.08-.88-.7-1.02,1.01-1.73.67-2.78.33-.72-.23-1.81-.56-2.51-.93-.62-.34-.61-.93-1.2-1.31-.87-.57-1.86-.36-2.78-.87-.57-.32-1.44-1.72-2.05-1.89-.99-.27-1.45.11-2.45,0-.41-.04-.76-.37-1.18-.13-.75.42-1.59.73-2.41.71-.52-.02-.99-.42-1.51-.42h0Z"/>
    <path id="D" class="cls-20" d="m167.06,51.99c-2.32,0,.97,4.64.35,6.83-.32,1.12-.23,2.07.38,3.16.76,1.37,2.5,1.78,2.92,3.16.54,1.78-1.24,3.79-.74,5.56.31,1.13,1.17,1.96,1.06,3.21-.17,2.01-1.65,3.75-1.25,5.81.23,1.22-1.09,1.72-.84,2.83.23,1.05,1.68,1.8,1.25,2.71-.59,1.25.5,2.13,1.26,2.86,1.02,1.17.81,1.46,1.68,2,1.22.69,2.04,1.62,1.7,3.01-.26,1.05-1.05,1.87-.86,3.06.27,1.68.02,3.61.84,5.09.64,1.15.6.66-.27,1.74-1.16,1.43-1.33,3.4-1.74,5.16-.27,1.15.75,3.19,1.36,4.24.68,1.17,1.4,2.06,1.59,3.6.18,1.52,2.72.61,3.97,1.22,1.3.64,2.25,1.51,3.66,1.84,1.57.36,1.27,2.39,1.79,3.67.51,1.27,1.48,2.37,2.6,3.16,1.59,1.13,3.76,1.59,5.78.96,1.77-.55,3.43-1.21,4.96-2.32.72-.52,2.16.37,2.52,1.38.41,1.17,1.92,1.49,3.04,1.91,1.12.43,2.68.2,3.13-.92.53-1.3,1.68-.19,2.53-.19.94,0,2.02-.92,2.54-1.66,1.49-2.12,1-4.78.89-7.2-.08-1.7-.61-3.58-1.72-4.91-.93-1.11-1.8-2.82-3.24-3.03-1.59-.23-1.27-.98-1.42-2.18-.17-1.42-.32-2.89-1.5-3.97-1.18-1.07-2.39-2.2-4.11-2.05-1.13.1-.05-1.94-.34-2.75-.58-1.66-1.18-3.33-2.58-4.54-.87-.74-2.37-.99-2.89-1.96-.56-1.04-.27-2.16.04-3.32.29-1.1,1.19-1.73,1.12-2.98-.12-2.28.1-4.63-1.09-6.69-.6-1.04-1.96-1.29-2.94-1.92-1.89-1.2-3.85-2.4-5.12-4.19-1.18-1.65-.91-3.91-1.05-5.91-.09-1.26-1.5-1.96-2.34-2.85-2.09-2.19-3.51-4.86-5.39-7.2-.95-1.18-1.96-2.52-3.2-3.33-1.5.03-2.9-.21-4.28-.86-1.26-.59-2.64-.91-3.99-1.28h0Z"/>
    <path id="E" d="m156.04,160.29s-.89,2.88-1.67,4.16c-.67,1.09-1.56,2.05-2.51,2.91-.88.8-1.96,1.37-2.92,2.08-1.12.82-2.45,1.43-3.34,2.49-1,1.19-2.09,2.61-2.09,4.16,0,1.24.75,2.49,1.67,3.33,1.1,1.01,2.68,1.7,4.18,1.66,1.68-.04,3.38-.92,4.6-2.08.9-.86,1.67-3.33,1.67-3.33v.83c0,.42-.12,1.71-.42,2.49-.47,1.22-1.2,2.36-2.09,3.33-.94,1.02-3.34,2.49-3.34,2.49v.42s3.33-.69,5.01-.83c.83-.07,1.67-.07,2.51,0,1.69.14,5.01.83,5.01.83v-.42s-2.4-1.47-3.34-2.49c-.89-.96-1.62-2.1-2.09-3.33-.3-.79-.42-2.08-.42-2.49v-.83s.77,2.47,1.67,3.33c1.21,1.16,2.91,2.04,4.6,2.08,1.5.03,3.07-.65,4.18-1.66.92-.84,1.67-2.09,1.67-3.33,0-1.55-1.09-2.97-2.09-4.16-.89-1.06-2.22-1.68-3.34-2.49-.97-.7-2.04-1.27-2.92-2.08-.95-.86-1.84-1.82-2.51-2.91-.78-1.28-1.67-4.16-1.67-4.16"/>
    <path id="F" class="cls-10" d="m124.69,115.95s1.66,3.11,2.66,4.56c.93,1.35,1.95,2.65,3.1,3.82.9.92,1.95,1.69,2.95,2.5,1.06.86,3.25,2.5,3.25,2.5,0,0,2.42-2.7,3.55-4.12.98-1.24,1.8-2.6,2.81-3.82.55-.67,1.77-1.91,1.77-1.91"/>
    <path id="G" class="cls-10" d="m155.86,118.74s3.1,2.8,4.73,4.12c1.2.97,2.52,1.93,3.62,3.01.8.79,2.14,2.43,2.14,2.43,0,0,2.19-1.53,3.25-2.35,1.16-.9,2.37-1.75,3.4-2.79.61-.62,1.09-1.36,1.63-2.06.55-.73,1.15-1.43,1.63-2.2.34-.56.89-1.76.89-1.76"/>
    <path id="H" class="cls-3" d="m101.06,121.24c-3.94,1.27-7.88,2.55-11.82,3.82,4.63,12.35,9.26,24.69,13.89,37.04,1.58.09,2.41,1.39,3.02,2.28,1.81-.97,3.95-.87,5.64.31,1.3.56,2.26,1.39,2.42,2.86.58,2.02-1.87,1.59-1.88,2.88-.49,1.9,1.1,1.93,2.55,2.09,1.33.35,2.85.59,3.09,2.19.62,1.48-.02,3.12-.37,4.6,1.6-.13,2.52.8,3.2,2.14.48,1.59.32,3.27.34,4.92-2.37.41,1.57.67.86,2.35.24,1.55-.07,3-1,4.27,1.4.09,3.31-.3,2.66,1.72.13,2.02-.16,4.2-1.22,5.9-1.12.42-.79,3.08.25,3.27,1.67-.09,1.6,1.88,1.56,3.07-.47,1.54,1.18,2.21,2.46,2,3.87.28,7.9.2,11.57,1.52,1.75.23,1.21,2.53-.4,2.55-2.11,1.12-4.57,1.17-6.83,1.85.21,1.06-.97,3.59.97,2.82,3.98-.5,7.98-.82,12-.68-2.15-4.83-4.21-9.69-5.76-14.74-2.69-7.7-4.19-15.76-7.14-23.37-2.11-5.85-4.09-11.76-5.65-17.78-1.52-5.9-3.66-11.62-4.99-17.58-2.1-6.3-4.48-12.51-6.73-18.76-2.23.44-4.53-.78-6.67.33-1.28.87-2.52-.2-3.42-1.11-1.04-.77-1.39-2.21-2.61-2.75h0Z"/>
    <path id="I" class="cls-3" d="m188.8,126.97l.15,6.17-.89,9.11-1.33,9.7-1.48,10.29-1.77,11.9-3.4,13.38-3.25,11.61-2.81,10.29-2.34,6.65,4.26.11,6.06.29,4.88.44,3.1-11.02,4.14-14.55,2.95-11.61,2.66-12.64,2.07-9.99,1.77-12.05,1.18-8.67.59-8.23-1.77-.44-1.48-.59-.89-1.18-.74-1.03-1.33-.88-1.77,1.18-2.22,1.32-1.77.59-1.77.15-2.81-.3Z"/>
    <path id="J" class="cls-6" d="m225.56,71.43c.55,2.71,1.12,7.66,1.69,12.47.28,2.38.89,6.65,1.03,9.04-1,.11-2.11-.14-3.01.27-.87.39-1.78.92-2.32,1.68-.68.97-1.21,2.01-1.44,3.21-.19.97-.38,1.99-.16,2.94.33,1.48,1.67,2.43,2.47,3.67.68.46.09,1.08-.1,1.65-.47.36-1.19.57-1.82.63-1.02.09-2.09.19-3.04-.36-1.25-.71-2.58-1.23-3.71-2.16-1.07-.89-1.96-1.95-2.76-3.06-.52-.72-.89-1.48-1-2.4-.22-1.83-.27-2.76-.21-4.59-1.32-.46-2.04-.64-2.52-.74-1.55-.32-1.84-1.35-3.1-2.31-1.44-1.1-2.77-2.33-4.23-3.4,1.27-1.53,1.94-2.63,2.96-4.36.46-.79,1.46-2.21,2.25-2.65,1.07-.59,1.86-1.5,3.09-1.71-.14-.44-.84-.93-1.01-1.47-.45-1.41-.72-2.86-.76-4.34-.02-.82-.24-1.73.03-2.49.46-1.31,1.25-2.46,2.01-3.63.42-.64.97-1,1.63-1.31,1.28-.6,2.56-1.19,3.9-1.63-.15,1.1-.69,2.18-.32,3.3.37,1.15.28,2.48.86,3.52.51.91,1.12,1.79,2.1,2.27.68.34,1.2,1,2.06.85.85-.15,1.72-.01,2.52-.47.74-.42,1.53-.69,2.04-1.41.29-.33.59-.66.88-.99h0Z"/>
    <path id="K" class="cls-6" d="m223.68,73.1c.04-6.1.07-12.19.1-18.29-.49-1.69-1.56.3-2.38.73-1.06.79-2,1.9-3.14,2.49-1.6.43-1.8-.49-1.53-1.86.19-6.23.3-12.47.98-18.67.31-4.04.82-8.07,1.26-12.1h5.75c1.69,6.3,3.19,12.7,6.06,18.6,1.37,3.54,2.65,7.7,3.44,10.76-.46.98-1.3,1.92-2.39,2.34-1.15-.04-1.65-1.55-2.52-2.22-.59-.7-1.72-2.35-2.22-.93,2.06,5.27,4.24,10.51,6.22,15.81,1.18,10.73,2.19,21.47,3.71,32.16.38,3.71,1.27,7.59.32,11.23-.74.92-1.53,1.74-2.8,1.73-1.03.16-1.79-1.41-2-2.35-.58-2.71-1.43-5.33-2.42-7.91-2.03-8.72-2.73-17.66-3.97-26.51-.27-2.08-.53-4.17-.8-6.25-.56.42-1.11.83-1.67,1.25h0Z"/>
    <path id="L" class="cls-6" d="m221.06,25.81c.63,9.35,1.25,18.71,1.88,28.06"/>
    <path id="M" class="cls-6" d="m222.21,25.71c1.85,9.18,3.69,18.36,5.54,27.54"/>
    <path id="N" class="cls-6" d="m234.54,99.54c0,1.06-.65,1.92-1.46,1.92s-1.46-.86-1.46-1.92.65-1.92,1.46-1.92,1.46.86,1.46,1.92Z"/>
    <path id="O" class="cls-6" d="m235.9,108.27c0,.83-.54,1.51-1.2,1.51s-1.2-.67-1.2-1.51.54-1.51,1.2-1.51,1.2.67,1.2,1.51Z"/>
    <path id="P" class="cls-21" d="m233.29,69.45l2.72.42,3.34-2.7,1.25-4.16.42-2.7v-3.74l-1.25-2.49-.63-1.45-1.88-2.08,4.39-7.07,2.3-5.4,1.88-5.2,1.88.42,4.39,3.74,4.6,4.57,4.18,6.03,3.76,7.48,2.09,5.61,2.3,8.73.63,7.9v4.78l-.63,6.44-1.25,6.65-1.88,7.48-3.13,7.48-3.13,5.4-4.18,6.44-5.01-5.4-4.18-4.57-3.76-2.49,2.92-3.95v-4.16l-1.67-4.99-2.92-2.29-2.3-1.04-2.92-.21-2.3-23.49Z"/>
    <path id="Q" d="m250.17,70.08s-.27,2.31-.68,3.39c-.35.92-.9,1.77-1.5,2.56-.56.73-1.3,1.32-1.93,1.99-.74.78-1.66,1.43-2.19,2.36-.59,1.04-1.22,2.27-1,3.45.17.94.92,1.79,1.74,2.3.98.61,2.28.92,3.41.68,1.27-.26,2.44-1.17,3.2-2.22.56-.78.8-2.76.8-2.76l.12.63c.06.32.15,1.31.03,1.95-.18.99-.58,1.96-1.12,2.82-.57.91-2.19,2.36-2.19,2.36l.06.32s2.43-.99,3.7-1.33c.62-.17,1.26-.29,1.91-.35,1.3-.13,3.93-.07,3.93-.07l-.06-.32s-2.03-.79-2.89-1.43c-.81-.61-1.53-1.37-2.06-2.24-.34-.56-.61-1.52-.67-1.84l-.12-.63s.94,1.77,1.74,2.3c1.09.71,2.5,1.14,3.79.94,1.14-.18,2.25-.93,2.94-1.85.58-.77.98-1.82.8-2.76-.22-1.18-1.25-2.1-2.17-2.87-.83-.68-1.92-.96-2.89-1.43-.83-.4-1.73-.68-2.52-1.17-.84-.52-1.66-1.12-2.32-1.86-.77-.86-1.86-2.93-1.86-2.93"/>
    <path id="R" class="cls-4" d="m205.35,128c1.41.2,1.81-1.82,2.85-1.69,1.14.14,2.26.57,3.06-.44.82-1.04,1.91.92,2.84,1.27,2.06.77,4.04,1.97,5.55,3.53,3.52,3.63,6.22,8.11,7.93,12.84.94,2.6.7,5.5-.2,8.26-1.47,4.53-2.59,9.21-2.63,14.02-.03,3.02-1.09,6.37.42,9.12,1.46,2.65,2.49,3.87,3.97,6.52.63,1.14,1.11,2.46,1.65,3.56-3.45,4.04-7.25,9.49-10.37,13.79-2.03,2.8-2.99,6.27-5.41,8.82-.76.8-1.62,1.4-2.09,2.69-.81-.87-.78-3.26-1.05-4.96-.21-1.3-.54-3.17-.71-4.17-1.17.2-2.16,2.55-2.65,3.6-1.66,3.6-2.85,6.01-3.75,9.55-.33,1.3-.74,2.49-1.49,3.58-5.46-.46-10.91-.92-16.4-.88,2.28-8.14,4.93-16.18,6.92-24.39,2.74-11.28,5.59-22.56,7.55-34,1.11-6.45,2.33-12.89,3.03-19.39.4-3.73.64-7.48.97-11.21h0Z"/>
    <path id="S" class="cls-10" d="m220.49,172.98c-2.06,3.67-4.52,7.23-5.82,11.24-1.37,4.24-1.5,8.76-2.54,13.09-.31,1.3-.5,2.62-.95,3.89"/>
    <path id="T" class="cls-10" d="m214.51,143.95c-.17,7.45.25,14.97-.81,22.34-.62,4.31-.97,8.61-1.51,12.91-.68,5.46-1.69,10.89-1.55,16.41.04,1.79.16,3.57.25,5.36"/>
    <path id="U" class="cls-4" d="m88.93,124.95c-6.55,2.93-13.2,6.64-18.65,11.27-2.86,2.43-4.48,5.28-5.77,8.83-3.05,7.01-6.54,13.86-8.85,21.16-1.98,5.81-3.6,11.76-5.13,17.7-2.35,9.75-5.18,19.37-7.49,29.12-.47,2.13-1.09,1.62-.8,3.82,2.45-2.95,6.04-7.26,8.74-9.98,3.23-2.69,6.29-5.61,10.01-7.65,2.55-1.42,5.21-2.72,7.92-3.8,2.39-.64,4.75-1.59,7.28-1.27,2.95.02,5.59-.29,8.32-1.6,1.32-.23,2.85-.41,4.23-.21,2.25.8,3.08.31,5.93.09,1.54-2.88,2.52-7.93,4.61-10.52.93-1.61,2.2-3.22,3.42-4.41.04-1.32-.16-1.95-.66-2.14-.5-.19-1.29.06-2.44.49-1.36-.09-2.96-1.03-2.72-2.56-.1-1.58-.08-3.12.96-4.41.34-1.7,2.4-.53,3.35-1.61,1.81-.52-.31-2.09.28-3.36.5-1.53,0-.87,1.81-2.1-4.47-11.63-9.87-25.24-14.34-36.88h0Z"/>
    <path id="V" class="cls-10" d="m76.83,139.91c1.14,4.67,2.29,9.33,3.2,14.05.62,3.24,1.46,6.45,1.88,9.72.8,6.2.8,12.48,1.42,18.7.3,3.05,1.42,5.97,1.66,9.03.03.32.07.64.11.96"/>
    <path id="W" class="cls-10" d="m72.84,160.19c1.78,3.86,3.53,7.73,5.14,11.66,1.11,2.7,1.99,5.5,3.48,8.03.71,1.21.71,2.66.98,4,.6,2.97,1.08,5.96,1.63,8.93"/>
    <path id="X" class="cls-8" d="m118.61,138.32l10.24,1.04,11.91,1.04,7.73.21h7.31l8.77-.42,7.31-.42,6.06-.83,4.81-1.45,3.97-1.25,1.91-.57.1-2.26c-1.24.46-2.49.91-3.79,1.25-4.52,1.18-9.07,2.34-13.71,2.75-8.92.79-17.92.84-26.87.36-8.92-.48-18.05-1.97-26.95-2.83.66,1.58.88,1.58,1.2,3.38h0Z"/>
    <path id="Y" class="cls-8" d="m122.77,151.35c-5.73-1.01,11.62.74,17.44.62,1.64-.03,3.27,0,4.91,0,.45,3.27,1.28,6.51,1.04,9.84,0,1.09.36,2.5-1.24,2.09-1.39-.09-2.62.38-3.8,1.08-1.25.74-2.77,1.09-3.48,2.51-.79,1.6-2.3,2.86-2.42,4.75-.09,1.47-.71,2.86-.1,4.35.84,2.05.98,4.51,2.48,6.14,1.35,1.47,3.67,1.35,5.62,1.67,1.5-.22,1.13,1.33,1.36,2.31.47,2.61.65,5.23.54,7.87,1.61.39,3.47.21,4.89,1.03,1.89,1.1,3.72,2.31,5.01,4.16.74,1.06,1.86,2.82,1.91,4.18.69.1,1.26-2.19,1.69-3,.91-1.74,1.49-2.06,2.94-3.35,1.11-.99,2.34-2.07,3.76-2.44,1.25-.33,2.55-.38,3.83-.57-.22-2.64-.1-5.31-.33-7.94-.15-1.08-.72-2.42.89-2.43,1.57-.45,2.99-1.09,4.32-2.08,1.13-.84,2.12-1.69,2.89-2.89.85-1.31,1.16-2.88,1.2-4.38.05-1.77.91-3.7-.07-5.32-1.06-1.76-1.4-3.52-3.13-4.6-2.32-1.45-6.56-2.07-9.33-1.54.21-3.81.24-7.62.21-11.43,2.32.13,4.66.76,6.97.52,4.77-.49,9.43-1.7,14.13-2.6-.14,1.45-.28,2.91-.42,4.36-3.28.7-6.58,1.29-9.94,1.47-2.07.11-5.02-.32-7.09-.24-.1,1.62-.2,3.23-.3,4.85,1.62.02,4.07.45,5.65,1.07,1.89.74,3.57,1.84,4.84,3.34,1.11,1.31,2,2.96,2.27,4.64.3,1.88.42,3.75,0,5.67-.47,2.15-.75,4.44-1.94,6.28-1.07,1.65-2.6,2.89-4.32,3.94-1.26.77-2.76.8-4.13,1.22.39,3.42.72,6.85.89,10.29-1.9.48-3.93.45-5.76,1.18-2.08.82-3.86,2.55-5.03,4.43-1.36,2.19-3.25,7.03-3.25,7.03,0,0-.93.24-2.45.07-.06-1.87-.67-4.8-1.57-6.23-1.49-2.36-3.87-3.97-6.5-4.92-1.79-.65-3.72-.71-5.58-.53.15-3.51-.23-7-.55-10.49-.02-1.12-1.8-.78-2.66-1.05-1.3-.4-2.82-.55-3.85-1.38-2.09-1.68-2.82-4.44-3.58-6.92-.56-1.83-.82-3.73-.39-5.7.58-2.69,2.16-4.93,3.66-7.15.92-1.35,2.42-2.01,3.84-2.63,1.39-.61,2.9-.93,4.41-1.12-.43-2.24-.73-4.48-.59-6.76-3.16.26-6.31.52-9.49.23-3.04-.28-6.09-.06-9.12.21-.4-1.23-.79-2.46-1.19-3.7h0Z"/>
    <path id="Z" class="cls-18" d="m135.18,146.23c0,1.62-1.49,2.94-3.32,2.94-1.84,0-3.32-1.31-3.33-2.94h0c0-1.63,1.49-2.94,3.32-2.94,1.84,0,3.32,1.31,3.33,2.94h0Z"/>
    <path id="a" class="cls-8" d="m157.34,147.62c0,1.5-1.35,2.72-3.02,2.72s-3.03-1.21-3.03-2.71h0c0-1.51,1.35-2.73,3.02-2.73s3.03,1.21,3.03,2.71h0Z"/>
    <path id="b" class="cls-8" d="m177.43,145.94c0,1.3-1.22,2.35-2.73,2.35s-2.73-1.05-2.73-2.35,1.22-2.35,2.73-2.35,2.73,1.05,2.73,2.35h0Z"/>
    <path id="c" class="cls-10" d="m137.86,97.69s.48-.47.78-.62c.36-.19.76-.3,1.17-.36.49-.07,1.01-.09,1.5,0,.38.07.73.23,1.06.42.17.1.45.36.45.36"/>
    <g id="g92">
      <path id="_1g" data-name="1g" class="cls-12" d="m130.74,25.25c-2.91,1.8-5.66,3.67-8.01,6.11-.9.93-2.66,4.46-2.46,5.84.16,1.06.25,4.08.65,5.03.45,1.06.25,1.04,1.02,2.2,4.54-1.44,11.08-3.32,15.79-4.1,2.99-.49,6.08-.34,9.11-.16,3.61.21,7.16.9,10.67,1.8,2.89.74,5.76,1.67,8.3,3.17,2.79,1.65,5.09,3.99,7.2,6.45,2.07,2.42,4.3,4.75,6.04,7.41,1.25,1.91,2.31,3.95,4.05,5.48,1.28,1.13,2.13,2.87,3.91,3.33,1.16.3,2.18.98,3.46.54,1.35-.46,2.81-.48,3.85-1.58,1.06-1.13,2.7-1.78,3.08-3.43.37-1.58,1.59-3.04,1.59-4.64.02-2.55-.38-5.09-1.19-7.54-.56-1.71-.85-3.47-2.05-4.93-2.59-3.18-4.55-6.82-7.44-9.78-1.99-2.03-3.92-4.13-5.96-6.11-1.24-1.2-2.72-1.99-4.33-2.81-1.8-.91-3.28-2.01-4.96-2.16-14.51,0-27.81-.15-42.32-.15h0Z"/>
      <path id="_1h" data-name="1h" class="cls-15" d="m140.92,34.53c.52,2.44,2.53,4.12,5,4.59.61.12,1.2.28,1.81.4"/>
      <path id="_1i" data-name="1i" class="cls-15" d="m144.96,32.25c.63,2.04,1.67,4.25,4,4.87,3.01.8,6.16,1.72,8.34,4.07"/>
      <path id="_1j" data-name="1j" class="cls-15" d="m157.94,34.33c1.59,2.17,3.57,4.05,6.12,5.16,3.6,1.58,5.92,5.03,7.76,8.32,1.25,2.23,2.52,4.46,3.79,6.68"/>
      <path id="_1k" data-name="1k" class="cls-15" d="m174.12,43.06c1.94,3.33,4.03,6.59,5.95,9.93,1.35,2.34,1.57,5.11,1.07,7.74"/>
      <path id="_1l" data-name="1l" class="cls-15" d="m174.46,36.19c2.43,5.03,5.76,9.66,7.57,14.95,1.1,3.2.69,7.71.74,11.07"/>
      <path id="_1m" data-name="1m" class="cls-15" d="m177.47,33.84c.83,3.24,2.26,6.25,3.94,9.17,3.13,5.43,4.54,11.86,3.92,18.09-.04.37-.33,3.02-.4,3.39"/>
      <path id="_1n" data-name="1n" class="cls-15" d="m179.73,31.49c.71,2.83,2.04,5.42,3.48,7.96,1.85,3.26,2.84,6.87,3.77,10.48.65,2.49,1.31,5.02.71,7.61-.38,1.67-.93,6.52-1.06,8.23"/>
      <path id="_1o" data-name="1o" class="cls-15" d="m187.25,41.78c.44,2.81,1.07,5.58,2.13,8.24,1.09,2.73.54,5.69.59,8.55.02,1.65-1.34,6.37-1.86,7.93"/>
      <path id="_1p" data-name="1p" class="cls-15" d="m190.42,43.83c.24,2.63.89,5.17,1.83,7.69,1.6,4.26-.58,10.87-2.6,14.99"/>
      <path id="_1q" data-name="1q" class="cls-15" d="m194.17,49.57c1.39,2.05,1.91,4.51,1.67,6.97-.31,3.09-2.16,8.72-4.51,10.36"/>
    </g>
    <path id="d" class="cls-7" d="m124.73,43.51c-.71.15-1.45.28-2.09.62-.56.31-1.27.64-1.46,1.25-.17.54.04,2.89.42,3.33.49.56.49.75,1.98,1.04,1.03.2,2.25.13,3.24-.21,1.48-.51,3.89-1.44,5.36-1.67,2.08-.34,4.16-.78,6.27-.83,2.45-.06,4.89-1.06,7.31-.7,2.61.39,5.2.15,7.73.88,2.5.73,4.92,1.7,7.31,2.7,1.35.57,2.56,1.46,3.97,1.87,1.08.31,2.21.36,3.29.68,1.26.36,2.37.97,3.6,1.4.81.29,1.66.47,2.51.62.62.11,1.88.21,1.88.21,0,0-1.91-2.92-3.13-4.16-1.98-2.01-4.24-4.09-6.69-5.51-3.65-2.11-7.59-3.54-11.7-4.47-3.61-.81-7.38-.72-11.07-.62-2.52.07-5.02.51-7.52.83-1.89.24-3.76,1.01-5.64,1.27-1.53.22-4.06,1.14-5.57,1.47h0Z"/>
    <path id="e" class="cls-10" d="m118.27,64.98c-.07,2.18.51,4.58-.46,6.55-1.13,2.28,1.7,6,.94,8.6-.6,2.06-5.22,2.64-4.41,4.61.67,1.62-.3,4.78-2.62,3.52-1.39-.76-.78-3.17.5-2.89"/>
    <path id="f" class="cls-10" d="m114.06,94.64c-2.87,1.63-4.77,5.81-5.38,8.95-.42,2.16-1.39,4.44-3.16,5.9-1.11.91-2.58,1.49-3.87.73"/>
    <path id="g" class="cls-10" d="m117.16,118.52c-2.18-1.16-1.1-4.01-1.63-5.51-.71-2.03-1.78-4.17-1.48-6.32.35-2.44.43-11.66.52-14.18l.15-1.75,1.25-1.97,1.04-1.25v-1.97l1.36-1.04,1.98-1.04,1.25-1.25.21-1.56"/>
    <path id="h" class="cls-10" d="m101.65,119.92c2.7-.05,3.59-.58,4.77-2.27,1.24-1.78,2.15-4.47,3.43-6.12,1.2-1.55,2.18-7.76,4.63-8.35"/>
    <path id="i" class="cls-10" d="m168.41,52.73c.52,3.33,2.13,6.38,2.53,9.72.37,3.03,3.15,5.38,2.62,8.46-.5,2.93.16,5.97-.87,8.84-1.12,3.13,1.88,4.91,2.83,7.49,1,2.71.98,5.47,3.67,7.38,2.93,2.08-.47,5.77-1.36,8.23-1.11,3.05-1.7,7.02.18,9.86,1.67,2.53,5.45.88,7.06,4.58,1.1,2.52,2.36,5.53,4.98,6.53,2.83,1.09,6.57.54,8.7-1.56,2.3-2.27,0-7.41-3.65-7.58-2.94-.14-5.6,6.54-1,5.09"/>
    <path id="j" class="cls-10" d="m170.83,53.45c1.98,3.02,2.84,7.88,3.64,11.35.61,2.62,1.26,5.01,1.12,7.75-.17,3.32.61,6.38,1.19,9.79.45,2.63.72,5.46,2.61,7.17,2.22,2,5.66,2.59,5.34,5.93-.32,3.3-1.23,6.42-2.52,9.45-1.33,3.15,2.13,7.02,4.49,8.21,2.52,1.27,7.25.21,7.6-3.02.39-3.63-.91-7.41-2.76-3.8-1.36,2.66-5.67,1.36-4.65-2.57.77-3,2.77-2.68,3.05-5.44.29-2.85-.7-4.09-1.32-6.76-.66-2.84-6.08-2.92-7.43-5.94-1.34-3-1.54-6.41-1.79-9.68-.36-4.62-.52-9.29-1.99-13.77-.78-2.38-.21-4.83-1.98-6.91"/>
    <path id="k" class="cls-10" d="m181.06,63.01c1.19,3.05,1.46,6.33,2.36,9.48.98,3.45,2.42,6.53,2.38,10.14-.04,3.32,3.45,4.18,4.83,7.01,1.38,2.84,1.75,5.36,2.05,8.19.28,2.58-2.43,6.61,1.92,6.96,2.53.21,4.89,1.33,6.21,3.68,1.72,3.07,1.19,6.51.83,9.83-.25,2.33,1.1,5.24-2.09,5.92"/>
    <path id="l" class="cls-10" d="m187.74,74.97c.74,1.92.8,4.1,1.84,5.86,1.38,2.32,6.63,2.92,4.74,6.51-1.59,3.01,1.03,5.88,1.17,8.83.14,2.89,1,7.64,3.53,7.07,3.57-.81,2.82,1.91,3.92,3.45,1.56,2.18,3.26,3.43,3.16,6.37-.09,2.73-2.35,4.53-2.38,7.64-.02,2.28,2.89,3.46,3.65,5.4"/>
    <path id="m" class="cls-10" d="m208.43,110.09c.87,3.07,2.08,5.94,2.43,9.25.24,2.35-2.53,4.84-3.58,1.51-.38-1.19.76-2.16,1.36-3.18"/>
    <path id="n" class="cls-10" d="m102.46,105.59c-.06.39-.23.8.06,1.18.37.48.95.8,1.55.62.55-.16,1.01-.56,1.15-1.13.13-.54.21-1.07.26-1.62"/>
    <path id="o" class="cls-10" d="m100.91,110.37c.54.39,1.2.68,1.5,1.32.44.91.72,2.02.26,2.96-.29.59-.33,1.4-.92,1.74-.64.38-1.46-.08-1.98-.55-.38-.34-.08-.87-.12-1.29"/>
    <path id="p" class="cls-10" d="m114.96,111.8c-.57,1.07-1.25,2.09-1.49,3.28-.31,1.55-.73,3.11-1.49,4.53-.71,1.31-1.58,2.53-2.56,3.68-.36.43-.67.88-1.23,1.11-.58.23-1.08.62-1.67.82-.52.18-2.12.07-2.12-.56"/>
    <path id="q" class="cls-10" d="m122.66,84.94c-.5.92-.94,2.04-2.04,2.39-1.01.84-1.47,2.18-1.83,3.4-.53,1.88-1.28,3.75-1.17,5.75-.01,2.6.27,5.2.13,7.81.03,2.14-.34,3.87.87,5.74.93,1.08,2.78,2.07,3.51,3.35.49,1.13.67,2.82-.5,3.6-1.37.78-3.56-.53-3.09-1.77.15-.45.73-1.36,1.08-1.29"/>
    <path id="r" class="cls-10" d="m123.6,88.16c-.85,1.56-1.63,3.18-1.93,4.94-.18,1.39-.81,2.7-.73,4.12-.04,2.73.16,3.54.2,6.27.09,1.6.79,2.49,1.83,4.81,1.35,1.21,1.27,4.78,1.43,6.46.07.74-.12,1.47-.22,2.2"/>
    <path id="s" class="cls-10" d="m125.59,95.54s-.83,1.33-1.04,2.08c-.22.77-.29,1.59-.21,2.39.09.83.32,1.67.73,2.39.28.49.75.85,1.15,1.25.47.47,1.16.76,1.46,1.35.27.53.21,1.77.21,1.77"/>
    <path id="t" class="cls-1" d="m99.89,223.89c-2.14-.42-4.12-1.41-6.06-2.44-1.09-.59-2.18-1.31-2.97-2.24-.9-1.06-1.47-2.31-1.97-3.64-.45-1.19-1.03-2.68-.19-3.53.73-.73,1.11-.59,1.19-1.47.14-1.65-.3-3.27-.22-4.89.07-1.39.54-2.71,1.26-3.94,1.34-2.27,1.99-4.86,3.13-7.24,1.16-2.43,1.61-5.12,2.7-7.57,1.02-2.29,2.21-4.5,3.74-6.5.86-1.12,1.68-2.36,2.82-3.19,2.05-1.47,4.06-3.09,6.48-3.92.96-.33,1.84-1.17,2.83-1.17,1.2,0,2.47.24,3.52.79.88.46,1.38,1.28,1.81,2.21.64,1.4.04,2.98-.96,4-.59.6-1.63.46-2.41.77-1.91.76-4.05.57-5.99,1.17-1.42.44-2.38,1.58-3.51,2.51-.78.64-.33,1.26.29.57.85-.95,1.67-2.37,2.91-2.66,3.11-.72,6.21-1.57,9.36-1.99,1-.13,2.11.25,2.68,1.27.77,1.39,1.27,2.97.85,4.43-.3,1.04-1.45,1.77-2.67,1.84-1.91.11-3.82.38-5.71.69-1.84.3-3.04,1.5-4.53,2.62-.78.58-.83,1.32-.04.67,2.23-1.83,2.6-2.12,4.26-2.62,1.86-.57,3.74-.8,5.62-1.26,1.14-.28,2.45.02,3.43.69.55.38.53,1.39.69,2.07.2.84-.22,1.5-.74,2.15-.66.83-1.75,1.17-2.68,1.62-1.33.65-2.88.77-4.11,1.64-.63.44-1.4,1.03-1.99,1.42-.58.38-1.15.58-1.02,1.03.09.3,1.4-.53,1.98-.87,2.3-1.38,4.26-3.44,6.85-4.23.72-.22.9.26,1.68.65.81.41,1.22.72,1.16,1.65-.07,1.06.5,2.24.16,3.22-.48,1.38-1.92,2.16-3.29,2.62-1.03.35-1.9,1.03-2.7,1.75-.71.64-1.16,1.45-2.03,1.91-.84.45-2.03.57-2.46,1.42-.26.51,1.85-1.14,1.88-.35.03.97-.05,1.87-.5,2.76-.42.84-.71,1.7-1.49,2.32-1.75,1.38-2.64,3.67-4.4,4.98-1.58,1.18-3.71,1.39-5.69,1.45-.83.02-1.41.05-1.6,1.1-.18.98.04,1.92,0,2.91-.05,1.2-.42,2.99-.84,2.91l-.52-.1Z"/>
    <path id="u" class="cls-10" d="m98.75,188.14c.14.76.28,1.52.42,2.29.71.68,1.8.76,2.61.21"/>
    <path id="v" class="cls-10" d="m100.93,191.99c.12,1.38-.42,3.17.98,4.08.74.55,1.69.53,2.57.49"/>
    <path id="w" class="cls-10" d="m105.53,201.23c-.02,1.01.15,2.13,1.29,2.37.37.31.7-.02,1.01-.18"/>
    <path id="x" class="cls-3" d="m37.32,224.3s1.87-2.38,2.51-3.74l1.46-3.12,2.92-2.6,3.55-4.36,3.66-3.74,3.03-3.01,4.81-3.43,4.91-2.6,5.12-2.49,4.7-1.14,3.34.31,2.51-.73,3.55-.52,2.92-.73,1.46-.1,1.67.1,1.57.62,1.46-.31,1.36-.1c.29-.02.84-.21.84-.21,0,0-.44,1.24-.63,1.87l-.63,2.08-.94,2.39-.73,1.77-1.25,2.39-.94,2.39v2.6l-.42.73-1.04.52h-2.3l-.52,1.04-1.67,1.45-1.46-.1h-2.92l-1.88,1.97-1.57,2.08-1.46,2.49-1.57,2.29-.42,1.14-.21.94.63-1.14.73,1.35c.27.5.31,1.66.31,1.66l-36.03-.1-.42.1Z"/>
    <path id="y" class="cls-10" d="m49.12,224c1.6-2.97,3.57-5.74,5.75-8.31"/>
    <path id="z" class="cls-10" d="m52.26,223.89c1.46-2.18,3.02-4.3,4.91-6.13"/>
    <path id="_10" data-name="10" class="cls-10" d="m55.39,223.79c1.29-1.43,2.78-2.7,3.76-4.36"/>
    <path id="_11" data-name="11" class="cls-10" d="m60.62,223.68c.67-.82,1.33-1.63,1.78-2.6"/>
    <path id="_12" data-name="12" class="cls-10" d="m64.27,213.6c.78-1.71,1.27-3.56,2.42-5.08,1.28-1.7,2.59-3.43,4.25-4.74,2.51-1.99,5.46-3.36,8.08-5.19,1.13-.79,2.12-1.76,3.43-2.25,1.09-.4,1.74-1.46,2.44-2.33.62-.76,1.44-1.05,2.25-1.5"/>
    <path id="_13" data-name="13" class="cls-10" d="m84.22,197.91c.92-.82,1.7-2.1,3.04-2.18.73-.05,1.47.13,2.08-.42.73-.65,1.17-1.63,1.78-2.39"/>
    <path id="_14" data-name="14" class="cls-10" d="m84.43,205.08c-1.9,2.47-4.05,4.72-5.92,7.22-1.69,2.28-3.8,4.31-5.13,6.8-.86,1.6-1.28,3.38-2.12,5"/>
    <path id="_15" data-name="15" class="cls-10" d="m89.55,204.77c-1.35,1.44-2.61,2.95-3.86,4.47"/>
    <g id="g134">
      <path id="_1r" data-name="1r" class="cls-4" d="m221.09,223.83l.3-1.84.81-1.54.81-1.84.52-1.98.15-2.06.59-2.35.74-1.98,1.26-2.5.67-3.01v-2.06l.15-2.28.74-2.2,1.26-1.98,1.03-1.62.37,1.62.81,1.25,1.99,1.47,2.29,2.13,2.36,1.1,2.14.59,1.7.29h1.18l3.32-1.03,1.4-.96,1.63-1.03,1.33-.66.07-1.4,1.33,4.04,1.7,3.53,1.11,2.57,1.26,3.09,1.18,3.97.44,4.04-.15,3.75.15,1.03-36.63-.14Z"/>
      <path id="_1s" data-name="1s" class="cls-9" d="m231.71,193.33c-.58-.11-1.33.29-1.57.83-.38.87.28,1.92.74,2.75.38.69,1.02,1.2,1.61,1.72,1.25,1.09,2.64,2.03,4.08,2.88.9.53,1.82,1.07,2.83,1.36.99.28,2.04.38,3.07.34,1.06-.04,2.11-.28,3.12-.61,1-.33,1.99-.76,2.87-1.34.8-.52,1.71-1.05,2.15-1.89.35-.68.3-1.52.22-2.28-.04-.33.02-.88-.31-.95-1.08-.25-1.45,1.69-2.32,2.37-.94.75-1.97,1.45-3.09,1.87-.88.33-1.84.51-2.78.5-.95-.01-1.92-.21-2.79-.59-1.52-.67-2.8-1.8-4.05-2.89-.96-.83-1.78-1.8-2.63-2.73-.39-.44-.56-1.23-1.14-1.34h0Z"/>
      <path id="_1t" data-name="1t" class="cls-10" d="m244.13,208.4c-1.32.36-2.73.26-4.08.07-1.2-.17-2.35-.59-3.47-1.06-.59-.25-1.14-.6-1.69-.93"/>
      <path id="_1u" data-name="1u" class="cls-10" d="m244.27,211.92c-1.51.68-3.17.96-4.82,1.04-1.75.09-3.54-.03-5.23-.6"/>
      <path id="_1v" data-name="1v" class="cls-10" d="m245.02,215.6c-1.46.96-3.1,1.71-4.81,2.04-1.14.21-2.31-.05-3.47-.09-.76-.03-1.52-.09-2.28-.1"/>
      <path id="_1w" data-name="1w" class="cls-10" d="m245.39,219.42c-1.57.28-3.03.99-4.6,1.28-1.79.33-3.62.53-5.44.5-.23,0-.45-.05-.68-.08"/>
      <path id="_1x" data-name="1x" class="cls-10" d="m252.18,203.1c-.08,1.15.16,2.29.39,3.42.26,1.3.76,2.54,1.1,3.82.37,1.37.81,2.72,1.05,4.11.28,1.62.31,3.27.43,4.91.02.31.04.62.06.94"/>
    </g>
    <path id="_16" data-name="16" class="cls-1" d="m243.41,200.61c-1.53-.06-2.82.29-4.18-.42-2.13-1.1-3.94-2.96-5.58-4.69-.5-.81-1.05-1.6-1.84-2.17.17-1.61.62-3.22.19-4.82-.22-2.05-.7-4.13-1.96-5.81-1.77-2.71-3.26-5.61-4.84-8.42-.4-1.39-.74-2.79-.59-4.24.02-3.23.16-6.48.77-9.65.55-1.84,1.08-3.69,1.15-5.63.16-1.25.85-2.4,1.36-3.53.72-1.26,1.72-2.32,2.62-3.43.37-.95,1.03-1.87.63-2.91-.06-1.14.58-2.23,1.3-3.09.94.22,2.09.03,2.63,1,.93.68,1.12,1.82,1.34,2.88.07,1.7-.03,3.39-.44,5.05-.27,1.49-.95,2.92-2.06,3.96-.87.07-1.13.28-1.92-.12.6.58.86.73,1.3,1.4-.18,1.44.77.16,1.35-.21,1.32-.89,2.95-1.26,4.41-1.9,1.58-.51,3.19-1.11,4.29-2.42.84-.31,1.89-.74,2.02-.76,1.83.17,3.21-.09,5.05-.03,1.16.94,1.98,2.28,2.08,3.79.24.87.04,1.89-.83,2.31-.79.65-1.43,1.48-2.4,1.9,1.3.34,2.7.45,3.97.82.68.52,1.29,1.08,1.2,2.01.1,1.43.27,2.94.09,4.35-.68,1.41-2.29,1.82-3.58,2.49-.69-.11,1.31.61,1.32,1.2.29.81.84,1.51,1.19,2.26-.03,1.39.51,2.74.11,4.11-.73.57-1.9.79-2.87.96-1.5-.25.05.67.5,1.17.68.49,1.25,1.28,1.36,2.08-.37.96-.64,2.27-1.86,2.44-1.41.64-2.01.91-1.38,2.58.31,2.19-.1,4.4.11,6.61-.16,2.08.79,4,.84,6.06.1.82.28,1.84-.88,1.7-1.81.41-3.55,1.52-5.48,1.2-.16-.01-.33-.02-.49-.03h0Z"/>
    <path id="_17" data-name="17" class="cls-25" d="m233.27,156.66c-.2.49-.66.95-.59,1.47.08.58.46,1.26.96,1.49.66.3,1.44.51,2.15.39,1.78-.31,3.53-.69,5.31-.99.73-.13,1.39-.67,2.17-.5,1.57.34,3.22.55,4.82.18.47-.11.96-.18,1.43-.27"/>
    <path id="_18" data-name="18" class="cls-10" d="m237.06,159.86c-.95.72-2.91,1.03-3.44,2.09-.25.49-.24,2.24.24,2.5,1.69.89,3.68,1.13,5.55,1.5,1.26.25,2.6.4,3.83.76,1.26.37,2.42.84,3.7,1.13.96.22,2-.02,2.95.23.33.09.64.24.96.36"/>
    <path id="_19" data-name="19" class="cls-10" d="m238.72,165.96c-.59.05-2.66-.01-3.08.41-.46.46-.59,1.85-.3,2.43.59,1.16,1.84,1.31,2.91,2.06.86.6,1.61,1.35,2.62,1.7,1.47.51,2.93,1.04,4.26,1.87,1.37.85,2.77,1.64,4.27,2.22.24.09.47.2.7.3"/>
    <path id="_1A" data-name="1A" class="cls-10" d="m245.89,174.95c-1.23-.25-2.61-.81-3.87-.76-.37.01-3.24-.23-3.93,0-.69.23-1.42.16-1.8.77-.37.58-.62,1.88-.2,2.42.88,1.13,2.32,1.71,3.67,2.27,2.14.9,4.27,1.82,6.45,2.62.72.26,1.47.69,2.22.66.47-.02.83.07,1.28.09.28.01.59-.44.86-.35"/>
    <path id="_1B" data-name="1B" class="cls-24" d="m240.51,180.32l5.76,43.65,7.69.15-5.48-41.15-2.81-.88-2.22-.73-2.95-1.02Z"/>
    <path id="_1C" data-name="1C" class="cls-10" d="m232.53,172.83c-.18,1.35-.69,2.7-.57,4.04.17,2.01.85,3.96,1.5,5.87.08.25.27.44.4.67"/>
    <path id="_1D" data-name="1D" class="cls-10" d="m230.76,183.86c.89.95,1.66,2.03,2.64,2.88.67.57,1.57.89,2.18,1.51.26.27.43.6.65.9"/>
    <g id="g151">
      <path id="_1y" data-name="1y" class="cls-7" d="m102.51,177.54c-.04-.48-.07-.97-.1-1.45-.35-.31.04-.31-.31-.62-.61.19-1.94.15-2.56.3-.45-.12-.92-.18-1.35-.33-.36-.32-.81-.6-1.12-.95-.09-.76-.29-1.51-.29-2.28.05-.62.03-1.27.12-1.87.5-.64.87-1.39,1.54-1.87.25-.26.53-.46.89-.52.72-.21,1.43-.45,2.14-.69.03-.4.2-.83-.04-1.2-.24-.47-.34-.98-.38-1.5,0-.33-.23-.72.08-.96.28-.33.5-.73.81-1.03.44-.12.87-.39,1.34-.23.35.07.73.06,1.05.18.58.57,1.16,1.14,1.65,1.78.11.23.13.81.41.38.41-.33.74-.8,1.29-.91.45-.13.89-.41,1.35-.44.52.05,1.06.03,1.56.12.8.51,1.62,1.01,2.39,1.57.3.44.69.84.94,1.3.11.52.34,1.04.37,1.56-.09.35-.09.75-.23,1.08-.56.44-1.13.86-1.56,1.44-.16.24-.14.59-.17.86.12.27.1.67.48.67.55.09.14.2-.16.32-1.25.51-2.52.98-3.76,1.51-1.55.98-3.14,1.91-4.59,3.02-.49.43-.99.86-1.48,1.29-.1-.17-.21-.35-.31-.52h0Z"/>
      <path id="_1z" data-name="1z" class="cls-10" d="m102.3,175.36c.1-.62.31-1.56.42-2.18.44.2.86.47,1.3.62.63-.09,1.3.03,1.87-.3.35-.18.77-.26,1.07-.51.46-.62.98-1.21,1.41-1.84.17-.74.37-1.47.69-2.16.19-.14.58.13.85.15.7.18,1.38.47,2.12.47.57.11,1.11-.18,1.66-.28"/>
      <path id="_20" data-name="20" class="cls-10" d="m101.56,167.14c.55.23,1.67.48,2.11.87.33.6.67,1.19.92,1.83-.21.5-.28.12-.37-.21-.16-.47-.25-.97-.37-1.45"/>
      <path id="_21" data-name="21" class="cls-10" d="m106.48,164.86c.05.56-.32,1.41-.07,1.91.2.12.51.73.57.25.01-.31-.21-.61-.29-.91-.24-.31.04-.94-.21-1.25Z"/>
    </g>
    <g id="g157">
      <path id="_22" data-name="22" class="cls-4" d="m73.88,224.15l23.61-.26-1.36-.99-1.93-1.04-2.61-1.82-1.2-1.4-1.15-1.97-.37-1.97-.47-1.2.05-1.3.73-.68.78-.83v-1.2l-.21-1.61-.84.94-.94.31-1.1.05-.94.1-.52,1.14-1.1.78-1.52.36h-2.04l-1.41-.16-1.98,1.97-1.36,2.08-1.52,2.29-1.46,2.44-.37.73.37.83.42.88.31.62.11.89Z"/>
      <path id="_23" data-name="23" class="cls-10" d="m73.83,223.26l1.1-2.03,1.41-1.77,1.41-1.61,1.36-1.92,1.36-2.08.78-.94.94-1.04"/>
      <path id="_24" data-name="24" class="cls-10" d="m84.64,220.15l.73.78,1.1.94,1.15.57,1.36.57,1.41.47,1.04.31"/>
    </g>
    <g id="g162">
      <path id="_25" data-name="25" class="cls-7" d="m114.87,205.16l1.55-1.25,1.77-1.69,1.63-.96,1.55-.88.66-.15v1.1l-.15,1.32.3.88,1.03.44.89.73.07,1.62.15,1.1.44.88,1.4.59,1.48.15,1.7-.07,2.52.07,2.22.44,2.07.22,1.7.22.96.81.37,1.4-.96.73-2.66.88-3.03.66-.96.59-.66.07v1.03l-.07.73v.59l-1.4.59-.67.22v1.18l.44,1.32.74,2.13.44,1.03-3.92.29-5.02-.15-3.18.15-2.29-.22-.52-1.4-.52-.96-1.85.73-1.77.37-1.63.73-1.4.29-1.7.29-1.33-.15-.81-.29-.3-1.32.44-.88-.3-.88-.59-.66.15-1.25.96-.88,1.7-.59,2.66-1.03,1.77-1.03,1.33-.96,1.03-1.25,1.55-1.91-1.03-1.1.44-1.69.81-1.62-.22-1.39Z"/>
      <path id="_26" data-name="26" class="cls-11" d="m105.05,220.96l5.91-1.25,4.58-2.06,5.1-1.4,4.95-1.47,3.77-.81,3.99-.73,3.47-.37,1.26-.44"/>
      <path id="_27" data-name="27" class="cls-11" d="m115.21,221.74l3.15-.77,5.12-1.38,2.92-.56,2.1-.46"/>
      <path id="_28" data-name="28" class="cls-10" d="m115.17,207.37c1.06-.7,2.15-1.35,3.3-1.88.91-.44,1.68-1.11,2.52-1.65.23-.14.53-.08.79-.12.11,0,.22-.01.32-.02"/>
      <path id="_29" data-name="29" class="cls-10" d="m115.24,210.53c.76-.42,1.48-.92,2.28-1.28.5-.11.99-.22,1.49-.34.51.31,1.02.68,1.62.78.43.22.9.13,1.32-.05.38-.15.85-.16,1.14-.47.36-.38.73-.77,1.09-1.15"/>
    </g>
    <path id="_1E" data-name="1E" class="cls-24" d="m130.5,223.99l-1.25-2.29-.52-1.77-.1-1.04,1.04-.73,1.98-.42,7.63-.62,6.27-.42h7.94l12.53-.42,8.15.1h6.69l7,.21,6.48.31,4.49.42,4.39.62.42,1.97v3.95l-73.12.1Z"/>
    <path id="_1F" data-name="1F" class="cls-23" d="m129.25,220.45l4.39-.52,7.21-.73,8.46-.52,12.22-.52h12.01l7.73-.1,7.21.21,5.64.31,6.27.62,3.03.31.1,1.35-4.49-.1-8.04-.73-8.15-.21h-8.04l-7.73-.1-12.33.42-8.46.42-6.69.62-5.01.62c-1.56.09-3.19.35-4.7.73l-.63-2.08Z"/>
    <path id="_1G" data-name="1G" class="cls-10" d="m203.62,223.47l-2.92-2.29-2.92,2.39-2.82-2.91-2.61,2.91-3.03-3.01-3.97,2.81-3.76-2.7-2.82,2.6-3.03-2.49-2.82,2.91-3.55-3.01-2.72,2.81-3.97-2.81-2.72,2.7-3.76-2.49-3.34,2.6-2.82-2.29-4.18,2.49-3.66-1.87-3.13,1.97-3.76-1.66-3.55,1.77"/>
    <path id="_1H" data-name="1H" class="cls-3" d="m230.78,184.91l-2.3,2.81-3.86,5.09-4.6,6.86-2.4,4.47-2.51,3.74-1.88,2.29-1.36,4.05-.73,3.22-.52,1.25-.73,1.77-.1,1.56v1.87h11.39l.42-2.39.94-1.66.73-1.97.42-2.81.73-3.43,1.36-2.91.94-3.12.21-3.22v-1.77l1.57-3.53,1.67-2.81,1.67-1.25.63-3.12-.52-2.39-1.15-2.6Z"/>
    <path id="_1I" data-name="1I" class="cls-10" d="m226.6,200.82l-1.57,2.29-1.98,3.22-1.36,3.01-1.36,3.43-1.15,3.33-.73,3.43"/>
    <g id="g174">
      <path id="_2A" data-name="2A" class="cls-3" d="m251.22,189.51c1.58,1.2,2.27,2.48,3.54,4.17,1.76,3.55,3.49,6.55,4.81,10.87,1.04,2.52,1.04,5.32,2.05,7.86,1.11,3.05.78,6.33.97,9.5.26,1.16.46,2.61-1.12,2.13-1.25-.02-2.5-.04-3.75-.05-.49-2.41.61-4.8.06-7.22-.84-6.54-4.9-12.03-6.69-18.28-.32-2.01-1.21-3.89-1.2-5.96-.15-1.1-1-3.11-.59-4.19l1.92,1.18Z"/>
      <path id="_2B" data-name="2B" class="cls-10" d="m250.26,192.6c1.04,1.11,2.14,2.21,2.89,3.54.54,1.13.67,2.4,1.24,3.52.51,1.08.91,2.22.96,3.41.13,1.62.19,4.28.23,5.91"/>
    </g>
    <g id="use180">
      <path id="_0-2" data-name="0" class="cls-22" d="m184.3,225.47l1.03,13.23,1.03,1.18,12.85-7.2,1.03-7.05-15.95-.15Z"/>
    </g>
    <g id="use182">
      <path id="_1-2" data-name="1" class="cls-7" d="m70.96,347.14l-7.42-52.59-1.36.52-2.3.94-1.98.94-.84.94,6.37,50.92,7.52-1.66Z"/>
    </g>
    <g id="g184">
      <g id="use186">
        <path id="_1J-2" data-name="1J" class="cls-5" d="m200.07,424.26c2.78-1.2,6.07-2.35,7.52-5.2,1.1-2.16-1.81-5.08.32-6.61,2.47-1.77,2.43-4.94,2.17-7.49-.27-2.68-2.24-5.28-4.86-6.07-1.36-.41-2.39-1.14-.96-2.43,2.06-1.86-.13-4.98-1.9-6.7-1.3-1.27-2.68-1.01-4.57-.99-1.61.02,1.49-3.28-.59-4.8-2.21-1.61-5.09-3.12-7.76-2.17-2.34.84-3.91,3.03-4.42,5.26-.39,1.71-.52,1.76-.68.08-.16-1.66-3.47-2.17-3.86.25-.45,2.77-1.69,5.37-1.93,8.2-.17,1.95-1.25,3.99-.75,5.82.48,1.78,1.25,2.74.39,4.68-1.18,2.67,3.18,5.01,2.03,7.99-1.07,2.78-3.3,4.89-5.64,6.66-1.7,1.28-3.33,2.65-5.01,3.95,10.17-.14,20.33-.28,30.5-.42h0Z"/>
      </g>
      <g id="use188">
        <path id="_1K-2" data-name="1K" class="cls-10" d="m174.16,421.35c2.99.92,6.15,1.28,9.26.6,4.87-1.06,9.75-2.76,13.62-5.85,2.12-1.69,2.81-4.57,2.99-7.27.29-4.23.52-8.61-.83-12.63-.73-2.16-2.58-4.02-4.69-4.91-2.2-.93-3.95,1.57-4.16,3.75-.19,1.9-2.12-2.48-4.14-1.5-1.87.9-2.84,3.04-3.34,4.87-.19.7-.13,1.44-.14,2.16"/>
      </g>
      <g id="use190">
        <path id="_1L-2" data-name="1L" class="cls-10" d="m190.25,421.76c2.22.82,4.99.57,6.48-1.45.79-1.08,1-2.46,1.25-3.74"/>
      </g>
      <g id="use192">
        <path id="_1M-2" data-name="1M" class="cls-10" d="m200.28,418.85c2.35-1.12,5.39-2.2,6.27-4.78.69-2.03-.54-4.26-1.5-6.11-.49-.96-1.43-1.42-2.47-1.58"/>
      </g>
      <g id="use194">
        <path id="_1N-2" data-name="1N" class="cls-10" d="m205.87,406.59c.73-2.5.54-5.27-1.59-7.32-1.44-1.39-2.53-3.22-4.63-2.86"/>
      </g>
      <g id="use196">
        <path id="_1O-2" data-name="1O" class="cls-10" d="m196.31,387.68c-1.96-.8-4.25-.86-6,.74-1.47,1.35-.49,5.26-3.29,3.51-2.37-1.49-4.8.8-5.48,2.95-.33,1.02-.58,2.11-.48,3.19"/>
      </g>
      <g id="use198">
        <path id="_1P-2" data-name="1P" class="cls-10" d="m194.64,384.77c-1.55-1.33-3.69-1.5-5.42-.03-1.62,1.39-.96,4.14-2.56,4.73-1.75.64-4.15,0-5.07,1.88-.51,1.04-.99,2.09-1.37,3.19"/>
      </g>
      <g id="use200">
        <path id="_1Q-2" data-name="1Q" class="cls-10" d="m182.52,419.89c.73-1.59,1.55-3.52.33-5.18-.67-.91-.88-2.2-2-2.72"/>
      </g>
      <g id="use202">
        <path id="_1R-2" data-name="1R" class="cls-10" d="m185.86,417.19c1-1.92,1.97-4.71.31-6.43-1.11-1.15-3.09-1.83-4.69-1.26"/>
      </g>
      <g id="use204">
        <path id="_1S-2" data-name="1S" class="cls-10" d="m189.41,415.94c.68-2.38.63-5.17-1.17-7.08-1.08-1.14-2.39-2.52-4.05-2.48-.75.02-3.57,2.14-2.49.63,1.12-1.58,3.43-2.72,2.12-4.69-1.09-1.65-3.25-2.9-5.27-2.17"/>
      </g>
      <g id="use206">
        <path id="_1T-2" data-name="1T" class="cls-10" d="m193.8,413.24c1.26-2.19.33-4.42-1.67-6.03-1.57-1.26-3.21-2.6-5.26-2.23-.34.06-.67.09-1.01.15"/>
      </g>
      <g id="use208">
        <path id="_1U-2" data-name="1U" class="cls-10" d="m195.05,406.59c.14-2.46-1.8-3.85-4.01-4.56-1.81-.58-3.92-.61-5.39.61"/>
      </g>
      <g id="use210">
        <path id="_1V-2" data-name="1V" class="cls-10" d="m196.1,401.81c-.55-2.28-2.12-4.11-4.39-4.99-2.69-1.04-5.96.44-7.1,2.7l-.21.42"/>
      </g>
      <g id="use212">
        <path id="_1W-2" data-name="1W" class="cls-10" d="m202.16,395.57c.88-2.46-1.82-4.78-4.18-4.36-.53.09-1,.37-1.46.62"/>
      </g>
      <g id="use214">
        <path id="_1X-2" data-name="1X" class="cls-10" d="m175.21,420.52c2.72.32,5.44.16,8.15-.42,4.69-.99,9.49-2.52,12.99-5.87,2.32-2.22,2.2-5.66,2.78-8.59.58-2.92-1.06-5.54-1.44-8.36-.28-2.08-1.82-4.15-3.89-4.41-1.36-.17-2.58,1.03-3.76,1.66"/>
      </g>
    </g>
    <g id="use216">
      <path id="_2-2" data-name="2" class="cls-9" d="m185.55,321.99c-.88-3.18-1.6-4.38-2.88-7.42-8.9-.86-18.03-2.35-26.96-2.83-8.95-.48-17.96-.43-26.88.36-4.64.41-9.18,1.59-13.7,2.77-1.35.35-2.67.79-3.97,1.28v6.47c1.44,1.2,3.11,2.27,3.75,4.15.45,1.32.65,2.69,1.86,3.64,1.08.84,2.53.89,3.67,1.68.95.66,2.83-.08,3.35.84,1.29,2.27,2.87,4.41,3.49,6.92.26,1.05.49,2.43-.11,3.33-.74,1.11-2.32,1.99-2.4,3.28-.19,3.2,2.23,6.16,1.75,9.37-.16,1.07-1.5,1.99-.5,3.01.46.47,2.12,2.07,2.27,1.02,1.2-5.09,3.02-10.01,5.05-14.83,1.13-2.68,2.77-5.13,4.3-7.6,1.05-1.69,2.42-3.06,3.88-4.4,1.55-1.43,3.25-2.76,5.24-3.36,1.86-.56,3.96-.56,5.85-.15,1.66.37,3.34.75,4.65,1.94,1.5,1.36,2.82,2.42,3.77,4.32.62,1.24,1.52,3.47,1.98,4.95,1.64,1.17,3.1,1.38,4.18,3.07.75,1.17,2.57,2.48,3.5,3.5.95-.83.62-2.79,1.08-3.91.59-1.44,1.91-.28,2.7-1.17,1.38-1.55.84-3.67.95-5.52.13-2.16.71-4.73,2.8-5.84.9-.48,1.64-1.91,2.73-1.57,1.13.35,1.12,2.26,2.53,1.29,1.35-.94,1.17-2.88,2.13-4.2.64-.89.06-.46.95-1.57-.15-.49-.82-1.92-1.02-2.79h0Z"/>
    </g>
    <g id="use218">
      <path id="_3-2" data-name="3" class="cls-7" d="m181.5,311.05l-10.26-.9-11.91-1.04-7.73-.21h-7.31l-8.77.42-7.31.42-6.06.83-4.81,1.45-3.97,1.25-1.67.21,1.69-14.6,2.07-14.92,1.7-10.21,3.4-13.3,4.28-14.7,3.47-11.76.22-.96,9.01-.44,9.68-.22h9.23l3.77,9.19,3.84,12.2,3.18,11.46,4.06,11.54,3.25,10.58,2.59,9.33,2.07,7.86,2.3,6.51Z"/>
    </g>
    <g id="use220">
      <path id="_4-2" data-name="4" class="cls-2" d="m178.34,391.21c2.58,0,2.48-4.56,4.07-6.57,1.11-1.4,2.48-2.54,3.18-4.24.41-1,.69-1.9.68-2.98-.02-1.61-.51-3.26-1.49-4.5-.73-.93.33-1.68.72-2.46.46-.94,1-2.24,1.97-2.53.9-.27,1.79.1,2.49-.76.64-.79,1.18-1.45,1.56-2.42.54-1.39.61-2.87-.02-4.1-.41-.81-4.25-2.49-5.13-2.29-1.57.36,1.64.39,2.11-.55.41-.82,1.82-.53,2.54-1.18.88-.81,1.93-1.41,2.35-2.61.45-1.31,1.1-2.68,1.05-4.06-.05-1.27-.09-2.62.36-4.67,1.02.92.81,1.88,3.17,1.79,1.31-.05,2.41-1.68,2.95-2.83.58-1.25-.39-2.66-1.1-3.82-.58-.95-1.38-1.36.24-1.26,1,.06,1.76-.37,2.62-.9,1.2-.74,1.71-1.93,2-3.16.22-.95.18-1.95-.58-2.79-1.03-1.13-1.96-2.31-3.31-2.98-.71-.35-1.91.7-2.22-.56-.3-1.21-.61-2.37-1.65-3.27-.74-.64-1.4-1.08-2.35-1.37-1.38-.43-2.64.26-3.92.6-1.25.34-2.35-.72-3.61-.45-.82.18-.88,1.54-1.3,2.25-.77,1.31-1.2,2.86-2.07,4.1-.82,1.18-.66,0-1.56-.77-1.02-.86-3-.37-4.03.22-1.77,1.02-1.42,2.32-2.02,4.17-.58,1.76-.3,3.32-.72,5.1-.24,1.01-.12,2.59-.95,3.21-.71.53-1.76-.25-2.37.78-.55.93-.38,1.83-.68,2.64-1.29.5-.64,1.35-.05,2.18.94,1.51,1.8,3.02,2.25,4.77,1.14,4.36,3.14,8.55,3.78,13.01.47,3.29.23,6.63.7,9.93.38,2.65.08,5.36.26,8.04.16,2.43.06,4.86.08,7.29h0Z"/>
    </g>
    <g id="use222">
      <path id="_5-2" data-name="5" class="cls-1" d="m177.71,402.28c.3-1.25.29-1.19.39-2.63.3-4.37.94-5.42,1.26-9.78.23-4.45.21-10.99-.01-15.43-.33-4.05-1.49-8.72-2.38-12.7-.61-3.13-1.82-5.15-2.77-8.19-.85-1.69-1.25-3.68-2.4-5.17-2.35-1.94-3.42-3.51-5.2-5.91-1.1-.89-2.14-1.32-3.74-1.74-.13-1.55-.78-3.8-1.3-4.65-.43-1.16-1.49-2.09-2.38-2.94-1.79-1.09-3.5-2.4-5.34-3.34-2.14-.12-4.32-.76-6.4.06-2.73.41-4.73,2.52-6.68,4.3-2.02,1.71-3.4,4.03-4.98,6.12-2.81,6.25-7.04,12.61-9.1,19.15-.53,1.12-.86,2.2.44,2.9.63.86,2.12,1.4,1.69,2.67-.7,1.49.95,1.56,1.13,2.73,1.01,1.41-1.4,1.5-1.11,2.81-.02,2.21-.67,4.36-1.12,6.5-.21,1.24.71,2.09,1.16,3.09.16,1.57-.18,3.06-.74,4.52-.5,1.52.78,1.72,1.75,2.43,1.32.54.83,1.78,1.34,2.76.66,1.12-.11,2.53-.07,3.78.01,1.03.45,1.67.8,2.77.21,1.05.3.98.55,2.64,2.39.75,5.57,1.52,7.63,2.37,3.31,1.91,6.79,2.62,10.35,2.9,3.63.63,7.63.25,11.3.23,3.88-.45,7.47-1.1,11.34-2.08.88-.22,1.35-.09,2.24-.26l2.35.11Z"/>
    </g>
    <g id="use224">
      <path id="_6-2" data-name="6" class="cls-10" d="m178.33,390.45c-.57.76-1.63.64-2.34,1.19-1.12.86-2.62.7-3.95.75-1.57.05-3.18-.11-4.64-.69-.89-.35-1.71-1.01-2.21-1.82-.41-.66-.33-1.51-.44-2.27-.05-.34-.07-.68-.12-1.01"/>
    </g>
    <g id="use226">
      <path id="_7-2" data-name="7" class="cls-10" d="m164.63,387.08c-.3-3.07-.23-4.09-.03-6.74.15-1.93.21-2.53.34-4.44.05-.82.1-2.45.35-3.23.24-.75.52-2.42.49-3.21-.03-.8.02-2.45-.85-2.79-1.19-.47-2.04.25-3.21-.2-.54-.21-1.34-.83-1.8-.5-.87.62-1.28.07-2.06.78-.44.4-1.14.92-1.72.75-.84-.24-1.76-.93-2.52-.51-.5.28-.88,1.14-.22,1.58.07.05.65,1.13.71,1.19"/>
    </g>
    <g id="use228">
      <path id="_8-2" data-name="8" class="cls-10" d="m156.61,389c-.73.78-1.18,1.92-2.15,2.38-1.26.61-2.68.92-4.14.89-1.96-.04-3.92.2-5.87-.09-1.01-.15-2.14.11-3.05-.29-1.03-.45-1.48-.28-2.65-.96"/>
    </g>
    <g id="g230">
      <g id="use232">
        <path id="_1Y-2" data-name="1Y" class="cls-19" d="m165.73,358.84c-.29.61-1.31.79-1.98,1.15-.5.26-.8.73-1.5.75-.79.07-1.74-.01-2.21-.51-.47-.3-1.41-.26-1.42.21-.4.23-1.41.2-1.87.18-1.26-.18-1.84-.56-2.97-1-.46-.16-1.17-.29-1.2-.72.19-.48,1.21-.34,1.55-.76.74-.6,1.17-.7,1.96-1.26.6-.53,1.3-1.09,2.32-1.19,1.22-.13,2.45.06,3.64.26.77.15,1.58.45,1.83,1.01.21.48.67.23,1.06.64.3.35.55.73.78,1.11v.06s0,.06,0,.06h0Z"/>
      </g>
      <g id="use234">
        <path id="_1Z-2" data-name="1Z" class="cls-19" d="m165.45,358.39c-.84.05-1.69.06-2.51.21-.68.16-.93-.54-1.53-.62-.89-.19-1.84-.31-2.75-.15-.58.15-1.04.52-1.6.73-.56.32-1.27.39-1.92.27-.74-.04-1.42-.33-2.16-.34-.15,0-.3.05-.45.09"/>
      </g>
    </g>
    <g id="use236">
      <path id="_9-2" data-name="9" class="cls-10" d="m162.43,340.44s-2.55-.48-3.84-.44c-1.95.06-3.86.58-5.76,1.03-1.85.44-3.71.89-5.47,1.62-1.91.79-3.73,1.81-5.47,2.94-1.47.96-2.88,2.02-4.14,3.23-1.15,1.11-2.13,2.4-3.1,3.67-.9,1.18-1.82,2.36-2.52,3.67-.64,1.21-1.48,3.82-1.48,3.82"/>
    </g>
    <g id="use240">
      <path id="B-2" data-name="B" class="cls-10" d="m154.23,385.45c-.31.59-.39,1.43-.89,1.81-.83.63-1.79,1.15-2.77,1.33-.9.17-1.85.13-2.74-.08-1.48-.35-3.04-.59-4.41-1.28-.5-.25-.8-.82-1.21-1.23"/>
    </g>
    <g id="use258">
      <path id="C-2" data-name="C" class="cls-20" d="m162.9,365.72c1.05,0,1.23-1.34,2.18-1.85.76-.41,1.34-.41,2.22-1.54.68-.89,1.95-1.13,2.72-1.92.4-.4,1.61.2,1.84-.35.23-.54.38-1.35-.26-1.32-.37.01-1.07-.38-1.38-.15-.31.23-.33.27-.8.31-.75.07-1.46.51-2.21.5-.42,0-.74-.52-1.2-.38-.53.17-1.17,0-1.65.31-.9.59-1.55,1.16-2.58,1.32-.88.14-.99,2.03-1.89,1.96-.38-.03-.37-.2-.95.04-.4.17-1.26-1.54-1.67-1.49-.63.08-1.26-.01-1.87-.23-.59-.21-1-.79-1.57-1.06-.39-.19-.71-.52-1.18-.44-.55.1-1.11.16-1.66-.1-.4-.19-.81-.48-1.27-.23-.63.34-1.27.43-1.95.43-1.11,0-2.2-.39-3.31-.32-.41.03-1.19.89-1.34,1.29-.12.31.5,1.08.88.7,1.02-1.01,1.73-.67,2.78-.33.72.23,1.81.56,2.51.93.62.34.61.93,1.2,1.31.87.57,1.86.36,2.78.87.57.32,1.44,1.72,2.05,1.89.99.27,1.45-.11,2.45,0,.41.04.76.37,1.18.13.75-.42,1.59-.73,2.41-.71.52.02.99.42,1.51.42h0Z"/>
    </g>
    <g id="use260">
      <path id="D-2" data-name="D" class="cls-20" d="m133.22,397.44c2.32,0-.97-4.64-.35-6.83.32-1.12.23-2.07-.38-3.16-.76-1.37-2.5-1.78-2.92-3.16-.54-1.78,1.24-3.79.74-5.56-.31-1.13-1.17-1.96-1.06-3.21.17-2.01,1.65-3.75,1.25-5.81-.23-1.22,1.09-1.72.84-2.83-.23-1.05-1.68-1.8-1.25-2.71.59-1.25-.5-2.13-1.26-2.86-1.02-1.17-.81-1.46-1.68-2-1.22-.69-2.04-1.62-1.7-3.01.26-1.05,1.05-1.87.86-3.06-.27-1.68-.02-3.61-.84-5.09-.64-1.15-.6-.66.27-1.74,1.16-1.43,1.33-3.4,1.74-5.16.27-1.15-.75-3.19-1.36-4.24-.68-1.17-1.4-2.06-1.59-3.6-.18-1.52-2.72-.61-3.97-1.22-1.3-.64-2.25-1.51-3.66-1.84-1.57-.36-1.27-2.39-1.79-3.67-.51-1.27-1.48-2.37-2.6-3.16-1.59-1.13-3.76-1.59-5.78-.96-1.77.55-3.43,1.21-4.96,2.32-.72.52-2.16-.37-2.52-1.38-.41-1.17-1.92-1.49-3.04-1.91-1.12-.43-2.68-.2-3.13.92-.53,1.3-1.68.19-2.53.19-.94,0-2.02.92-2.54,1.66-1.49,2.12-1,4.78-.89,7.2.08,1.7.61,3.58,1.72,4.91.93,1.11,1.8,2.82,3.24,3.03,1.59.23,1.27.98,1.42,2.18.17,1.42.32,2.89,1.5,3.97,1.18,1.07,2.39,2.2,4.11,2.05,1.13-.1.05,1.94.34,2.75.58,1.66,1.18,3.33,2.58,4.54.87.74,2.37.99,2.89,1.96.56,1.04.27,2.16-.04,3.32-.29,1.1-1.19,1.73-1.12,2.98.12,2.28-.1,4.63,1.09,6.69.6,1.04,1.96,1.29,2.94,1.92,1.89,1.2,3.85,2.4,5.12,4.19,1.18,1.65.91,3.91,1.05,5.91.09,1.26,1.5,1.96,2.34,2.85,2.09,2.19,3.51,4.86,5.39,7.2.95,1.18,1.96,2.52,3.2,3.33,1.5-.03,2.9.21,4.28.86,1.26.59,2.64.91,3.99,1.28h0Z"/>
    </g>
    <g id="use262">
      <path id="E-2" data-name="E" d="m144.24,289.15s.89-2.88,1.67-4.16c.67-1.09,1.56-2.05,2.51-2.91.88-.8,1.96-1.37,2.92-2.08,1.12-.82,2.45-1.43,3.34-2.49,1-1.19,2.09-2.61,2.09-4.16,0-1.24-.75-2.49-1.67-3.33-1.1-1.01-2.68-1.7-4.18-1.66-1.68.04-3.38.92-4.6,2.08-.9.86-1.67,3.33-1.67,3.33v-.83c0-.42.12-1.71.42-2.49.47-1.22,1.2-2.36,2.09-3.33.94-1.02,3.34-2.49,3.34-2.49v-.42s-3.33.69-5.01.83c-.83.07-1.67.07-2.51,0-1.69-.14-5.01-.83-5.01-.83v.42s2.4,1.47,3.34,2.49c.89.96,1.62,2.1,2.09,3.33.3.79.42,2.08.42,2.49v.83s-.77-2.47-1.67-3.33c-1.21-1.16-2.91-2.04-4.6-2.08-1.5-.03-3.07.65-4.18,1.66-.92.84-1.67,2.09-1.67,3.33,0,1.55,1.09,2.97,2.09,4.16.89,1.06,2.22,1.68,3.34,2.49.97.7,2.04,1.27,2.92,2.08.95.86,1.84,1.82,2.51,2.91.78,1.28,1.67,4.16,1.67,4.16"/>
    </g>
    <g id="use264">
      <path id="F-2" data-name="F" class="cls-10" d="m175.58,333.49s-1.66-3.11-2.66-4.56c-.93-1.35-1.95-2.65-3.1-3.82-.9-.92-1.95-1.69-2.95-2.5-1.06-.86-3.25-2.5-3.25-2.5,0,0-2.42,2.7-3.55,4.12-.98,1.24-1.8,2.6-2.81,3.82-.55.67-1.77,1.91-1.77,1.91"/>
    </g>
    <g id="use266">
      <path id="G-2" data-name="G" class="cls-10" d="m144.41,330.7s-3.1-2.8-4.73-4.12c-1.2-.97-2.52-1.93-3.62-3.01-.8-.79-2.14-2.43-2.14-2.43,0,0-2.19,1.53-3.25,2.35-1.16.9-2.37,1.75-3.4,2.79-.61.62-1.09,1.36-1.63,2.06-.55.73-1.15,1.43-1.63,2.2-.34.56-.89,1.76-.89,1.76"/>
    </g>
    <g id="use268">
      <path id="H-2" data-name="H" class="cls-3" d="m199.22,328.2c3.94-1.27,7.88-2.55,11.82-3.82-4.63-12.35-9.26-24.69-13.89-37.04-1.58-.09-2.41-1.39-3.02-2.28-1.81.97-3.95.87-5.64-.31-1.3-.56-2.26-1.39-2.42-2.86-.58-2.02,1.87-1.59,1.88-2.88.49-1.9-1.1-1.93-2.55-2.09-1.33-.35-2.85-.59-3.09-2.19-.62-1.48.02-3.12.37-4.6-1.6.13-2.52-.8-3.2-2.14-.48-1.59-.32-3.27-.34-4.92,2.37-.41-1.57-.67-.86-2.35-.24-1.55.07-3,1-4.27-1.4-.09-3.31.3-2.66-1.72-.13-2.02.16-4.2,1.22-5.9,1.12-.42.79-3.08-.25-3.27-1.67.09-1.6-1.88-1.56-3.07.47-1.54-1.18-2.21-2.46-2-3.87-.28-7.9-.2-11.57-1.52-1.75-.23-1.21-2.53.4-2.55,2.11-1.12,4.57-1.17,6.83-1.85-.21-1.06.97-3.59-.97-2.82-3.98.5-7.98.82-12,.68,2.15,4.83,4.21,9.69,5.76,14.74,2.69,7.7,4.19,15.76,7.14,23.37,2.11,5.85,4.09,11.76,5.65,17.78,1.52,5.9,3.66,11.62,4.99,17.58,2.1,6.3,4.48,12.51,6.73,18.76,2.23-.44,4.53.78,6.67-.33,1.28-.87,2.52.2,3.42,1.11,1.04.77,1.39,2.21,2.61,2.75h0Z"/>
    </g>
    <g id="use270">
      <path id="I-2" data-name="I" class="cls-3" d="m111.47,322.47l-.15-6.17.89-9.11,1.33-9.7,1.48-10.29,1.77-11.9,3.4-13.38,3.25-11.61,2.81-10.29,2.34-6.65-4.26-.11-6.06-.29-4.88-.44-3.1,11.02-4.14,14.55-2.95,11.61-2.66,12.64-2.07,9.99-1.77,12.05-1.18,8.67-.59,8.23,1.77.44,1.48.59.89,1.18.74,1.03,1.33.88,1.77-1.18,2.22-1.32,1.77-.59,1.77-.15,2.81.3Z"/>
    </g>
    <g id="use272">
      <path id="J-2" data-name="J" class="cls-6" d="m74.72,378.01c-.55-2.71-1.12-7.66-1.69-12.47-.28-2.38-.89-6.65-1.03-9.04,1-.11,2.11.14,3.01-.27.87-.39,1.78-.92,2.32-1.68.68-.97,1.21-2.01,1.44-3.21.19-.97.38-1.99.16-2.94-.33-1.48-1.67-2.43-2.47-3.67-.68-.46-.09-1.08.1-1.65.47-.36,1.19-.57,1.82-.63,1.02-.09,2.09-.19,3.04.36,1.25.71,2.58,1.23,3.71,2.16,1.07.89,1.96,1.95,2.76,3.06.52.72.89,1.48,1,2.4.22,1.83.27,2.76.21,4.59,1.32.46,2.04.64,2.52.74,1.55.32,1.84,1.35,3.1,2.31,1.44,1.1,2.77,2.33,4.23,3.4-1.27,1.53-1.94,2.63-2.96,4.36-.46.79-1.46,2.21-2.25,2.65-1.07.59-1.86,1.5-3.09,1.71.14.44.84.93,1.01,1.47.45,1.41.72,2.86.76,4.34.02.82.24,1.73-.03,2.49-.46,1.31-1.25,2.46-2.01,3.63-.42.64-.97,1-1.63,1.31-1.28.6-2.56,1.19-3.9,1.63.15-1.1.69-2.18.32-3.3-.37-1.15-.28-2.48-.86-3.52-.51-.91-1.12-1.79-2.1-2.27-.68-.34-1.2-1-2.06-.85-.85.15-1.72.01-2.52.47-.74.42-1.53.69-2.04,1.41-.29.33-.59.66-.88.99h0Z"/>
    </g>
    <g id="use274">
      <path id="K-2" data-name="K" class="cls-6" d="m76.6,376.34c-.04,6.1-.07,12.19-.1,18.29.49,1.69,1.56-.3,2.38-.73,1.06-.79,2-1.9,3.14-2.49,1.6-.43,1.8.49,1.53,1.86-.19,6.23-.3,12.47-.98,18.67-.31,4.04-.82,8.07-1.26,12.1h-5.75c-1.69-6.3-3.19-12.7-6.06-18.6-1.37-3.54-2.65-7.7-3.44-10.76.46-.98,1.3-1.92,2.39-2.34,1.15.04,1.65,1.55,2.52,2.22.59.7,1.72,2.35,2.22.93-2.06-5.27-4.24-10.51-6.22-15.81-1.18-10.73-2.19-21.47-3.71-32.16-.38-3.71-1.27-7.59-.32-11.23.74-.92,1.53-1.74,2.8-1.73,1.03-.16,1.79,1.41,2,2.35.58,2.71,1.43,5.33,2.42,7.91,2.03,8.72,2.73,17.66,3.97,26.51.27,2.08.53,4.17.8,6.25.56-.42,1.11-.83,1.67-1.25h0Z"/>
    </g>
    <g id="use276">
      <path id="L-2" data-name="L" class="cls-6" d="m79.22,423.63l-1.88-28.06"/>
    </g>
    <g id="use278">
      <path id="M-2" data-name="M" class="cls-6" d="m78.06,423.73c-1.85-9.18-3.69-18.36-5.54-27.54"/>
    </g>
    <g id="use280">
      <path id="N-2" data-name="N" class="cls-6" d="m65.74,349.9c0-1.06.65-1.92,1.46-1.92s1.46.86,1.46,1.92-.65,1.92-1.46,1.92-1.46-.86-1.46-1.92Z"/>
    </g>
    <g id="use282">
      <path id="O-2" data-name="O" class="cls-6" d="m64.38,341.17c0-.83.54-1.51,1.2-1.51s1.2.67,1.2,1.51-.54,1.51-1.2,1.51-1.2-.67-1.2-1.51Z"/>
    </g>
    <g id="use284">
      <path id="P-2" data-name="P" class="cls-21" d="m66.99,379.99l-2.72-.42-3.34,2.7-1.25,4.16-.42,2.7v3.74l1.25,2.49.63,1.45,1.88,2.08-4.39,7.07-2.3,5.4-1.88,5.2-1.88-.42-4.39-3.74-4.6-4.57-4.18-6.03-3.76-7.48-2.09-5.61-2.3-8.73-.63-7.9v-4.78l.63-6.44,1.25-6.65,1.88-7.48,3.13-7.48,3.13-5.4,4.18-6.44,5.01,5.4,4.18,4.57,3.76,2.49-2.92,3.95v4.16l1.67,4.99,2.92,2.29,2.3,1.04,2.92.21,2.3,23.49Z"/>
    </g>
    <g id="use286">
      <path id="Q-2" data-name="Q" d="m50.11,379.36s.27-2.31.68-3.39c.35-.92.9-1.77,1.5-2.56.56-.73,1.3-1.32,1.93-1.99.74-.78,1.66-1.43,2.19-2.36.59-1.04,1.22-2.27,1-3.45-.17-.94-.92-1.79-1.74-2.3-.98-.61-2.28-.92-3.41-.68-1.27.26-2.44,1.17-3.2,2.22-.56.78-.8,2.76-.8,2.76l-.12-.63c-.06-.32-.15-1.31-.03-1.95.18-.99.58-1.96,1.12-2.82.57-.91,2.19-2.36,2.19-2.36l-.06-.32s-2.43.99-3.7,1.33c-.62.17-1.26.29-1.91.35-1.3.13-3.93.07-3.93.07l.06.32s2.03.79,2.89,1.43c.81.61,1.53,1.37,2.06,2.24.34.56.61,1.52.67,1.84l.12.63s-.94-1.77-1.74-2.3c-1.09-.71-2.5-1.14-3.79-.94-1.14.18-2.25.93-2.94,1.85-.58.77-.98,1.82-.8,2.76.22,1.18,1.25,2.1,2.17,2.87.83.68,1.92.96,2.89,1.43.83.4,1.73.68,2.52,1.17.84.52,1.66,1.12,2.32,1.86.77.86,1.86,2.93,1.86,2.93"/>
    </g>
    <g id="use288">
      <path id="R-2" data-name="R" class="cls-4" d="m94.93,321.44c-1.41-.2-1.81,1.82-2.85,1.69-1.14-.14-2.26-.57-3.06.44-.82,1.04-1.91-.92-2.84-1.27-2.06-.77-4.04-1.97-5.55-3.53-3.52-3.63-6.22-8.11-7.93-12.84-.94-2.6-.7-5.5.2-8.26,1.47-4.53,2.59-9.21,2.63-14.02.03-3.02,1.09-6.37-.42-9.12-1.46-2.65-2.49-3.87-3.97-6.52-.63-1.14-1.11-2.46-1.65-3.56,3.45-4.04,7.25-9.49,10.37-13.79,2.03-2.8,2.99-6.27,5.41-8.82.76-.8,1.62-1.4,2.09-2.69.81.87.78,3.26,1.05,4.96.21,1.3.54,3.17.71,4.17,1.17-.2,2.16-2.55,2.65-3.6,1.66-3.6,2.85-6.01,3.75-9.55.33-1.3.74-2.49,1.49-3.58,5.46.46,10.91.92,16.4.88-2.28,8.14-4.93,16.18-6.92,24.39-2.74,11.28-5.59,22.56-7.55,34-1.11,6.45-2.33,12.89-3.03,19.39-.4,3.73-.64,7.48-.97,11.21h0Z"/>
    </g>
    <g id="use290">
      <path id="S-2" data-name="S" class="cls-10" d="m79.78,276.46c2.06-3.67,4.52-7.23,5.82-11.24,1.37-4.24,1.5-8.76,2.54-13.09.31-1.3.5-2.62.95-3.89"/>
    </g>
    <g id="use292">
      <path id="T-2" data-name="T" class="cls-10" d="m85.77,305.49c.17-7.45-.25-14.97.81-22.34.62-4.31.97-8.61,1.51-12.91.68-5.46,1.69-10.89,1.55-16.41-.04-1.79-.16-3.57-.25-5.36"/>
    </g>
    <g id="use294">
      <path id="U-2" data-name="U" class="cls-4" d="m211.35,324.49c6.55-2.93,13.2-6.64,18.65-11.27,2.86-2.43,4.48-5.28,5.77-8.83,3.05-7.01,6.54-13.86,8.85-21.16,1.98-5.81,3.6-11.76,5.13-17.7,2.35-9.75,5.18-19.37,7.49-29.12.47-2.13,1.09-1.62.8-3.82-2.45,2.95-6.04,7.26-8.74,9.98-3.23,2.69-6.29,5.61-10.01,7.65-2.55,1.42-5.21,2.72-7.92,3.8-2.39.64-4.75,1.59-7.28,1.27-2.95-.02-5.59.29-8.32,1.6-1.32.23-2.85.41-4.23.21-2.25-.8-3.08-.31-5.93-.09-1.54,2.88-2.52,7.93-4.61,10.52-.93,1.61-2.2,3.22-3.42,4.41-.04,1.32.16,1.95.66,2.14.5.19,1.29-.06,2.44-.49,1.36.09,2.96,1.03,2.72,2.56.1,1.58.08,3.12-.96,4.41-.34,1.7-2.4.53-3.35,1.61-1.81.52.31,2.09-.28,3.36-.5,1.53,0,.87-1.81,2.1,4.47,11.63,9.87,25.24,14.34,36.88h0Z"/>
    </g>
    <g id="use296">
      <path id="V-2" data-name="V" class="cls-10" d="m223.44,309.53c-1.14-4.67-2.29-9.33-3.2-14.05-.62-3.24-1.46-6.45-1.88-9.72-.8-6.2-.8-12.48-1.42-18.7-.3-3.05-1.42-5.97-1.66-9.03-.03-.32-.07-.64-.11-.96"/>
    </g>
    <g id="use298">
      <path id="W-2" data-name="W" class="cls-10" d="m227.44,289.25c-1.78-3.86-3.53-7.73-5.14-11.66-1.11-2.7-1.99-5.5-3.48-8.03-.71-1.21-.71-2.66-.98-4-.6-2.97-1.08-5.96-1.63-8.93"/>
    </g>
    <g id="use300">
      <path id="X-2" data-name="X" class="cls-8" d="m181.67,311.12l-10.24-1.04-11.91-1.04-7.73-.21h-7.31l-8.77.42-7.31.42-6.06.83-4.81,1.45-3.97,1.25-1.91.57-.1,2.26c1.24-.46,2.49-.91,3.79-1.25,4.52-1.18,9.07-2.34,13.71-2.75,8.92-.79,17.92-.84,26.87-.36,8.92.48,18.05,1.97,26.95,2.83-.66-1.58-.88-1.58-1.2-3.38h0Z"/>
    </g>
    <g id="use302">
      <path id="Y-2" data-name="Y" class="cls-8" d="m177.51,298.09c5.73,1.01-11.62-.74-17.44-.62-1.64.03-3.27,0-4.91,0-.45-3.27-1.28-6.51-1.04-9.84,0-1.09-.36-2.5,1.24-2.09,1.39.09,2.62-.38,3.8-1.08,1.25-.74,2.77-1.09,3.48-2.51.79-1.6,2.3-2.86,2.42-4.75.09-1.47.71-2.86.1-4.35-.84-2.05-.98-4.51-2.48-6.14-1.35-1.47-3.67-1.35-5.62-1.67-1.5.22-1.13-1.33-1.36-2.31-.47-2.61-.65-5.23-.54-7.87-1.61-.39-3.47-.21-4.89-1.03-1.89-1.1-3.72-2.31-5.01-4.16-.74-1.06-1.86-2.82-1.91-4.18-.69-.1-1.26,2.19-1.69,3-.91,1.74-1.49,2.06-2.94,3.35-1.11.99-2.34,2.07-3.76,2.44-1.25.33-2.55.38-3.83.57.22,2.64.1,5.31.33,7.94.15,1.08.72,2.42-.89,2.43-1.57.45-2.99,1.09-4.32,2.08-1.13.84-2.12,1.69-2.89,2.89-.85,1.31-1.16,2.88-1.2,4.38-.05,1.77-.91,3.7.07,5.32,1.06,1.76,1.4,3.52,3.13,4.6,2.32,1.45,6.56,2.07,9.33,1.54-.21,3.81-.24,7.62-.21,11.43-2.32-.13-4.66-.76-6.97-.52-4.77.49-9.43,1.7-14.13,2.6.14-1.45.28-2.91.42-4.36,3.28-.7,6.58-1.29,9.94-1.47,2.07-.11,5.02.32,7.09.24.1-1.62.2-3.23.3-4.85-1.62-.02-4.07-.45-5.65-1.07-1.89-.74-3.57-1.84-4.84-3.34-1.11-1.31-2-2.96-2.27-4.64-.3-1.88-.42-3.75,0-5.67.47-2.15.75-4.44,1.94-6.28,1.07-1.65,2.6-2.89,4.32-3.94,1.26-.77,2.76-.8,4.13-1.22-.39-3.42-.72-6.85-.89-10.29,1.9-.48,3.93-.45,5.76-1.18,2.08-.82,3.86-2.55,5.03-4.43,1.36-2.19,3.25-7.03,3.25-7.03,0,0,.93-.24,2.45-.07.06,1.87.67,4.8,1.57,6.23,1.49,2.36,3.87,3.97,6.5,4.92,1.79.65,3.72.71,5.58.53-.15,3.51.23,7,.55,10.49.02,1.12,1.8.78,2.66,1.05,1.3.4,2.82.55,3.85,1.38,2.09,1.68,2.82,4.44,3.58,6.92.56,1.83.82,3.73.39,5.7-.58,2.69-2.16,4.93-3.66,7.15-.92,1.35-2.42,2.01-3.84,2.63-1.39.61-2.9.93-4.41,1.12.43,2.24.73,4.48.59,6.76,3.16-.26,6.31-.52,9.49-.23,3.04.28,6.09.06,9.12-.21.4,1.23.79,2.46,1.19,3.7h0Z"/>
    </g>
    <g id="use304">
      <path id="Z-2" data-name="Z" class="cls-18" d="m165.09,303.21c0-1.62,1.49-2.94,3.32-2.94,1.84,0,3.32,1.31,3.33,2.94h0c0,1.63-1.49,2.94-3.32,2.94-1.84,0-3.32-1.31-3.33-2.94h0Z"/>
    </g>
    <g id="use306">
      <path id="a-2" data-name="a" class="cls-8" d="m142.93,301.82c0-1.5,1.35-2.72,3.02-2.72s3.03,1.21,3.03,2.71h0c0,1.51-1.35,2.73-3.02,2.73s-3.03-1.21-3.03-2.71h0Z"/>
    </g>
    <g id="use308">
      <path id="b-2" data-name="b" class="cls-8" d="m122.84,303.5c0-1.3,1.22-2.35,2.73-2.35s2.73,1.05,2.73,2.35-1.22,2.35-2.73,2.35-2.73-1.05-2.73-2.35h0Z"/>
    </g>
    <g id="use310">
      <path id="c-2" data-name="c" class="cls-10" d="m162.41,351.75s-.48.47-.78.62c-.36.19-.76.3-1.17.36-.49.07-1.01.09-1.5,0-.38-.07-.73-.23-1.06-.42-.17-.1-.45-.36-.45-.36"/>
    </g>
    <g id="g312">
      <g id="use314">
        <path id="_1g-2" data-name="1g" class="cls-12" d="m169.53,424.19c2.91-1.8,5.66-3.67,8.01-6.11.9-.93,2.66-4.46,2.46-5.84-.16-1.06-.25-4.08-.65-5.03-.45-1.06-.25-1.04-1.02-2.2-4.54,1.44-11.08,3.32-15.79,4.1-2.99.49-6.08.34-9.11.16-3.61-.21-7.16-.9-10.67-1.8-2.89-.74-5.76-1.67-8.3-3.17-2.79-1.65-5.09-3.99-7.2-6.45-2.07-2.42-4.3-4.75-6.04-7.41-1.25-1.91-2.31-3.95-4.05-5.48-1.28-1.13-2.13-2.87-3.91-3.33-1.16-.3-2.18-.98-3.46-.54-1.35.46-2.81.48-3.85,1.58-1.06,1.13-2.7,1.78-3.08,3.43-.37,1.58-1.59,3.04-1.59,4.64-.02,2.55.38,5.09,1.19,7.54.56,1.71.85,3.47,2.05,4.93,2.59,3.18,4.55,6.82,7.44,9.78,1.99,2.03,3.92,4.13,5.96,6.11,1.24,1.2,2.72,1.99,4.33,2.81,1.8.91,3.28,2.01,4.96,2.16,14.51,0,27.81.15,42.32.15h0Z"/>
      </g>
      <g id="use316">
        <path id="_1h-2" data-name="1h" class="cls-15" d="m159.36,414.9c-.52-2.44-2.53-4.12-5-4.59-.61-.12-1.2-.28-1.81-.4"/>
      </g>
      <g id="use318">
        <path id="_1i-2" data-name="1i" class="cls-15" d="m155.32,417.19c-.63-2.04-1.67-4.25-4-4.87-3.01-.8-6.16-1.72-8.34-4.07"/>
      </g>
      <g id="use320">
        <path id="_1j-2" data-name="1j" class="cls-15" d="m142.34,415.11c-1.59-2.17-3.57-4.05-6.12-5.16-3.6-1.58-5.92-5.03-7.76-8.32-1.25-2.23-2.52-4.46-3.79-6.68"/>
      </g>
      <g id="use322">
        <path id="_1k-2" data-name="1k" class="cls-15" d="m126.16,406.38c-1.94-3.33-4.03-6.59-5.95-9.93-1.35-2.34-1.57-5.11-1.07-7.74"/>
      </g>
      <g id="use324">
        <path id="_1l-2" data-name="1l" class="cls-15" d="m125.81,413.25c-2.43-5.03-5.76-9.66-7.57-14.95-1.1-3.2-.69-7.71-.74-11.07"/>
      </g>
      <g id="use326">
        <path id="_1m-2" data-name="1m" class="cls-15" d="m122.81,415.6c-.83-3.24-2.26-6.25-3.94-9.17-3.13-5.43-4.54-11.86-3.92-18.09.04-.37.33-3.02.4-3.39"/>
      </g>
      <g id="use328">
        <path id="_1n-2" data-name="1n" class="cls-15" d="m120.55,417.95c-.71-2.83-2.04-5.42-3.48-7.96-1.85-3.26-2.84-6.87-3.77-10.48-.65-2.49-1.31-5.02-.71-7.61.38-1.67.93-6.52,1.06-8.23"/>
      </g>
      <g id="use330">
        <path id="_1o-2" data-name="1o" class="cls-15" d="m113.03,407.66c-.44-2.81-1.07-5.58-2.13-8.24-1.09-2.73-.54-5.69-.59-8.55-.02-1.65,1.34-6.37,1.86-7.93"/>
      </g>
      <g id="use332">
        <path id="_1p-2" data-name="1p" class="cls-15" d="m109.86,405.61c-.24-2.63-.89-5.17-1.83-7.69-1.6-4.26.58-10.87,2.6-14.99"/>
      </g>
      <g id="use334">
        <path id="_1q-2" data-name="1q" class="cls-15" d="m106.1,399.87c-1.39-2.05-1.91-4.51-1.67-6.97.31-3.09,2.16-8.72,4.51-10.36"/>
      </g>
    </g>
    <g id="use336">
      <path id="d-2" data-name="d" class="cls-7" d="m175.55,405.93c.71-.15,1.45-.28,2.09-.62.56-.31,1.27-.64,1.46-1.25.17-.54-.04-2.89-.42-3.33-.49-.56-.49-.75-1.98-1.04-1.03-.2-2.25-.13-3.24.21-1.48.51-3.89,1.44-5.36,1.67-2.08.34-4.16.78-6.27.83-2.45.06-4.89,1.06-7.31.7-2.61-.39-5.2-.15-7.73-.88-2.5-.73-4.92-1.7-7.31-2.7-1.35-.57-2.56-1.46-3.97-1.87-1.08-.31-2.21-.36-3.29-.68-1.26-.36-2.37-.97-3.6-1.4-.81-.29-1.66-.47-2.51-.62-.62-.11-1.88-.21-1.88-.21,0,0,1.91,2.92,3.13,4.16,1.98,2.01,4.24,4.09,6.69,5.51,3.65,2.11,7.59,3.54,11.7,4.47,3.61.81,7.38.72,11.07.62,2.52-.07,5.02-.51,7.52-.83,1.89-.24,3.76-1.01,5.64-1.27,1.53-.22,4.06-1.14,5.57-1.47h0Z"/>
    </g>
    <g id="use338">
      <path id="e-2" data-name="e" class="cls-10" d="m182.01,384.46c.07-2.18-.51-4.58.46-6.55,1.13-2.28-1.7-6-.94-8.6.6-2.06,5.22-2.64,4.41-4.61-.67-1.62.3-4.78,2.62-3.52,1.39.76.78,3.17-.5,2.89"/>
    </g>
    <g id="use340">
      <path id="f-2" data-name="f" class="cls-10" d="m186.21,354.8c2.87-1.63,4.77-5.81,5.38-8.95.42-2.16,1.39-4.44,3.16-5.9,1.11-.91,2.58-1.49,3.87-.73"/>
    </g>
    <g id="use342">
      <path id="g-2" data-name="g" class="cls-10" d="m183.11,330.92c2.18,1.16,1.1,4.01,1.63,5.51.71,2.03,1.78,4.17,1.48,6.32-.35,2.44-.43,11.66-.52,14.18l-.15,1.75-1.25,1.97-1.04,1.25v1.97l-1.36,1.04-1.98,1.04-1.25,1.25-.21,1.56"/>
    </g>
    <g id="use344">
      <path id="h-2" data-name="h" class="cls-10" d="m198.62,329.52c-2.7.05-3.59.58-4.77,2.27-1.24,1.78-2.15,4.47-3.43,6.12-1.2,1.55-2.18,7.76-4.63,8.35"/>
    </g>
    <g id="use346">
      <path id="i-2" data-name="i" class="cls-10" d="m131.86,396.71c-.52-3.33-2.13-6.38-2.53-9.72-.37-3.03-3.15-5.38-2.62-8.46.5-2.93-.16-5.97.87-8.84,1.12-3.13-1.88-4.91-2.83-7.49-1-2.71-.98-5.47-3.67-7.38-2.93-2.08.47-5.77,1.36-8.23,1.11-3.05,1.7-7.02-.18-9.86-1.67-2.53-5.45-.88-7.06-4.58-1.1-2.52-2.36-5.53-4.98-6.53-2.83-1.09-6.57-.54-8.7,1.56-2.3,2.27,0,7.41,3.65,7.58,2.94.14,5.6-6.54,1-5.09"/>
    </g>
    <g id="use348">
      <path id="j-2" data-name="j" class="cls-10" d="m129.45,395.99c-1.98-3.02-2.84-7.88-3.64-11.35-.61-2.62-1.26-5.01-1.12-7.75.17-3.32-.61-6.38-1.19-9.79-.45-2.63-.72-5.46-2.61-7.17-2.22-2-5.66-2.59-5.34-5.93.32-3.3,1.23-6.42,2.52-9.45,1.33-3.15-2.13-7.02-4.49-8.21-2.52-1.27-7.25-.21-7.6,3.02-.39,3.63.91,7.41,2.76,3.8,1.36-2.66,5.67-1.36,4.65,2.57-.77,3-2.77,2.68-3.05,5.44-.29,2.85.7,4.09,1.32,6.76.66,2.84,6.08,2.92,7.43,5.94,1.34,3,1.54,6.41,1.79,9.68.36,4.62.52,9.29,1.99,13.77.78,2.38.21,4.83,1.98,6.91"/>
    </g>
    <g id="use350">
      <path id="k-2" data-name="k" class="cls-10" d="m119.22,386.43c-1.19-3.05-1.46-6.33-2.36-9.48-.98-3.45-2.42-6.53-2.38-10.14.04-3.32-3.45-4.18-4.83-7.01-1.38-2.84-1.75-5.36-2.05-8.19-.28-2.58,2.43-6.61-1.92-6.96-2.53-.21-4.89-1.33-6.21-3.68-1.72-3.07-1.19-6.51-.83-9.83.25-2.33-1.1-5.24,2.09-5.92"/>
    </g>
    <g id="use352">
      <path id="l-2" data-name="l" class="cls-10" d="m112.53,374.47c-.74-1.92-.8-4.1-1.84-5.86-1.38-2.32-6.63-2.92-4.74-6.51,1.59-3.01-1.03-5.88-1.17-8.83-.14-2.89-1-7.64-3.53-7.07-3.57.81-2.82-1.91-3.92-3.45-1.56-2.18-3.26-3.43-3.16-6.37.09-2.73,2.35-4.53,2.38-7.64.02-2.28-2.89-3.46-3.65-5.4"/>
    </g>
    <g id="use354">
      <path id="m-2" data-name="m" class="cls-10" d="m91.85,339.35c-.87-3.07-2.08-5.94-2.43-9.25-.24-2.35,2.53-4.84,3.58-1.51.38,1.19-.76,2.16-1.36,3.18"/>
    </g>
    <g id="use356">
      <path id="n-2" data-name="n" class="cls-10" d="m197.81,343.85c.06-.39.23-.8-.06-1.18-.37-.48-.95-.8-1.55-.62-.55.16-1.01.56-1.15,1.13-.13.54-.21,1.07-.26,1.62"/>
    </g>
    <g id="use358">
      <path id="o-2" data-name="o" class="cls-10" d="m199.37,339.07c-.54-.39-1.2-.68-1.5-1.32-.44-.91-.72-2.02-.26-2.96.29-.59.33-1.4.92-1.74.64-.38,1.46.08,1.98.55.38.34.08.87.12,1.29"/>
    </g>
    <g id="use360">
      <path id="p-2" data-name="p" class="cls-10" d="m185.32,337.64c.57-1.07,1.25-2.09,1.49-3.28.31-1.55.73-3.11,1.49-4.53.71-1.31,1.58-2.53,2.56-3.68.36-.43.67-.88,1.23-1.11.58-.23,1.08-.62,1.67-.82.52-.18,2.12-.07,2.12.56"/>
    </g>
    <g id="use362">
      <path id="q-2" data-name="q" class="cls-10" d="m177.61,364.5c.5-.92.94-2.04,2.04-2.39,1.01-.84,1.47-2.18,1.83-3.4.53-1.88,1.28-3.75,1.17-5.75.01-2.6-.27-5.2-.13-7.81-.03-2.14.34-3.87-.87-5.74-.93-1.08-2.78-2.07-3.51-3.35-.49-1.13-.67-2.82.5-3.6,1.37-.78,3.56.53,3.09,1.77-.15.45-.73,1.36-1.08,1.29"/>
    </g>
    <g id="use364">
      <path id="r-2" data-name="r" class="cls-10" d="m176.68,361.28c.85-1.56,1.63-3.18,1.93-4.94.18-1.39.81-2.7.73-4.12.04-2.73-.16-3.54-.2-6.27-.09-1.6-.79-2.49-1.83-4.81-1.35-1.21-1.27-4.78-1.43-6.46-.07-.74.12-1.47.22-2.2"/>
    </g>
    <g id="use366">
      <path id="s-2" data-name="s" class="cls-10" d="m174.69,353.9s.83-1.33,1.04-2.08c.22-.77.29-1.59.21-2.39-.09-.83-.32-1.67-.73-2.39-.28-.49-.75-.85-1.15-1.25-.47-.47-1.16-.76-1.46-1.35-.27-.53-.21-1.77-.21-1.77"/>
    </g>
    <g id="use368">
      <path id="t-2" data-name="t" class="cls-1" d="m200.39,225.55c2.14.42,4.12,1.41,6.06,2.44,1.09.59,2.18,1.31,2.97,2.24.9,1.06,1.47,2.31,1.97,3.64.45,1.19,1.03,2.68.19,3.53-.73.73-1.11.59-1.19,1.47-.14,1.65.3,3.27.22,4.89-.07,1.39-.54,2.71-1.26,3.94-1.34,2.27-1.99,4.86-3.13,7.24-1.16,2.43-1.61,5.12-2.7,7.57-1.02,2.29-2.21,4.5-3.74,6.5-.86,1.12-1.68,2.36-2.82,3.19-2.05,1.47-4.06,3.09-6.48,3.92-.96.33-1.84,1.17-2.83,1.17-1.2,0-2.47-.24-3.52-.79-.88-.46-1.38-1.28-1.81-2.21-.64-1.4-.04-2.98.96-4,.59-.6,1.63-.46,2.41-.77,1.91-.76,4.05-.57,5.99-1.17,1.42-.44,2.38-1.58,3.51-2.51.78-.64.33-1.26-.29-.57-.85.95-1.67,2.37-2.91,2.66-3.11.72-6.21,1.57-9.36,1.99-1,.13-2.11-.25-2.68-1.27-.77-1.39-1.27-2.97-.85-4.43.3-1.04,1.45-1.77,2.67-1.84,1.91-.11,3.82-.38,5.71-.69,1.84-.3,3.04-1.5,4.53-2.62.78-.58.83-1.32.04-.67-2.23,1.83-2.6,2.12-4.26,2.62-1.86.57-3.74.8-5.62,1.26-1.14.28-2.45-.02-3.43-.69-.55-.38-.53-1.39-.69-2.07-.2-.84.22-1.5.74-2.15.66-.83,1.75-1.17,2.68-1.62,1.33-.65,2.88-.77,4.11-1.64.63-.44,1.4-1.03,1.99-1.42.58-.38,1.15-.58,1.02-1.03-.09-.3-1.4.53-1.98.87-2.3,1.38-4.26,3.44-6.85,4.23-.72.22-.9-.26-1.68-.65-.81-.41-1.22-.72-1.16-1.65.07-1.06-.5-2.24-.16-3.22.48-1.38,1.92-2.16,3.29-2.62,1.03-.35,1.9-1.03,2.7-1.75.71-.64,1.16-1.45,2.03-1.91.84-.45,2.03-.57,2.46-1.42.26-.51-1.85,1.14-1.88.35-.03-.97.05-1.87.5-2.76.42-.84.71-1.7,1.49-2.32,1.75-1.38,2.64-3.67,4.4-4.98,1.58-1.18,3.71-1.39,5.69-1.45.83-.02,1.41-.05,1.6-1.1.18-.98-.04-1.92,0-2.91.05-1.2.42-2.99.84-2.91l.52.1Z"/>
    </g>
    <g id="use370">
      <path id="u-2" data-name="u" class="cls-10" d="m201.53,261.3c-.14-.76-.28-1.52-.42-2.29-.71-.68-1.8-.76-2.61-.21"/>
    </g>
    <g id="use372">
      <path id="v-2" data-name="v" class="cls-10" d="m199.34,257.45c-.12-1.38.42-3.17-.98-4.08-.74-.55-1.69-.53-2.57-.49"/>
    </g>
    <g id="use374">
      <path id="w-2" data-name="w" class="cls-10" d="m194.75,248.21c.02-1.01-.15-2.13-1.29-2.37-.37-.31-.7.02-1.01.18"/>
    </g>
    <g id="use376">
      <path id="x-2" data-name="x" class="cls-3" d="m262.95,225.14s-1.87,2.38-2.51,3.74l-1.46,3.12-2.92,2.6-3.55,4.36-3.66,3.74-3.03,3.01-4.81,3.43-4.91,2.6-5.12,2.49-4.7,1.14-3.34-.31-2.51.73-3.55.52-2.92.73-1.46.1-1.67-.1-1.57-.62-1.46.31-1.36.1c-.29.02-.84.21-.84.21,0,0,.44-1.24.63-1.87l.63-2.08.94-2.39.73-1.77,1.25-2.39.94-2.39v-2.6l.42-.73,1.04-.52h2.3l.52-1.04,1.67-1.45,1.46.1h2.92l1.88-1.97,1.57-2.08,1.46-2.49,1.57-2.29.42-1.14.21-.94-.63,1.14-.73-1.35c-.27-.5-.31-1.66-.31-1.66l36.03.1.42-.1Z"/>
    </g>
    <g id="use378">
      <path id="y-2" data-name="y" class="cls-10" d="m251.15,225.44c-1.6,2.97-3.57,5.74-5.75,8.31"/>
    </g>
    <g id="use380">
      <path id="z-2" data-name="z" class="cls-10" d="m248.01,225.55c-1.46,2.18-3.02,4.3-4.91,6.13"/>
    </g>
    <g id="use382">
      <path id="_10-2" data-name="10" class="cls-10" d="m244.88,225.65c-1.29,1.43-2.78,2.7-3.76,4.36"/>
    </g>
    <g id="use384">
      <path id="_11-2" data-name="11" class="cls-10" d="m239.66,225.76c-.67.82-1.33,1.63-1.78,2.6"/>
    </g>
    <g id="use386">
      <path id="_12-2" data-name="12" class="cls-10" d="m236,235.84c-.78,1.71-1.27,3.56-2.42,5.08-1.28,1.7-2.59,3.43-4.25,4.74-2.51,1.99-5.46,3.36-8.08,5.19-1.13.79-2.12,1.76-3.43,2.25-1.09.4-1.74,1.46-2.44,2.33-.62.76-1.44,1.05-2.25,1.5"/>
    </g>
    <g id="use388">
      <path id="_13-2" data-name="13" class="cls-10" d="m216.05,251.53c-.92.82-1.7,2.1-3.04,2.18-.73.05-1.47-.13-2.08.42-.73.65-1.17,1.63-1.78,2.39"/>
    </g>
    <g id="use390">
      <path id="_14-2" data-name="14" class="cls-10" d="m215.85,244.36c1.9-2.47,4.05-4.72,5.92-7.22,1.69-2.28,3.8-4.31,5.13-6.8.86-1.6,1.28-3.38,2.12-5"/>
    </g>
    <g id="use392">
      <path id="_15-2" data-name="15" class="cls-10" d="m210.72,244.67c1.35-1.44,2.61-2.95,3.86-4.47"/>
    </g>
    <g id="g394">
      <g id="use396">
        <path id="_1r-2" data-name="1r" class="cls-4" d="m79.19,225.61l-.3,1.84-.81,1.54-.81,1.84-.52,1.98-.15,2.06-.59,2.35-.74,1.98-1.26,2.5-.67,3.01v2.06l-.15,2.28-.74,2.2-1.26,1.98-1.03,1.62-.37-1.62-.81-1.25-1.99-1.47-2.29-2.13-2.36-1.1-2.14-.59-1.7-.29h-1.18l-3.32,1.03-1.4.96-1.63,1.03-1.33.66-.07,1.4-1.33-4.04-1.7-3.53-1.11-2.57-1.26-3.09-1.18-3.97-.44-4.04.15-3.75-.15-1.03,36.63.14Z"/>
      </g>
      <g id="use398">
        <path id="_1s-2" data-name="1s" class="cls-9" d="m68.56,256.11c.58.11,1.33-.29,1.57-.83.38-.87-.28-1.92-.74-2.75-.38-.69-1.02-1.2-1.61-1.72-1.25-1.09-2.64-2.03-4.08-2.88-.9-.53-1.82-1.07-2.83-1.36-.99-.28-2.04-.38-3.07-.34-1.06.04-2.11.28-3.12.61-1,.33-1.99.76-2.87,1.34-.8.52-1.71,1.05-2.15,1.89-.35.68-.3,1.52-.22,2.28.04.33-.02.88.31.95,1.08.25,1.45-1.69,2.32-2.37.94-.75,1.97-1.45,3.09-1.87.88-.33,1.84-.51,2.78-.5.95.01,1.92.21,2.79.59,1.52.67,2.8,1.8,4.05,2.89.96.83,1.78,1.8,2.63,2.73.39.44.56,1.23,1.14,1.34h0Z"/>
      </g>
      <g id="use400">
        <path id="_1t-2" data-name="1t" class="cls-10" d="m56.14,241.04c1.32-.36,2.73-.26,4.08-.07,1.2.17,2.35.59,3.47,1.06.59.25,1.14.6,1.69.93"/>
      </g>
      <g id="use402">
        <path id="_1u-2" data-name="1u" class="cls-10" d="m56,237.52c1.51-.68,3.17-.96,4.82-1.04,1.75-.09,3.54.03,5.23.6"/>
      </g>
      <g id="use404">
        <path id="_1v-2" data-name="1v" class="cls-10" d="m55.26,233.84c1.46-.96,3.1-1.71,4.81-2.04,1.14-.21,2.31.05,3.47.09.76.03,1.52.09,2.28.1"/>
      </g>
      <g id="use406">
        <path id="_1w-2" data-name="1w" class="cls-10" d="m54.89,230.02c1.57-.28,3.03-.99,4.6-1.28,1.79-.33,3.62-.53,5.44-.5.23,0,.45.05.68.08"/>
      </g>
      <g id="use408">
        <path id="_1x-2" data-name="1x" class="cls-10" d="m48.1,246.34c.08-1.15-.16-2.29-.39-3.42-.26-1.3-.76-2.54-1.1-3.82-.37-1.37-.81-2.72-1.05-4.11-.28-1.62-.31-3.27-.43-4.91-.02-.31-.04-.62-.06-.94"/>
      </g>
    </g>
    <g id="use410">
      <path id="_16-2" data-name="16" class="cls-1" d="m56.86,248.83c1.53.06,2.82-.29,4.18.42,2.13,1.1,3.94,2.96,5.58,4.69.5.81,1.05,1.6,1.84,2.17-.17,1.61-.62,3.22-.19,4.82.22,2.05.7,4.13,1.96,5.81,1.77,2.71,3.26,5.61,4.84,8.42.4,1.39.74,2.79.59,4.24-.02,3.23-.16,6.48-.77,9.65-.55,1.84-1.08,3.69-1.15,5.63-.16,1.25-.85,2.4-1.36,3.53-.72,1.26-1.72,2.32-2.62,3.43-.37.95-1.03,1.87-.63,2.91.06,1.14-.58,2.23-1.3,3.09-.94-.22-2.09-.03-2.63-1-.93-.68-1.12-1.82-1.34-2.88-.07-1.7.03-3.39.44-5.05.27-1.49.95-2.92,2.06-3.96.87-.07,1.13-.28,1.92.12-.6-.58-.86-.73-1.3-1.4.18-1.44-.77-.16-1.35.21-1.32.89-2.95,1.26-4.41,1.9-1.58.51-3.19,1.11-4.29,2.42-.84.31-1.89.74-2.02.76-1.83-.17-3.21.09-5.05.03-1.16-.94-1.98-2.28-2.08-3.79-.24-.87-.04-1.89.83-2.31.79-.65,1.43-1.48,2.4-1.9-1.3-.34-2.7-.45-3.97-.82-.68-.52-1.29-1.08-1.2-2.01-.1-1.43-.27-2.94-.09-4.35.68-1.41,2.29-1.82,3.58-2.49.69.11-1.31-.61-1.32-1.2-.29-.81-.84-1.51-1.19-2.26.03-1.39-.51-2.74-.11-4.11.73-.57,1.9-.79,2.87-.96,1.5.25-.05-.67-.5-1.17-.68-.49-1.25-1.28-1.36-2.08.37-.96.64-2.27,1.86-2.44,1.41-.64,2.01-.91,1.38-2.58-.31-2.19.1-4.4-.11-6.61.16-2.08-.79-4-.84-6.06-.1-.82-.28-1.84.88-1.7,1.81-.41,3.55-1.52,5.48-1.2.16.01.33.02.49.03h0Z"/>
    </g>
    <g id="use412">
      <path id="_17-2" data-name="17" class="cls-25" d="m67.01,292.78c.2-.49.66-.95.59-1.47-.08-.58-.46-1.26-.96-1.49-.66-.3-1.44-.51-2.15-.39-1.78.31-3.53.69-5.31.99-.73.13-1.39.67-2.17.5-1.57-.34-3.22-.55-4.82-.18-.47.11-.96.18-1.43.27"/>
    </g>
    <g id="use414">
      <path id="_18-2" data-name="18" class="cls-10" d="m63.21,289.58c.95-.72,2.91-1.03,3.44-2.09.25-.49.24-2.24-.24-2.5-1.69-.89-3.68-1.13-5.55-1.5-1.26-.25-2.6-.4-3.83-.76-1.26-.37-2.42-.84-3.7-1.13-.96-.22-2,.02-2.95-.23-.33-.09-.64-.24-.96-.36"/>
    </g>
    <g id="use416">
      <path id="_19-2" data-name="19" class="cls-10" d="m61.56,283.48c.59-.05,2.66.01,3.08-.41.46-.46.59-1.85.3-2.43-.59-1.16-1.84-1.31-2.91-2.06-.86-.6-1.61-1.35-2.62-1.7-1.47-.51-2.93-1.04-4.26-1.87-1.37-.85-2.77-1.64-4.27-2.22-.24-.09-.47-.2-.7-.3"/>
    </g>
    <g id="use418">
      <path id="_1A-2" data-name="1A" class="cls-10" d="m54.39,274.49c1.23.25,2.61.81,3.87.76.37-.01,3.24.23,3.93,0,.69-.23,1.42-.16,1.8-.77.37-.58.62-1.88.2-2.42-.88-1.13-2.32-1.71-3.67-2.27-2.14-.9-4.27-1.82-6.45-2.62-.72-.26-1.47-.69-2.22-.66-.47.02-.83-.07-1.28-.09-.28-.01-.59.44-.86.35"/>
    </g>
    <g id="use420">
      <path id="_1B-2" data-name="1B" class="cls-24" d="m59.76,269.12l-5.76-43.65-7.69-.15,5.48,41.15,2.81.88,2.22.73,2.95,1.02Z"/>
    </g>
    <g id="use422">
      <path id="_1C-2" data-name="1C" class="cls-10" d="m67.74,276.61c.18-1.35.69-2.7.57-4.04-.17-2.01-.85-3.96-1.5-5.87-.08-.25-.27-.44-.4-.67"/>
    </g>
    <g id="use424">
      <path id="_1D-2" data-name="1D" class="cls-10" d="m69.51,265.58c-.89-.95-1.66-2.03-2.64-2.88-.67-.57-1.57-.89-2.18-1.51-.26-.27-.43-.6-.65-.9"/>
    </g>
    <g id="g426">
      <g id="use428">
        <path id="_1y-2" data-name="1y" class="cls-7" d="m197.77,271.9c.04.48.07.97.1,1.45.35.31-.04.31.31.62.61-.19,1.94-.15,2.56-.3.45.12.92.18,1.35.33.36.32.81.6,1.12.95.09.76.29,1.51.29,2.28-.05.62-.03,1.27-.12,1.87-.5.64-.87,1.39-1.54,1.87-.25.26-.53.46-.89.52-.72.21-1.43.45-2.14.69-.03.4-.2.83.04,1.2.24.47.34.98.38,1.5,0,.33.23.72-.08.96-.28.33-.5.73-.81,1.03-.44.12-.87.39-1.34.23-.35-.07-.73-.06-1.05-.18-.58-.57-1.16-1.14-1.65-1.78-.11-.23-.13-.81-.41-.38-.41.33-.74.8-1.29.91-.45.13-.89.41-1.35.44-.52-.05-1.06-.03-1.56-.12-.8-.51-1.62-1.01-2.39-1.57-.3-.44-.69-.84-.94-1.3-.11-.52-.34-1.04-.37-1.56.09-.35.09-.75.23-1.08.56-.44,1.13-.86,1.56-1.44.16-.24.14-.59.17-.86-.12-.27-.1-.67-.48-.67-.55-.09-.14-.2.16-.32,1.25-.51,2.52-.98,3.76-1.51,1.55-.98,3.14-1.91,4.59-3.02.49-.43.99-.86,1.48-1.29.1.17.21.35.31.52h0Z"/>
      </g>
      <g id="use430">
        <path id="_1z-2" data-name="1z" class="cls-10" d="m197.98,274.08c-.1.62-.31,1.56-.42,2.18-.44-.2-.86-.47-1.3-.62-.63.09-1.3-.03-1.87.3-.35.18-.77.26-1.07.51-.46.62-.98,1.21-1.41,1.84-.17.74-.37,1.47-.69,2.16-.19.14-.58-.13-.85-.15-.7-.18-1.38-.47-2.12-.47-.57-.11-1.11.18-1.66.28"/>
      </g>
      <g id="use432">
        <path id="_20-2" data-name="20" class="cls-10" d="m198.71,282.3c-.55-.23-1.67-.48-2.11-.87-.33-.6-.67-1.19-.92-1.83.21-.5.28-.12.37.21.16.47.25.97.37,1.45"/>
      </g>
      <g id="use434">
        <path id="_21-2" data-name="21" class="cls-10" d="m193.8,284.58c-.05-.56.32-1.41.07-1.91-.2-.12-.51-.73-.57-.25-.01.31.21.61.29.91.24.31-.04.94.21,1.25Z"/>
      </g>
    </g>
    <g id="g436">
      <g id="use438">
        <path id="_22-2" data-name="22" class="cls-4" d="m226.39,225.29l-23.61.26,1.36.99,1.93,1.04,2.61,1.82,1.2,1.4,1.15,1.97.37,1.97.47,1.2-.05,1.3-.73.68-.78.83v1.2l.21,1.61.84-.94.94-.31,1.1-.05.94-.1.52-1.14,1.1-.78,1.52-.36h2.04l1.41.16,1.98-1.97,1.36-2.08,1.52-2.29,1.46-2.44.37-.73-.37-.83-.42-.88-.31-.62-.11-.89Z"/>
      </g>
      <g id="use440">
        <path id="_23-2" data-name="23" class="cls-10" d="m226.44,226.18l-1.1,2.03-1.41,1.77-1.41,1.61-1.36,1.92-1.36,2.08-.78.94-.94,1.04"/>
      </g>
      <g id="use442">
        <path id="_24-2" data-name="24" class="cls-10" d="m215.64,229.29l-.73-.78-1.1-.94-1.15-.57-1.36-.57-1.41-.47-1.04-.31"/>
      </g>
    </g>
    <g id="g444">
      <g id="use446">
        <path id="_25-2" data-name="25" class="cls-7" d="m185.4,244.27l-1.55,1.25-1.77,1.69-1.63.96-1.55.88-.66.15v-1.1l.15-1.32-.3-.88-1.03-.44-.89-.73-.07-1.62-.15-1.1-.44-.88-1.4-.59-1.48-.15-1.7.07-2.52-.07-2.22-.44-2.07-.22-1.7-.22-.96-.81-.37-1.4.96-.73,2.66-.88,3.03-.66.96-.59.66-.07v-1.03l.07-.73v-.59l1.4-.59.67-.22v-1.18l-.44-1.32-.74-2.13-.44-1.03,3.92-.29,5.02.15,3.18-.15,2.29.22.52,1.4.52.96,1.85-.73,1.77-.37,1.63-.73,1.4-.29,1.7-.29,1.33.15.81.29.3,1.32-.44.88.3.88.59.66-.15,1.25-.96.88-1.7.59-2.66,1.03-1.77,1.03-1.33.96-1.03,1.25-1.55,1.91,1.03,1.1-.44,1.69-.81,1.62.22,1.39Z"/>
      </g>
      <g id="use448">
        <path id="_26-2" data-name="26" class="cls-11" d="m195.23,228.48l-5.91,1.25-4.58,2.06-5.1,1.4-4.95,1.47-3.77.81-3.99.73-3.47.37-1.26.44"/>
      </g>
      <g id="use450">
        <path id="_27-2" data-name="27" class="cls-11" d="m185.07,227.7l-3.15.77-5.12,1.38-2.92.56-2.1.46"/>
      </g>
      <g id="use452">
        <path id="_28-2" data-name="28" class="cls-10" d="m185.11,242.07c-1.06.7-2.15,1.35-3.3,1.88-.91.44-1.68,1.11-2.52,1.65-.23.14-.53.08-.79.12-.11,0-.22.01-.32.02"/>
      </g>
      <g id="use454">
        <path id="_29-2" data-name="29" class="cls-10" d="m185.04,238.91c-.76.42-1.48.92-2.28,1.28-.5.11-.99.22-1.49.34-.51-.31-1.02-.68-1.62-.78-.43-.22-.9-.13-1.32.05-.38.15-.85.16-1.14.47-.36.38-.73.77-1.09,1.15"/>
      </g>
    </g>
    <g id="use456">
      <path id="_1E-2" data-name="1E" class="cls-24" d="m169.78,225.45l1.25,2.29.52,1.77.1,1.04-1.04.73-1.98.42-7.63.62-6.27.42h-7.94l-12.53.42-8.15-.1h-6.69l-7-.21-6.48-.31-4.49-.42-4.39-.62-.42-1.97v-3.95l73.12-.1Z"/>
    </g>
    <g id="use458">
      <path id="_1F-2" data-name="1F" class="cls-23" d="m171.03,228.99l-4.39.52-7.21.73-8.46.52-12.22.52h-12.01l-7.73.1-7.21-.21-5.64-.31-6.27-.62-3.03-.31-.1-1.35,4.49.1,8.04.73,8.15.21h8.04l7.73.1,12.33-.42,8.46-.42,6.69-.62,5.01-.62c1.56-.09,3.19-.35,4.7-.73l.63,2.08Z"/>
    </g>
    <g id="use460">
      <path id="_1G-2" data-name="1G" class="cls-10" d="m96.66,225.97l2.92,2.29,2.92-2.39,2.82,2.91,2.61-2.91,3.03,3.01,3.97-2.81,3.76,2.7,2.82-2.6,3.03,2.49,2.82-2.91,3.55,3.01,2.72-2.81,3.97,2.81,2.72-2.7,3.76,2.49,3.34-2.6,2.82,2.29,4.18-2.49,3.66,1.87,3.13-1.97,3.76,1.66,3.55-1.77"/>
    </g>
    <g id="use462">
      <path id="_1H-2" data-name="1H" class="cls-3" d="m69.5,264.53l2.3-2.81,3.86-5.09,4.6-6.86,2.4-4.47,2.51-3.74,1.88-2.29,1.36-4.05.73-3.22.52-1.25.73-1.77.1-1.56v-1.87h-11.39l-.42,2.39-.94,1.66-.73,1.97-.42,2.81-.73,3.43-1.36,2.91-.94,3.12-.21,3.22v1.77l-1.57,3.53-1.67,2.81-1.67,1.25-.63,3.12.52,2.39,1.15,2.6Z"/>
    </g>
    <g id="use464">
      <path id="_1I-2" data-name="1I" class="cls-10" d="m73.68,248.62l1.57-2.29,1.98-3.22,1.36-3.01,1.36-3.43,1.15-3.33.73-3.43"/>
    </g>
    <g id="g466">
      <g id="use468">
        <path id="_2A-2" data-name="2A" class="cls-3" d="m49.06,259.93c-1.58-1.2-2.27-2.48-3.54-4.17-1.76-3.55-3.49-6.55-4.81-10.87-1.04-2.52-1.04-5.32-2.05-7.86-1.11-3.05-.78-6.33-.97-9.5-.26-1.16-.46-2.61,1.12-2.13,1.25.02,2.5.04,3.75.05.49,2.41-.61,4.8-.06,7.22.84,6.54,4.9,12.03,6.69,18.28.32,2.01,1.21,3.89,1.2,5.96.15,1.1,1,3.11.59,4.19l-1.92-1.18Z"/>
      </g>
      <g id="use470">
        <path id="_2B-2" data-name="2B" class="cls-10" d="m50.02,256.84c-1.04-1.11-2.14-2.21-2.89-3.54-.54-1.13-.67-2.4-1.24-3.52-.51-1.08-.91-2.22-.96-3.41-.13-1.62-.19-4.28-.23-5.91"/>
      </g>
    </g>
    <path id="path472" d="m67.57,37.12c-1,5-2.14,6.29-4,8.99-1.6,2.33-3.84,4.17-6,5.99-2.19,1.85-4.69,3.3-7,5-2.69,1.97-5.86,3.44-8,5.99-2.39,2.86-5,6.27-5,9.99,0,2.98,1.81,5.98,4,7.99,2.64,2.43,6.41,4.08,10,4,4.03-.09,8.1-2.2,11-5,2.15-2.07,4-7.99,4-7.99v2c0,1-.1,5.46-1,7.99-1.05,2.96-2.87,5.68-5,7.99-2.26,2.45-8,5.99-8,5.99v1s7.96-1.66,12-2c1.99-.16,4.01-.16,6,0,4.04.33,12,2,12,2v-1s-5.75-3.54-8-5.99c-2.13-2.31-3.95-5.03-5-7.99-.9-2.53-1-7.99-1-7.99v-2s1.85,5.93,4,7.99c2.9,2.79,6.97,4.9,11,5,3.59.08,7.36-1.57,10-4,2.19-2.02,4-5.01,4-7.99,0-3.72-2.61-7.13-5-9.99-2.14-2.56-5.31-4.03-8-5.99-2.31-1.69-4.81-3.14-7-5-2.16-1.83-4.4-3.66-6-5.99-1.86-2.7-3-4-4-8.99"/>
    <path id="path474" d="m232.7,412.32c-1-5-2.14-6.29-4-8.99-1.6-2.33-3.84-4.17-6-5.99-2.19-1.85-4.69-3.3-7-5-2.69-1.97-5.86-3.44-8-5.99-2.39-2.86-5-6.27-5-9.99,0-2.98,1.81-5.98,4-7.99,2.64-2.43,6.41-4.08,10-4,4.03.09,8.1,2.2,11,5,2.15,2.07,4,7.99,4,7.99v-2c0-1-.1-5.46-1-7.99-1.05-2.96-2.87-5.68-5-7.99-2.26-2.45-8-5.99-8-5.99v-1s7.96,1.66,12,2c1.99.16,4.01.16,6,0,4.04-.33,12-2,12-2v1s-5.75,3.54-8,5.99c-2.13,2.31-3.95,5.03-5,7.99-.9,2.53-1,7.99-1,7.99v2s1.85-5.93,4-7.99c2.9-2.79,6.97-4.9,11-5,3.59-.08,7.36,1.57,10,4,2.19,2.02,4,5.01,4,7.99,0,3.72-2.61,7.13-5,9.99-2.14,2.56-5.31,4.03-8,5.99-2.31,1.69-4.81,3.14-7,5-2.16,1.83-4.4,3.66-6,5.99-1.86,2.7-3,4-4,8.99"/>
    <path id="path476" d="m24.79,74.44c-.42,2.09-.89,2.63-1.67,3.76-.67.97-1.61,1.74-2.51,2.5-.91.77-1.96,1.38-2.92,2.09-1.12.82-2.45,1.44-3.34,2.5-1,1.19-2.09,2.62-2.09,4.17,0,1.24.75,2.5,1.67,3.34,1.1,1.01,2.68,1.7,4.18,1.67,1.68-.04,3.38-.92,4.6-2.09.9-.86,1.67-3.34,1.67-3.34v.83c0,.42-.04,2.28-.42,3.34-.44,1.24-1.2,2.37-2.09,3.34-.94,1.02-3.34,2.5-3.34,2.5v.42s3.33-.7,5.01-.83c.83-.07,1.67-.07,2.51,0,1.69.14,5.01.83,5.01.83v-.42s-2.4-1.48-3.34-2.5c-.89-.97-1.65-2.1-2.09-3.34-.38-1.06-.42-3.34-.42-3.34v-.83s.77,2.48,1.67,3.34c1.21,1.17,2.91,2.05,4.6,2.09,1.5.03,3.07-.66,4.18-1.67.92-.84,1.67-2.09,1.67-3.34,0-1.56-1.09-2.98-2.09-4.17-.89-1.07-2.22-1.69-3.34-2.5-.97-.71-2.01-1.31-2.92-2.09-.9-.76-1.84-1.53-2.51-2.5-.78-1.13-1.25-1.67-1.67-3.76"/>
    <path id="path478" d="m275.49,374.99c-.42-2.09-.89-2.63-1.67-3.76-.67-.97-1.61-1.74-2.51-2.5-.91-.77-1.96-1.38-2.92-2.09-1.12-.82-2.45-1.44-3.34-2.5-1-1.19-2.09-2.62-2.09-4.17,0-1.24.75-2.5,1.67-3.34,1.1-1.01,2.68-1.7,4.18-1.67,1.68.04,3.38.92,4.6,2.09.9.86,1.67,3.34,1.67,3.34v-.83c0-.42-.04-2.28-.42-3.34-.44-1.24-1.2-2.37-2.09-3.34-.94-1.02-3.34-2.5-3.34-2.5v-.42s3.33.7,5.01.83c.83.07,1.67.07,2.51,0,1.69-.14,5.01-.83,5.01-.83v.42s-2.4,1.48-3.34,2.5c-.89.97-1.65,2.1-2.09,3.34-.38,1.06-.42,3.34-.42,3.34v.83s.77-2.48,1.67-3.34c1.21-1.17,2.91-2.05,4.6-2.09,1.5-.03,3.07.66,4.18,1.67.92.84,1.67,2.09,1.67,3.34,0,1.56-1.09,2.98-2.09,4.17-.89,1.07-2.22,1.69-3.34,2.5-.97.71-2.01,1.31-2.92,2.09-.9.76-1.84,1.53-2.51,2.5-.78,1.13-1.25,1.67-1.67,3.76"/>
    <text class="cls-27" transform="translate(16.93 56.51) scale(1.01 1)"><tspan x="0" y="0">J</tspan></text>
    <text class="cls-27" transform="translate(282.71 394.39) rotate(-180) scale(1.01 1)"><tspan x="0" y="0">J</tspan></text>
    <path id="_1e-2" data-name="1e" class="cls-13" d="m131.24,65.85c.24,1.24-.56,2.44-1.79,2.68s-2.42-.56-2.66-1.8.56-2.44,1.79-2.68,2.42.56,2.66,1.8Z"/>
    <path id="_1f-2" data-name="1f" class="cls-26" d="m129.52,66.39c-.24.19-.58.15-.74-.1s-.11-.61.13-.8.58-.15.74.1.11.61-.13.8Z"/>
    <path id="A-2" data-name="A" class="cls-10" d="m176.55,384.75c-.4.64-.57,1.48-1.17,1.95-.73.57-1.6,1.21-2.53,1.28-1.56.12-3.09-.37-4.63-.66-.55-.11-.69-.67-1.05-1-.36-.33-.03-.04-.04-.06-.01-.01-.03-.04-.03-.04"/>
    <path id="_1a-2" data-name="1a" class="cls-17" d="m176.79,382.87q-1.59.84-2.59,1.84c-2,1-2.34.88-4,1-.89.07-3.26-1.04-4.14-1.16.18-.63.25-1.28.8-1.77.73-.66.98-1.07,1.8-1.59.81-.52,1.79-.94,2.77-1.04.72-.07,1.54-.2,2.18.08.71.3,1.5.6,2,1.12.65.68.97.66,1.59,1.37l-.41.16Z"/>
    <path id="_1d-2" data-name="1d" class="cls-14" d="m154.8,384.04c-.89.41-1.71,1.03-2.64,1.27-1.37.35-1.14.26-2.56.3-1.21.03-2.44.32-3.63.11-.85-.15-1.74-.33-2.51-.74-.49-.26-.91-.65-1.36-.97.56-.55.97-1.34,1.64-1.71,1.01-.56,2.07-1.04,3.23-1.21.87-.13,1.71-.34,2.6-.28,1.33.1,1.1.16,2.38.53.65.19,1.31.57,1.77,1.09.42.48.73,1.06,1.1,1.59h0Z"/>
    <path id="_1e-3" data-name="1e" class="cls-13" d="m146.02,383.74c-.24-1.24.56-2.44,1.79-2.68s2.42.56,2.66,1.8-.56,2.44-1.79,2.68-2.42-.56-2.66-1.8Z"/>
    <path id="_1f-3" data-name="1f" class="cls-26" d="m147.75,383.19c.24-.19.58-.15.74.1s.11.61-.13.8-.58.15-.74-.1-.11-.61.13-.8Z"/>
    <path id="_1e-4" data-name="1e" class="cls-13" d="m169.46,383.36c-.24-1.24.56-2.44,1.79-2.68s2.42.56,2.66,1.8-.56,2.44-1.79,2.68-2.42-.56-2.66-1.8Z"/>
    <path id="_1f-4" data-name="1f" class="cls-26" d="m171.19,382.82c.24-.19.58-.15.74.1s.11.61-.13.8-.58.15-.74-.1-.11-.61.13-.8Z"/>
  </g>
</svg>