<?xml version="1.0" encoding="UTF-8"?>
<svg xmlns="http://www.w3.org/2000/svg" viewBox="0 0 300 450">
  <defs>
    <style>
      .cls-1 {
        fill: #fff;
        stroke: #000;
      }

      .cls-2 {
        font-family: SourceSerifRoman-Semibold, 'Source Serif Variable';
        font-size: 62.32px;
        font-variation-settings: 'wght' 600;
        font-weight: 600;
      }
    </style>
  </defs>
  <g id="Layer_2" data-name="Layer 2">
    <path id="rect6" class="cls-1" d="m25.37.45h248.29c13.73,0,24.86,11.14,24.86,24.89v398.22c0,13.75-11.13,24.89-24.86,24.89H25.37c-13.73,0-24.86-11.14-24.86-24.89V25.34C.51,11.59,11.64.45,25.37.45Z"/>
  </g>
  <g id="Layer_1" data-name="Layer 1">
    <text class="cls-2" transform="translate(10.04 66.56) scale(.8 1)"><tspan x="0" y="0">A</tspan></text>
    <text class="cls-2" transform="translate(290.46 382.43) rotate(-180) scale(.8 1)"><tspan x="0" y="0">A</tspan></text>
    <path id="path12" d="m150.4,190.95c-1.11,5.57-2.39,7.01-4.46,10.02-1.78,2.6-4.28,4.64-6.69,6.68-2.44,2.06-5.22,3.68-7.8,5.57-3,2.19-6.53,3.83-8.91,6.68-2.66,3.19-5.57,6.98-5.57,11.13,0,3.32,2.01,6.66,4.46,8.91,2.94,2.71,7.14,4.55,11.14,4.45,4.49-.1,9.03-2.45,12.26-5.57,2.39-2.3,4.46-8.91,4.46-8.91v2.23c0,1.11-.11,6.09-1.11,8.91-1.17,3.3-3.2,6.33-5.57,8.91-2.52,2.73-8.91,6.68-8.91,6.68v1.11s8.87-1.85,13.37-2.23c2.22-.18,4.46-.18,6.69,0,4.5.37,13.37,2.23,13.37,2.23v-1.11s-6.4-3.95-8.91-6.68c-2.37-2.58-4.4-5.61-5.57-8.91-1-2.82-1.11-8.91-1.11-8.91v-2.23s2.06,6.6,4.46,8.91c3.23,3.11,7.77,5.46,12.26,5.57,4,.09,8.2-1.75,11.14-4.45,2.44-2.25,4.46-5.59,4.46-8.91,0-4.15-2.91-7.95-5.57-11.13-2.38-2.85-5.92-4.49-8.91-6.68-2.58-1.89-5.36-3.5-7.8-5.57-2.41-2.04-4.9-4.08-6.69-6.68-2.07-3.01-3.34-4.45-4.46-10.02"/>
    <path id="path14" d="m27.05,74.07c-.42,2.09-.89,2.63-1.67,3.76-.67.97-1.61,1.74-2.51,2.5-.91.77-1.96,1.38-2.92,2.09-1.12.82-2.45,1.44-3.34,2.5-1,1.19-2.09,2.62-2.09,4.17,0,1.24.75,2.5,1.67,3.34,1.1,1.02,2.68,1.7,4.18,1.67,1.68-.04,3.38-.92,4.6-2.09.9-.86,1.67-3.34,1.67-3.34v.83c0,.42-.04,2.28-.42,3.34-.44,1.24-1.2,2.37-2.09,3.34-.94,1.02-3.34,2.5-3.34,2.5v.42s3.33-.7,5.01-.83c.83-.07,1.67-.07,2.51,0,1.69.14,5.01.83,5.01.83v-.42s-2.4-1.48-3.34-2.5c-.89-.97-1.65-2.1-2.09-3.34-.38-1.06-.42-3.34-.42-3.34v-.83s.77,2.48,1.67,3.34c1.21,1.17,2.91,2.05,4.6,2.09,1.5.03,3.07-.65,4.18-1.67.92-.84,1.67-2.09,1.67-3.34,0-1.56-1.09-2.98-2.09-4.17-.89-1.07-2.22-1.69-3.34-2.5-.97-.71-2.01-1.31-2.92-2.09-.9-.76-1.84-1.53-2.51-2.5-.78-1.13-1.25-1.67-1.67-3.76"/>
    <path id="path16" d="m273.75,374.63c-.42-2.09-.89-2.63-1.67-3.76-.67-.97-1.61-1.74-2.51-2.5-.91-.77-1.96-1.38-2.92-2.09-1.12-.82-2.45-1.44-3.34-2.5-1-1.19-2.09-2.62-2.09-4.17,0-1.24.75-2.5,1.67-3.34,1.1-1.02,2.68-1.7,4.18-1.67,1.68.04,3.38.92,4.6,2.09.9.86,1.67,3.34,1.67,3.34v-.83c0-.42-.04-2.28-.42-3.34-.44-1.24-1.2-2.37-2.09-3.34-.94-1.02-3.34-2.5-3.34-2.5v-.42s3.33.7,5.01.83c.83.07,1.67.07,2.51,0,1.69-.14,5.01-.83,5.01-.83v.42s-2.4,1.48-3.34,2.5c-.89.97-1.65,2.1-2.09,3.34-.38,1.06-.42,3.34-.42,3.34v.83s.77-2.48,1.67-3.34c1.21-1.17,2.91-2.05,4.6-2.09,1.5-.03,3.07.65,4.18,1.67.92.84,1.67,2.09,1.67,3.34,0,1.56-1.09,2.98-2.09,4.17-.89,1.07-2.22,1.69-3.34,2.5-.97.71-2.01,1.31-2.92,2.09-.9.76-1.84,1.53-2.51,2.5-.78,1.13-1.25,1.67-1.67,3.76"/>
  </g>
</svg>