<?xml version="1.0" encoding="UTF-8"?>
<svg id="Layer_1" data-name="Layer 1" xmlns="http://www.w3.org/2000/svg" viewBox="0 0 300 450">
  <defs>
    <style>
      .cls-1, .cls-2, .cls-3, .cls-4, .cls-5, .cls-6, .cls-7, .cls-8, .cls-9, .cls-10, .cls-11, .cls-12, .cls-13, .cls-14, .cls-15, .cls-16, .cls-17, .cls-18, .cls-19, .cls-20 {
        stroke: #000;
      }

      .cls-1, .cls-2, .cls-3, .cls-4, .cls-5, .cls-6, .cls-7, .cls-8, .cls-9, .cls-10, .cls-11, .cls-12, .cls-13, .cls-18, .cls-19 {
        stroke-linecap: round;
        stroke-linejoin: round;
      }

      .cls-1, .cls-16 {
        fill: #55a;
      }

      .cls-2 {
        fill: #af5500;
      }

      .cls-3 {
        fill: #a00;
      }

      .cls-4 {
        fill: #aaf;
      }

      .cls-5 {
        fill: #f55;
      }

      .cls-6, .cls-17 {
        fill: #fa5;
      }

      .cls-7 {
        fill: #fffe55;
      }

      .cls-8 {
        fill: #ff5;
      }

      .cls-9 {
        fill: #fff;
      }

      .cls-10, .cls-13, .cls-14, .cls-20 {
        fill: none;
      }

      .cls-11 {
        fill: #5a5;
        stroke-width: 1.22px;
      }

      .cls-12 {
        fill: #f4c9ab;
      }

      .cls-13 {
        stroke-width: 2px;
      }

      .cls-14 {
        stroke-width: .96px;
      }

      .cls-18 {
        fill: rgba(255, 255, 255, .98);
      }

      .cls-21 {
        font-family: SourceSerifRoman-Semibold, 'Source Serif Variable';
        font-size: 49.31px;
        font-variation-settings: 'wght' 600;
        font-weight: 600;
      }
    </style>
  </defs>
  <path id="rect10" class="cls-9" d="m25.36.5h248.29c13.73,0,24.86,11.14,24.86,24.89v398.22c0,13.75-11.13,24.89-24.86,24.89H25.36c-13.73,0-24.86-11.14-24.86-24.89V25.39C.5,11.64,11.63.5,25.36.5Z"/>
  <g id="g16">
    <path id="path18" class="cls-13" d="m41.36,24.63h233.98v317.25"/>
    <path id="path20" class="cls-13" d="m258.64,425.37H24.65V108.12"/>
    <path id="path22" class="cls-13" d="m24.65,225h250.7"/>
  </g>
  <path id="path26" d="m74.79,32.99c-3.34-.07-5.57,1.11-7.8,3.34-2.23,2.23-3.34,4.45-3.34,7.79s1.27,5.32,3.34,7.79c1.98,2.37,3.34,3.34,4.46,5.57,1.11,2.23,2.23,6.68,2.23,8.9v3.34h-2.23c-2.23,0-6.69-2.23-7.8-3.34l-3.34-3.34c-2.23-2.23-4.46-3.34-7.8-3.34s-5.57,1.11-7.8,3.34c-2.23,2.23-3.34,4.45-3.34,7.79s1.11,5.57,3.34,7.79,4.46,3.34,7.8,3.34,5.57-1.11,7.8-3.34l3.34-3.34c1.11-1.11,5.57-3.34,7.8-3.34h2.23c-.06,3.15-.29,8.66-1.11,11.13-1.11,3.34-3.34,6.68-5.57,8.9-2.23,2.23-8.91,6.68-8.91,6.68v1.11s11.14-2.23,13.37-2.23h6.69c2.23,0,13.37,2.23,13.37,2.23v-1.11s-6.69-4.45-8.91-6.68-4.46-5.57-5.57-8.9c-.83-2.47-1.06-7.98-1.11-11.13h2.23c2.23,0,6.69,2.23,7.8,3.34l3.34,3.34c2.23,2.23,4.46,3.34,7.8,3.34s5.57-1.11,7.8-3.34c2.23-2.23,3.34-4.45,3.34-7.79s-1.11-5.57-3.34-7.79c-2.23-2.23-4.46-3.34-7.8-3.34s-5.57,1.11-7.8,3.34l-3.34,3.34c-1.11,1.11-5.57,3.34-7.8,3.34h-2.23v-3.34c0-2.23,1.11-6.68,2.23-8.9,1.11-2.23,2.23-3.34,4.46-5.57,2.22-2.21,3.34-4.45,3.34-7.79s-1.11-5.57-3.34-7.79-4.46-3.34-7.8-3.34"/>
  <path id="path28" d="m24.65,75.72c-1.25-.03-2.09.42-2.92,1.25s-1.25,1.67-1.25,2.92.48,2,1.25,2.92c.74.89,1.25,1.25,1.67,2.09s.84,2.5.84,3.34v1.25h-.84c-.84,0-2.51-.83-2.92-1.25l-1.25-1.25c-.84-.83-1.67-1.25-2.92-1.25s-2.09.42-2.92,1.25-1.25,1.67-1.25,2.92.42,2.09,1.25,2.92,1.67,1.25,2.92,1.25,2.09-.42,2.92-1.25l1.25-1.25c.42-.42,2.09-1.25,2.92-1.25h.84c-.02,1.18-.11,3.25-.42,4.17-.42,1.25-1.25,2.5-2.09,3.34s-3.34,2.5-3.34,2.5v.42s4.18-.83,5.01-.83h2.51c.84,0,5.01.83,5.01.83v-.42s-2.51-1.67-3.34-2.5-1.67-2.09-2.09-3.34c-.31-.93-.4-2.99-.42-4.17h.84c.84,0,2.51.83,2.92,1.25l1.25,1.25c.84.83,1.67,1.25,2.92,1.25s2.09-.42,2.92-1.25,1.25-1.67,1.25-2.92-.42-2.09-1.25-2.92-1.67-1.25-2.92-1.25-2.09.42-2.92,1.25l-1.25,1.25c-.42.42-2.09,1.25-2.92,1.25h-.84v-1.25c0-.83.42-2.5.84-3.34s.84-1.25,1.67-2.09c.83-.83,1.25-1.67,1.25-2.92s-.42-2.09-1.25-2.92-1.67-1.25-2.92-1.25"/>
  <path id="path32" d="m225.21,417.02c-3.34.07-5.57-1.11-7.8-3.34-2.23-2.23-3.34-4.45-3.34-7.79s1.27-5.32,3.34-7.79c1.98-2.37,3.34-3.34,4.46-5.57,1.11-2.23,2.23-6.68,2.23-8.9v-3.34h-2.23c-2.23,0-6.69,2.23-7.8,3.34l-3.34,3.34c-2.23,2.23-4.46,3.34-7.8,3.34s-5.57-1.11-7.8-3.34c-2.23-2.23-3.34-4.45-3.34-7.79s1.11-5.57,3.34-7.79,4.46-3.34,7.8-3.34,5.57,1.11,7.8,3.34l3.34,3.34c1.11,1.11,5.57,3.34,7.8,3.34h2.23c-.06-3.15-.29-8.66-1.11-11.13-1.11-3.34-3.34-6.68-5.57-8.9-2.23-2.23-8.91-6.68-8.91-6.68v-1.11s11.14,2.23,13.37,2.23h6.69c2.23,0,13.37-2.23,13.37-2.23v1.11s-6.69,4.45-8.91,6.68-4.46,5.57-5.57,8.9c-.83,2.47-1.06,7.98-1.11,11.13h2.23c2.23,0,6.69-2.23,7.8-3.34l3.34-3.34c2.23-2.23,4.46-3.34,7.8-3.34s5.57,1.11,7.8,3.34c2.23,2.23,3.34,4.45,3.34,7.79s-1.11,5.57-3.34,7.79-4.46,3.34-7.8,3.34-5.57-1.11-7.8-3.34l-3.34-3.34c-1.11-1.11-5.57-3.34-7.8-3.34h-2.23v3.34c0,2.23,1.11,6.68,2.23,8.9,1.11,2.23,2.23,3.34,4.46,5.57s3.34,4.45,3.34,7.79-1.11,5.57-3.34,7.79-4.46,3.34-7.8,3.34"/>
  <path id="_2" data-name="2" class="cls-3" d="m111.14,115.21c-7.64,3.97-16.12,6.05-23.75,9.91-2.68,1.8-4.31,4.31-5.1,7.42-11.83,30.68-23.66,61.36-35.49,92.04,12.95.28,25.07.14,37.6,0-1.45-2.11-4.47-4.96-2.5-7.62,3.33-7.72,4.64-14.49,7.43-22.4.63-2.22,1.34-4.05,3.83-4.81.77,2.49,1.08,3.44,1.31,6.05.83,5.24,2.17,10.47,5.1,15,1.69,3.17,3.28,8.48,4.89,11.7,7.16-1.86,13.6-2.56,21.68-3.13,10.49-.29,21.78-.35,32.56-.63,10.89,0,21.78,1.04,32.67,1.04,5.78,1.46,8.22,1.25,12.74,2.71,1-6.42,1.47-11.42,3.44-17.6,2-3.56,1.31-7.73,2.2-11.62,2.31,1.51,2.31,4.51,3.14,6.9,1.06,3.06,2.95,5.85,2.29,9.44-.31,2.94-.74,5.83,1.27,8.32.67,2.18.31,6.76,3.49,6.67,10.11.13,20.23.27,30.34.4,2.88-5.58,3.54-11.86,3.34-18.06-.12-5.01.74-10.18-1.76-14.77-1.97-5.63-3.74-11.35-7.52-16.08-4.45-6.32-8.18-13.05-11.33-20.1-3.25-6.42-5.46-13.31-9.54-19.29-2.89-4.03-5-8.91-9.64-11.23-3.92-2.66-8.58-7.43-13.6-6.79-23.69.13-63.03-14.8-89.09-3.46h0Z"/>
  <path id="_3" data-name="3" class="cls-16" d="m113.92,121.01l3.25,8.26,4.43,13.28,4.43,15.05,3.25,16.53,1.48,10.33.3,8.26.89,8.56.89,9.45.3,8.29,15.36.59h28.65l14.06.66,6.33-21.35,1.77-11.22.59-5.61,1.48-37.78-.89-13.58.89-10.33-.3-1.77-13-8.86-20.97-5.31-24.52-.89-20.39,6.2-10.34,5.9,2.66,6.79-.59-1.48Z"/>
  <path id="_4" data-name="4" class="cls-2" d="m121.59,69.5c-1.99,2.03-3,4.84-3.67,7.55-.86,3.13,1.26,6.2.4,9.31-1.4,2.45-4.46,3.33-5.92,5.79-1.49,2.24-.88,5.11-.28,7.55,2.09,2.32-1.94,1.82-3.12,2.37-2.58,1.2-4.5,2.92-5.76,5.18-1.11,3.19.12,6.73,2.49,9.01,1.66,1.82,3.72,3.34,5.99,4.29,3.08.43,6.28-.03,8.49-2.06,1.58-1.21,3.14-2.79,4.19-5.43,1.1,2.19,3.35,1,4.3-.65,1.78-1.8,3.82-3.36,5.67-5.05,1.33-1.77-2.1-2.73-2.72-4.28-3.88-4.75-5.25-10.93-6.55-16.79-1.06-5.66-1.38-11.47-.99-17.21,1.07-2.51-1.88,0-2.52.43h0Z"/>
  <path id="_5" data-name="5" class="cls-2" d="m163.58,40.91c0,1.35,2.79,4.81,3.32,7.48.46,2.31-.43,4.72-.16,7.05.15,1.29.58,2.54.98,3.78.72,2.22,2.1,4.24,2.56,6.53.76,3.83.07,7.81.22,11.71.19,5.03.22,7.24,1.18,11.95.45,2.22-.95,4.25-1.97,6.15-.4.74-1.51,1.13-1.57,1.97-.09,1.12,1.09,1.96,1.64,2.93.57,1,1.05,2.06,1.75,2.97.61.78,1.18,1.72,2.1,2.1,1.12.46,2.55.58,3.62-.04.41,2.37.66,2.28,1.15,3.36,1.69,3.74,2.57,8.62,6.13,10.67,2.05,1.18,4.75.25,7.11-.02,3.05-.34,6.41-.36,8.98-2.04.85-.56,1.33-1.56,1.82-2.45.98-1.8,1.79-3.74,2.18-5.75.48-2.42.83-5.02.19-7.4-.51-1.9-2.41-3.18-3.1-5.02-.8-2.14.03-4.78-1.1-6.77-1.21-2.12-3.81-3.06-5.61-4.71-.55-.5-1.42-.85-1.58-1.58-.41-1.9,2.12-3.51,2.05-5.45-.11-2.87-2.26-5.29-3.62-7.82-.82-1.54-2.09-2.84-2.74-4.46-.45-1.13-.36-2.42-.74-3.57-.58-1.74-1.62-3.29-2.36-4.96-1.13-2.57-1.62-5.47-3.19-7.8-1.18-1.75-2.82-3.19-4.54-4.43-1.62-1.17-3.44-2.11-5.33-2.75-3.01-1.01-6.22-1.28-9.37-1.64h0Z"/>
  <path id="_6" data-name="6" class="cls-12" d="m124.51,67.63c-.71,3.23-.65,5.98-.56,8.98.12,4.01.56,8.04,1.47,11.95.84,3.63,2,7.22,3.66,10.55,1.21,2.44,2.48,5.02,4.55,6.79,2.11,1.8,4.82,3,7.55,3.51,3.06.58,6.29.14,9.32-.59,2.86-.69,5.57-1.99,8.08-3.51,3.37-2.04,6.55-4.51,9.18-7.43,2.04-2.25,4.42-4.65,4.98-7.63.62-3.28-1.71-6.49-2.05-9.82-.25-2.45.09-4.93,0-7.39-.11-2.71-.04-5.47-.65-8.11-.62-2.7-2.58-5.02-3.03-7.75-.46-2.87,1.15-5.89.45-8.71-.77-3.09-2.5-6.74-4.92-8.19-2.14-1.42-5.53-.22-8.24.25-5.02.88-9.82,2.83-14.54,4.74-5.3,2.14-9.28,7.14-12.19,12.06-1.7,2.87-1.51,6.54-2.76,9.64-.05.11-.12.21-.17.32-.05.11-.02.27-.12.34h0Z"/>
  <path id="_7" data-name="7" class="cls-1" d="m125.56,55.52c-.23,1.69,1.51,3.73,2.46,1.34,1.68-2.7,4.35-6.14,6.77-8.27,3.26-3.27,6.85-3.74,10.96-5.53,8.24-3.09,17.29-2.63,25.8-1.07,4.95,1.07,9.61,4.14,11.72,8.86,1.27,1.52.58,7.22,3.55,5.48,1.96-1.09,2.96-4,2.61-6.1-.26-4.38-3.69-7.8-7.26-9.94-7.13-4.09-15.62-4.95-23.67-4.15-6.99.07-13.88,1.7-20.29,4.43-3.25,1.04-6.27,2.76-8.58,5.3-1.83,2.01-4.8,3.5-4.9,6.56-.12,1.1.46,2.09.82,3.09h0Z"/>
  <path id="_8" data-name="8" class="cls-3" d="m125.35,50.93c-1.64,3.77,2.08,6.86.84,10.73.1,2.99-1.54,6.12-4.13,7.53-4.19,1.91-7.27-2.73-9.08-5.84-2.03-3.5-.25-8.02-.63-12.12-.29-4.81.38-9.27,3.13-14.05,5.73-4.19,10.74-7.28,17.58-9.06,4.28-1.77,10.15-3.65,14.91-3.76,11.27-.96,22.74-.95,33.9,1.05,4.4,1.31,9.12,2.13,13,4.69,6.42,4.81,8.82,13.74,7.26,21.39-1.36,3.74-3.5,7.87-7.16,9.77-3.24,1.69-8.52,2.37-8.64-2.81-.32-3.36,4.76-4.84,2.85-8.76-.82-4.75-4.82-7.98-8.99-9.85-6.5-3.6-14.14-3.95-21.39-3.53-8.27-.27-16.34,2.38-23.79,5.73-3.76,2.16-7.31,5.23-9.66,8.87h0Z"/>
  <path id="_9" data-name="9" class="cls-10" d="m129.11,55.73c1.45-.52,3.44-1.46,5.01-.83,1.39.55,2.34,2.13,2.7,3.58.8,3.31-1.07,6.72-1.72,10.06-.46,2.34-.89,4.69-1.54,6.99-.36,1.28-1.65,2.5-1.28,3.77.24.85,1.33,1.17,2.05,1.69.86.62,1.63,1.78,2.69,1.71.98-.07,1.36-1.5,2.27-1.9.69-.3,1.49-.17,2.23-.3.62-.11,1.44.06,1.85-.41.74-.86.75-2.38.23-3.38-.09-.17-.32-.21-.49-.3"/>
  <path id="A" class="cls-10" d="m144.94,60.11c-.15-.74-.61-1.48-.44-2.21.16-.67.68-1.27,1.26-1.65.91-.58,2.09-.56,3.17-.71,1.54-.22,3.11-.33,4.66-.3.99.03,2.02-.01,2.95.34.99.37,1.77,1.17,2.61,1.82,1.08.83,2.04,1.83,3.13,2.65.17.13.36.24.54.36"/>
  <path id="B" class="cls-10" d="m146.12,64.63c.43-.68.65-1.55,1.26-2.1.95-.85,2.21-1.41,3.47-1.59,1.34-.2,2.77.02,4.02.54,1.36.57,2.17,2.09,3.51,2.71.49.22,1.08.11,1.57.31.67.27,1.09.98,1.83,1.16"/>
  <path id="C" class="cls-18" d="m147.27,65c.66-.86,2.23-.78,3.41-.99.9-.16,1.84-.31,2.75-.2,1.03.12,1.97.59,2.94.93.91.32,1.72.91,2.69,1.06.68.11,1.87-.68,2.08-.11.36.99-2.12,1.01-3.09,1.63-.61.39-1.08.96-1.73,1.3-.5.26-1.07.45-1.64.55-.9.16-1.83.14-2.74.07-.75-.06-1.53-.11-2.21-.41-.49-.22-.66-.46-1.27-.96-.57-.46-.84-1.02-1.05-1.61-.14-.4-.39-.91-.12-1.26h0Z"/>
  <path id="D" class="cls-10" d="m135.79,62.71c-.68-.88-1.1-2.03-2-2.69-.7-.51-1.59-.78-2.45-.84-.88-.07-1.75.27-2.61.48-.76.19-1.5.47-2.25.69"/>
  <path id="E" class="cls-18" d="m135.48,64.33c-.44-1.55-3.39-1.6-4.98-1.83-.84-.12-1.17-.15-2,0-.81.15-1.9.49-2.48,1.09-.34.35-.5.92-.39,1.39.11.47.62.74.97,1.08.58.56,1.13,1.23,1.87,1.54.85.34,1.83.34,2.74.23.7-.08,1.44-.26,2.02-.67.99-.69,2.58-1.67,2.25-2.83h0Z"/>
  <g id="use49">
    <path id="_0" data-name="0" class="cls-11" d="m132.61,64.78c0,1.18-.96,2.14-2.14,2.14-1.18,0-2.14-.96-2.14-2.14h0c0-1.19.96-2.15,2.14-2.15,1.18,0,2.14.96,2.14,2.14h0Z"/>
  </g>
  <path id="path53" class="cls-19" d="m131.2,64.4c0,.33-.26.59-.59.59s-.59-.26-.59-.59.26-.59.59-.59.59.26.59.59Z"/>
  <g id="g56">
    <path id="w" class="cls-5" d="m132.88,88.56c.27-.83,1.23-1.07,1.86-1.57.46-.35.75-1,1.41-1.02.74-.09,1.63.02,2.07.69.44.41,1.32.35,1.33-.29.37-.31,1.33-.27,1.75-.25,1.18.25,1.73.77,2.78,1.36.44.22,1.1.39,1.13.98-.18.65-1.14.46-1.45,1.04-.69.82-1.1.95-1.84,1.72-.56.72-1.22,1.5-2.18,1.62-1.14.18-2.3-.09-3.41-.35-.73-.2-1.48-.61-1.72-1.38-.19-.66-.63-.31-.99-.88-.28-.48-.51-1-.74-1.51v-.08s0-.08,0-.08h0Z"/>
    <path id="x" class="cls-5" d="m132.88,88.77c.79-.06,1.58-.06,2.36-.24.64-.18.87.6,1.43.7.83.22,1.73.35,2.58.17.55-.17.98-.58,1.5-.82.53-.36,1.19-.44,1.81-.3.69.05,1.33.37,2.02.38.14,0,.28-.06.42-.1"/>
  </g>
  <path id="G" class="cls-2" d="m139.3,82.97c.68-.03,1.84-.11,2.75-.01.69.07,1.39.18,2.03.43,1.1.43,2.11,1.09,3.03,1.81.32.25.61.54.85.86.51.66.64,1.6,1.26,2.16.29.26.68.54,1.07.5.46-.05.74-.55,1.09-.85.31-.26.54-.63.9-.83.38-.21.83-.28,1.26-.32.87-.07,1.79-.08,2.62.22.4.14,1,.3,1.05.72.04.37-.41.69-.76.83-.76.32-1.73-.45-2.48-.1-1.12.52-1.31,2.14-2.26,2.93-.46.38-1.03.62-1.6.82-.89.31-1.84.36-2.78.56-.68.15-1.35-.39-1.92-.79-.9-.64-1.38-1.73-2.2-2.47-.69-.63-1.48-1.15-2.26-1.67-.71-.46-1.37-1.07-2.2-1.28-.72-.18-1.52-.14-2.23.07-.54.16-1.07.46-1.46.87-.5.53-.55,1.37-1.01,1.93-.32.39-.73.72-1.18.95-.57.3-1.2.57-1.84.54-.6-.03-1.12-.43-1.66-.69-.39-.18-.77-.39-1.15-.6-.34-.19-.68-.37-1.02-.57-.42-.25-.98-.39-1.25-.8-.22-.34-.36-.83-.19-1.21.12-.25.43-.44.7-.44.64.01.96,1.09,1.6,1.08.58,0,1.02-.58,1.42-1,.59-.61.75-1.59,1.4-2.13.56-.46,1.32-.61,2-.83.55-.19,1.11-.4,1.69-.45.45-.03.89.09,1.34.14.44.05.68.02,1.3.17.54-.12,1.48-.53,2.07-.59h0Z"/>
  <path id="H" class="cls-9" d="m125.51,114.5c.79,2.27,2.46,4.85,3.95,6.78,2.02,3.15,4.19,6.24,6.42,9.24,1.62,1.61,3.48,3,4.72,4.94,3.6-3.45,7.38-6.7,11.31-9.75,1.36-.82-1.46-1.2-2.07-1.81-1.86-1.11-3.64-2.47-5.25-3.91-1.71-1.99-3.81-3.72-4.73-6.25-1.03-2.46-3.66-4.78-5.16-6.96-1.29-.67-1.81,1.23-2.71,1.85-2.18,1.93-4.39,3.84-6.48,5.87h0Z"/>
  <path id="I" class="cls-9" d="m161.7,124.81c3.05,3.13,6.3,6.1,9.96,8.49.88,1.34,1.72,1.46,2.5-.02,1.72-2.01,3.72-3.83,4.69-6.35,1.26-2.79,2.98-5.3,4.78-7.76-1.33-1.89-2.86-3.67-3.36-5.99-.86-2.7-2.2-4.84-3.18-7.49-1.41-.1-3.16.12-4.2-1.1-.79-.3-.31,2.16-.61,2.93-.12,2.42-1.05,4.72-1.7,7.02-1.88,3.22-2.1,4.91-5.24,7.1-.66.53-2.92,2.73-3.64,3.17h0Z"/>
  <path id="J" class="cls-12" d="m135.58,107.7c2.09,3.48,4.7,6.61,6.77,10.11,1.02,1.38,2.52,2.34,3.74,3.54,1.07,1,2.22,1.89,3.53,2.56,1.49,1.02,2.99,2.25,4.85,2.41,1.41.05,2.91.43,4.2-.35,1.37-.85,3.24-1.21,4.46-2.26,2.06-1.55,3.72-2.72,5.34-4.7,1.15-1.96,2.16-4,2.75-6.2,1-2.41,1.24-5.78,1.5-8.34-1.73-1.2-1.42-2.74-2.69-4.1-.87-.8-1.23-2.44-2.11-2.57-1.35,1.48-3.69,3.95-5.49,4.92-2.33,1.52-4.51,3.32-7.14,4.33-2.2,1.04-4.53,1.77-6.88,2.35-2.27.09-4.57.4-6.84.31-2.02-.59-4-1.29-5.98-2h0Z"/>
  <path id="K" class="cls-9" d="m141.02,135.04l1.88,7.72,1.25,9.6,1.88,13.57,1.25,11.9.21,7.72v7.93l.63,11.27.42,7.31.21,7.51h28.83l.84-13.98,1.04-13.78-.21-13.78v-17.12l-.84-9.81-1.67-12.52-1.67-6.26-1.67,1.88-4.18-2.92-3.76-2.71-2.3-2.3-1.25-1.67-3.13,1.25-3.13.63-2.51-.63-1.25-.42-3.55,3.55-3.76,2.71-3.55,3.34Z"/>
  <path id="L" class="cls-10" d="m156.06,126.69l2.51,14.19,1.46,11.9,1.88,13.57,1.46,13.57.42,10.23v14.19l-.42,7.31-.42,7.93"/>
  <path id="M" class="cls-10" d="m165.67,219.57l1.04-18.16-.21-19.41-1.67-17.53-1.67-9.18-1.25-9.18-1.04-7.72-1.67-7.93-.63-4.38"/>
  <g id="use67">
    <path id="_1" data-name="1" class="cls-6" d="m153.97,139.22c0,1.84-1.5,3.34-3.34,3.34s-3.34-1.5-3.34-3.34,1.5-3.34,3.34-3.34,3.34,1.5,3.34,3.34Z"/>
  </g>
  <g id="use69">
    <path id="_1-2" data-name="1" class="cls-6" d="m155.85,150.9c0,1.84-1.5,3.34-3.34,3.34s-3.34-1.5-3.34-3.34,1.5-3.34,3.34-3.34,3.34,1.5,3.34,3.34Z"/>
  </g>
  <g id="use71">
    <path id="_1-3" data-name="1" class="cls-6" d="m157.73,163.64c0,1.84-1.5,3.34-3.34,3.34s-3.34-1.5-3.34-3.34,1.5-3.34,3.34-3.34,3.34,1.5,3.34,3.34Z"/>
  </g>
  <g id="use73">
    <path id="_1-4" data-name="1" class="cls-6" d="m158.98,177.2c0,1.84-1.5,3.34-3.34,3.34s-3.34-1.5-3.34-3.34,1.5-3.34,3.34-3.34,3.34,1.5,3.34,3.34Z"/>
  </g>
  <g id="use75">
    <path id="_1-5" data-name="1" class="cls-6" d="m176.53,178.04c0,1.84-1.5,3.34-3.34,3.34s-3.34-1.5-3.34-3.34,1.5-3.34,3.34-3.34,3.34,1.5,3.34,3.34Z"/>
  </g>
  <g id="use77">
    <path id="_1-6" data-name="1" class="cls-6" d="m175.91,163.85c0,1.84-1.5,3.34-3.34,3.34s-3.34-1.5-3.34-3.34,1.5-3.34,3.34-3.34,3.34,1.5,3.34,3.34Z"/>
  </g>
  <g id="use79">
    <path id="_1-7" data-name="1" class="cls-6" d="m174.23,150.7c0,1.84-1.5,3.34-3.34,3.34s-3.34-1.5-3.34-3.34,1.5-3.34,3.34-3.34,3.34,1.5,3.34,3.34Z"/>
  </g>
  <g id="use81">
    <path id="_1-8" data-name="1" class="cls-6" d="m171.94,138.38c0,1.84-1.5,3.34-3.34,3.34s-3.34-1.5-3.34-3.34,1.5-3.34,3.34-3.34,3.34,1.5,3.34,3.34Z"/>
  </g>
  <g id="use83">
    <path id="_1-9" data-name="1" class="cls-6" d="m158.98,189.94c0,1.84-1.5,3.34-3.34,3.34s-3.34-1.5-3.34-3.34,1.5-3.34,3.34-3.34,3.34,1.5,3.34,3.34Z"/>
  </g>
  <g id="use85">
    <path id="_1-10" data-name="1" class="cls-6" d="m159.4,202.25c0,1.84-1.5,3.34-3.34,3.34s-3.34-1.5-3.34-3.34,1.5-3.34,3.34-3.34,3.34,1.5,3.34,3.34Z"/>
  </g>
  <g id="use87">
    <path id="_1-11" data-name="1" class="cls-6" d="m159.19,213.52c0,1.84-1.5,3.34-3.34,3.34s-3.34-1.5-3.34-3.34,1.5-3.34,3.34-3.34,3.34,1.5,3.34,3.34Z"/>
  </g>
  <g id="use89">
    <path id="_1-12" data-name="1" class="cls-6" d="m175.28,213.31c0,1.84-1.5,3.34-3.34,3.34s-3.34-1.5-3.34-3.34,1.5-3.34,3.34-3.34,3.34,1.5,3.34,3.34Z"/>
  </g>
  <g id="use91">
    <path id="_1-13" data-name="1" class="cls-6" d="m175.7,201.41c0,1.84-1.5,3.34-3.34,3.34s-3.34-1.5-3.34-3.34,1.5-3.34,3.34-3.34,3.34,1.5,3.34,3.34Z"/>
  </g>
  <g id="use93">
    <path id="_1-14" data-name="1" class="cls-6" d="m176.32,189.94c0,1.84-1.5,3.34-3.34,3.34s-3.34-1.5-3.34-3.34,1.5-3.34,3.34-3.34,3.34,1.5,3.34,3.34Z"/>
  </g>
  <path id="path95" class="cls-4" d="m221.17,53.12c3.64-7.87,7.29-15.74,10.93-23.61,1.37-1.91,1.85.56,1.75,1.83-.19,8.44-.38,16.88-.57,25.33-1.05-.19-3.11-2.54-3.39-1.08-1.29,6.1-1.86,12.33-2.82,18.49,2.42-.08,4.93.16,7.3-.12,1.73-1.19,4.13-1.7,4.9-3.86,1.23-1.14,1.01-3.24.8-4.87-.2-1.54-.53-2.85-1.89-4.26-1.13-1.3,1.51-2.08,2.16-3.13,2.26-1.83,4.22-3.92,5.83-6.34,1.88-2.61,3.99-5.03,6.02-7.52,1.74,2.2,3.48,4.39,4.81,6.84,1.96,3.63,3.35,7.57,4.55,11.5.9,4.06,1.88,8.11,1.96,12.28.45,4.93.27,9.9-.52,14.79-.58,3.43-1.51,6.82-2.49,10.15-1.43,3.55-2.66,7.2-4.88,10.36-2.11,3.79-3.03,4.68-5.26,8.41-1.29,2-5.01,6-7.01,7.34-1.09.92-2.18,1.83-3.26,2.75-2.63-6.41-5.1-12.88-8.34-19.02-.29-1.21-2.35-2.84-.46-3.52,1.06-.89,2.11-1.81,2.61-3.05.85-2.1,1.1-4.62.43-6.78-.58-1.87-1.94-3.62-3.62-4.63-1.85-1.12-4.25-2.29-6.38-1.15-1.6-.09-1.95-1.45-3.5-1.42-2.18.82-3.02.62-2.64-1.15-.55-.8-2.6-.51-3.75-.61-1.37.09-2.31,1.69-3.01,2.8-1.04.94-.48,2.95-1.63,3.55-1.13-.09-1.89-2.18-2.2-3.36-.53-1.38-.05-3,.58-4.25.67-1.11,2.73-2.37.7-3.21-2.16-1.9-3.87-4.24-6.02-6.16,1.97-1.45,2.59-2.43,4.14-3.25,1.59-.84,5.15-.63,5.15-1.62-.84-1.36-.67-2.77-.1-4.2.39-1.99,2.77-2.61,4.4-3.33.06,1.8-.36,3.7.84,5.23.77,1.39,2.02,2.78,3.74,2.72.55-1.29.58-3.3.93-4.87.72-4.47,1.44-8.94,2.16-13.41-.99-.2-1.97-.39-2.95-.59h0Z"/>
  <path id="N" class="cls-20" d="m220.87,72.01l-2.66,15.64"/>
  <path id="O" class="cls-20" d="m227.08,74.07l-2.36,15.94"/>
  <path id="P" class="cls-20" d="m233.28,29.2l-5.91,22.73,2.95,3.54"/>
  <path id="Q" class="cls-20" d="m227.37,51.35l-2.95,2.07"/>
  <path id="R" class="cls-15" d="m249.22,77.48c-.81-.2-1.42-.03-2.08.4-.66.42-1.06.91-1.24,1.72-.18.82.02,1.37.4,2.08.36.68.64.99.79,1.6s.19,1.75.07,2.29c-.12.54-.11.49-.18.82l-.54-.12c-.54-.12-1.51-.9-1.72-1.23l-.64-.99c-.42-.66-.91-1.05-1.72-1.23s-1.42-.03-2.08.4c-.66.42-1.06.91-1.24,1.72-.18.82-.03,1.42.4,2.08.42.66.91,1.05,1.72,1.23s1.42.03,2.08-.4l1-.64c.33-.21,1.54-.52,2.08-.4l.54.12c-.18.77-.54,2.1-.87,2.66-.45.76-1.17,1.45-1.84,1.88s-2.54,1.15-2.54,1.15l-.06.27s2.84.05,3.38.17l1.63.36c.54.12,3.14,1.26,3.14,1.26l.06-.27s-1.39-1.45-1.82-2.11-.79-1.6-.88-2.47c-.07-.65.17-2.01.33-2.78l.54.12c.54.12,1.51.9,1.72,1.23l.64.99c.42.66.91,1.05,1.72,1.23s1.42.03,2.08-.4c.66-.42,1.06-.91,1.24-1.72.18-.82.03-1.42-.4-2.08-.42-.66-.91-1.05-1.72-1.23s-1.42-.03-2.08.4l-1,.64c-.33.21-1.54.52-2.08.4l-.54-.12c.08-.38.06-.27.18-.82s.63-1.57,1.02-2.05.72-.7,1.39-1.12c.66-.42,1.06-.91,1.24-1.72.18-.82.03-1.42-.4-2.08-.42-.66-.91-1.05-1.72-1.23h0Z"/>
  <path id="S" class="cls-6" d="m32.59,224.58c2.37-10.58,4.06-21.29,5.9-31.97,1.94-9.87,4.52-16.07,5.95-20.21,2.98-8,3.32-8.49,6.71-16.32,2.18-5.38,3.15-9.56,6.19-14.55,1.92-3.64,3.79-7.6,6.45-10.77,2.33-3.24,5.25-7.65,8.26-10.3,2.2-2.52,4.88-4.46,7.68-6.26,1.4-1.18,2.67-2.04,2.51.47.67,4.47,1.73,8.91,2.14,13.39-.18,6.22-.36,12.44-1.24,18.61-.41,4.36-.92,8.71-2.14,12.93-1.97,8.68-4.23,17.29-6.93,25.77-2.19,6.18-3.98,12.52-6.97,18.38-2.51,5.61-5.63,10.93-8.33,16.44-1.18,1.4-2.09,3.33-3.45,4.39h-22.73,0Z"/>
  <path id="T" class="cls-7" d="m79.95,114.51c1.15,7.19,2.62,14.4,2.01,21.72-.54,14.84-4.03,29.42-8.45,43.54-4.16,12.02-7.93,24.35-14.8,35.17-1.89,3.13-3.4,6.48-5.65,9.38,1.48.47,2.86.67,3.49-1.06,2.8-4.27,5.34-8.73,7.71-13.26,2.62-5.42,5.3-10.84,7.22-16.55,1.78-6.45,4.37-12.64,5.95-19.14,2.45-9.2,4.27-18.57,5.95-27.94.42-6.35,1.27-12.69.88-19.06-.21-4.23-1.36-8.37-1.91-12.57.17-1.96-.94-2.32-1.98-.69-.14.16-.28.32-.42.47h0Z"/>
  <path id="U" class="cls-7" d="m43.31,224.61c2.5-3.28,4.72-6.74,6.82-10.27,2.4-4.04,4.65-8.18,6.6-12.45,3.28-7.2,6.07-14.63,8.52-22.15,1.16-3.55,1.96-7.21,2.92-10.82,1.25-4.71,2.8-9.35,3.71-14.14.85-4.48,1.4-9.04,1.64-13.6.25-4.7.27-9.44-.21-14.13-.24-2.34-.89-4.63-1.34-6.94l2.22-1.77c.8,5.96,1.65,11.94,1.58,17.94-.07,6.38-1,12.73-2.1,19.01-.88,5.03-2.24,9.97-3.6,14.89-1.7,6.18-3.56,12.32-5.7,18.36-1.41,3.98-2.98,7.91-4.7,11.77-2.24,5.03-4.6,10.03-7.32,14.81-1.89,3.32-4.27,6.49-6.22,9.62l-2.81-.15Z"/>
  <path id="V" class="cls-8" d="m64.88,128.68c1.07.32,2.69.36,1.67,1.78-.8,2.43-2.05,4.69-2.62,7.21-.51,2.01-.1,4.15-.23,6.21.06,1.52-.54,3.01-.99,4.42-1.29,1.52-2.14,3.52-4.09,4.32-1.11.46-1.85,1.3-2.37,2.37-.83,1.1-.95,2.53-1.41,3.79,1.25,1.38,1.06-.79,1.39-1.69.42-1.15,1.28-2.17,2-3.14,1.21-1.03,2.59-1.74,4.13-2.11,1.05-.28,2,.83,3.01,1.13.81.53.53,1.99.64,2.91-.11,2.32-1.22,4.5-.78,6.85-.16.94.84,2.5-.4,2.88-2.28,1.24-4.8,2.47-6.11,4.81-1.21,1.3-1.41,3.12-1.82,4.76v4.25c-1.26-1.25-2.65-2.54-3.31-4.19-.27-1.26-.36-2.57-.82-3.78-.87.81-1.33,1.85-1.83,2.87-.69,1.42-1.17,2.94-1.54,4.47-.48,1.96-.55,3.99-.9,5.98-.39,2.23-1.51,4.34-1.34,6.66.18.81,2.47.35,3.15,1.25.78,1.03,1.05,2.75.39,3.87-.74,1.26-2.56,1.67-4.02,1.75-1.28.07-2.61-.28-3.66-1.16-.64,2.53-1.27,5.06-2.51,7.37-.76,1.82-1.55,3.66-3.08,4.97-.59.28-2.21,2.44-2.01,1.3,1.18-7.49,2.22-15.02,3.93-22.41,4.15-12.62,8.61-25.15,13.29-37.59,2.89-5.69,5.65-11.45,8.62-17.09,1.21-1.68,2.42-3.35,3.63-5.03h0Z"/>
  <path id="W" class="cls-10" d="m44.93,172.51l5.76,1.92"/>
  <path id="X" class="cls-10" d="m43.45,175.76l5.76,1.77"/>
  <path id="Y" class="cls-10" d="m42.57,179.01l6.2,1.77"/>
  <path id="Z" class="cls-10" d="m41.53,182.1l6.8,2.07"/>
  <path id="a" class="cls-6" d="m74.62,183.58s2.61.43,3.84.89c1.51.55,2.86,1.46,4.28,2.21,1.19.63,2.37,1.26,3.55,1.92.85.48,1.69.95,2.52,1.48.66.42,1.92,1.33,1.92,1.33,0,0-1.33,2.5-1.77,3.84-.45,1.34-.49,2.78-.89,4.13-.31,1.06-.82,2.06-1.18,3.1-.32.93-.89,2.8-.89,2.8,0,0-.89-1.75-1.63-2.36-.54-.45-1.27-.61-1.92-.89-1.12-.48-2.27-.88-3.4-1.33-1.33-.53-2.69-1.01-3.99-1.62-.76-.35-1.42-.91-2.22-1.18-.57-.19-1.18-.25-1.77-.3-.44-.04-1.33,0-1.33,0,0,0,1.85-4.6,2.66-6.94.81-2.34,2.22-7.08,2.22-7.08h0Z"/>
  <path id="path111" class="cls-8" d="m87.48,200.26c-.24-.59-.48-1.22-.93-1.68-1.55-1.56-3.8-2.23-5.77-3.23-1.72-.87-3.38-2.02-5.26-2.41-1.16-.24-2.39-.17-3.55.08l.89-3.1c1.79-.05,3.64-.14,5.37.33,1.54.42,2.86,1.42,4.27,2.15,1.42.73,2.98,1.24,4.24,2.23.79.62,1.38,1.47,2,2.26.03.04.08.11.08.11l-1.33,3.25Z"/>
  <path id="b" class="cls-20" d="m93.24,189.63c.83-1.61,1.71-3.18,2.36-4.87.65-1.7,1.24-3.44,1.49-5.24,1.03-7.46.48-15.07-.03-22.58-.21-3.17-.66-6.33-1.26-9.44-.5-2.62-1.24-5.18-1.97-7.75"/>
  <path id="c" class="cls-20" d="m96.79,181.96c1.35-2.04,2.93-3.95,4.07-6.11,1.35-2.55,2.31-5.3,3.28-8.02.69-1.94,1.56-3.87,1.8-5.91.08-.7-.09-1.4-.14-2.1"/>
  <path id="d" class="cls-12" d="m212.6,198.34c1.71-.24,3.48-.54,4.97-1.41,3.3-1.91,5.69-5.11,8.17-8,.72-.83,1.28-1.79,1.92-2.69-1.04-.74-2.33-1.2-3.16-2.18-.73-.87-1.16-1.99-1.43-3.09-.98-4.04-.29-8.31-.53-12.46-.12-2.05-.09-4.12-.46-6.14-.24-1.28-.55-2.58-1.13-3.74-1.07-2.15-2.58-4.1-4.27-5.8-.8-.81-1.75-1.47-2.73-2.05-2.64-1.55-5.74-2.19-8.38-3.74-.95-.56-1.63-1.53-2.64-1.97-.7-.3-1.58-.75-2.25-.38-.6.33-.81,1.22-.78,1.9.04.83.59,1.59,1.14,2.2.82.91,2.02,1.39,3.06,2.03,2,1.23,4.19,2.14,6.14,3.46,1.18.8,2.25,1.76,3.34,2.67.72.6,1.41,2.43,2.12,1.82.41-.35-.48-.99-.85-1.38-1.48-1.57-3.46-2.59-5.32-3.69-1.61-.95-3.26-1.87-5.03-2.48-1.77-.61-3.69-1.64-5.49-1.15-.77.21-1.46.87-1.77,1.6-.35.81-.21,1.8.07,2.63.46,1.35,1.5,2.46,2.51,3.46,1.01,1,3.07,2.01,3.46,2.48.19.23-.57.17-.86.24-.88.21-1.91.01-2.67.5-.73.47-1.19,1.32-1.5,2.13-.3.81-.51,1.75-.27,2.59.51,1.75,1.76,2.91,3.4,4.28.33.28-.86.03-1.29.1-.67.11-1.46.04-1.96.49-.64.58-.77,1.58-.89,2.44-.13.94-.1,1.94.22,2.83.45,1.26,1.59,2.12,2.29,3.29.29.49-1.14-.64-1.32,1.08-.11,1.08.37,2.17.84,3.16,1.11,2.32,2.9,4.25,4.54,6.21.88,1.06,1.65,2.32,2.86,3,.88.49,2.12.08,2.97.63.67.44,1.01,1.26,1.42,1.95.6,1,.93,2.15,1.54,3.16h0Z"/>
  <path id="e" class="cls-6" d="m205.21,151.43s2.46,1.27,3.69,1.89c.83.42,2.5,1.26,2.5,1.26l5.33-29.3-6.65-3.1-4.88,29.24Z"/>
  <g id="g117">
    <path id="y" class="cls-6" d="m217.92,89.72c-1.06,1.3-2.27,2.56-2.84,4.17-.36,1.58-.55,3.25-.15,4.85.41.73,1.33.86,2.08.99,1.42.15,2.88-.19,4.28.23.61.14,1.34.2,1.73.74.41-.23.33-.96.51-1.4.31-1.46.61-1.32.95-2.77.14-1.18.32-3.37.3-4.55-.03-.57-.62-1.95-1.28-2.21-.57-.3-1.2-.48-1.75-.81-.63-.27-1.34.08-2,.15-.63.14-1.25.34-1.84.6h0Z"/>
    <path id="z" class="cls-20" d="m214.96,95.03c1.02-.83,2.13-1.57,3.07-2.49.83-.82,1.85-1.58,2.25-2.67.08-.23,0-.49,0-.74"/>
    <path id="_10" data-name="10" class="cls-20" d="m215.7,99.02c1.21-1.18,1.35-1.76,2.19-2.48.85-.73,1.73-1.03,2.84-1.8.9-.63,1.47-1.69,1.88-2.71.28-.72.22-1.93.34-2.31"/>
    <path id="_11" data-name="11" class="cls-14" d="m219.08,99.77c.93-.87.95-1.45,2.12-1.94.79-.33,1.64-.77,2.23-1.43.74-.83,1.26-2.5,1.45-3.02"/>
    <path id="_12" data-name="12" class="cls-6" d="m215.26,99.31c-1.49-.84-3.23,1.4-4.41,2.65-1.19,1.26-1.71,3.02-2.43,4.6-.99,2.16-2.04,4.32-2.61,6.63-.57,2.27-.57,4.65-.79,6.98-.16,1.61-1.74,3.94-.39,4.82.59.38,1.17-1.15,1.86-1,.88.2.7,2.25,1.6,2.18,1-.08.37-2.74,1.37-2.67,1.05.07.07,2.66,1.08,2.96.64.2.96-1.25,1.63-1.18.8.08.83,1.84,1.63,1.77.64-.06.39-1.64,1.03-1.62.9.02.44,2.2,1.33,2.36.76.14,1-1.5,1.77-1.48.87.02,1.05,1.86,1.92,1.77,1.33-.13,1.05-3.52,2.36-3.25,1.09.22-.36,3.11.74,3.25,1.65.2,1.64-2.91,2.26-4.45.67-1.65,1.33-3.33,1.58-5.09.47-3.36.36-6.83-.19-10.17-.29-1.74-.72-3.51-1.6-5.03-.7-1.21-1.61-2.41-2.84-3.07-1.62-.88-3.61-.79-5.44-.95-.48-.04-1.11.34-1.45,0h0Z"/>
    <path id="_13" data-name="13" class="cls-20" d="m206.62,123.88c.17-1.79.2-3.6.47-5.37.32-2.1.73-4.2,1.35-6.23.77-2.52,1.91-4.91,2.95-7.34.37-.86.63-1.78,1.16-2.55.82-1.18,1.79-3.75,3.04-3.05.28.15-.13.62-.23.92-.64,1.94-1.67,3.72-2.37,5.64-.78,2.15-1.53,4.33-2,6.56-.5,2.4-.54,4.88-.86,7.31-.17,1.29-.5,2.18-.57,3.86"/>
    <path id="_14" data-name="14" class="cls-20" d="m212.36,124.92c.32-3.25.57-6.52,1-9.76.25-1.88.56-3.75.93-5.61.53-2.65.89-5.37,1.83-7.91.31-.85.42-2.06,1.25-2.4.37-.15,1.12-.02,1.12.37,0,1.82-1.02,3.31-1.23,5.02-.26,2.08.15,4.2-.02,6.29-.23,2.8-.85,5.56-1.34,8.32-.35,1.97-1.02,3.78-1.14,5.89"/>
    <path id="_15" data-name="15" class="cls-20" d="m218.11,126.28c.34-1.82.78-3.62,1.04-5.46.47-3.23.99-6.49.97-9.75-.02-2.23-.7-4.41-.76-6.64-.03-1.1.08-2.2.2-3.3.05-.46-.16-1.1.22-1.36.3-.22.82-.06,1.1.19,1.17,1.03.83,3.02,1.39,4.48.31.81.85,1.52,1.08,2.35.43,1.58.43,3.26.51,4.9.07,1.4.09,2.81-.04,4.21-.18,1.88-.72,3.71-1.04,5.58-.18,1.04-.38,2.08-.49,3.14"/>
  </g>
  <path id="f" class="cls-17" d="m104.46,222.5c-.7-.04-.14.63-.21,2.09,33.29-.07,66.58.07,99.86,0-.07-1.53-.14-.97-.21-2.5-3.7-.91-7.47-1.4-11.24-1.8-3.51-.37-7.04-.47-10.57-.56-5.36-.14-10.72.02-16.08,0-4.04-.02-8.08-.01-12.12-.12-3.71-.1-7.41-.42-11.11-.47-6.22-.09-12.46-.15-18.67.27-4.34.29-8.67.81-12.95,1.56-2.26.4-5.65,1.43-6.69,1.55h0Z"/>
  <path id="g" class="cls-6" d="m205.48,191.29s-2.01-1.87-2.86-2.94c-1.28-1.62-3.34-5.22-3.34-5.22l-7.63,41.45h7.69l6.13-33.29Z"/>
  <path id="h" class="cls-10" d="m227.72,186.18c2.78,1.8,4.68,4.28,7.38,5.89,2.56,1.53,5.6,2.1,8.23,3.5,1.46.77,3.07,1.44,4.16,2.68.47.53.59,1.29.91,1.91"/>
  <path id="i" class="cls-10" d="m238.58,193.69c2.03-.64,4.09-1.31,6.21-1.53,1.35-.14,2.74-.11,4.07.15,1.15.22,2.67.01,3.3,1.18"/>
  <path id="j" class="cls-6" d="m215.18,207.78s3.72-.49,5.54-1.39c1.87-.92,3.79-2.04,5.44-3.31,2-1.54,3.94-3.92,5.63-5.79.92-1.01,1.66-2.16,2.42-3.29.4-.6,1.13-1.84,1.13-1.84,0,0-5.36-5.18-8.05-6.49-1.32.61-2.02,3.11-3.13,4.58-1.52,2-3.22,3.86-5.16,5.46-.82.68-1.98,1.12-2.99,1.46-1.34.45-2.7.75-3.68,1,.12,1.3.44,1.81.76,2.68.53,1.46,1.04,2.1,1.41,3.61.22.88.67,3.33.67,3.33h0Z"/>
  <path id="k" class="cls-10" d="m214.97,205.8c1.46-.32,2.93-.61,4.33-1.12,1.01-.37,2-.82,2.92-1.39,1.22-.75,2.33-1.67,3.39-2.63,1.24-1.11,2.4-2.32,3.48-3.59,1.69-1.97,3.26-4.03,4.67-6.21"/>
  <path id="l" class="cls-10" d="m167.99,41.6c1.28,3.23,2.68,6.52,3.1,9.98.28,2.31-.84,4.69-.41,6.98.37,1.97,2.02,3.52,2.52,5.47.98,3.81.78,7.84.86,11.78.11,5.11,2.5,7.99,2.43,12.11-.05,2.67-.53,5.47-1.86,7.78-1.08,1.88-2.95,3.25-4.72,4.49"/>
  <path id="m" class="cls-10" d="m171.86,42.09c1.28,3.23,2.68,6.52,3.1,9.98.28,2.31-.84,4.69-.41,6.98.37,1.97,2.02,3.52,2.52,5.47.98,3.81.78,7.84.86,11.78.11,5.11,2.47,7.99,2.43,12.11-.04,3.16-.59,6.45-2.07,9.24-1.36,2.57-4.2,5.13-5.98,6.37"/>
  <path id="n" class="cls-10" d="m176.46,44.38c1.28,3.23,2.68,6.52,3.1,9.98.28,2.31-.61,4.66-.41,6.98.32,3.58,2.06,6.92,2.52,10.48.28,2.13.05,2.51.14,6.45.11,5.11,2.2,6.87,2.41,10.44.16,2.73.06,5.59-.9,8.15-1.27,3.36-4,7.59-6.2,8.83"/>
  <path id="o" class="cls-10" d="m186.48,60.04c-.81,4.27,1.12,6.96,1.85,10.4.48,2.27,1.37,4.46,1.68,6.77.38,2.84-.29,5.78.22,8.6.58,3.21,3.54,5.35,3.16,9.28-.19,2.03-1.7,2.66-2.69,3.89-1.68,2.08-3.98,2.94-4.1,7.09-.11,3.7,1.39,5.03,3.5,5.34,1.56.22,3.04-.5,3.6-3.06.75-3.44-3.59-4.89-3.76-1.04"/>
  <path id="p" class="cls-10" d="m193.29,83.53c.47,4.42,3.26,5.42,3.8,8.01.44,2.46.34,5.01,1.11,7.18.7,1.83,2.41,3.28,2.75,5.21.47,2.62-.2,5.4-1.06,7.92-.54,1.6-1.36,3.19-2.53,4.41-1.41,1.47-3.34,2.53-5.16,3.27"/>
  <path id="q" class="cls-10" d="m123.82,71.57c-1.06,1.29-2.36,2.5-2.88,4.09-.51,1.56-.28,3.29-.1,4.91.47,4.07,1.82,8,3.01,11.92,1.32,4.33,4.19,8.32,4.57,12.8.28,3.29-1.54,2.68-2.27,4.04-.66,1.22-.41,2.19-1.9,3.7"/>
  <path id="r" class="cls-10" d="m118.35,86.18c1.12,3.08,2.57,6.87,3.75,10.34.87,2.58,2.42,5.08,2.46,7.81.04,2.43-.78,4.9-1.99,7.01-1.15,2.02-2.83,3.83-4.8,5.06-1.03.64-2.27,1.14-3.49,1.08-1.34-.07-2.67-.73-3.7-1.59-1.54-1.29-3.19-3.02-3.3-5.03-.11-2.03,1.14-4.22,2.77-5.43,1.17-.88,3.17-1.71,4.32-.81,1.33,1.04,1.6,4.03.26,5.05-.77.59-2.01-1.52-2.77-.92-.96.76-.45,2.74.31,3.65.63.74,1.57,1.44,2.54,1.44,1.34,0,2.56-1.04,3.5-1.99,1.64-1.67,3-3.58,3.36-6.16-.37-3.6-2.07-6.24-4.1-9.05"/>
  <path id="s" class="cls-10" d="m112.74,101.08c2.29-.31,2.07-2.69,3.27-3.9,1.41-1.43,3.07-2.6,4.56-3.92"/>
  <path id="t" class="cls-10" d="m112.14,97.54c1.37-1.21,1.4-1.96,2.25-2.81.88-.89,2.07-1.44,2.9-2.36.86-.96,1.68-2.81,2.09-3.24"/>
  <path id="u" class="cls-10" d="m114.95,100.34c1.13.83,2.42,2.32,2.95,3.84.82,2.32.08,5.07.15,7.38"/>
  <path id="v" class="cls-10" d="m181.14,47.79c1.28,3.23,1.13,6.51,1.64,9.77.38,2.39.06,4.8.85,7.19,2.25,6.84,1.53,10.3,1.68,13.4.15,3,1.22,3.69,2.19,7.5.87,3.4,1.51,4.45,1.33,6.73-.15,1.89-1.23,3.59-1.98,5.33-1.14,2.62-3.3,4.82-3.83,7.66-.74,3.91.79,7.04,3.29,8.97,1.77,1.37,4.67,1.7,6.68.71,2.67-1.3,4.33-4.98,4.69-7.56.5-3.61-4.58-9.1-8.76-6.68"/>
  <g id="use146">
    <path id="_2-2" data-name="2" class="cls-3" d="m185.2,334.75c7.64-3.97,16.12-6.05,23.75-9.91,2.68-1.8,4.31-4.31,5.1-7.42,11.83-30.68,23.66-61.36,35.49-92.04-12.95-.28-25.07-.14-37.6,0,1.45,2.11,4.47,4.96,2.5,7.62-3.33,7.72-4.64,14.49-7.43,22.4-.63,2.22-1.34,4.05-3.83,4.81-.77-2.49-1.08-3.44-1.31-6.05-.83-5.24-2.17-10.47-5.1-15-1.69-3.17-3.28-8.48-4.89-11.7-7.16,1.86-13.6,2.56-21.68,3.13-10.49.29-21.78.35-32.56.63-10.89,0-21.78-1.04-32.67-1.04-5.78-1.46-8.22-1.25-12.74-2.71-1,6.42-1.47,11.42-3.44,17.6-2,3.56-1.31,7.73-2.2,11.62-2.31-1.51-2.31-4.51-3.14-6.9-1.06-3.06-2.95-5.85-2.29-9.44.31-2.94.74-5.83-1.27-8.32-.67-2.18-.31-6.76-3.49-6.67-10.11-.13-20.23-.27-30.34-.4-2.88,5.58-3.54,11.86-3.34,18.06.12,5.01-.74,10.18,1.76,14.77,1.97,5.63,3.74,11.35,7.52,16.08,4.45,6.32,8.18,13.05,11.33,20.1,3.25,6.42,5.46,13.31,9.54,19.29,2.89,4.03,5,8.91,9.64,11.23,3.92,2.66,8.58,7.43,13.6,6.79,23.69-.13,63.03,14.8,89.09,3.46h0Z"/>
  </g>
  <g id="use148">
    <path id="_3-2" data-name="3" class="cls-16" d="m182.42,328.96l-3.25-8.26-4.43-13.28-4.43-15.05-3.25-16.53-1.48-10.33-.3-8.26-.89-8.56-.89-9.45-.3-8.29-15.36-.59h-28.65l-14.06-.66-6.33,21.35-1.77,11.22-.59,5.61-1.48,37.78.89,13.58-.89,10.33.3,1.77,13,8.86,20.97,5.31,24.52.89,20.39-6.2,10.34-5.9-2.66-6.79.59,1.48Z"/>
  </g>
  <g id="use150">
    <path id="_4-2" data-name="4" class="cls-2" d="m174.75,380.46c1.99-2.03,3-4.84,3.67-7.55.86-3.13-1.26-6.2-.4-9.31,1.4-2.45,4.46-3.33,5.92-5.79,1.49-2.24.88-5.11.28-7.55-2.09-2.32,1.94-1.82,3.12-2.37,2.58-1.2,4.5-2.92,5.76-5.18,1.11-3.19-.12-6.73-2.49-9.01-1.66-1.82-3.72-3.34-5.99-4.29-3.08-.43-6.28.03-8.49,2.06-1.58,1.21-3.14,2.79-4.19,5.43-1.1-2.19-3.35-1-4.3.65-1.78,1.8-3.82,3.36-5.67,5.05-1.33,1.77,2.1,2.73,2.72,4.28,3.88,4.75,5.25,10.93,6.55,16.79,1.06,5.66,1.38,11.47.99,17.21-1.07,2.51,1.88,0,2.52-.43h0Z"/>
  </g>
  <g id="use152">
    <path id="_5-2" data-name="5" class="cls-2" d="m132.76,409.06c0-1.35-2.79-4.81-3.32-7.48-.46-2.31.43-4.72.16-7.05-.15-1.29-.58-2.54-.98-3.78-.72-2.22-2.1-4.24-2.56-6.53-.76-3.83-.07-7.81-.22-11.71-.19-5.03-.22-7.24-1.18-11.95-.45-2.22.95-4.25,1.97-6.15.4-.74,1.51-1.13,1.57-1.97.09-1.12-1.09-1.96-1.64-2.93-.57-1-1.05-2.06-1.75-2.97-.61-.78-1.18-1.72-2.1-2.1-1.12-.46-2.55-.58-3.62.04-.41-2.37-.66-2.28-1.15-3.36-1.69-3.74-2.57-8.62-6.13-10.67-2.05-1.18-4.75-.25-7.11.02-3.05.34-6.41.36-8.98,2.04-.85.56-1.33,1.56-1.82,2.45-.98,1.8-1.79,3.74-2.18,5.75-.48,2.42-.83,5.02-.19,7.4.51,1.9,2.41,3.18,3.1,5.02.8,2.14-.03,4.78,1.1,6.77,1.21,2.12,3.81,3.06,5.61,4.71.55.5,1.42.85,1.58,1.58.41,1.9-2.12,3.51-2.05,5.45.11,2.87,2.26,5.29,3.62,7.82.82,1.54,2.09,2.84,2.74,4.46.45,1.13.36,2.42.74,3.57.58,1.74,1.62,3.29,2.36,4.96,1.13,2.57,1.62,5.47,3.19,7.8,1.18,1.75,2.82,3.19,4.54,4.43,1.62,1.17,3.44,2.11,5.33,2.75,3.01,1.01,6.22,1.28,9.37,1.64h0Z"/>
  </g>
  <g id="use154">
    <path id="_6-2" data-name="6" class="cls-12" d="m171.83,382.34c.71-3.23.65-5.98.56-8.98-.12-4.01-.56-8.04-1.47-11.95-.84-3.63-2-7.22-3.66-10.55-1.21-2.44-2.48-5.02-4.55-6.79-2.11-1.8-4.82-3-7.55-3.51-3.06-.58-6.29-.14-9.32.59-2.86.69-5.57,1.99-8.08,3.51-3.37,2.04-6.55,4.51-9.18,7.43-2.04,2.25-4.42,4.65-4.98,7.63-.62,3.28,1.71,6.49,2.05,9.82.25,2.45-.09,4.93,0,7.39.11,2.71.04,5.47.65,8.11.62,2.7,2.58,5.02,3.03,7.75.46,2.87-1.15,5.89-.45,8.71.77,3.09,2.5,6.74,4.92,8.19,2.14,1.42,5.53.22,8.24-.25,5.02-.88,9.82-2.83,14.54-4.74,5.3-2.14,9.28-7.14,12.19-12.06,1.7-2.87,1.51-6.54,2.76-9.64.05-.11.12-.21.17-.32.05-.11.02-.27.12-.34h0Z"/>
  </g>
  <g id="use156">
    <path id="_7-2" data-name="7" class="cls-1" d="m170.78,394.45c.23-1.69-1.51-3.73-2.46-1.34-1.68,2.7-4.35,6.14-6.77,8.27-3.26,3.27-6.85,3.74-10.96,5.53-8.24,3.09-17.29,2.63-25.8,1.07-4.95-1.07-9.61-4.14-11.72-8.86-1.27-1.52-.58-7.22-3.55-5.48-1.96,1.09-2.96,4-2.61,6.1.26,4.38,3.69,7.8,7.26,9.94,7.13,4.09,15.62,4.95,23.67,4.15,6.99-.07,13.88-1.7,20.29-4.43,3.25-1.04,6.27-2.76,8.58-5.3,1.83-2.01,4.8-3.5,4.9-6.56.12-1.1-.46-2.09-.82-3.09h0Z"/>
  </g>
  <g id="use158">
    <path id="_8-2" data-name="8" class="cls-3" d="m170.99,399.04c1.64-3.77-2.08-6.86-.84-10.73-.1-2.99,1.54-6.12,4.13-7.53,4.19-1.91,7.27,2.73,9.08,5.84,2.03,3.5.25,8.02.63,12.12.29,4.81-.38,9.27-3.13,14.05-5.73,4.19-10.74,7.28-17.58,9.06-4.28,1.77-10.15,3.65-14.91,3.76-11.27.96-22.74.95-33.9-1.05-4.4-1.31-9.12-2.13-13-4.69-6.42-4.81-8.82-13.74-7.26-21.39,1.36-3.74,3.5-7.87,7.16-9.77,3.24-1.69,8.52-2.37,8.64,2.81.32,3.36-4.76,4.84-2.85,8.76.82,4.75,4.82,7.98,8.99,9.85,6.5,3.6,14.14,3.95,21.39,3.53,8.27.27,16.34-2.38,23.79-5.73,3.76-2.16,7.31-5.23,9.66-8.87h0Z"/>
  </g>
  <g id="use160">
    <path id="_9-2" data-name="9" class="cls-10" d="m167.23,394.24c-1.45.52-3.44,1.46-5.01.83-1.39-.55-2.34-2.13-2.7-3.58-.8-3.31,1.07-6.72,1.72-10.06.46-2.34.89-4.69,1.54-6.99.36-1.28,1.65-2.5,1.28-3.77-.24-.85-1.33-1.17-2.05-1.69-.86-.62-1.63-1.78-2.69-1.71-.98.07-1.36,1.5-2.27,1.9-.69.3-1.49.17-2.23.3-.62.11-1.44-.06-1.85.41-.74.86-.75,2.38-.23,3.38.09.17.32.21.49.3"/>
  </g>
  <g id="use162">
    <path id="A-2" data-name="A" class="cls-10" d="m151.4,389.86c.15.74.61,1.48.44,2.21-.16.67-.68,1.27-1.26,1.65-.91.58-2.09.56-3.17.71-1.54.22-3.11.33-4.66.3-.99-.03-2.02.01-2.95-.34-.99-.37-1.77-1.17-2.61-1.82-1.08-.83-2.04-1.83-3.13-2.65-.17-.13-.36-.24-.54-.36"/>
  </g>
  <g id="use164">
    <path id="B-2" data-name="B" class="cls-10" d="m150.22,385.34c-.43.68-.65,1.55-1.26,2.1-.95.85-2.21,1.41-3.47,1.59-1.34.2-2.77-.02-4.02-.54-1.36-.57-2.17-2.09-3.51-2.71-.49-.22-1.08-.11-1.57-.31-.67-.27-1.09-.98-1.83-1.16"/>
  </g>
  <g id="use166">
    <path id="C-2" data-name="C" class="cls-18" d="m149.07,384.96c-.66.86-2.23.78-3.41.99-.9.16-1.84.31-2.75.2-1.03-.12-1.97-.59-2.94-.93-.91-.32-1.72-.91-2.69-1.06-.68-.11-1.87.68-2.08.11-.36-.99,2.12-1.01,3.09-1.63.61-.39,1.08-.96,1.73-1.3.5-.26,1.07-.45,1.64-.55.9-.16,1.83-.14,2.74-.07.75.06,1.53.11,2.21.41.49.22.66.46,1.27.96.57.46.84,1.02,1.05,1.61.14.4.39.91.12,1.26h0Z"/>
  </g>
  <g id="use168">
    <path id="D-2" data-name="D" class="cls-10" d="m160.55,387.26c.68.88,1.1,2.03,2,2.69.7.51,1.59.78,2.45.84.88.07,1.75-.27,2.61-.48.76-.19,1.5-.47,2.25-.69"/>
  </g>
  <g id="use170">
    <path id="E-2" data-name="E" class="cls-18" d="m160.86,385.64c.44,1.55,2.95,1.42,4.55,1.64.84.12,1.7-.01,2.54-.16.81-.15,1.8-.14,2.37-.74.34-.35.5-.92.39-1.39-.11-.47-.62-.74-.97-1.08-.58-.56-1.13-1.23-1.87-1.54-.85-.34-1.83-.34-2.74-.23-.7.08-1.44.26-2.02.67-.99.69-2.58,1.67-2.25,2.83h0Z"/>
  </g>
  <g id="g180">
    <g id="use182">
      <path id="w-2" data-name="w" class="cls-5" d="m163.46,361.41c-.27.83-1.23,1.07-1.86,1.57-.46.35-.75,1-1.41,1.02-.74.09-1.63-.02-2.07-.69-.44-.41-1.32-.35-1.33.29-.37.31-1.33.27-1.75.25-1.18-.25-1.73-.77-2.78-1.36-.44-.22-1.1-.39-1.13-.98.18-.65,1.14-.46,1.45-1.04.69-.82,1.1-.95,1.84-1.72.56-.72,1.22-1.5,2.18-1.62,1.14-.18,2.3.09,3.41.35.73.2,1.48.61,1.72,1.38.19.66.63.31.99.88.28.48.51,1,.74,1.51v.08s0,.08,0,.08h0Z"/>
    </g>
    <g id="use184">
      <path id="x-2" data-name="x" class="cls-5" d="m163.46,361.2c-.79.06-1.58.06-2.36.24-.64.18-.87-.6-1.43-.7-.83-.22-1.73-.35-2.58-.17-.55.17-.98.58-1.5.82-.53.36-1.19.44-1.81.3-.69-.05-1.33-.37-2.02-.38-.14,0-.28.06-.42.1"/>
    </g>
  </g>
  <g id="use186">
    <path id="G-2" data-name="G" class="cls-2" d="m157.04,367c-.68.03-1.84.11-2.75.01-.69-.07-1.39-.18-2.03-.43-1.1-.43-2.11-1.09-3.03-1.81-.32-.25-.61-.54-.85-.86-.51-.66-.64-1.6-1.26-2.16-.29-.26-.68-.54-1.07-.5-.46.05-.74.55-1.09.85-.31.26-.54.63-.9.83-.38.21-.83.28-1.26.32-.87.07-1.79.08-2.62-.22-.4-.14-1-.3-1.05-.72-.04-.37.41-.69.76-.83.76-.32,1.73.45,2.48.1,1.12-.52,1.31-2.14,2.26-2.93.46-.38,1.03-.62,1.6-.82.89-.31,1.84-.36,2.78-.56.68-.15,1.35.39,1.92.79.9.64,1.38,1.73,2.2,2.47.69.63,1.48,1.15,2.26,1.67.71.46,1.37,1.07,2.2,1.28.72.18,1.52.14,2.23-.07.54-.16,1.07-.46,1.46-.87.5-.53.55-1.37,1.01-1.93.32-.39.73-.72,1.18-.95.57-.3,1.2-.57,1.84-.54.6.03,1.12.43,1.66.69.39.18.77.39,1.15.6.34.19.68.37,1.02.57.42.25.98.39,1.25.8.22.34.36.83.19,1.21-.12.25-.43.44-.7.44-.64-.01-.96-1.09-1.6-1.08-.58,0-1.02.58-1.42,1-.59.61-.75,1.59-1.4,2.13-.56.46-1.32.61-2,.83-.55.19-1.11.4-1.69.45-.45.03-.89-.09-1.34-.14-.44-.05-.68-.02-1.3-.17-.54.12-1.48.53-2.07.59h0Z"/>
  </g>
  <g id="use188">
    <path id="H-2" data-name="H" class="cls-9" d="m170.83,335.46c-.79-2.27-2.46-4.85-3.95-6.78-2.02-3.15-4.19-6.24-6.42-9.24-1.62-1.61-3.48-3-4.72-4.94-3.6,3.45-7.38,6.7-11.31,9.75-1.36.82,1.46,1.2,2.07,1.81,1.86,1.11,3.64,2.47,5.25,3.91,1.71,1.99,3.81,3.72,4.73,6.25,1.03,2.46,3.66,4.78,5.16,6.96,1.29.67,1.81-1.23,2.71-1.85,2.18-1.93,4.39-3.84,6.48-5.87h0Z"/>
  </g>
  <g id="use190">
    <path id="I-2" data-name="I" class="cls-9" d="m134.64,325.15c-3.05-3.13-6.3-6.1-9.96-8.49-.88-1.34-1.72-1.46-2.5.02-1.72,2.01-3.72,3.83-4.69,6.35-1.26,2.79-2.98,5.3-4.78,7.76,1.33,1.89,2.86,3.67,3.36,5.99.86,2.7,2.2,4.84,3.18,7.49,1.41.1,3.16-.12,4.2,1.1.79.3.31-2.16.61-2.93.12-2.42,1.05-4.72,1.7-7.02,1.88-3.22,2.1-4.91,5.24-7.1.66-.53,2.92-2.73,3.64-3.17h0Z"/>
  </g>
  <g id="use192">
    <path id="J-2" data-name="J" class="cls-12" d="m160.75,342.27c-2.09-3.48-4.7-6.61-6.77-10.11-1.02-1.38-2.52-2.34-3.74-3.54-1.07-1-2.22-1.89-3.53-2.56-1.49-1.02-2.99-2.25-4.85-2.41-1.41-.05-2.91-.43-4.2.35-1.37.85-3.24,1.21-4.46,2.26-2.06,1.55-3.72,2.72-5.34,4.7-1.15,1.96-2.16,4-2.75,6.2-1,2.41-1.24,5.78-1.5,8.34,1.73,1.2,1.42,2.74,2.69,4.1.87.8,1.23,2.44,2.11,2.57,1.35-1.48,3.69-3.95,5.49-4.92,2.33-1.52,4.51-3.32,7.14-4.33,2.2-1.04,4.53-1.77,6.88-2.35,2.27-.09,4.57-.4,6.84-.31,2.02.59,4,1.29,5.98,2h0Z"/>
  </g>
  <g id="use194">
    <path id="K-2" data-name="K" class="cls-9" d="m155.32,314.92l-1.88-7.72-1.25-9.6-1.88-13.57-1.25-11.9-.21-7.72v-7.93l-.63-11.27-.42-7.31-.21-7.51h-28.83l-.84,13.98-1.04,13.78.21,13.78v17.12l.84,9.81,1.67,12.52,1.67,6.26,1.67-1.88,4.18,2.92,3.76,2.71,2.3,2.3,1.25,1.67,3.13-1.25,3.13-.63,2.51.63,1.25.42,3.55-3.55,3.76-2.71,3.55-3.34Z"/>
  </g>
  <g id="use196">
    <path id="L-2" data-name="L" class="cls-10" d="m140.28,323.27l-2.51-14.19-1.46-11.9-1.88-13.57-1.46-13.57-.42-10.23v-14.19l.42-7.31.42-7.93"/>
  </g>
  <g id="use198">
    <path id="M-2" data-name="M" class="cls-10" d="m130.67,230.39l-1.04,18.16.21,19.41,1.67,17.53,1.67,9.18,1.25,9.18,1.04,7.72,1.67,7.93.63,4.38"/>
  </g>
  <g id="use200">
    <path id="_1-15" data-name="1" class="cls-6" d="m142.37,310.75c0-1.84,1.5-3.34,3.34-3.34s3.34,1.5,3.34,3.34-1.5,3.34-3.34,3.34-3.34-1.5-3.34-3.34Z"/>
  </g>
  <g id="use202">
    <path id="_1-16" data-name="1" class="cls-6" d="m140.49,299.06c0-1.84,1.5-3.34,3.34-3.34s3.34,1.5,3.34,3.34-1.5,3.34-3.34,3.34-3.34-1.5-3.34-3.34Z"/>
  </g>
  <g id="use204">
    <path id="_1-17" data-name="1" class="cls-6" d="m138.61,286.33c0-1.84,1.5-3.34,3.34-3.34s3.34,1.5,3.34,3.34-1.5,3.34-3.34,3.34-3.34-1.5-3.34-3.34Z"/>
  </g>
  <g id="use206">
    <path id="_1-18" data-name="1" class="cls-6" d="m137.36,272.76c0-1.84,1.5-3.34,3.34-3.34s3.34,1.5,3.34,3.34-1.5,3.34-3.34,3.34-3.34-1.5-3.34-3.34Z"/>
  </g>
  <g id="use208">
    <path id="_1-19" data-name="1" class="cls-6" d="m119.81,271.93c0-1.84,1.5-3.34,3.34-3.34s3.34,1.5,3.34,3.34-1.5,3.34-3.34,3.34-3.34-1.5-3.34-3.34Z"/>
  </g>
  <g id="use210">
    <path id="_1-20" data-name="1" class="cls-6" d="m120.43,286.12c0-1.84,1.5-3.34,3.34-3.34s3.34,1.5,3.34,3.34-1.5,3.34-3.34,3.34-3.34-1.5-3.34-3.34Z"/>
  </g>
  <g id="use212">
    <path id="_1-21" data-name="1" class="cls-6" d="m122.11,299.27c0-1.84,1.5-3.34,3.34-3.34s3.34,1.5,3.34,3.34-1.5,3.34-3.34,3.34-3.34-1.5-3.34-3.34Z"/>
  </g>
  <g id="use214">
    <path id="_1-22" data-name="1" class="cls-6" d="m124.4,311.59c0-1.84,1.5-3.34,3.34-3.34s3.34,1.5,3.34,3.34-1.5,3.34-3.34,3.34-3.34-1.5-3.34-3.34Z"/>
  </g>
  <g id="use216">
    <path id="_1-23" data-name="1" class="cls-6" d="m137.36,260.03c0-1.84,1.5-3.34,3.34-3.34s3.34,1.5,3.34,3.34-1.5,3.34-3.34,3.34-3.34-1.5-3.34-3.34Z"/>
  </g>
  <g id="use218">
    <path id="_1-24" data-name="1" class="cls-6" d="m136.94,247.72c0-1.84,1.5-3.34,3.34-3.34s3.34,1.5,3.34,3.34-1.5,3.34-3.34,3.34-3.34-1.5-3.34-3.34Z"/>
  </g>
  <g id="use220">
    <path id="_1-25" data-name="1" class="cls-6" d="m137.15,236.45c0-1.84,1.5-3.34,3.34-3.34s3.34,1.5,3.34,3.34-1.5,3.34-3.34,3.34-3.34-1.5-3.34-3.34Z"/>
  </g>
  <g id="use222">
    <path id="_1-26" data-name="1" class="cls-6" d="m121.06,236.65c0-1.84,1.5-3.34,3.34-3.34s3.34,1.5,3.34,3.34-1.5,3.34-3.34,3.34-3.34-1.5-3.34-3.34Z"/>
  </g>
  <g id="use224">
    <path id="_1-27" data-name="1" class="cls-6" d="m120.64,248.55c0-1.84,1.5-3.34,3.34-3.34s3.34,1.5,3.34,3.34-1.5,3.34-3.34,3.34-3.34-1.5-3.34-3.34Z"/>
  </g>
  <g id="use226">
    <path id="_1-28" data-name="1" class="cls-6" d="m120.02,260.03c0-1.84,1.5-3.34,3.34-3.34s3.34,1.5,3.34,3.34-1.5,3.34-3.34,3.34-3.34-1.5-3.34-3.34Z"/>
  </g>
  <path id="path228" class="cls-4" d="m75.17,396.85c-3.64,7.87-7.29,15.74-10.93,23.61-1.37,1.91-1.85-.56-1.75-1.83.19-8.44.38-16.88.57-25.33,1.05.19,3.11,2.54,3.39,1.08,1.29-6.1,1.86-12.33,2.82-18.49-2.42.08-4.93-.16-7.3.12-1.73,1.19-4.13,1.7-4.9,3.86-1.23,1.14-1.01,3.24-.8,4.87.2,1.54.53,2.85,1.89,4.26,1.13,1.3-1.51,2.08-2.16,3.13-2.26,1.83-4.22,3.92-5.83,6.34-1.88,2.61-3.99,5.03-6.02,7.52-1.74-2.2-3.48-4.39-4.81-6.84-1.96-3.63-3.35-7.57-4.55-11.5-.9-4.06-1.88-8.11-1.96-12.28-.45-4.93-.27-9.9.52-14.79.58-3.43,1.51-6.82,2.49-10.15,1.43-3.55,2.66-7.2,4.88-10.36,2.11-3.79,3.03-4.68,5.26-8.41,1.29-2,5.01-6,7.01-7.34,1.09-.92,2.18-1.83,3.26-2.75,2.63,6.41,5.1,12.88,8.34,19.02.29,1.21,2.35,2.84.46,3.52-1.06.89-2.11,1.81-2.61,3.05-.85,2.1-1.1,4.62-.43,6.78.58,1.87,1.94,3.62,3.62,4.63,1.85,1.12,4.25,2.29,6.38,1.15,1.6.09,1.95,1.45,3.5,1.42,2.18-.82,3.02-.62,2.64,1.15.55.8,2.6.51,3.75.61,1.37-.09,2.31-1.69,3.01-2.8,1.04-.94.48-2.95,1.63-3.55,1.13.09,1.89,2.18,2.2,3.36.53,1.38.05,3-.58,4.25-.67,1.11-2.73,2.37-.7,3.21,2.16,1.9,3.87,4.24,6.02,6.16-1.97,1.45-2.59,2.43-4.14,3.25-1.59.84-5.15.63-5.15,1.62.84,1.36.67,2.77.1,4.2-.39,1.99-2.77,2.61-4.4,3.33-.06-1.8.36-3.7-.84-5.23-.77-1.39-2.02-2.78-3.74-2.72-.55,1.29-.58,3.3-.93,4.87-.72,4.47-1.44,8.94-2.16,13.41.99.2,1.97.39,2.95.59h0Z"/>
  <g id="use230">
    <path id="N-2" data-name="N" class="cls-20" d="m75.47,377.96l2.66-15.64"/>
  </g>
  <g id="use232">
    <path id="O-2" data-name="O" class="cls-20" d="m69.26,375.9l2.36-15.94"/>
  </g>
  <g id="use234">
    <path id="P-2" data-name="P" class="cls-20" d="m63.06,420.76l5.91-22.73-2.95-3.54"/>
  </g>
  <g id="use236">
    <path id="Q-2" data-name="Q" class="cls-20" d="m68.97,398.62l2.95-2.07"/>
  </g>
  <g id="use238">
    <path id="R-2" data-name="R" class="cls-15" d="m47.12,372.49c.81.2,1.42.03,2.08-.4.66-.42,1.06-.91,1.24-1.72.18-.82-.02-1.37-.4-2.08-.36-.68-.64-.99-.79-1.6s-.19-1.75-.07-2.29c.12-.54.11-.49.18-.82l.54.12c.54.12,1.51.9,1.72,1.23l.64.99c.42.66.91,1.05,1.72,1.23s1.42.03,2.08-.4c.66-.42,1.06-.91,1.24-1.72.18-.82.03-1.42-.4-2.08-.42-.66-.91-1.05-1.72-1.23s-1.42-.03-2.08.4l-1,.64c-.33.21-1.54.52-2.08.4l-.54-.12c.18-.77.54-2.1.87-2.66.45-.76,1.17-1.45,1.84-1.88s2.54-1.15,2.54-1.15l.06-.27s-2.84-.05-3.38-.17l-1.63-.36c-.54-.12-3.14-1.26-3.14-1.26l-.06.27s1.39,1.45,1.82,2.11.79,1.6.88,2.47c.07.65-.17,2.01-.33,2.78l-.54-.12c-.54-.12-1.51-.9-1.72-1.23l-.64-.99c-.42-.66-.91-1.05-1.72-1.23s-1.42-.03-2.08.4c-.66.42-1.06.91-1.24,1.72-.18.82-.03,1.42.4,2.08.42.66.91,1.05,1.72,1.23s1.42.03,2.08-.4l1-.64c.33-.21,1.54-.52,2.08-.4l.54.12c-.08.38-.06.27-.18.82s-.63,1.57-1.02,2.05-.72.7-1.39,1.12c-.66.42-1.06.91-1.24,1.72-.18.82-.03,1.42.4,2.08.42.66.91,1.05,1.72,1.23h0Z"/>
  </g>
  <g id="use240">
    <path id="S-2" data-name="S" class="cls-6" d="m263.75,225.38c-2.37,10.58-4.06,21.29-5.9,31.97-1.94,9.87-4.52,16.07-5.95,20.21-2.98,8-3.32,8.49-6.71,16.32-2.18,5.38-3.15,9.56-6.19,14.55-1.92,3.64-3.79,7.6-6.45,10.77-2.33,3.24-5.25,7.65-8.26,10.3-2.2,2.52-4.88,4.46-7.68,6.26-1.4,1.18-2.67,2.04-2.51-.47-.67-4.47-1.73-8.91-2.14-13.39.18-6.22.36-12.44,1.24-18.61.41-4.36.92-8.71,2.14-12.93,1.97-8.68,4.23-17.29,6.93-25.77,2.19-6.18,3.98-12.52,6.97-18.38,2.51-5.61,5.63-10.93,8.33-16.44,1.18-1.4,2.09-3.33,3.45-4.39h22.73,0Z"/>
  </g>
  <g id="use242">
    <path id="T-2" data-name="T" class="cls-7" d="m216.39,335.45c-1.15-7.19-2.62-14.4-2.01-21.72.54-14.84,4.03-29.42,8.45-43.54,4.16-12.02,7.93-24.35,14.8-35.17,1.89-3.13,3.4-6.48,5.65-9.38-1.48-.47-2.86-.67-3.49,1.06-2.8,4.27-5.34,8.73-7.71,13.26-2.62,5.42-5.3,10.84-7.22,16.55-1.78,6.45-4.37,12.64-5.95,19.14-2.45,9.2-4.27,18.57-5.95,27.94-.42,6.35-1.27,12.69-.88,19.06.21,4.23,1.36,8.37,1.91,12.57-.17,1.96.94,2.32,1.98.69.14-.16.28-.32.42-.47h0Z"/>
  </g>
  <g id="use244">
    <path id="U-2" data-name="U" class="cls-7" d="m253.03,225.36c-2.5,3.28-4.72,6.74-6.82,10.27-2.4,4.04-4.65,8.18-6.6,12.45-3.28,7.2-6.07,14.63-8.52,22.15-1.16,3.55-1.96,7.21-2.92,10.82-1.25,4.71-2.8,9.35-3.71,14.14-.85,4.48-1.4,9.04-1.64,13.6-.25,4.7-.27,9.44.21,14.13.24,2.34.89,4.63,1.34,6.94l-2.22,1.77c-.8-5.96-1.65-11.94-1.58-17.94.07-6.38,1-12.73,2.1-19.01.88-5.03,2.24-9.97,3.6-14.89,1.7-6.18,3.56-12.32,5.7-18.36,1.41-3.98,2.98-7.91,4.7-11.77,2.24-5.03,4.6-10.03,7.32-14.81,1.89-3.32,4.27-6.49,6.22-9.62l2.81.15Z"/>
  </g>
  <g id="use246">
    <path id="V-2" data-name="V" class="cls-8" d="m231.46,321.29c-1.07-.32-2.69-.36-1.67-1.78.8-2.43,2.05-4.69,2.62-7.21.51-2.01.1-4.15.23-6.21-.06-1.52.54-3.01.99-4.42,1.29-1.52,2.14-3.52,4.09-4.32,1.11-.46,1.85-1.3,2.37-2.37.83-1.1.95-2.53,1.41-3.79-1.25-1.38-1.06.79-1.39,1.69-.42,1.15-1.28,2.17-2,3.14-1.21,1.03-2.59,1.74-4.13,2.11-1.05.28-2-.83-3.01-1.13-.81-.53-.53-1.99-.64-2.91.11-2.32,1.22-4.5.78-6.85.16-.94-.84-2.5.4-2.88,2.28-1.24,4.8-2.47,6.11-4.81,1.21-1.3,1.41-3.12,1.82-4.76v-4.25c1.26,1.25,2.65,2.54,3.31,4.19.27,1.26.36,2.57.82,3.78.87-.81,1.33-1.85,1.83-2.87.69-1.42,1.17-2.94,1.54-4.47.48-1.96.55-3.99.9-5.98.39-2.23,1.51-4.34,1.34-6.66-.18-.81-2.47-.35-3.15-1.25-.78-1.03-1.05-2.75-.39-3.87.74-1.26,2.56-1.67,4.02-1.75,1.28-.07,2.61.28,3.66,1.16.64-2.53,1.27-5.06,2.51-7.37.76-1.82,1.55-3.66,3.08-4.97.59-.28,2.21-2.44,2.01-1.3-1.18,7.49-2.22,15.02-3.93,22.41-4.15,12.62-8.61,25.15-13.29,37.59-2.89,5.69-5.65,11.45-8.62,17.09-1.21,1.68-2.42,3.35-3.63,5.03h0Z"/>
  </g>
  <g id="use248">
    <path id="W-2" data-name="W" class="cls-10" d="m251.41,277.46l-5.76-1.92"/>
  </g>
  <g id="use250">
    <path id="X-2" data-name="X" class="cls-10" d="m252.89,274.21l-5.76-1.77"/>
  </g>
  <g id="use252">
    <path id="Y-2" data-name="Y" class="cls-10" d="m253.77,270.96l-6.2-1.77"/>
  </g>
  <g id="use254">
    <path id="Z-2" data-name="Z" class="cls-10" d="m254.81,267.86l-6.8-2.07"/>
  </g>
  <g id="use256">
    <path id="a-2" data-name="a" class="cls-6" d="m221.72,266.39s-2.61-.43-3.84-.89c-1.51-.55-2.86-1.46-4.28-2.21-1.19-.63-2.37-1.26-3.55-1.92-.85-.48-1.69-.95-2.52-1.48-.66-.42-1.92-1.33-1.92-1.33,0,0,1.33-2.5,1.77-3.84.45-1.34.49-2.78.89-4.13.31-1.06.82-2.06,1.18-3.1.32-.93.89-2.8.89-2.8,0,0,.89,1.75,1.63,2.36.54.45,1.27.61,1.92.89,1.12.48,2.27.88,3.4,1.33,1.33.53,2.69,1.01,3.99,1.62.76.35,1.42.91,2.22,1.18.57.19,1.18.25,1.77.3.44.04,1.33,0,1.33,0,0,0-1.85,4.6-2.66,6.94-.81,2.34-2.22,7.08-2.22,7.08h0Z"/>
  </g>
  <path id="path258" class="cls-8" d="m224.37,256.94c-1.16.26-2.39.32-3.55.08-1.89-.39-3.54-1.53-5.26-2.41-1.96-1-4.21-1.67-5.77-3.23-.45-.45-.69-1.09-.93-1.68l-1.33,3.25s.05.08.08.11c.62.79,1.21,1.64,2,2.26,1.26.99,2.82,1.5,4.24,2.23,1.42.73,2.73,1.73,4.27,2.15,1.73.47,3.58.38,5.37.33l.89-3.1Z"/>
  <g id="use260">
    <path id="b-2" data-name="b" class="cls-20" d="m203.1,260.33c-.83,1.61-1.71,3.18-2.36,4.87-.65,1.7-1.24,3.44-1.49,5.24-1.03,7.46-.48,15.07.03,22.58.21,3.17.66,6.33,1.26,9.44.5,2.62,1.24,5.18,1.97,7.75"/>
  </g>
  <g id="use262">
    <path id="c-2" data-name="c" class="cls-20" d="m199.55,268c-1.35,2.04-2.93,3.95-4.07,6.11-1.35,2.55-2.31,5.3-3.28,8.02-.69,1.94-1.56,3.87-1.8,5.91-.08.7.09,1.4.14,2.1"/>
  </g>
  <g id="use264">
    <path id="d-2" data-name="d" class="cls-12" d="m83.74,251.62c-1.71.24-3.48.54-4.97,1.41-3.3,1.91-5.69,5.11-8.17,8-.72.83-1.28,1.79-1.92,2.69,1.04.74,2.33,1.2,3.16,2.18.73.87,1.16,1.99,1.43,3.09.98,4.04.29,8.31.53,12.46.12,2.05.09,4.12.46,6.14.24,1.28.55,2.58,1.13,3.74,1.07,2.15,2.58,4.1,4.27,5.8.8.81,1.75,1.47,2.73,2.05,2.64,1.55,5.74,2.19,8.38,3.74.95.56,1.63,1.53,2.64,1.97.7.3,1.58.75,2.25.38.6-.33.81-1.22.78-1.9-.04-.83-.59-1.59-1.14-2.2-.82-.91-2.02-1.39-3.06-2.03-2-1.23-4.19-2.14-6.14-3.46-1.18-.8-2.25-1.76-3.34-2.67-.72-.6-1.41-2.43-2.12-1.82-.41.35.48.99.85,1.38,1.48,1.57,3.46,2.59,5.32,3.69,1.61.95,3.26,1.87,5.03,2.48,1.77.61,3.69,1.64,5.49,1.15.77-.21,1.46-.87,1.77-1.6.35-.81.21-1.8-.07-2.63-.46-1.35-1.5-2.46-2.51-3.46-1.01-1-3.07-2.01-3.46-2.48-.19-.23.57-.17.86-.24.88-.21,1.91-.01,2.67-.5.73-.47,1.19-1.32,1.5-2.13.3-.81.51-1.75.27-2.59-.51-1.75-1.76-2.91-3.4-4.28-.33-.28.86-.03,1.29-.1.67-.11,1.46-.04,1.96-.49.64-.58.77-1.58.89-2.44.13-.94.1-1.94-.22-2.83-.45-1.26-1.59-2.12-2.29-3.29-.29-.49,1.14.64,1.32-1.08.11-1.08-.37-2.17-.84-3.16-1.11-2.32-2.9-4.25-4.54-6.21-.88-1.06-1.65-2.32-2.86-3-.88-.49-2.12-.08-2.97-.63-.67-.44-1.01-1.26-1.42-1.95-.6-1-.93-2.15-1.54-3.16h0Z"/>
  </g>
  <g id="use266">
    <path id="e-2" data-name="e" class="cls-6" d="m91.13,298.54s-2.46-1.27-3.69-1.89c-.83-.42-2.5-1.26-2.5-1.26l-5.33,29.3,6.65,3.1,4.88-29.24Z"/>
  </g>
  <g id="g268">
    <g id="use270">
      <path id="y-2" data-name="y" class="cls-6" d="m78.42,360.25c1.06-1.3,2.27-2.56,2.84-4.17.36-1.58.55-3.25.15-4.85-.41-.73-1.33-.86-2.08-.99-1.42-.15-2.88.19-4.28-.23-.61-.14-1.34-.2-1.73-.74-.41.23-.33.96-.51,1.4-.31,1.46-.61,1.32-.95,2.77-.14,1.18-.32,3.37-.3,4.55.03.57.62,1.95,1.28,2.21.57.3,1.2.48,1.75.81.63.27,1.34-.08,2-.15.63-.14,1.25-.34,1.84-.6h0Z"/>
    </g>
    <g id="use272">
      <path id="z-2" data-name="z" class="cls-20" d="m81.38,354.94c-1.02.83-2.13,1.57-3.07,2.49-.83.82-1.85,1.58-2.25,2.67-.08.23,0,.49,0,.74"/>
    </g>
    <g id="use274">
      <path id="_10-2" data-name="10" class="cls-20" d="m80.64,350.95c-1.21,1.18-1.35,1.76-2.19,2.48-.85.73-1.73,1.03-2.84,1.8-.9.63-1.47,1.69-1.88,2.71-.28.72-.22,1.93-.34,2.31"/>
    </g>
    <g id="use276">
      <path id="_11-2" data-name="11" class="cls-14" d="m77.26,350.2c-.93.87-.95,1.45-2.12,1.94-.79.33-1.64.77-2.23,1.43-.74.83-1.26,2.5-1.45,3.02"/>
    </g>
    <g id="use278">
      <path id="_12-2" data-name="12" class="cls-6" d="m81.08,350.66c1.49.84,3.23-1.4,4.41-2.65,1.19-1.26,1.71-3.02,2.43-4.6.99-2.16,2.04-4.32,2.61-6.63.57-2.27.57-4.65.79-6.98.16-1.61,1.74-3.94.39-4.82-.59-.38-1.17,1.15-1.86,1-.88-.2-.7-2.25-1.6-2.18-1,.08-.37,2.74-1.37,2.67-1.05-.07-.07-2.66-1.08-2.96-.64-.2-.96,1.25-1.63,1.18-.8-.08-.83-1.84-1.63-1.77-.64.06-.39,1.64-1.03,1.62-.9-.02-.44-2.2-1.33-2.36-.76-.14-1,1.5-1.77,1.48-.87-.02-1.05-1.86-1.92-1.77-1.33.13-1.05,3.52-2.36,3.25-1.09-.22.36-3.11-.74-3.25-1.65-.2-1.64,2.91-2.26,4.45-.67,1.65-1.33,3.33-1.58,5.09-.47,3.36-.36,6.83.19,10.17.29,1.74.72,3.51,1.6,5.03.7,1.21,1.61,2.41,2.84,3.07,1.62.88,3.61.79,5.44.95.48.04,1.11-.34,1.45,0h0Z"/>
    </g>
    <g id="use280">
      <path id="_13-2" data-name="13" class="cls-20" d="m89.72,326.09c-.17,1.79-.2,3.6-.47,5.37-.32,2.1-.73,4.2-1.35,6.23-.77,2.52-1.91,4.91-2.95,7.34-.37.86-.63,1.78-1.16,2.55-.82,1.18-1.79,3.75-3.04,3.05-.28-.15.13-.62.23-.92.64-1.94,1.67-3.72,2.37-5.64.78-2.15,1.53-4.33,2-6.56.5-2.4.54-4.88.86-7.31.17-1.29.5-2.18.57-3.86"/>
    </g>
    <g id="use282">
      <path id="_14-2" data-name="14" class="cls-20" d="m83.98,325.04c-.32,3.25-.57,6.52-1,9.76-.25,1.88-.56,3.75-.93,5.61-.53,2.65-.89,5.37-1.83,7.91-.31.85-.42,2.06-1.25,2.4-.37.15-1.12.02-1.12-.37,0-1.82,1.02-3.31,1.23-5.02.26-2.08-.15-4.2.02-6.29.23-2.8.85-5.56,1.34-8.32.35-1.97,1.02-3.78,1.14-5.89"/>
    </g>
    <g id="use284">
      <path id="_15-2" data-name="15" class="cls-20" d="m78.23,323.69c-.34,1.82-.78,3.62-1.04,5.46-.47,3.23-.99,6.49-.97,9.75.02,2.23.7,4.41.76,6.64.03,1.1-.08,2.2-.2,3.3-.05.46.16,1.1-.22,1.36-.3.22-.82.06-1.1-.19-1.17-1.03-.83-3.02-1.39-4.48-.31-.81-.85-1.52-1.08-2.35-.43-1.58-.43-3.26-.51-4.9-.07-1.4-.09-2.81.04-4.21.18-1.88.72-3.71,1.04-5.58.18-1.04.38-2.08.49-3.14"/>
    </g>
  </g>
  <g id="use286">
    <path id="f-2" data-name="f" class="cls-17" d="m191.88,227.47c.7.04.14-.63.21-2.09-33.29.07-66.58-.07-99.86,0,.07,1.53.14.97.21,2.5,3.7.91,7.47,1.4,11.24,1.8,3.51.37,7.04.47,10.57.56,5.36.14,10.72-.02,16.08,0,4.04.02,8.08.01,12.12.12,3.71.1,7.41.42,11.11.47,6.22.09,12.46.15,18.67-.27,4.34-.29,8.67-.81,12.95-1.56,2.26-.4,5.65-1.43,6.69-1.55h0Z"/>
  </g>
  <g id="use288">
    <path id="g-2" data-name="g" class="cls-6" d="m90.86,258.68s2.01,1.87,2.86,2.94c1.28,1.62,3.34,5.22,3.34,5.22l7.63-41.45h-7.69l-6.13,33.29Z"/>
  </g>
  <g id="use290">
    <path id="h-2" data-name="h" class="cls-10" d="m68.62,263.79c-2.78-1.8-4.68-4.28-7.38-5.89-2.56-1.53-5.6-2.1-8.23-3.5-1.46-.77-3.07-1.44-4.16-2.68-.47-.53-.59-1.29-.91-1.91"/>
  </g>
  <g id="use292">
    <path id="i-2" data-name="i" class="cls-10" d="m57.76,256.27c-2.03.64-4.09,1.31-6.21,1.53-1.35.14-2.74.11-4.07-.15-1.15-.22-2.67-.01-3.3-1.18"/>
  </g>
  <g id="use294">
    <path id="j-2" data-name="j" class="cls-6" d="m81.16,242.18s-3.72.49-5.54,1.39c-1.87.92-3.79,2.04-5.44,3.31-2,1.54-3.94,3.92-5.63,5.79-.92,1.01-1.66,2.16-2.42,3.29-.4.6-1.13,1.84-1.13,1.84,0,0,5.36,5.18,8.05,6.49,1.32-.61,2.02-3.11,3.13-4.58,1.52-2,3.22-3.86,5.16-5.46.82-.68,1.98-1.12,2.99-1.46,1.34-.45,2.7-.75,3.68-1-.12-1.3-.44-1.81-.76-2.68-.53-1.46-1.04-2.1-1.41-3.61-.22-.88-.67-3.33-.67-3.33h0Z"/>
  </g>
  <g id="use296">
    <path id="k-2" data-name="k" class="cls-10" d="m81.37,244.17c-1.46.32-2.93.61-4.33,1.12-1.01.37-2,.82-2.92,1.39-1.22.75-2.33,1.67-3.39,2.63-1.24,1.11-2.4,2.32-3.48,3.59-1.69,1.97-3.26,4.03-4.67,6.21"/>
  </g>
  <g id="use298">
    <path id="l-2" data-name="l" class="cls-10" d="m128.35,408.36c-1.28-3.23-2.68-6.52-3.1-9.98-.28-2.31.84-4.69.41-6.98-.37-1.97-2.02-3.52-2.52-5.47-.98-3.81-.78-7.84-.86-11.78-.11-5.11-2.5-7.99-2.43-12.11.05-2.67.53-5.47,1.86-7.78,1.08-1.88,2.95-3.25,4.72-4.49"/>
  </g>
  <g id="use300">
    <path id="m-2" data-name="m" class="cls-10" d="m124.48,407.88c-1.28-3.23-2.68-6.52-3.1-9.98-.28-2.31.84-4.69.41-6.98-.37-1.97-2.02-3.52-2.52-5.47-.98-3.81-.78-7.84-.86-11.78-.11-5.11-2.47-7.99-2.43-12.11.04-3.16.59-6.45,2.07-9.24,1.36-2.57,4.2-5.13,5.98-6.37"/>
  </g>
  <g id="use302">
    <path id="n-2" data-name="n" class="cls-10" d="m119.88,405.58c-1.28-3.23-2.68-6.52-3.1-9.98-.28-2.31.61-4.66.41-6.98-.32-3.58-2.06-6.92-2.52-10.48-.28-2.13-.05-2.51-.14-6.45-.11-5.11-2.2-6.87-2.41-10.44-.16-2.73-.06-5.59.9-8.15,1.27-3.36,4-7.59,6.2-8.83"/>
  </g>
  <g id="use304">
    <path id="o-2" data-name="o" class="cls-10" d="m109.86,389.93c.81-4.27-1.12-6.96-1.85-10.4-.48-2.27-1.37-4.46-1.68-6.77-.38-2.84.29-5.78-.22-8.6-.58-3.21-3.54-5.35-3.16-9.28.19-2.03,1.7-2.66,2.69-3.89,1.68-2.08,3.98-2.94,4.1-7.09.11-3.7-1.39-5.03-3.5-5.34-1.56-.22-3.04.5-3.6,3.06-.75,3.44,3.59,4.89,3.76,1.04"/>
  </g>
  <g id="use306">
    <path id="p-2" data-name="p" class="cls-10" d="m103.05,366.44c-.47-4.42-3.26-5.42-3.8-8.01-.44-2.46-.34-5.01-1.11-7.18-.7-1.83-2.41-3.28-2.75-5.21-.47-2.62.2-5.4,1.06-7.92.54-1.6,1.36-3.19,2.53-4.41,1.41-1.47,3.34-2.53,5.16-3.27"/>
  </g>
  <g id="use308">
    <path id="q-2" data-name="q" class="cls-10" d="m172.52,378.4c1.06-1.29,2.36-2.5,2.88-4.09.51-1.56.28-3.29.1-4.91-.47-4.07-1.82-8-3.01-11.92-1.32-4.33-4.19-8.32-4.57-12.8-.28-3.29,1.54-2.68,2.27-4.04.66-1.22.41-2.19,1.9-3.7"/>
  </g>
  <g id="use310">
    <path id="r-2" data-name="r" class="cls-10" d="m177.99,363.79c-1.12-3.08-2.57-6.87-3.75-10.34-.87-2.58-2.42-5.08-2.46-7.81-.04-2.43.78-4.9,1.99-7.01,1.15-2.02,2.83-3.83,4.8-5.06,1.03-.64,2.27-1.14,3.49-1.08,1.34.07,2.67.73,3.7,1.59,1.54,1.29,3.19,3.02,3.3,5.03.11,2.03-1.14,4.22-2.77,5.43-1.17.88-3.17,1.71-4.32.81-1.33-1.04-1.6-4.03-.26-5.05.77-.59,2.01,1.52,2.77.92.96-.76.45-2.74-.31-3.65-.63-.74-1.57-1.44-2.54-1.44-1.34,0-2.56,1.04-3.5,1.99-1.64,1.67-3,3.58-3.36,6.16.37,3.6,2.07,6.24,4.1,9.05"/>
  </g>
  <g id="use312">
    <path id="s-2" data-name="s" class="cls-10" d="m183.6,348.89c-2.29.31-2.07,2.69-3.27,3.9-1.41,1.43-3.07,2.6-4.56,3.92"/>
  </g>
  <g id="use314">
    <path id="t-2" data-name="t" class="cls-10" d="m184.19,352.43c-1.37,1.21-1.4,1.96-2.25,2.81-.88.89-2.07,1.44-2.9,2.36-.86.96-1.68,2.81-2.09,3.24"/>
  </g>
  <g id="use316">
    <path id="u-2" data-name="u" class="cls-10" d="m181.39,349.62c-1.13-.83-2.42-2.32-2.95-3.84-.82-2.32-.08-5.07-.15-7.38"/>
  </g>
  <g id="use318">
    <path id="v-2" data-name="v" class="cls-10" d="m115.2,402.18c-1.28-3.23-1.13-6.51-1.64-9.77-.38-2.39-.06-4.8-.85-7.19-2.25-6.84-1.53-10.3-1.68-13.4-.15-3-1.22-3.69-2.19-7.5-.87-3.4-1.51-4.45-1.33-6.73.15-1.89,1.23-3.59,1.98-5.33,1.14-2.62,3.3-4.82,3.83-7.66.74-3.91-.79-7.04-3.29-8.97-1.77-1.37-4.67-1.7-6.68-.71-2.67,1.3-4.33,4.98-4.69,7.56-.5,3.61,4.58,9.1,8.76,6.68"/>
  </g>
  <text class="cls-21" transform="translate(17.2 56.17) scale(1.01 1)"><tspan x="0" y="0">J</tspan></text>
  <path id="path28-2" data-name="path28" d="m275.53,374.51c1.25.03,2.09-.42,2.92-1.25s1.25-1.67,1.25-2.92-.48-2-1.25-2.92c-.74-.89-1.25-1.25-1.67-2.09s-.84-2.5-.84-3.34v-1.25h.84c.84,0,2.51.83,2.92,1.25l1.25,1.25c.84.83,1.67,1.25,2.92,1.25s2.09-.42,2.92-1.25,1.25-1.67,1.25-2.92-.42-2.09-1.25-2.92-1.67-1.25-2.92-1.25-2.09.42-2.92,1.25l-1.25,1.25c-.42.42-2.09,1.25-2.92,1.25h-.84c.02-1.18.11-3.25.42-4.17.42-1.25,1.25-2.5,2.09-3.34s3.34-2.5,3.34-2.5v-.42s-4.18.83-5.01.83h-2.51c-.84,0-5.01-.83-5.01-.83v.42s2.51,1.67,3.34,2.5,1.67,2.09,2.09,3.34c.31.93.4,2.99.42,4.17h-.84c-.84,0-2.51-.83-2.92-1.25l-1.25-1.25c-.84-.83-1.67-1.25-2.92-1.25s-2.09.42-2.92,1.25-1.25,1.67-1.25,2.92.42,2.09,1.25,2.92,1.67,1.25,2.92,1.25,2.09-.42,2.92-1.25l1.25-1.25c.42-.42,2.09-1.25,2.92-1.25h.84v1.25c0,.83-.42,2.5-.84,3.34s-.84,1.25-1.67,2.09c-.83.83-1.25,1.67-1.25,2.92s.42,2.09,1.25,2.92,1.67,1.25,2.92,1.25"/>
  <text class="cls-21" transform="translate(282.98 394.05) rotate(-180) scale(1.01 1)"><tspan x="0" y="0">J</tspan></text>
  <g id="use49-2" data-name="use49">
    <path id="_0-2" data-name="0" class="cls-11" d="m154.56,66.26c0,1.18-.96,2.14-2.14,2.14-1.18,0-2.14-.96-2.14-2.14h0c0-1.19.96-2.15,2.14-2.15,1.18,0,2.14.96,2.14,2.14h0Z"/>
  </g>
  <path id="path53-2" data-name="path53" class="cls-19" d="m153.16,65.89c0,.33-.26.59-.59.59s-.59-.26-.59-.59.26-.59.59-.59.59.26.59.59Z"/>
  <g id="use49-3" data-name="use49">
    <path id="_0-3" data-name="0" class="cls-11" d="m164.34,385.05c0-1.18.96-2.14,2.14-2.14,1.18,0,2.14.96,2.14,2.14h0c0,1.19-.96,2.15-2.14,2.15-1.18,0-2.14-.96-2.14-2.14h0Z"/>
  </g>
  <path id="path53-3" data-name="path53" class="cls-19" d="m165.74,385.42c0-.33.26-.59.59-.59s.59.26.59.59-.26.59-.59.59-.59-.26-.59-.59Z"/>
  <g id="use49-4" data-name="use49">
    <path id="_0-4" data-name="0" class="cls-11" d="m142.38,383.57c0-1.18.96-2.14,2.14-2.14,1.18,0,2.14.96,2.14,2.14h0c0,1.19-.96,2.15-2.14,2.15-1.18,0-2.14-.96-2.14-2.14h0Z"/>
  </g>
  <path id="path53-4" data-name="path53" class="cls-19" d="m143.79,383.94c0-.33.26-.59.59-.59s.59.26.59.59-.26.59-.59.59-.59-.26-.59-.59Z"/>
</svg>