<?xml version="1.0" encoding="UTF-8"?>
<svg xmlns="http://www.w3.org/2000/svg" viewBox="0 0 300 450">
  <defs>
    <style>
      .cls-1, .cls-2 {
        fill: #f20000;
      }

      .cls-2 {
        font-family: SourceSerifRoman-Semibold, 'Source Serif Variable';
        font-size: 62.32px;
        font-variation-settings: 'wght' 600;
        font-weight: 600;
      }

      .cls-3 {
        fill: #fff;
        stroke: #000;
      }
    </style>
  </defs>
  <g id="Layer_2" data-name="Layer 2">
    <path id="rect6" class="cls-3" d="m25,.45h248.29c13.73,0,24.86,11.14,24.86,24.89v398.22c0,13.75-11.13,24.89-24.86,24.89H25c-13.73,0-24.86-11.14-24.86-24.89V25.34C.14,11.59,11.27.45,25,.45Z"/>
  </g>
  <g id="Layer_1" data-name="Layer 1">
    <text class="cls-2" transform="translate(9.99 67.37) scale(.8 1)"><tspan x="0" y="0">A</tspan></text>
    <text class="cls-2" transform="translate(290.41 383.24) rotate(-180) scale(.8 1)"><tspan x="0" y="0">A</tspan></text>
    <path class="cls-1" d="m151.94,191.51s6.69,11.13,14.48,18.92c7.8,7.79,18.94,14.47,18.94,14.47,0,0-11.14,6.68-18.94,14.47-7.8,7.79-14.48,18.92-14.48,18.92,0,0-6.69-11.13-14.48-18.92-7.8-7.79-18.94-14.47-18.94-14.47,0,0,11.14-6.68,18.94-14.47,7.8-7.79,14.48-18.92,14.48-18.92"/>
    <path class="cls-1" d="m274.29,350.13s2.51,4.17,5.43,7.1,7.1,5.43,7.1,5.43c0,0-4.18,2.5-7.1,5.43s-5.43,7.1-5.43,7.1c0,0-2.51-4.17-5.43-7.1s-7.1-5.43-7.1-5.43c0,0,4.18-2.5,7.1-5.43s5.43-7.1,5.43-7.1"/>
    <path class="cls-1" d="m26.6,74.62s2.51,4.17,5.43,7.1,7.1,5.43,7.1,5.43c0,0-4.18,2.5-7.1,5.43s-5.43,7.1-5.43,7.1c0,0-2.51-4.17-5.43-7.1s-7.1-5.43-7.1-5.43c0,0,4.18-2.5,7.1-5.43s5.43-7.1,5.43-7.1"/>
  </g>
</svg>